<svg width="81" height="74" viewBox="0 0 81 74" fill="none" xmlns="http://www.w3.org/2000/svg">
<path d="M78.5656 25.5289C75.8392 20.9391 71.6542 17.271 66.8211 15.0014C61.9588 12.7237 56.4916 11.8251 51.1752 12.6859C46.03 13.5191 41.1962 15.9872 37.3599 19.4794C35.4388 21.2246 33.7602 23.2506 32.4116 25.469C31.0524 27.7031 29.9761 30.1855 29.443 32.7504C28.8946 35.3925 28.9256 38.3028 30.3548 40.6882C31.8731 43.2049 34.3425 45.1535 37.0391 46.2881C39.7706 47.4325 42.8291 47.9912 45.7794 47.6298C47.0887 47.4686 48.387 47.1665 49.5456 46.5309C50.5775 45.9664 51.5163 45.1943 52.2962 44.3151C53.7621 42.6684 54.9974 40.3371 54.3954 38.0759C54.0849 36.9114 53.2803 35.8722 52.491 34.9814C51.5716 33.9478 50.504 33.017 49.3388 32.2783C48.1895 31.5503 46.8647 31.0679 45.586 30.6234C44.163 30.1324 42.7124 29.7402 41.2358 29.4411C38.287 28.8503 35.2609 28.6265 32.2567 28.7975C29.3233 28.963 26.3315 29.4507 23.5629 30.4456C20.894 31.3994 18.4652 32.8902 16.3226 34.7304C11.552 38.8205 8.47313 44.4229 6.14156 50.1648C5.53823 51.651 4.9816 53.1502 4.44668 54.6618C4.33574 54.9692 4.57043 55.323 4.86807 55.406C5.20073 55.4988 5.50295 55.2949 5.61389 54.9874C7.67213 49.188 10.0968 43.3154 14.1606 38.6019C15.8992 36.5864 17.9039 34.7893 20.1787 33.3996C22.5131 31.9765 25.0563 31.1129 27.7333 30.5813C33.3282 29.4661 39.2417 29.8249 44.6686 31.5895C45.9145 31.9935 47.2066 32.4355 48.3446 33.0914C49.4274 33.7193 50.401 34.5362 51.2636 35.4349C52.0131 36.2206 52.8531 37.2007 53.1733 38.2175C53.4585 39.1118 53.3361 40.024 53.0172 40.919C52.3075 42.8768 50.6335 44.6158 48.7816 45.5719C47.7222 46.1224 46.4693 46.3745 45.2702 46.4787C43.8649 46.6006 42.4415 46.5168 41.0626 46.2512C38.3339 45.7281 35.709 44.6072 33.6345 42.7312C32.6337 41.8316 31.7208 40.7747 31.1205 39.5669C30.5818 38.4765 30.3492 37.2585 30.3221 36.0477C30.2691 33.5323 31.0197 31.0218 32.0509 28.7463C33.0648 26.5098 34.4159 24.4175 36.04 22.5643C39.2642 18.8763 43.5031 16.0605 48.2055 14.6274C53.0457 13.1513 58.2202 13.2725 63.0372 14.8107C67.8367 16.3439 72.1918 19.2447 75.3998 23.1228C76.1804 24.0676 76.8816 25.0716 77.5066 26.1234C77.9124 26.7881 78.964 26.1978 78.5656 25.5289Z" fill="#2882FF"/>
<path d="M1.38294 51.3678C1.44932 51.4141 1.50826 51.4652 1.57284 51.518C1.53296 51.486 1.49488 51.4476 1.455 51.4156C1.85999 51.7786 2.18169 52.2434 2.50133 52.6937C2.84001 53.1632 3.17123 53.6376 3.50065 54.1184C3.68647 54.3925 3.87049 54.673 4.05451 54.9535C4.02388 54.9102 3.99892 54.8686 3.97009 54.8188C4.18473 55.1426 4.38266 55.4826 4.60476 55.8015C4.87294 56.1958 5.34705 56.3767 5.79579 56.1893C6.11362 56.0558 6.4021 55.8307 6.70423 55.6441C6.97832 55.4706 7.25628 55.305 7.5363 55.154C7.85361 54.9786 8.17477 54.8112 8.49234 54.6568C8.44374 54.6779 8.4008 54.7007 8.3504 54.7283C9.22469 54.3055 10.1188 53.9646 11.0346 53.6993C11.2931 53.6255 11.5572 53.5534 11.8251 53.4892C11.9676 53.4595 12.118 53.314 12.1933 53.1752C12.2761 53.0317 12.3166 52.8207 12.2751 52.6633C12.2336 52.5059 12.1546 52.3519 12.0183 52.2722C11.8763 52.1909 11.7276 52.1772 11.5646 52.2151C9.87802 52.6196 8.2325 53.2925 6.68765 54.195C6.4768 54.3167 6.26981 54.4465 6.06282 54.5762C5.86149 54.7076 5.66041 54.8598 5.4475 54.9671C5.4961 54.9459 5.53904 54.9232 5.58944 54.8956C5.53338 54.9216 5.47912 54.9412 5.41354 54.9576C5.4642 54.9509 5.51669 54.9378 5.56735 54.9311C5.52235 54.9394 5.47913 54.9412 5.43772 54.9366C5.49045 54.9444 5.54317 54.9521 5.59769 54.9534C5.56194 54.9504 5.52233 54.9394 5.49018 54.9234C5.53931 54.9441 5.58845 54.9648 5.63579 54.9919C5.59797 54.9744 5.56762 54.952 5.53726 54.9296C5.57714 54.9616 5.61522 55 5.6551 55.032C5.58665 54.9712 5.53311 54.9007 5.48138 54.8238C5.51201 54.867 5.53697 54.9087 5.5658 54.9584C4.72599 53.6616 3.89366 52.3599 2.96284 51.1488C2.6952 50.7963 2.39978 50.4778 2.05065 50.2206C1.92922 50.1312 1.73733 50.1193 1.59692 50.1635C1.45651 50.2077 1.30021 50.3307 1.22877 50.4775C1.04115 50.8002 1.11537 51.1681 1.38294 51.3678Z" fill="#2882FF"/>
</svg>
