<svg width="452" height="503" viewBox="0 0 452 503" fill="none" xmlns="http://www.w3.org/2000/svg">
<path d="M47.9732 123.532C42.7355 114.179 29.3998 106.553 20.7388 115.58C9.05078 129.57 28.0234 151.436 42.7552 154.11C61.0957 156.054 54.1576 132.861 48.0798 123.707L47.9711 123.524L47.9732 123.532Z" fill="#FFB3C0" stroke="black" stroke-width="1.02001" stroke-miterlimit="10"/>
<path d="M340.702 193.787C340.702 193.787 353.211 189.755 357.776 186.498C362.341 183.241 362.879 177.659 360.133 174.999C357.379 172.342 349.483 175.81 349.483 175.81C318.128 185.573 302.095 178.994 302.095 178.994L297.4 212.921C297.4 212.921 311.998 218.464 324.67 215.068" fill="#FFB3C0"/>
<path d="M340.702 193.787C340.702 193.787 353.211 189.755 357.776 186.498C362.341 183.241 362.879 177.659 360.133 174.999C357.379 172.342 349.483 175.81 349.483 175.81C318.128 185.573 302.095 178.994 302.095 178.994L297.4 212.921C297.4 212.921 311.998 218.464 324.67 215.068" stroke="black" stroke-width="0.744534" stroke-miterlimit="10"/>
<path d="M337.537 194.635L349.415 190.661C349.415 190.661 356.014 195.122 349.257 200.328C349.257 200.328 331.634 210.717 320.786 210.467C318.526 210.417 316.403 209.165 315.529 207.076C314.573 204.813 315.103 201.71 322.503 199.344C335.647 195.141 337.545 194.633 337.545 194.633L337.537 194.635Z" fill="#FFB3C0" stroke="black" stroke-width="0.744534" stroke-miterlimit="10"/>
<path d="M325.654 209.053C325.654 209.053 315.896 210.681 321.03 216.726C325.495 221.988 344.93 213.377 344.93 213.377C344.93 213.377 353.233 210.13 352.171 203.624C351.635 200.322 349.246 200.332 349.246 200.332L325.646 209.055L325.654 209.053Z" fill="#FFB3C0" stroke="black" stroke-width="0.744534" stroke-miterlimit="10"/>
<path d="M326.749 187.336C326.749 187.336 340.456 197.934 337.472 209.601C337.472 209.601 335.537 217.591 325.803 206.609C316.07 195.627 310.361 197.156 310.361 197.156" fill="#FFB3C0"/>
<path d="M326.749 187.336C326.749 187.336 340.456 197.934 337.472 209.601C337.472 209.601 335.537 217.591 325.803 206.609C316.07 195.627 310.361 197.156 310.361 197.156" stroke="black" stroke-width="0.744534" stroke-miterlimit="10"/>
<path d="M251.469 157.717L292.377 170.71C292.377 170.71 306.818 174.33 308.413 185.875C309.637 194.695 309.224 203.954 302.157 212.323C297.946 217.315 291.577 220 285.058 219.586C281.966 219.384 278.728 219.018 276.687 218.323C268.696 215.622 239.323 207.375 239.323 207.375L251.467 157.709L251.469 157.717Z" fill="#2882FF" stroke="black" stroke-width="0.550955" stroke-miterlimit="10"/>
<path d="M283.457 227.911C283.457 227.911 298.828 234.396 281.503 248.883C281.503 248.883 259.243 233.642 257.4 229.591C255.557 225.541 273.652 225.237 273.652 225.237L283.457 227.911Z" fill="black" stroke="black" stroke-width="0.744534" stroke-miterlimit="10"/>
<path d="M175.299 264.924C193.505 260.174 226.253 253.484 229.518 273.322C232.036 288.594 232.263 308.021 231.707 321.666C231.205 340.973 227.684 354.162 212.88 367.702C206.115 373.548 177.413 385.809 168.867 388.09C155.787 391.74 165.739 387.754 154.986 379.19C147.615 373.787 136.485 358.703 141.979 349.895L142.048 349.801C146.751 343.596 155.949 344.008 162.797 341.109L173.297 337.896L175.305 264.914L175.299 264.924Z" fill="#FFB3C0"/>
<path d="M243.717 253.741C237.421 265.751 233.393 278.761 231.45 285.927C228.978 287.058 226.263 288.134 223.323 289.041C210.056 293.166 187.168 296.831 168.373 284.49C138.051 264.601 154.253 257.23 165.231 255.803C176.126 254.382 174.797 221.601 181.075 211.749C181.159 211.616 181.25 211.481 181.344 211.354C187.93 202.016 203.337 200.159 203.337 200.159L234.179 219.161C234.179 219.161 240.549 237.188 243.735 253.745L243.717 253.741Z" fill="#2882FF" stroke="black" stroke-width="0.744534" stroke-miterlimit="10"/>
<path d="M239.963 226.681L249.338 224.926C260.228 228.825 288.087 250.285 305.408 257.157C324.44 264.703 348.86 276.855 354.957 291.288C365.307 315.78 404.539 380.23 404.539 380.23C404.539 380.23 409.047 405.53 390.533 412.754C390.533 412.754 387.43 418.13 375.921 409.096C364.411 400.062 328.278 361.281 312.541 322.336C312.541 322.336 232.745 297.91 223.434 278.058L239.955 226.683L239.963 226.681Z" fill="#FFB3C0" stroke="black" stroke-width="0.744534" stroke-miterlimit="10"/>
<path d="M282.779 227.604C274.345 226.46 267.46 227.062 260.374 232.373C253.11 237.817 247.879 245.797 243.718 253.737C237.422 265.746 233.394 278.756 231.45 285.923C231.443 285.959 231.434 285.987 231.418 286.025C230.592 289.038 227.337 290.676 224.436 289.504C224.073 289.355 223.702 289.207 223.318 289.046C211.365 283.978 182.828 262.683 173.495 241.475C167.271 227.332 170.147 213.133 174.171 203C177.66 194.202 188.223 189.066 188.223 189.066L215.344 177.255C219.955 184.172 224.571 191.079 229.182 197.995C231.771 201.88 234.347 205.776 236.958 209.646C241.494 216.379 248.189 219.198 255.848 221.23C260.913 222.57 266.031 223.727 271.179 224.679C274.787 225.346 279.834 225.159 282.773 227.614L282.779 227.604Z" fill="#2882FF" stroke="black" stroke-width="0.744534" stroke-miterlimit="10"/>
<path d="M175.837 372.124C175.743 372.728 175.644 373.342 175.511 373.956C171.062 372.186 169.205 370.718 169.205 370.718C158.669 364.172 162.069 346.276 162.069 346.276C162.069 346.276 162.229 344.744 162.323 342.302C162.326 342.216 162.326 342.122 162.329 342.037C162.345 341.59 162.357 341.127 162.361 340.632C165.71 343.479 178.231 355.365 175.835 372.116L175.837 372.124Z" fill="white"/>
<path d="M254.683 474.902L205.807 487.999C179.383 495.079 151.243 485.208 135.276 462.996C134.175 461.461 133.072 459.885 131.982 458.262C127.075 451.033 122.236 442.884 117.864 433.869C117.777 433.671 117.682 433.475 117.584 433.272C109.927 417.334 103.778 398.737 101.41 377.765C92.8622 302.166 128.632 315.422 128.632 315.422L128.676 315.427C128.676 315.427 128.758 315.447 128.824 315.472C129.73 315.774 133.694 317.673 139.274 328.968C141.431 333.335 142.989 337.878 144.252 342.595C144.437 343.285 144.617 343.986 144.786 344.681C144.977 345.396 145.137 346.119 145.305 346.84L145.315 346.879C145.504 347.68 145.687 348.49 145.863 349.303C146.018 350.01 146.168 350.727 146.317 351.444C146.499 352.315 146.674 353.187 146.852 354.075C147.119 355.391 147.379 356.708 147.64 358.034C148.029 360.023 148.434 362.042 148.863 364.089C149.002 364.766 149.151 365.45 149.3 366.133C149.473 366.938 149.648 367.75 149.839 368.558C149.966 369.129 150.102 369.697 150.239 370.272C150.4 370.97 150.569 371.665 150.749 372.365C150.934 373.056 151.105 373.759 151.292 374.458C151.48 375.156 151.675 375.853 151.87 376.55C152.486 378.691 153.161 380.859 153.923 383.037C154.053 383.428 154.191 383.816 154.34 384.21C154.444 384.506 154.547 384.793 154.659 385.086C154.82 385.528 154.989 385.968 155.166 386.406C155.371 386.947 155.583 387.485 155.813 388.028C155.947 388.367 156.09 388.711 156.233 389.056C156.497 389.691 156.777 390.322 157.059 390.962C157.254 391.403 157.459 391.85 157.672 392.295C157.744 392.438 157.808 392.582 157.88 392.724C158.054 393.086 158.233 393.438 158.425 393.804C158.739 394.435 159.078 395.067 159.428 395.705C159.66 396.128 159.897 396.567 160.147 396.993C160.466 397.546 160.794 398.105 161.123 398.663C161.407 399.123 161.687 399.593 161.982 400.059C162.946 401.596 163.963 403.136 165.03 404.671C165.38 405.182 165.747 405.696 166.115 406.21C166.472 406.718 166.848 407.231 167.221 407.735C168.001 408.802 168.804 409.863 169.613 410.915C169.964 411.365 170.324 411.822 170.683 412.27C171.471 413.276 172.264 414.264 173.07 415.239C173.652 415.951 174.24 416.653 174.828 417.355C175.414 418.049 176.008 418.741 176.599 419.425C177.191 420.108 177.778 420.776 178.366 421.444C178.659 421.775 178.951 422.105 179.252 422.432C179.837 423.093 180.418 423.737 180.997 424.373C181.286 424.687 181.574 425.001 181.863 425.316C182.437 425.936 183.002 426.551 183.572 427.155C183.849 427.455 184.133 427.754 184.407 428.046C184.681 428.339 184.963 428.629 185.235 428.914C185.781 429.491 186.323 430.052 186.852 430.599C187.112 430.87 187.38 431.139 187.64 431.409C188.157 431.943 188.66 432.455 189.161 432.959C189.407 433.208 189.652 433.457 189.895 433.698C191.106 434.914 192.229 436.026 193.253 437.019C193.659 437.421 194.048 437.794 194.425 438.152C194.609 438.332 194.791 438.505 194.974 438.677C195.32 439.018 195.651 439.33 195.969 439.628C196.062 439.722 196.161 439.806 196.254 439.9C196.437 440.072 196.619 440.245 196.789 440.403C196.87 440.484 196.949 440.556 197.038 440.634C197.196 440.779 197.346 440.926 197.492 441.057C197.63 441.191 197.766 441.316 197.889 441.428C198.408 441.901 198.746 442.211 198.881 442.336C198.936 442.381 198.958 442.401 198.958 442.401C199.445 442.883 200.052 443.435 200.773 444.059C201.135 444.362 201.521 444.692 201.925 445.026C202.34 445.366 202.775 445.718 203.229 446.081C203.694 446.45 204.169 446.825 204.674 447.217C205.425 447.799 206.227 448.409 207.067 449.035C210.716 451.759 215.141 454.871 219.819 457.975C221.454 459.06 223.121 460.136 224.792 461.195C224.965 461.302 225.141 461.416 225.314 461.523C225.725 461.787 226.142 462.041 226.561 462.304C228.84 463.727 231.125 465.106 233.357 466.388C234.807 467.225 236.23 468.027 237.622 468.777C237.683 468.812 237.741 468.839 237.799 468.866C237.812 468.88 237.822 468.885 237.832 468.891C238.011 468.988 238.19 469.085 238.367 469.173C238.715 469.361 239.053 469.543 239.397 469.714C240.417 470.249 241.41 470.749 242.369 471.215C242.966 471.507 243.559 471.782 244.132 472.045C246.089 472.933 247.891 473.659 249.491 474.166C249.659 474.223 249.826 474.272 249.99 474.313L250.01 474.325C250.01 474.325 250.04 474.342 250.056 474.338C250.214 474.389 250.363 474.435 250.517 474.47C250.645 474.504 250.765 474.54 250.893 474.573C251.076 474.618 251.258 474.663 251.438 474.7C251.618 474.737 251.79 474.776 251.96 474.807C252.454 474.904 252.92 474.958 253.343 474.981C253.472 474.989 253.61 474.994 253.728 474.988C253.754 474.99 253.772 474.993 253.788 474.989C253.889 474.987 253.975 474.99 254.065 474.975C254.158 474.975 254.25 474.967 254.331 474.954C254.449 474.948 254.562 474.926 254.675 474.904L254.683 474.902Z" fill="#FF8663" stroke="black" stroke-width="0.744534" stroke-miterlimit="10"/>
<path d="M195.906 396.916L195.798 396.894L195.906 396.916ZM259.157 465.763C259.137 465.624 259.106 465.445 259.072 465.224C258.341 461.003 254.11 442.386 235.069 435.064C219.359 429.027 208.786 411.956 204.215 403.157C204.215 403.157 197.67 390.988 190.641 384.541L186.338 381.533L175.525 373.954C171.077 372.185 169.22 370.717 169.22 370.717C158.676 364.173 162.083 346.274 162.083 346.274C162.083 346.274 162.245 344.75 162.337 342.3C162.34 342.215 162.334 342.131 162.343 342.035C162.355 341.794 162.359 341.554 162.366 341.297C162.369 341.084 162.369 340.862 162.377 340.639C162.385 340.254 162.388 339.853 162.389 339.444C162.424 332.525 161.664 321.938 157.31 315.344C150.409 304.897 135.477 314.752 135.477 314.752C135.992 314.895 136.497 315.066 136.977 315.269C136.42 315.095 135.905 314.919 135.477 314.752C132.855 313.702 128.635 315.42 128.635 315.42L128.679 315.425C128.679 315.425 128.761 315.445 128.828 315.47C129.734 315.772 133.698 317.671 139.277 328.966C141.434 333.333 142.992 337.876 144.256 342.593C144.441 343.283 144.62 343.984 144.789 344.679C144.981 345.394 145.141 346.117 145.308 346.838L145.319 346.877C145.508 347.678 145.691 348.488 145.866 349.301C146.014 350.01 146.171 350.725 146.321 351.442C146.503 352.313 146.677 353.185 146.856 354.073C147.121 355.381 147.38 356.698 147.644 358.032C148.032 360.021 148.437 362.04 148.866 364.087C149.005 364.764 149.154 365.448 149.303 366.131C149.477 366.936 149.652 367.748 149.843 368.556C149.97 369.127 150.105 369.695 150.243 370.27C150.404 370.968 150.573 371.663 150.752 372.363C150.937 373.054 151.109 373.757 151.296 374.456C151.483 375.154 151.678 375.851 151.873 376.548C152.49 378.689 153.164 380.857 153.927 383.035C154.057 383.426 154.195 383.814 154.343 384.208C154.446 384.496 154.55 384.791 154.663 385.084C154.824 385.526 154.993 385.966 155.17 386.404C155.374 386.945 155.586 387.483 155.817 388.026C155.95 388.364 156.094 388.709 156.237 389.053C156.501 389.689 156.781 390.32 157.063 390.96C157.257 391.401 157.462 391.848 157.675 392.293C157.747 392.436 157.812 392.58 157.884 392.722C158.055 393.076 158.237 393.436 158.428 393.802C158.742 394.433 159.082 395.065 159.431 395.703C159.666 396.134 159.908 396.562 160.151 396.991C160.469 397.544 160.798 398.103 161.126 398.661C161.411 399.121 161.698 399.589 161.985 400.057C162.95 401.594 163.967 403.134 165.034 404.669C165.393 405.185 165.751 405.694 166.118 406.208C166.483 406.714 166.851 407.229 167.224 407.733C168.004 408.8 168.807 409.861 169.617 410.913C169.969 411.371 170.328 411.82 170.686 412.268C171.475 413.274 172.267 414.261 173.073 415.237C173.655 415.949 174.243 416.651 174.831 417.353C175.417 418.047 176.011 418.739 176.603 419.422C177.195 420.106 177.782 420.774 178.369 421.442C178.662 421.773 178.955 422.103 179.255 422.43C179.841 423.091 180.422 423.735 181.001 424.371C181.289 424.685 181.578 424.999 181.866 425.314C182.441 425.934 183.005 426.549 183.576 427.153C183.852 427.453 184.136 427.752 184.41 428.044C184.684 428.337 184.966 428.627 185.238 428.912C185.784 429.489 186.326 430.05 186.856 430.597C187.116 430.868 187.383 431.137 187.643 431.407C188.161 431.941 188.664 432.453 189.165 432.957C189.41 433.206 189.655 433.455 189.899 433.696C191.11 434.912 192.233 436.024 193.257 437.017C193.662 437.419 194.051 437.792 194.428 438.15C194.613 438.33 194.795 438.503 194.977 438.675C195.324 439.016 195.654 439.328 195.972 439.625C196.066 439.72 196.165 439.804 196.258 439.898C196.44 440.07 196.623 440.243 196.793 440.401C196.874 440.482 196.953 440.554 197.042 440.632C197.2 440.777 197.35 440.924 197.496 441.055C197.633 441.189 197.769 441.314 197.893 441.426C198.403 441.902 198.741 442.211 198.885 442.334C198.932 442.381 198.954 442.401 198.954 442.401C199.441 442.883 200.056 443.433 200.776 444.057C201.13 444.362 201.517 444.692 201.929 445.024C202.335 445.367 202.778 445.716 203.233 446.079C203.698 446.448 204.172 446.823 204.677 447.215C205.429 447.797 206.231 448.407 207.071 449.033C210.72 451.757 215.144 454.869 219.822 457.973C221.456 459.05 223.125 460.134 224.795 461.193C224.969 461.3 225.144 461.414 225.317 461.521C225.737 461.783 226.148 462.047 226.565 462.302C228.844 463.725 231.128 465.104 233.361 466.386C234.81 467.223 236.234 468.025 237.626 468.775C237.684 468.802 237.745 468.837 237.797 468.874C237.813 468.87 237.825 468.883 237.835 468.889C238.014 468.986 238.193 469.082 238.37 469.171C238.719 469.359 239.056 469.541 239.4 469.712C240.42 470.247 241.414 470.747 242.373 471.213C242.97 471.504 243.562 471.78 244.135 472.043C246.092 472.931 247.895 473.657 249.494 474.164C249.671 474.219 249.847 474.274 250.013 474.323C250.034 474.335 250.044 474.34 250.06 474.336C250.218 474.387 250.366 474.433 250.52 474.468C250.649 474.502 250.769 474.538 250.897 474.571C251.079 474.616 251.261 474.661 251.441 474.698C251.622 474.735 251.794 474.774 251.964 474.805C252.458 474.902 252.923 474.956 253.346 474.979C253.476 474.986 253.614 474.992 253.731 474.986C253.757 474.988 253.775 474.991 253.791 474.987C253.893 474.985 253.979 474.988 254.068 474.973C254.162 474.973 254.245 474.968 254.335 474.952C254.452 474.946 254.566 474.924 254.679 474.902C254.826 474.88 254.953 474.846 255.076 474.796C262.976 472.109 259.328 466.304 259.192 466.085C259.274 466.106 259.924 466.213 259.149 465.765L259.157 465.763Z" fill="#2882FF"/>
<path d="M195.906 396.916L195.798 396.894M135.477 314.752C135.477 314.752 150.409 304.897 157.31 315.344C161.664 321.938 162.424 332.525 162.389 339.444C162.388 339.853 162.385 340.254 162.377 340.639C162.369 340.862 162.369 341.084 162.366 341.297C162.359 341.554 162.355 341.794 162.343 342.035C162.334 342.131 162.34 342.215 162.337 342.3C162.245 344.75 162.083 346.274 162.083 346.274C162.083 346.274 158.676 364.173 169.22 370.717C169.22 370.717 171.077 372.185 175.525 373.954L186.338 381.533L190.641 384.541C197.67 390.988 204.215 403.157 204.215 403.157C208.786 411.956 219.359 429.027 235.069 435.064C254.11 442.386 258.341 461.003 259.072 465.224C259.106 465.445 259.137 465.624 259.157 465.763L259.149 465.765C259.924 466.213 259.274 466.106 259.192 466.085C259.328 466.304 262.976 472.109 255.076 474.796C254.953 474.846 254.826 474.88 254.679 474.902C254.566 474.924 254.452 474.946 254.335 474.952C254.245 474.968 254.162 474.973 254.068 474.973C253.979 474.988 253.893 474.985 253.791 474.987C253.775 474.991 253.757 474.988 253.731 474.986C253.614 474.992 253.476 474.986 253.346 474.979C252.923 474.956 252.458 474.902 251.964 474.805C251.794 474.774 251.622 474.735 251.441 474.698C251.261 474.661 251.079 474.616 250.897 474.571C250.769 474.538 250.649 474.502 250.52 474.468C250.366 474.433 250.218 474.387 250.06 474.336C250.044 474.34 250.034 474.335 250.013 474.323C249.847 474.274 249.671 474.219 249.494 474.164C247.895 473.657 246.092 472.931 244.135 472.043C243.562 471.78 242.97 471.504 242.373 471.213C241.414 470.747 240.42 470.247 239.4 469.712C239.056 469.541 238.719 469.359 238.37 469.171C238.193 469.082 238.014 468.986 237.835 468.889C237.825 468.883 237.813 468.87 237.797 468.874C237.745 468.837 237.684 468.802 237.626 468.775C236.234 468.025 234.81 467.223 233.361 466.386C231.128 465.104 228.844 463.725 226.565 462.302C226.148 462.047 225.737 461.783 225.317 461.521C225.144 461.414 224.969 461.3 224.795 461.193C223.125 460.134 221.456 459.05 219.822 457.973C215.144 454.869 210.72 451.757 207.071 449.033C206.231 448.407 205.429 447.797 204.677 447.215C204.172 446.823 203.698 446.448 203.233 446.079C202.778 445.716 202.335 445.367 201.929 445.024C201.517 444.692 201.13 444.362 200.776 444.057C200.056 443.433 199.441 442.883 198.954 442.401C198.954 442.401 198.932 442.381 198.885 442.334C198.741 442.211 198.403 441.902 197.893 441.426C197.769 441.314 197.633 441.189 197.496 441.055C197.35 440.924 197.2 440.777 197.042 440.632C196.953 440.554 196.874 440.482 196.793 440.401C196.623 440.243 196.44 440.07 196.258 439.898C196.165 439.804 196.066 439.72 195.972 439.625C195.654 439.328 195.324 439.016 194.977 438.675C194.795 438.503 194.613 438.33 194.428 438.15C194.051 437.792 193.662 437.419 193.257 437.017C192.233 436.024 191.11 434.912 189.899 433.696C189.655 433.455 189.41 433.206 189.165 432.957C188.664 432.453 188.161 431.941 187.643 431.407C187.383 431.137 187.116 430.868 186.856 430.597C186.326 430.05 185.784 429.489 185.238 428.912C184.966 428.627 184.684 428.337 184.41 428.044C184.136 427.752 183.852 427.453 183.576 427.153C183.005 426.549 182.441 425.934 181.866 425.314C181.578 424.999 181.289 424.685 181.001 424.371C180.422 423.735 179.841 423.091 179.255 422.43C178.955 422.103 178.662 421.773 178.369 421.442C177.782 420.774 177.195 420.106 176.603 419.422C176.011 418.739 175.417 418.047 174.831 417.353C174.243 416.651 173.655 415.949 173.073 415.237C172.267 414.261 171.475 413.274 170.686 412.268C170.328 411.82 169.969 411.371 169.617 410.913C168.807 409.861 168.004 408.8 167.224 407.733C166.851 407.229 166.483 406.714 166.118 406.208C165.751 405.694 165.393 405.185 165.034 404.669C163.967 403.134 162.95 401.594 161.985 400.057C161.698 399.589 161.411 399.121 161.126 398.661C160.798 398.103 160.469 397.544 160.151 396.991C159.908 396.562 159.666 396.134 159.431 395.703C159.082 395.065 158.742 394.433 158.428 393.802C158.237 393.436 158.055 393.076 157.884 392.722C157.812 392.58 157.747 392.436 157.675 392.293C157.462 391.848 157.257 391.401 157.063 390.96C156.781 390.32 156.501 389.689 156.237 389.053C156.094 388.709 155.95 388.364 155.817 388.026C155.586 387.483 155.374 386.945 155.17 386.404C154.993 385.966 154.824 385.526 154.663 385.084C154.55 384.791 154.446 384.496 154.343 384.208C154.195 383.814 154.057 383.426 153.927 383.035C153.164 380.857 152.49 378.689 151.873 376.548C151.678 375.851 151.483 375.154 151.296 374.456C151.109 373.757 150.937 373.054 150.752 372.363C150.573 371.663 150.404 370.968 150.243 370.27C150.105 369.695 149.97 369.127 149.843 368.556C149.652 367.748 149.477 366.936 149.303 366.131C149.154 365.448 149.005 364.764 148.866 364.087C148.437 362.04 148.032 360.021 147.644 358.032C147.38 356.698 147.121 355.381 146.856 354.073C146.677 353.185 146.503 352.313 146.321 351.442C146.171 350.725 146.014 350.01 145.866 349.301C145.691 348.488 145.508 347.678 145.319 346.877L145.308 346.838C145.141 346.117 144.981 345.394 144.789 344.679C144.62 343.984 144.441 343.283 144.256 342.593C142.992 337.876 141.434 333.333 139.277 328.966C133.698 317.671 129.734 315.772 128.828 315.47C128.761 315.445 128.679 315.425 128.679 315.425L128.635 315.42C128.635 315.42 132.855 313.702 135.477 314.752ZM135.477 314.752C135.992 314.895 136.497 315.066 136.977 315.269C136.42 315.095 135.905 314.919 135.477 314.752Z" stroke="black" stroke-width="0.744534" stroke-miterlimit="10"/>
<path d="M271.937 110.464C283.676 107.319 290.642 95.2532 287.497 83.5147C284.351 71.7761 272.286 64.8099 260.547 67.9553C248.808 71.1006 241.842 83.1664 244.988 94.9049C248.133 106.643 260.199 113.61 271.937 110.464Z" fill="#FFB3C0"/>
<path d="M258.91 59.0654L258.003 59.6828L257.786 59.826L249.455 65.4792C249.165 64.2379 248.803 63.1095 248.371 62.1019C248.357 62.0463 248.342 61.9907 248.303 61.9415C247.739 60.663 247.059 59.5858 246.257 58.72C240.934 52.9555 230.165 56.3688 212.178 72.387C189.237 92.8133 169.901 94.3608 169.901 94.3608C164.921 95.1165 160.246 94.6927 155.943 93.497C148.459 91.4177 142.076 87.001 137.088 82.3893C129.268 75.1834 124.832 67.4879 124.832 67.4879C124.832 67.4879 114.779 55.9789 120.042 41.0979C125.294 26.211 139.889 27.7381 139.889 27.7381C139.889 27.7381 162.178 30.5732 176.581 45.6738C188.757 58.4351 198.73 51.4483 198.73 51.4483L208.31 45.3414C230.017 31.713 248.605 47.6324 255.761 55.348C257.793 57.5349 258.91 59.0654 258.91 59.0654Z" fill="#280F05"/>
<path d="M284.543 73.9074C284.679 81.9723 278.011 79.3509 266.95 82.4679C266.95 82.4679 263.655 93.6731 262.33 93.9685C261.649 94.1255 261.694 92.105 261.898 90.1017C262.367 85.5 256.908 82.6907 253.49 85.8108C253.443 85.8574 253.388 85.9062 253.333 85.955C251.621 87.5709 251.864 90.2884 252.37 91.3187C255.25 97.21 254.503 97.1209 253.603 100.843C253.172 102.634 252.885 104.643 252.915 106.754C252.946 108.873 227.309 95.0043 240.412 69.683C241.864 66.8772 243.83 64.7505 246.142 63.1863C250.385 60.3135 255.758 59.3758 261.138 59.7299C272.909 60.4989 284.41 66.2332 284.531 73.8936L284.543 73.9074Z" fill="#280F05"/>
<path d="M260.013 57.4418C260.252 58.1775 260.055 58.9963 259.532 59.8086C254.514 59.7235 249.556 60.8477 245.738 63.7173C245.188 63.3797 244.798 62.9396 244.62 62.4003C243.932 60.2784 246.823 57.4443 251.077 56.0748C255.331 54.7052 259.325 55.3199 260.013 57.4418Z" fill="#2882FF" stroke="black" stroke-width="0.722198" stroke-miterlimit="10"/>
<path d="M221.576 98.1863C228.083 95.9833 235.099 94.0269 241.728 95.8076C248.568 97.6425 253.747 103.122 258.222 108.612C268.688 121.44 270.543 134.967 272.05 151.455C273.558 167.943 262.097 203.265 246.973 209.99C244.236 211.208 241.201 212.047 238.246 211.562C233.896 210.856 230.54 207.509 227.09 204.766C220.615 199.625 212.827 196.189 204.677 194.798C196.75 193.45 190.269 194.829 182.6 191.072C179.602 189.603 176.83 187.547 175.022 184.738C171.015 178.518 175.111 174.239 177.135 173.092C179.699 171.639 187.868 170.846 190.079 168.9C190.747 168.313 191.045 167.425 191.301 166.573C191.71 165.238 194.465 158.339 193.23 157.444C191.395 156.123 186.975 160.558 185.708 161.579C180.599 165.662 176.022 170.369 170.887 174.417C163.258 180.435 153.417 185.123 144.015 182.681C133.405 179.925 127.334 168.668 129.368 158.158C130.949 149.99 136.316 147.089 142.918 142.954C166.711 128.06 194.776 107.257 221.568 98.1884L221.576 98.1863Z" fill="#2882FF" stroke="black" stroke-width="0.550955" stroke-miterlimit="10"/>
<path d="M193.568 156.18L222.963 139.232" stroke="#520B44" stroke-width="0.744534" stroke-miterlimit="10"/>
<path d="M367.101 401.62C367.101 401.62 392.212 396.406 395.951 365.008L404.531 380.23C404.531 380.23 411.586 409.383 382.432 416.438L367.099 401.612L367.101 401.62Z" fill="white"/>
<path d="M483.88 308.775C483.94 308.776 483.96 308.788 483.952 308.79C490.314 310.047 498.119 314.755 498.928 330.128C500.312 356.444 482.499 375.079 482.499 375.079L431.482 428.523C422.765 437.658 409.585 440.969 397.584 437.053L397.66 436.922C384.932 433.789 382.255 417.384 382.255 417.384C405.604 399.274 404.854 382.438 402.356 374.036C400.351 367.315 400.858 360.031 403.955 353.738C408.15 345.227 416.462 339.154 432.578 355.82L442.944 348.839C442.944 348.839 450.3 296.354 483.88 308.775Z" fill="#2882FF" stroke="black" stroke-width="0.744534" stroke-miterlimit="10"/>
<path d="M432.569 355.833C432.569 355.833 428.132 372.05 421.907 377.846" stroke="black" stroke-width="0.744534" stroke-miterlimit="10"/>
<path d="M312.543 322.341C312.543 322.341 307.962 313.723 307.241 302.555" stroke="black" stroke-width="0.744534" stroke-miterlimit="10"/>
<path d="M173.422 338.569C173.422 338.569 188.153 333.235 195.359 343.805L173.422 338.569Z" fill="#FFB3C0"/>
<path d="M173.422 338.569C173.422 338.569 188.153 333.235 195.359 343.805" stroke="black" stroke-width="0.744534" stroke-miterlimit="10"/>
<path d="M192.442 193.785C192.442 193.785 174.971 213.061 183.718 237.225C192.464 261.389 232.814 277.987 232.814 277.987" stroke="white" stroke-width="0.744534" stroke-miterlimit="10"/>
<path d="M403.831 438.355C403.831 438.355 426.759 424.867 448.78 399.803C471.408 374.048 497.201 354.644 489.548 311.823" fill="#2882FF"/>
<path d="M403.831 438.355C403.831 438.355 426.759 424.867 448.78 399.803C471.408 374.048 497.201 354.644 489.548 311.823" stroke="black" stroke-width="0.744534" stroke-miterlimit="10"/>
<path d="M386.291 428.126C386.291 428.126 402.856 412.105 421.532 425.278L386.291 428.126Z" fill="#2882FF"/>
<path d="M386.291 428.126C386.291 428.126 402.856 412.105 421.532 425.278" stroke="black" stroke-width="0.744534" stroke-miterlimit="10"/>
<path d="M155.029 182.654C153.652 185.771 151.94 188.783 149.89 191.647C143.22 200.957 133.916 207.424 123.341 210.895C104.541 217.082 81.7556 213.792 62.8374 200.259C45.1301 187.593 34.823 168.816 33.4019 150.238C33.2873 148.762 33.2326 147.287 33.2298 145.816C33.2206 136.381 35.5515 127.136 40.4134 118.89C40.8979 118.062 41.4163 117.234 41.957 116.425C42.2546 115.98 42.568 115.53 42.8836 115.088C48.7901 106.833 56.7681 100.815 65.866 97.135C80.0535 91.3933 96.9387 91.3365 112.861 97.3414L112.877 97.3371C114.675 98.0127 116.46 98.7683 118.225 99.6059C122.242 101.482 126.167 103.775 129.937 106.475C133.549 109.064 136.863 111.904 139.841 114.952C145.984 121.203 150.765 128.313 154.081 135.798C160.865 151.144 161.501 168.095 155.029 182.654Z" fill="#FC5E3B"/>
<path d="M113.383 97.346C113.383 97.346 43.3783 95.1101 52.8988 179.963" stroke="black" stroke-width="0.871105" stroke-miterlimit="10"/>
<path d="M65.7795 96.7154C65.7795 96.7154 68.8297 118.262 111.226 119.471C111.226 119.471 134.323 117.86 149.393 127.097" stroke="black" stroke-width="0.871105" stroke-miterlimit="10"/>
<path d="M40.2285 118.854C40.2285 118.854 119.925 134.491 149.886 191.647" stroke="black" stroke-width="0.871105" stroke-miterlimit="10"/>
<path d="M32.7764 146.1C32.7764 146.1 49.5405 134.698 64.8906 145.682C80.2386 156.657 85.1417 171.716 85.1417 171.716C85.1417 171.716 96.044 202.051 123.364 210.924" stroke="black" stroke-width="0.871105" stroke-miterlimit="10"/>
<path d="M191.302 166.582C191.302 166.582 202.171 149.441 216.867 143.12L191.794 157.208C191.794 157.208 195.996 154.533 191.302 166.582Z" fill="black"/>
<path d="M273.786 439.272C276.996 436.062 277.517 431.378 274.949 428.81C272.381 426.242 267.697 426.763 264.487 429.973C261.277 433.183 260.756 437.867 263.324 440.435C265.892 443.003 270.576 442.482 273.786 439.272Z" fill="white"/>
<path d="M173.495 241.473C173.495 241.473 201.258 289.509 194.033 293.189C194.033 293.189 214.574 293.344 223.319 289.044C223.319 289.044 192.596 275.253 173.495 241.473Z" fill="black" stroke="black" stroke-width="0.744534" stroke-miterlimit="10"/>
<path d="M52.429 105.211C48.1809 114.51 33.3255 150.236 48.9982 176.365C48.9982 176.365 63.739 195.808 72.4377 206.676C68.9244 209.634 8.87215 166.795 42.8851 115.091L49.7199 107.728C50.0568 107.365 52.6307 104.757 52.429 105.211Z" fill="black" stroke="black" stroke-width="0.744534" stroke-miterlimit="10"/>
<path d="M54.6329 178.17C46.4591 174.088 36.8024 174.54 36.8261 184.6C37.0878 193.993 45.3663 210.82 53.377 217.183C60.774 222.97 72.3545 227.603 74.8721 218.674C78.1564 206.603 66.2925 183.828 54.8501 178.282L54.635 178.178L54.6329 178.17Z" fill="#FFB3C0" stroke="black" stroke-width="1.02001" stroke-miterlimit="10"/>
<path d="M88.7479 187.822C76.5681 185.971 72.9267 201.822 74.6234 211.298C75.6627 220.925 84.2671 228.202 93.8312 228.294C101.137 228.566 109.83 224.611 111.668 218.579C115.057 207.025 99.4095 189.978 88.9359 187.857L88.7579 187.828L88.7479 187.822Z" fill="#FFB3C0" stroke="black" stroke-width="1.02001" stroke-miterlimit="10"/>
<path d="M125.799 200.454C123.893 199.629 121.715 199.438 119.693 199.929C117.67 200.411 115.755 201.46 114.557 203.151C111.624 207.29 111.358 209.855 111.834 214.901C111.884 215.407 112.081 215.856 112.358 216.284C112.585 216.623 112.902 216.887 113.22 217.151C113.952 217.755 114.214 218.161 115.146 218.337C119.852 219.229 125.297 218.587 128.47 214.996C130.47 212.741 131.277 209.496 130.578 206.569C129.879 203.641 127.684 201.106 124.878 200.003" fill="#FFB3C0"/>
<path d="M125.799 200.454C123.893 199.629 121.715 199.438 119.693 199.929C117.67 200.411 115.755 201.46 114.557 203.151C111.624 207.29 111.358 209.855 111.834 214.901C111.884 215.407 112.081 215.856 112.358 216.284C112.585 216.623 112.902 216.887 113.22 217.151C113.952 217.755 114.214 218.161 115.146 218.337C119.852 219.229 125.297 218.587 128.47 214.996C130.47 212.741 131.277 209.496 130.578 206.569C129.879 203.641 127.684 201.106 124.878 200.003" stroke="black" stroke-width="1.02001" stroke-miterlimit="10"/>
<path d="M294.536 211.415C294.536 211.415 306.274 205.581 301.512 185.651L294.536 211.415Z" fill="#2882FF"/>
<path d="M294.536 211.415C294.536 211.415 306.274 205.581 301.512 185.651" stroke="black" stroke-width="0.550955" stroke-miterlimit="10"/>
<path d="M155.94 93.4984C148.456 91.4191 142.073 87.0024 137.084 82.3908C141.944 79.4718 148.684 77.5978 154.171 84.2288C157.164 87.8432 157.254 90.9421 155.94 93.4984Z" fill="black" stroke="black" stroke-width="0.744534" stroke-miterlimit="10"/>
<path d="M139.256 67.5457C140.011 65.3282 139.403 63.1155 137.899 62.6035C136.395 62.0914 134.564 63.4739 133.809 65.6914C133.054 67.9089 133.661 70.1216 135.165 70.6337C136.669 71.1457 138.501 69.7632 139.256 67.5457Z" fill="white"/>
<path d="M111.696 140.033C111.696 140.033 99.625 156.942 107.994 160.163C122.282 165.661 121.991 143.01 121.991 143.01C121.991 143.01 120.948 131.878 111.696 140.033Z" fill="white"/>
<path d="M118.139 98.2497C118.139 98.2497 126.981 109.079 123.056 117.296C121.322 120.926 121.505 125.294 124.011 128.452C126.517 131.61 130.19 132.455 135.873 124.542C147.239 108.714 143.421 97.0069 143.421 97.0069C143.421 97.0069 162.957 86.7428 151.081 77.067C139.202 67.3832 128.658 84.9132 128.658 84.9132L121.514 83.9766C121.514 83.9766 114.702 82.0236 113.888 86.9561C113.082 91.8866 118.149 98.2555 118.149 98.2555L118.139 98.2497Z" fill="white"/>
<path d="M246.131 487.034C245.788 484.42 242.568 486.347 240.664 486.831C238.709 487.474 236.343 488.202 234.378 487.826C231.146 486.973 230.691 484.228 231.331 481.154L205.797 487.996C179.374 495.076 151.234 485.205 135.266 462.993C134.166 461.458 133.062 459.882 131.972 458.259L117.854 433.866L117.404 433.076C117.404 433.076 117.48 433.167 117.575 433.269C120.974 437.251 167.281 487.611 202.216 478.25C202.216 478.25 236.802 475.433 233.356 466.383C233.168 465.872 232.892 465.35 232.53 464.826L238.486 468.064L249.988 474.308L250.008 474.32L252.26 475.546L270.528 485.476L245.488 491.147C245.838 489.751 246.076 488.385 246.131 487.034Z" fill="black" stroke="black" stroke-width="0.744534" stroke-miterlimit="10"/>
<path d="M270.712 105.043C273.562 104.279 275.253 101.349 274.49 98.4989C273.726 95.6487 270.796 93.9572 267.946 94.7209C265.096 95.4846 263.404 98.4143 264.168 101.265C264.932 104.115 267.861 105.806 270.712 105.043Z" fill="#280F05"/>
<path d="M312.78 455.801C311.697 463.733 304.803 469.826 300.094 475.973C287.795 490.671 274.85 507.177 255.564 512.566C251.981 513.517 247.331 514.584 244.267 513.023L244.176 512.971C240.475 510.558 241.935 505.308 242.623 501.618C243.397 497.709 244.712 494.327 245.494 491.147C245.843 489.752 246.081 488.386 246.136 487.035C245.793 484.421 242.574 486.347 240.67 486.832C238.714 487.475 236.348 488.203 234.384 487.827C231.151 486.974 230.696 484.228 231.337 481.155C231.685 479.47 232.365 477.688 233.105 476.069C233.72 474.585 235.566 471.563 237.797 468.872C237.797 468.872 237.805 468.87 237.803 468.862C238.03 468.597 238.255 468.324 238.492 468.065C241.227 464.966 244.378 462.624 246.52 464.203C248.222 465.568 249.104 468.829 252.195 468.486C254.342 468.243 256.521 466.91 258.469 465.639C258.67 465.5 258.863 465.363 259.064 465.224C271.013 456.78 282.371 444.351 298.03 443.976C304.971 443.614 313.621 447.951 312.78 455.801Z" fill="white"/>
<path d="M50.2165 93.5371C59.6676 88.8319 82.3841 80.4486 97.642 84.5562" stroke="black" stroke-width="3"/>
<path d="M108.725 443.452C114.115 458.453 130.882 489.319 154.831 492.77" stroke="white" stroke-width="1.35154"/>
<path d="M291.26 219.086C285.442 219.661 264.979 209.313 255.475 204.067L248.007 209.838C255.796 212.372 272.798 217.733 278.493 218.898C284.187 220.063 289.377 219.509 291.26 219.086Z" fill="black"/>
</svg>
