<svg width="63" height="74" viewBox="0 0 63 74" fill="none" xmlns="http://www.w3.org/2000/svg">
<path d="M40.3729 10.3023C38.1769 9.20902 32.5031 12.3569 30.0715 10.1232C29.0253 9.16189 29.7605 7.55966 30.948 6.04226C33.2477 3.10169 36.5087 1.03764 40.1561 0.245952C42.2107 -0.206442 44.2465 -0.0839183 45.6791 1.02822C46.3294 1.53716 49.7035 4.2421 44.7649 11.7066C41.3719 16.8337 39.2136 19.6424 38.1957 20.8959C40.2032 18.5679 46.0749 12.1307 49.1852 12.6208C52.9834 13.224 41.4756 32.3754 41.4756 32.3754C41.4756 32.3754 49.5056 20.7074 53.7374 22.4321C57.9691 24.1569 50.0522 39.133 50.0522 39.133C50.0522 39.133 46.763 47.2761 50.7497 49.4156C50.7497 49.4156 52.1257 51.0084 57.7806 43.836C63.445 36.6731 62.9361 45.9284 62.9361 45.9284C62.9361 45.9284 62.6439 56.9272 51.4 66.3521C38.7047 76.1442 37.9521 63.1481 37.9521 63.1481C37.9521 63.1481 36.9641 56.3081 40.8064 44.6277L42.239 41.4798C39.5906 46.8426 35.0384 55.0045 29.0442 61.7527C29.0442 61.7527 25.6135 66.3898 23.1065 65.1363C20.5995 63.8828 25.3213 55.4663 25.3213 55.4663C25.3213 55.4663 33.7189 39.1801 38.7047 30.0097L28.9028 47.2855C28.9028 47.2855 15.3027 70.9985 8.62988 73.204C4.46408 74.58 1.74028 72.6856 0.873195 71.1211C0.326552 70.1315 -0.361463 69.3209 0.22288 65.0703C1.15594 58.3032 6.5941 48.8124 14.3414 41.018C23.9076 31.4046 34.7651 20.6225 34.7651 20.6225C34.7651 20.6225 40.8536 13.356 41.0138 10.6887L40.3729 10.2835V10.3023Z" fill="black"/>
</svg>
