<svg width="670" height="532" viewBox="0 0 670 532" fill="none" xmlns="http://www.w3.org/2000/svg">
<path d="M73.2904 255.687C53.2645 228.462 48.6012 190.665 61.4094 159.394C70.5633 137.041 90.2711 117.27 114.36 115.497C139.822 113.615 165.293 131.587 189.619 123.833C204.3 119.16 214.708 105.916 221.262 91.9805C227.816 78.036 231.425 62.8643 237.888 48.8835C241.915 40.1659 247.269 31.721 255.169 26.2668C273.577 13.5495 301.629 22.5216 312.856 41.8839C324.073 61.2462 320.101 86.9354 307.047 105.107C292.103 125.905 265.886 140.45 261.687 165.721C258.014 187.828 273.131 208.418 277.049 230.48C282.84 263.078 261.778 296.903 231.88 311.129C201.982 325.355 165.73 321.947 135.904 307.566C106.079 293.185 82.0353 268.914 62.3275 242.307" fill="white"/>
<path d="M84.0684 269.255C84.0684 269.255 93.7404 184.997 155.718 160.771C155.718 160.771 107.703 217.44 103.158 288.344L84.0684 269.255Z" fill="black"/>
<path d="M451.45 458.049C464.24 449.395 481.23 450.222 496.229 453.922C511.228 457.622 525.727 463.849 541.135 465.003C552.598 465.867 564.142 463.867 575.605 464.767C596.395 466.403 616.702 477.475 637.128 473.275C640.846 477.884 613.13 485.138 607.658 487.42C586.068 496.419 550.616 497.392 527.663 492.874C504.71 488.356 506.783 481.929 484.03 476.511C465.458 472.093 456.459 471.948 443.123 485.602C438.76 490.065 420.407 503.155 415.853 507.418C409.853 513.036 382.928 522.745 374.946 524.69C359.375 528.48 276.008 539.216 269.499 521.963C264.69 509.2 351.102 482.211 362.829 479.284C376.21 475.948 391.391 479.584 405.008 479.066C426.034 478.266 435.069 469.13 451.45 458.049Z" fill="black"/>
<path d="M94.5254 354.249C94.5254 354.249 98.1615 397.883 166.339 392.428" stroke="white" stroke-width="1.00218" stroke-miterlimit="10"/>
<path d="M605.946 436.135C579.775 437.062 543.46 432.544 517.289 433.472C488.418 378.53 433.713 270.392 415.978 210.914C435.067 206.896 450.939 201.942 470.028 197.915C493.781 225.431 482.564 241.139 500.108 272.974C518.116 305.635 577.585 413.4 605.937 436.126L605.946 436.135Z" fill="#FFB3C0" stroke="black" stroke-width="0.293971" stroke-miterlimit="10"/>
<path d="M308.315 258.265L213.439 470.141L298.861 455.615L304.179 432.562L372.329 302.707L368.62 228.758L326.341 241.948L308.315 258.265Z" fill="#FFB3C0" stroke="black" stroke-width="0.293971" stroke-miterlimit="10"/>
<path d="M304.945 246.282C293.855 276.862 306.981 260.826 325.516 259.09C338.661 258.199 350.905 265.908 358.632 276.153C361.587 280.034 365.532 282.543 367.123 287.161C369.15 293.161 370.668 294.251 370.668 301.342C370.668 302.56 370.668 304.005 369.777 309.323C371.259 310.068 373.077 309.587 373.968 308.178C376.667 303.924 379.703 294.333 380.722 292.061C385.603 280.261 398.402 243.3 413.701 245.246C418.764 245.864 423.073 250.309 426.237 254.254C428.791 257.472 430.964 260.908 433.327 264.099C439.399 272.607 452.208 316.259 454.326 306.696C456.098 298.715 465.389 290.161 471.17 286.307C476.488 282.761 487.514 281.216 490.678 280.098C497.677 277.544 494.223 276.553 507.522 284.534C516.803 290.106 491.35 234.656 487.132 228.683C477.351 215.321 473.006 203.867 463.198 190.559C457.698 182.977 455.117 171.978 445.054 173.005C440.454 173.296 435.472 174.923 430.864 176.414C413.01 182.523 393.466 183.132 375.122 178.623C369.877 177.414 364.632 175.878 359.405 174.741C353.842 173.505 347.351 172.705 342.479 174.86C332.134 179.45 327.507 193.558 322.871 203.34C318.499 212.566 314.762 222.202 310.835 231.628C307.008 240.819 302.681 250.218 300.791 260.045C300.454 261.772 300.2 263.554 300.473 265.299C300.745 267.044 301.636 268.762 303.145 269.662C304.145 267.826 304.809 266.262 305.809 264.426" fill="#2882FF"/>
<path d="M304.945 246.282C293.855 276.862 306.981 260.826 325.516 259.09C338.661 258.199 350.905 265.908 358.632 276.153C361.587 280.034 365.532 282.543 367.123 287.161C369.15 293.161 370.668 294.251 370.668 301.342C370.668 302.56 370.668 304.005 369.777 309.323C371.259 310.068 373.077 309.587 373.968 308.178C376.667 303.924 379.703 294.333 380.722 292.061C385.603 280.261 398.402 243.3 413.701 245.246C418.764 245.864 423.073 250.309 426.237 254.254C428.791 257.472 430.964 260.908 433.327 264.099C439.399 272.607 452.208 316.259 454.326 306.696C456.098 298.715 465.389 290.161 471.17 286.307C476.488 282.761 487.514 281.216 490.678 280.098C497.677 277.544 494.223 276.553 507.522 284.534C516.803 290.106 491.35 234.656 487.132 228.683C477.351 215.321 473.006 203.867 463.198 190.559C457.698 182.977 455.116 171.978 445.054 173.005C440.454 173.296 435.472 174.923 430.864 176.414C413.01 182.523 393.466 183.132 375.122 178.623C369.877 177.414 364.632 175.878 359.405 174.741C353.842 173.505 347.351 172.705 342.479 174.86C332.134 179.45 327.507 193.558 322.871 203.34C318.499 212.566 314.762 222.202 310.835 231.628C307.008 240.819 302.681 250.218 300.791 260.045C300.454 261.772 300.2 263.554 300.473 265.299C300.745 267.044 301.636 268.762 303.145 269.662C304.145 267.826 304.809 266.262 305.809 264.426" stroke="black" stroke-width="0.303993" stroke-miterlimit="10"/>
<path d="M354.754 248.985C358.536 251.748 362.399 254.603 364.963 258.521C367.526 262.439 368.544 267.729 366.281 271.829C365.854 272.601 365.263 273.365 364.426 273.638C363.899 273.81 363.336 273.783 362.781 273.738C351.718 272.783 341.583 264.757 338.119 254.203C337.137 251.203 336.656 247.921 337.546 244.885C338.11 242.94 339.21 241.194 340.419 239.567C344.191 234.486 349.191 230.323 354.873 227.541C354.873 227.541 373.617 218.023 388.052 226.041C402.487 234.059 404.096 243.685 404.896 255.721L404.378 272.083L360.045 280.946" fill="#FFB3C0"/>
<path d="M354.754 248.985C358.536 251.748 362.399 254.603 364.963 258.521C367.526 262.439 368.544 267.729 366.281 271.829C365.854 272.601 365.263 273.365 364.426 273.638C363.899 273.81 363.336 273.783 362.781 273.738C351.718 272.783 341.583 264.757 338.119 254.203C337.137 251.203 336.656 247.921 337.546 244.885C338.11 242.94 339.21 241.194 340.419 239.567C344.191 234.486 349.191 230.323 354.873 227.541C354.873 227.541 373.617 218.023 388.052 226.041C402.487 234.059 404.096 243.685 404.896 255.721L404.378 272.083L360.045 280.946" stroke="black" stroke-width="0.293971" stroke-miterlimit="10"/>
<path d="M388.163 65.3048C402.004 65.3048 413.224 54.0842 413.224 40.2428C413.224 26.4015 402.004 15.1809 388.163 15.1809C374.321 15.1809 363.101 26.4015 363.101 40.2428C363.101 54.0842 374.321 65.3048 388.163 65.3048Z" fill="#FFB3C0" stroke="black" stroke-width="0.293971" stroke-miterlimit="10"/>
<path d="M375.645 49.6782C373.536 50.0236 370.864 45.4058 368.655 45.3421C366.928 44.9967 365.573 46.2239 365.555 47.951C365.546 50.569 367.673 53.3416 369.819 54.2506C371.191 54.8778 372.709 54.9142 374.127 55.396C376.727 56.0778 378.963 59.6593 378.772 62.5137C378.418 65.3044 375.682 65.0953 373.082 64.2499C369.619 62.9955 366.701 59.8229 364.855 56.6959C362.601 53.078 360.974 48.6964 358.592 45.0967C357.728 43.7604 356.774 42.4696 356.038 41.0606C353.874 36.9881 354.329 29.4159 357.038 25.9525C358.556 24.0345 361.719 23.3709 362.564 20.9711C363.31 18.5167 361.992 15.7532 363.074 13.2534C363.673 11.6353 364.828 10.2263 366.073 9.01732C371.391 4.10856 378.863 -1.21833 386.308 1.92691C391.635 4.30856 398.789 10.0172 397.108 16.3714C396.917 16.7986 396.626 16.8895 396.226 16.8259C394.799 16.4532 391.017 15.5896 385.781 17.0713C380.336 18.7167 374.445 21.9346 371.373 26.4889C370.755 27.9797 371.818 29.3159 372.391 30.734C373.809 33.5975 373.991 37.5427 374.318 40.8243C374.545 43.215 375.564 44.7058 376.245 46.742C376.5 47.7419 376.782 49.1509 375.727 49.6418L375.645 49.6691V49.6782Z" fill="#300A01"/>
<path d="M369.673 58.3925C369.673 58.3925 326.795 46.4478 319.704 72.1552C312.614 97.8625 332.558 162.14 332.558 162.14C332.558 162.14 343.193 200.265 342.312 204.691C341.421 209.128 318.377 217.1 342.312 240.153L394.617 231.29C394.617 231.29 399.053 212.673 382.645 207.791L378.009 186.547C378.009 186.547 396.826 208.682 433.178 194.492L437.614 192.72L441.159 202.473C441.159 202.473 430.96 210.009 441.605 225.081C441.605 225.081 462.44 209.564 480.175 230.844C480.175 230.844 493.474 215.773 473.085 201.583C473.085 201.583 447.377 167.894 443.823 118.243C443.823 118.243 443.823 83.6634 409.243 68.5918L369.673 58.3743V58.3925Z" fill="#2882FF" stroke="black" stroke-width="0.303993" stroke-miterlimit="10"/>
<path d="M378.65 191.405L366.688 96.1025" stroke="#020202" stroke-width="0.327377" stroke-miterlimit="10"/>
<path d="M438.055 193.181C438.055 193.181 432.292 165.256 430.074 153.284C429.037 147.703 427.41 143.53 425.638 113.387" stroke="#020202" stroke-width="0.327377" stroke-miterlimit="10"/>
<path d="M354.754 248.985C358.536 251.748 362.399 254.603 364.963 258.521C367.526 262.439 368.544 267.729 366.281 271.829C365.854 272.601 365.263 273.365 364.426 273.638C363.899 273.81 363.336 273.783 362.781 273.738C351.718 272.783 341.583 264.757 338.119 254.203C337.137 251.203 336.656 247.921 337.546 244.885C338.11 242.94 339.21 241.194 340.419 239.567C344.191 234.486 349.191 230.323 354.873 227.541C354.873 227.541 373.617 218.023 388.052 226.041C388.052 226.041 393.015 228.241 397.806 233.759" fill="#FFB3C0"/>
<path d="M354.754 248.985C358.536 251.748 362.399 254.603 364.963 258.521C367.526 262.439 368.544 267.729 366.281 271.829C365.854 272.601 365.263 273.365 364.426 273.638C363.899 273.81 363.336 273.783 362.781 273.738C351.718 272.783 341.583 264.757 338.119 254.203C337.137 251.203 336.656 247.921 337.546 244.885C338.11 242.94 339.21 241.194 340.419 239.567C344.191 234.486 349.191 230.323 354.873 227.541C354.873 227.541 373.617 218.023 388.052 226.041C388.052 226.041 393.015 228.241 397.806 233.759" stroke="black" stroke-width="0.293971" stroke-miterlimit="10"/>
<path d="M426.974 272.521L441.3 285.256" stroke="black" stroke-width="0.303993" stroke-miterlimit="10"/>
<path d="M408.123 245.803C408.123 245.803 420.322 237.513 421.213 227.759L408.123 245.803Z" fill="#2882FF"/>
<path d="M408.123 245.803C408.123 245.803 420.322 237.513 421.213 227.759" stroke="black" stroke-width="0.303993" stroke-miterlimit="10"/>
<path d="M233.793 424.141L306.979 425.031L293.535 467.11L212.358 469.337L233.793 424.141Z" fill="white"/>
<path d="M507.688 266.577C505.434 295.975 521.933 318.274 545.068 318.219C546.231 318.219 547.395 318.156 548.586 318.038C552.822 317.628 556.967 316.501 560.957 314.774C580.493 306.329 596.101 283.367 598.073 257.733C599.718 236.325 591.41 218.681 577.829 210.699C574.702 208.854 571.293 207.527 567.666 206.791C564.394 206.118 560.93 205.918 557.33 206.254L557.167 206.272C532.214 208.718 510.052 235.716 507.679 266.577H507.688Z" fill="#CD401D" stroke="black" stroke-width="0.177051" stroke-miterlimit="10"/>
<path d="M549.132 310.909C570.058 308.863 588.756 285.319 590.82 258.439C592.883 231.587 577.557 211.379 556.668 213.397C535.706 215.451 516.998 238.986 514.934 265.866C512.871 292.719 528.197 312.927 549.086 310.909H549.132Z" fill="#CD401D" stroke="black" stroke-width="0.177051" stroke-miterlimit="10"/>
<path d="M550.621 291.9C555.939 291.382 560.402 286.691 562.584 283.946C567.574 277.665 570.82 269.065 571.492 260.348C572.165 251.639 570.201 243.549 566.111 238.158C564.32 235.795 560.52 231.913 555.184 232.431C549.839 232.959 545.367 237.649 543.176 240.394C538.185 246.667 534.94 255.266 534.268 263.993C533.595 272.701 535.558 280.792 539.649 286.182C541.44 288.546 545.239 292.427 550.575 291.909H550.621V291.9Z" fill="#CD401D" stroke="black" stroke-width="0.177051" stroke-miterlimit="10"/>
<path d="M541.283 263.26C540.883 268.377 544.347 272.168 549.019 271.713C553.692 271.259 557.8 266.75 558.2 261.623C558.6 256.505 555.137 252.715 550.465 253.169C545.792 253.624 541.683 258.133 541.283 263.26Z" fill="#FC5E3B" stroke="black" stroke-width="0.177051" stroke-miterlimit="10"/>
<path d="M537.677 263.375C537.277 268.493 540.74 272.284 545.413 271.829C550.085 271.375 554.194 266.866 554.594 261.739C554.994 256.612 551.531 252.831 546.858 253.285C542.186 253.74 538.077 258.248 537.677 263.375Z" fill="#FC5E3B" stroke="black" stroke-width="0.177051" stroke-miterlimit="10"/>
<path d="M545.07 318.223L572.804 318.114L579.631 318.086H579.667C604.611 315.677 626.773 289.17 629.173 258.854C631.382 231.047 616.201 209.703 594.439 208.167L593.148 208.094H592.93L567.659 206.785C571.286 207.521 574.695 208.848 577.822 210.694C591.403 218.675 599.711 236.319 598.066 257.727C596.093 283.362 580.485 306.324 560.95 314.768C556.96 316.496 552.815 317.623 548.579 318.032C547.388 318.15 546.215 318.205 545.061 318.214L545.07 318.223Z" fill="#FC5E3B" stroke="black" stroke-width="0.177051" stroke-miterlimit="10"/>
<path d="M541.361 270.12L252.98 273.538V251.448L541.333 253.703C546.533 253.739 550.387 258.548 549.306 263.629C548.506 267.384 545.206 270.074 541.37 270.12H541.361Z" fill="#FC5E3B" stroke="black" stroke-width="0.2305" stroke-miterlimit="10"/>
<path d="M141.975 371.774C140.775 372.51 141.03 374.174 142.33 374.101L207.816 370.765L217.961 370.183C247.632 363.656 286.911 314.896 292.901 258.682C298.564 205.658 282.856 163.025 256.958 156.243L245.332 155.598L178.082 151.871C189.481 155.743 196.571 173.824 198.244 199.795C199.426 217.984 197.935 240.028 193.417 263.754C190.063 281.362 185.39 298.006 179.9 312.796C169.155 341.749 155.283 363.611 141.975 371.765V371.774Z" fill="#FC5E3B" stroke="black" stroke-width="0.2305" stroke-miterlimit="10"/>
<path d="M137.548 374.319C138.848 374.437 140.166 374.446 141.512 374.346C143.866 374.182 146.23 373.71 148.602 372.955C167.737 366.81 187.118 341.894 200.353 308.405C206.271 293.433 210.962 276.744 213.843 259.263C217.725 235.701 217.788 214.093 214.689 196.522C210.271 171.433 199.453 154.588 184.209 152.034C182.282 151.707 180.291 151.607 178.227 151.752C176.709 151.861 175.191 152.089 173.673 152.452C145.193 159.106 115.523 208.503 105.905 266.844C96.224 325.522 110.323 372.055 137.548 374.319Z" fill="#CD401D" stroke="black" stroke-width="0.260565" stroke-miterlimit="10"/>
<path d="M142.364 361.67C143.728 361.542 145.155 361.242 146.609 360.797C161.672 356.061 179.107 333.99 191.006 304.583C196.851 290.147 201.169 274.739 203.842 258.795C207.396 237.569 207.642 217.48 204.542 200.699C200.578 179.2 191.452 165.283 180.134 163.474C178.889 163.274 177.607 163.22 176.289 163.311C176.171 163.311 176.035 163.329 175.889 163.347C175.035 163.429 174.189 163.565 173.353 163.756C162.717 166.192 150.473 177.682 139.728 195.29C127.765 214.889 118.757 240.087 114.375 266.222C109.976 292.456 110.675 316.973 116.33 335.262C121.293 351.307 129.692 360.943 139.374 361.697H139.455C140.228 361.77 141.055 361.77 141.91 361.715C142.064 361.706 142.21 361.697 142.355 361.679L142.364 361.67Z" fill="#CD401D" stroke="black" stroke-width="0.257225" stroke-miterlimit="10"/>
<path d="M143.634 259.551C141.516 270.986 145.57 280.313 152.706 280.386C159.833 280.449 167.332 271.232 169.451 259.787C171.569 248.351 167.514 239.025 160.378 238.952C153.252 238.888 145.752 248.106 143.634 259.551Z" fill="#CD401D" stroke="black" stroke-width="0.213797" stroke-miterlimit="10"/>
<path d="M104.645 275.431L113.062 275.286L144.915 274.713L150.987 274.604C156.086 274.54 160.286 270.586 160.668 265.504C161.104 259.759 156.523 254.869 150.769 254.923L144.796 254.996L116.489 255.341L108.072 255.441" fill="black"/>
<path d="M104.645 275.431L113.062 275.286L144.915 274.713L150.987 274.604C156.086 274.54 160.286 270.586 160.668 265.504C161.104 259.759 156.523 254.869 150.769 254.923L144.796 254.996L116.489 255.341L108.072 255.441" stroke="black" stroke-width="0.300652" stroke-miterlimit="10"/>
<path d="M161.576 259.141C161.194 264.223 156.995 268.177 151.895 268.25L56.1561 269.959C50.1292 270.05 45.3568 264.877 45.9295 258.878C46.4204 253.751 50.6928 249.806 55.847 249.724L151.677 248.56C157.44 248.506 162.012 253.396 161.585 259.141H161.576Z" fill="#FC5E3B" stroke="black" stroke-width="0.300652" stroke-miterlimit="10"/>
<path d="M393.958 253.179C393.958 253.179 393.976 253.124 393.985 253.097C395.467 248.361 401.748 247.17 404.957 250.961C407.184 253.588 408.602 256.715 409.284 259.914C410.375 265.041 409.72 270.387 408.675 275.613C407.802 279.959 405.939 285.004 400.812 286.694C399.712 287.058 398.494 287.231 397.366 287.04C394.503 286.558 393.112 284.076 392.112 281.886" fill="#FFB3C0"/>
<path d="M393.958 253.179C393.958 253.179 393.976 253.124 393.985 253.097C395.467 248.361 401.748 247.17 404.957 250.961C407.184 253.588 408.602 256.715 409.284 259.914C410.375 265.041 409.72 270.387 408.675 275.613C407.802 279.959 405.939 285.004 400.812 286.694C399.712 287.058 398.494 287.231 397.366 287.04C394.503 286.558 393.112 284.076 392.112 281.886" stroke="black" stroke-width="0.293971" stroke-miterlimit="10"/>
<path d="M380.048 254.823C380.72 250.805 385.02 247.46 388.911 248.669C392.465 249.769 394.174 253.723 395.247 257.277C396.765 262.322 397.892 267.586 397.438 272.831C396.974 278.076 394.756 283.357 390.583 286.575C388.902 287.875 386.829 288.839 384.711 288.639C381.066 288.302 378.575 284.766 377.339 281.321" fill="#FFB3C0"/>
<path d="M380.048 254.823C380.72 250.805 385.02 247.46 388.911 248.669C392.465 249.769 394.174 253.723 395.247 257.277C396.765 262.322 397.892 267.586 397.438 272.831C396.974 278.076 394.756 283.357 390.583 286.575C388.902 287.875 386.829 288.839 384.711 288.639C381.066 288.302 378.575 284.766 377.339 281.321" stroke="black" stroke-width="0.293971" stroke-miterlimit="10"/>
<path d="M347.238 268.932C348.575 274.787 350.529 280.759 354.692 285.086C358.856 289.413 365.737 291.631 371.055 288.831C376.382 286.031 378.391 279.505 379.518 273.596C379.909 271.56 380.245 269.514 380.545 267.46C381.109 263.597 381.5 259.579 380.327 255.852C379.154 252.125 376.064 248.752 372.173 248.407C367.428 247.989 363.046 253.006 364.101 257.651" fill="#FFB3C0"/>
<path d="M347.238 268.932C348.575 274.787 350.529 280.759 354.692 285.086C358.856 289.413 365.737 291.631 371.055 288.831C376.382 286.031 378.391 279.505 379.518 273.596C379.909 271.56 380.245 269.514 380.545 267.46C381.109 263.597 381.5 259.579 380.327 255.852C379.154 252.125 376.064 248.752 372.173 248.407C367.428 247.989 363.046 253.006 364.101 257.651" stroke="black" stroke-width="0.293971" stroke-miterlimit="10"/>
<path d="M354.783 248.938C358.564 251.702 362.428 254.556 364.991 258.474C367.555 262.392 368.573 267.683 366.309 271.782C365.882 272.555 365.291 273.319 364.455 273.591C363.928 273.764 363.364 273.737 362.809 273.691C351.747 272.737 341.611 264.71 338.147 254.156C337.166 251.156 336.684 247.875 337.575 244.839" fill="#FFB3C0"/>
<path d="M354.783 248.938C358.564 251.702 362.428 254.556 364.991 258.474C367.555 262.392 368.573 267.683 366.309 271.782C365.882 272.555 365.291 273.319 364.455 273.591C363.928 273.764 363.364 273.737 362.809 273.691C351.747 272.737 341.611 264.71 338.147 254.156C337.166 251.156 336.684 247.875 337.575 244.839" stroke="black" stroke-width="0.293971" stroke-miterlimit="10"/>
<path d="M488.325 273.355C488.97 275.627 491.479 277.064 493.833 276.882C496.188 276.7 498.288 275.146 499.578 273.164C503.751 266.783 502.415 257.856 500.56 250.929C499.124 245.575 497.633 240.766 494.551 236.039C488.643 226.958 479.671 219.377 468.908 217.186C462.708 215.922 456.172 216.586 450.3 218.904C447.664 219.949 443.964 221.477 442.055 223.667C440.146 225.858 439.101 229.249 438.801 232.049C438.373 236.003 439.019 241.966 441.682 245.093C445.1 249.111 450.273 250.893 453.572 255.011C455.918 257.947 457.072 262.156 455.409 265.528C454.527 267.328 452.918 268.764 452.382 270.691C451.5 273.891 454.027 277.227 457.108 278.436C465.044 281.545 472.744 275.355 475.471 268.019C477.616 262.237 476.816 255.692 474.571 249.947C472.317 244.202 468.708 239.112 465.144 234.085" fill="#FFB3C0"/>
<path d="M488.325 273.355C488.97 275.627 491.479 277.064 493.833 276.882C496.188 276.7 498.288 275.146 499.578 273.164C503.751 266.783 502.415 257.856 500.56 250.929C499.124 245.575 497.633 240.766 494.551 236.039C488.643 226.958 479.671 219.377 468.908 217.186C462.708 215.922 456.172 216.586 450.3 218.904C447.664 219.949 443.964 221.477 442.055 223.667C440.146 225.858 439.101 229.249 438.801 232.049C438.373 236.003 439.019 241.966 441.682 245.093C445.1 249.111 450.273 250.893 453.572 255.011C455.918 257.947 457.072 262.156 455.409 265.528C454.527 267.328 452.918 268.764 452.382 270.691C451.5 273.891 454.027 277.227 457.108 278.436C465.044 281.545 472.744 275.355 475.471 268.019C477.616 262.237 476.816 255.692 474.571 249.947C472.317 244.202 468.708 239.112 465.144 234.085" stroke="black" stroke-width="0.293971" stroke-miterlimit="10"/>
<path d="M471.693 274.556C473.284 277.347 476.838 278.683 480.002 278.102C483.165 277.52 485.847 275.274 487.492 272.511C489.129 269.748 489.81 266.511 490.019 263.312C490.71 252.758 486.238 241.986 478.275 235.032" fill="#FFB3C0"/>
<path d="M471.693 274.556C473.284 277.347 476.838 278.683 480.002 278.102C483.165 277.52 485.847 275.274 487.492 272.511C489.129 269.748 489.81 266.511 490.019 263.312C490.71 252.758 486.238 241.986 478.275 235.032" stroke="black" stroke-width="0.293971" stroke-miterlimit="10"/>
<path d="M474.571 249.952C474.571 249.952 481.189 266.15 469.917 275.55L474.571 249.952Z" fill="#FFB3C0"/>
<path d="M474.571 249.952C474.571 249.952 481.189 266.15 469.917 275.55" stroke="black" stroke-width="0.293971" stroke-miterlimit="10"/>
<path d="M444.062 222.143C436.326 228.352 430.89 238.879 430.108 249.142C429.763 253.696 430.572 258.668 433.771 260.568C436.817 262.368 441.089 260.686 444.107 257.659C447.125 254.632 449.17 250.523 451.134 246.524" fill="#FFB3C0"/>
<path d="M444.062 222.143C436.326 228.352 430.89 238.879 430.108 249.142C429.763 253.696 430.572 258.668 433.771 260.568C436.817 262.368 441.089 260.686 444.107 257.659C447.125 254.632 449.17 250.523 451.134 246.524" stroke="black" stroke-width="0.293971" stroke-miterlimit="10"/>
<path d="M497.343 395.801L557.63 372.749L593.136 423.463H510.587L497.343 395.801Z" fill="white"/>
<path d="M665.117 451.28C667.507 447.089 668.853 442.344 668.662 437.171C668.289 427.463 662.281 418.173 653.572 413.864C642.982 408.619 630.437 410.764 618.693 412.037C609.484 413.037 594.494 414.028 587.44 406.41C580.977 399.419 577.959 389.666 570.269 383.084C565.905 379.384 561.297 379.266 559.188 384.829C557.579 388.966 557.551 394.093 556.442 398.501C554.979 405.119 550.679 409.819 544.716 413.982C540.38 417.036 535.198 419.718 531.108 420.518C514.645 423.727 513.945 414.364 508.437 412.2C503.355 410.255 504.873 416.664 504 421.063C501.955 433.699 507.037 452.207 518.699 459.27C525.317 463.842 535.062 464.388 543.352 464.224C554.142 464.297 565.314 464.015 575.714 464.551C590.222 465.642 605.793 467.969 620.374 469.578C631.319 471.169 639.582 470.56 649.563 465.469C655.935 462.251 661.635 457.37 665.117 451.28Z" fill="#2882FF" stroke="black" stroke-width="0.263906" stroke-miterlimit="10"/>
<path d="M654.232 454.726C638.415 461.871 617.808 463.18 600.6 461.762C591.8 460.926 583.31 457.744 574.92 455.526C564.257 452.59 553.167 453.136 541.776 452.399C534.531 451.927 527.232 451.099 520.142 449.69C515.815 449.036 511.079 446.918 508.57 447.827C506.033 449.054 506.079 453.254 506.861 456.081C508.279 461.899 513.524 466.389 519.396 467.871C535.395 472.489 550.303 468.462 569.611 470.053C587.401 470.998 604.627 477.207 622.253 476.725C634.452 476.47 645.742 472.652 656.06 468.562C661.241 466.798 669.013 449.599 669.013 443.654C669.013 439.673 668.013 444.654 665.032 447.636C663.386 449.281 656.66 453.69 654.36 454.672L654.232 454.726Z" fill="#2882FF" stroke="black" stroke-width="0.263906" stroke-miterlimit="10"/>
<path d="M208.212 457.136C206.876 464.235 207.549 470.826 208.649 477.589C210.058 486.461 213.257 494.742 218.748 501.915C221.83 505.932 225.011 511.096 230.129 512.277C232.692 512.823 235.829 512.268 239.983 511.541C243.837 510.859 248.455 510.05 252.755 509.296C260.636 507.814 266.317 507.251 273.335 504.978C281.762 502.087 292.697 497.942 300.87 494.997C307.015 492.852 311.787 490.615 317.596 487.243C326.368 482.343 336.358 476.753 345.285 471.789C352.466 467.235 358.193 467.662 366.02 467.908C369.219 467.981 372.856 468.081 375.992 468.153C379.037 467.999 386.182 469.08 385.818 466.199C384.718 462.763 380.328 458.454 375.274 453.909C363.765 443.446 346.876 443.128 332.395 447.018C328.468 447.873 324.777 449.891 320.823 449.627C318.187 449.373 316.078 447.918 313.896 446.218C310.16 443.182 305.015 438.528 300.588 435.192C295.506 431.456 292.679 428.956 287.798 427.856C276.208 425.865 258.3 430.819 252.218 440.746C246.891 448.636 251.955 452.791 258.227 456.709C259.563 457.627 259.563 458.263 257.763 458.536C254.882 458.945 250.228 457.918 246.982 456.699C224.275 448.564 235.929 425.083 226.82 429.965C219.357 434.537 209.83 446.482 208.258 456.909L208.212 457.163V457.136Z" fill="#2882FF" stroke="black" stroke-width="0.177051" stroke-miterlimit="10"/>
<path d="M292.844 468.174C292.844 468.174 302.807 455.557 319.415 451.566L292.844 468.174Z" fill="#2882FF"/>
<path d="M292.844 468.174C292.844 468.174 302.807 455.557 319.415 451.566" stroke="black" stroke-width="0.177051" stroke-miterlimit="10"/>
<path d="M255.133 523.377C255.133 523.377 309.775 528.286 361.253 516.66C361.253 516.66 385.551 504.406 387.542 487.798C389.533 471.19 364.244 465.836 364.244 465.836L309.111 500.379L263.278 516.323L255.133 523.377Z" fill="#FF8663"/>
<path d="M379.884 500.998C381.056 499.026 382.302 496.698 383.129 494.217C385.311 487.608 385.592 479.181 380.438 474.782C369.412 465.837 323.869 495.198 308.925 503.28C295.235 510.579 285.654 518.379 269.855 521.915C244.902 527.733 220.413 517.088 206.059 503.989C203.95 502.171 202.223 500.025 202.241 497.053V496.926C202.478 492.081 205.723 484.563 210.177 484.981C212.704 485.226 215.013 487.899 219.495 490.872C246.347 508.734 272.782 506.38 299.407 488.826C311.552 481.054 319.742 469.555 333.014 463.837C347.468 457.656 367.121 454.374 381.165 462.719C388.901 467.719 390.319 477.554 389.201 486.09C387.701 499.253 372.466 511.097 362.676 516.061C362.676 516.061 376.748 506.234 379.875 500.998H379.884Z" fill="#2882FF" stroke="black" stroke-width="0.177051" stroke-miterlimit="10"/>
<path d="M594.706 411.089C578.925 407.799 573.107 422.998 573.107 422.998L594.706 411.089Z" fill="#2882FF"/>
<path d="M594.706 411.089C578.925 407.799 573.107 422.998 573.107 422.998" stroke="black" stroke-width="0.360783" stroke-miterlimit="10"/>
<path d="M328.841 251.73C328.841 251.73 344.222 259.575 336.404 273.056L348.439 272.711L348.112 267.738C348.112 267.738 340.058 263.648 337.504 251.912L328.841 251.739V251.73Z" fill="black"/>
<path d="M447.68 252.901C447.68 252.901 454.088 264.973 444.971 271.209H452.225C452.225 271.209 452.97 268.673 454.416 267.155C455.861 265.636 459.142 259.028 451.134 252.783L447.68 252.901Z" fill="black"/>
<path d="M427.683 252.745C427.683 252.745 423.92 262.926 436.255 261.554C436.255 261.554 429.656 259.863 430.028 252.745H427.683Z" fill="black"/>
<path d="M201.41 75.5115C206.599 61.1373 201.485 46.1197 189.986 41.9687C178.488 37.8176 164.96 46.1052 159.771 60.4793C154.582 74.8535 159.696 89.8712 171.195 94.0222C182.693 98.1732 196.221 89.8857 201.41 75.5115Z" fill="white"/>
<path d="M427.775 143.419C427.775 143.419 434.811 191.207 423.294 197.734L437.229 192.443L427.785 143.419H427.775Z" fill="black" stroke="black" stroke-width="0.334058" stroke-miterlimit="10"/>
<path d="M340.418 218.348C340.418 218.348 349.508 204.713 364.962 208.349L340.418 218.348Z" fill="#2882FF"/>
<path d="M340.418 218.348C340.418 218.348 349.508 204.713 364.962 208.349" stroke="black" stroke-width="0.303993" stroke-miterlimit="10"/>
<path d="M35.8125 529.946C26.5313 529.755 0.905774 534.073 1.76935 519.292C2.65111 504.347 22.4588 500.539 33.7762 499.211C34.4671 499.13 35.2307 499.057 35.8216 499.43C36.4124 499.802 36.6215 500.802 36.0306 501.175C48.448 483.403 61.6925 465.232 77.1914 449.924C90.2633 437.025 107.698 427.08 125.97 435.634C167.176 454.933 138.36 502.093 138.36 502.093C138.36 502.093 163.613 470.413 167.776 487.685C171.949 504.956 167.658 502.338 167.658 502.338C167.658 502.338 215.182 487.212 227.808 524.373L229.472 531.282C228.517 531.282 227.554 531.264 226.599 531.255C197.901 531.018 169.212 530.791 140.514 530.555C105.38 530.273 70.7646 530.673 35.8125 529.946Z" fill="white"/>
<path d="M185.164 483.078C193.016 483.078 199.382 476.712 199.382 468.86C199.382 461.008 193.016 454.643 185.164 454.643C177.313 454.643 170.947 461.008 170.947 468.86C170.947 476.712 177.313 483.078 185.164 483.078Z" fill="white"/>
<path d="M210.17 484.991C210.17 484.991 212.834 512.526 249.349 523.161C249.349 523.161 228.305 522.007 210.27 507.444C210.27 507.444 198.607 501.781 203.143 491.882C203.143 491.882 205.37 484.373 210.161 485L210.17 484.991Z" fill="black"/>
<path d="M508.419 412.182C508.419 412.182 510.525 459.713 569.614 470.041C569.614 470.041 541.707 470.432 537.871 470.287C537.871 470.287 511.402 473.244 506.864 456.06C506.864 456.06 504.919 449.115 508.573 447.806C508.573 447.806 501.375 435.946 504.147 421.419C502.518 409.891 508.428 412.173 508.428 412.173L508.419 412.182Z" fill="black"/>
<path d="M342.304 204.698C342.304 204.698 346.777 201.08 350.413 201.08C354.049 201.08 336.778 167.446 320.415 111.995L342.304 204.698Z" fill="black"/>
<path d="M207.214 289.806C207.214 289.806 169.753 374.091 207.814 370.764L141.51 374.346C141.51 374.346 177.644 372.155 207.214 289.806Z" fill="black"/>
<path d="M587.161 290.465C587.161 290.465 575.844 309.254 581.298 311.981C593.524 318.09 604.933 296.528 604.933 296.528C604.933 296.528 612.378 287.719 618.195 291.21C618.195 291.21 607.042 314.163 579.625 318.072L548.582 318.026C548.582 318.026 579.389 308.945 587.161 290.465Z" fill="black"/>
<path d="M384.053 30.1836C384.053 30.1836 392.234 44.7281 405.869 42.91" stroke="#300A01" stroke-width="0.334058" stroke-miterlimit="10"/>
<path d="M24.9986 500.065C24.9986 500.065 -8.19917 512.427 20.8897 520.609C49.9787 528.79 85.149 530.499 85.149 530.499L18.0172 531.026C13.3266 531.062 8.68149 529.69 4.93629 526.863C0.72749 523.69 -2.44502 518.727 3.16369 511.973C13.7175 499.274 24.9986 500.065 24.9986 500.065Z" fill="black"/>
<path d="M163.705 52.1772C163.705 52.1772 152.878 77.021 171.195 94.0471C171.195 94.0471 156.405 91.52 157.051 72.6667C157.696 53.8135 163.705 52.1772 163.705 52.1772Z" fill="black"/>
</svg>
