<svg width="24" height="24" viewBox="0 0 24 24" fill="none" xmlns="http://www.w3.org/2000/svg">
<path d="M12 21.75C13.9284 21.75 15.8134 21.1782 17.4168 20.1068C19.0202 19.0355 20.2699 17.5127 21.0078 15.7312C21.7458 13.9496 21.9389 11.9892 21.5627 10.0979C21.1864 8.20655 20.2578 6.46927 18.8943 5.10571C17.5307 3.74215 15.7934 2.81355 13.9021 2.43734C12.0108 2.06114 10.0504 2.25422 8.26883 2.99218C6.48725 3.73013 4.96451 4.97981 3.89317 6.58319C2.82182 8.18657 2.24999 10.0716 2.24999 12C2.25272 14.585 3.28083 17.0634 5.10872 18.8913C6.93661 20.7192 9.41497 21.7473 12 21.75ZM9.21937 11.4694L12.9694 7.71938C13.0391 7.64969 13.1218 7.59442 13.2128 7.55671C13.3039 7.51899 13.4014 7.49958 13.5 7.49958C13.5985 7.49958 13.6961 7.51899 13.7872 7.55671C13.8782 7.59442 13.9609 7.64969 14.0306 7.71938C14.1003 7.78906 14.1556 7.87178 14.1933 7.96283C14.231 8.05387 14.2504 8.15145 14.2504 8.25C14.2504 8.34855 14.231 8.44613 14.1933 8.53717C14.1556 8.62822 14.1003 8.71094 14.0306 8.78063L10.8103 12L14.0306 15.2194C14.1714 15.3601 14.2504 15.551 14.2504 15.75C14.2504 15.949 14.1714 16.1399 14.0306 16.2806C13.8899 16.4214 13.699 16.5004 13.5 16.5004C13.301 16.5004 13.1101 16.4214 12.9694 16.2806L9.21937 12.5306C9.14964 12.461 9.09432 12.3783 9.05657 12.2872C9.01883 12.1962 8.99941 12.0986 8.99941 12C8.99941 11.9014 9.01883 11.8038 9.05657 11.7128C9.09432 11.6217 9.14964 11.539 9.21937 11.4694Z" fill="black"/>
</svg>
