<svg width="87" height="76" viewBox="0 0 87 76" fill="none" xmlns="http://www.w3.org/2000/svg">
<path d="M53.3805 59.8065C44.3805 63.9313 35.1029 65.1491 27.3893 63.8064C19.6731 62.4633 13.5727 58.5727 10.8 52.5231C8.0274 46.4735 9.06271 39.3126 13.0826 32.5906C17.1011 25.871 24.0803 19.638 33.0802 15.5132C42.0802 11.3883 51.3579 10.1706 59.0715 11.5132C66.7877 12.8563 72.8881 16.7469 75.6607 22.7965C78.4333 28.8461 77.398 36.0071 73.3781 42.729C69.3596 49.4487 62.3805 55.6817 53.3805 59.8065Z" fill="white" stroke="#0564F2" stroke-width="0.980392"/>
<path d="M38.7871 49.707C39.3394 49.707 39.7871 49.2593 39.7871 48.707C39.7871 48.1547 39.3394 47.707 38.7871 47.707C38.2348 47.707 37.7871 48.1547 37.7871 48.707C37.7871 49.2593 38.2348 49.707 38.7871 49.707Z" fill="#FC5E3B" stroke="#0564F2" stroke-width="2" stroke-linecap="round" stroke-linejoin="round"/>
<path d="M49.7871 49.707C50.3394 49.707 50.7871 49.2593 50.7871 48.707C50.7871 48.1547 50.3394 47.707 49.7871 47.707C49.2348 47.707 48.7871 48.1547 48.7871 48.707C48.7871 49.2593 49.2348 49.707 49.7871 49.707Z" fill="#FC5E3B" stroke="#0564F2" stroke-width="2" stroke-linecap="round" stroke-linejoin="round"/>
<path d="M30.7871 28.707H34.7871L37.4671 42.097C37.5586 42.5574 37.809 42.971 38.1747 43.2653C38.5403 43.5597 38.9978 43.716 39.4671 43.707H49.1871C49.6564 43.716 50.1139 43.5597 50.4796 43.2653C50.8452 42.971 51.0957 42.5574 51.1871 42.097L52.7871 33.707H35.7871" fill="#0564F2"/>
<path d="M30.7871 28.707H34.7871L37.4671 42.097C37.5586 42.5574 37.809 42.971 38.1747 43.2653C38.5403 43.5597 38.9978 43.716 39.4671 43.707H49.1871C49.6564 43.716 50.1139 43.5597 50.4796 43.2653C50.8452 42.971 51.0957 42.5574 51.1871 42.097L52.7871 33.707H35.7871" stroke="#0564F2" stroke-width="3" stroke-linecap="round" stroke-linejoin="round"/>
</svg>
