<svg width="52" height="56" viewBox="0 0 52 56" fill="none" xmlns="http://www.w3.org/2000/svg">
<path d="M26.0501 34.021C23.72 32.5051 21.8297 30.3341 20.6413 27.8262C18.751 23.8211 18.7136 19.1047 19.8646 14.8189C21.0156 10.533 23.2802 6.63082 25.8255 3C31.122 8.13742 33.5082 15.9044 32.0765 23.1473C31.253 27.3209 29.4376 31.4383 26.0407 34.0117L26.0501 34.021Z" fill="black" stroke="black" stroke-width="4.27064" stroke-linecap="round" stroke-linejoin="round"/>
<path d="M32.402 42.8651C32.2938 40.9816 32.7082 39.0731 33.6 37.4075C35.0288 34.7561 37.5883 32.8309 40.3967 31.7318C43.205 30.6327 46.243 30.291 49.2557 30.2103C48.5944 35.1823 45.3035 39.6251 40.7702 41.7692C38.1511 43.0068 35.1732 43.6774 32.3927 42.8639L32.402 42.8651Z" stroke="black" stroke-width="4.27064" stroke-linecap="round" stroke-linejoin="round"/>
<path d="M19.7508 42.8219C19.8742 40.9393 19.4753 39.0276 18.597 37.3549C17.1897 34.6919 14.6458 32.7461 11.8465 31.6243C9.0471 30.5025 6.01197 30.1363 3 30.0312C3.62113 35.0084 6.87597 39.4777 11.3918 41.6584C14.0007 42.9171 16.9731 43.6118 19.7601 42.8208L19.7508 42.8219Z" stroke="black" stroke-width="4.27064" stroke-linecap="round" stroke-linejoin="round"/>
<path d="M26.0508 34.0215V53.3734" stroke="black" stroke-width="4.27064" stroke-linecap="round" stroke-linejoin="round"/>
<path d="M19.752 42.8223L25.7891 46.6897" stroke="black" stroke-width="4.27064" stroke-linecap="round" stroke-linejoin="round"/>
<path d="M32.1106 42.8251L26.0517 46.6449" stroke="black" stroke-width="4.27064" stroke-linecap="round" stroke-linejoin="round"/>
</svg>
