<svg width="1619" height="46" viewBox="0 0 1619 46" fill="none" xmlns="http://www.w3.org/2000/svg">
<path d="M6.29885 41.0576C2.83448 41.0576 1.12198 38.6562 1.12198 33.8533C1.12198 29.0308 2.89353 26.649 6.476 26.649C9.44827 26.649 11.3379 28.7158 11.3182 31.9243H8.89712C8.89712 29.9953 8.01134 28.8733 6.476 28.8733C4.44856 28.8733 3.58247 30.3496 3.58247 33.8533C3.58247 37.357 4.40919 38.8333 6.29885 38.8333C7.79482 38.8333 8.6806 37.7114 8.6806 35.7823H11.1214C11.1214 38.9711 9.21206 41.0576 6.29885 41.0576ZM18.702 41.0576C15.2573 41.0576 13.4464 38.5774 13.4464 33.8533C13.4464 29.1292 15.2573 26.649 18.702 26.649C22.1467 26.649 23.9576 29.1292 23.9576 33.8533C23.9576 38.5774 22.1467 41.0576 18.702 41.0576ZM15.9266 33.8533C15.9266 37.2586 16.7927 38.8333 18.702 38.8333C20.6113 38.8333 21.4774 37.2586 21.4774 33.8533C21.4774 30.448 20.6113 28.8733 18.702 28.8733C16.7927 28.8733 15.9266 30.448 15.9266 33.8533ZM27.1487 40.7427V26.964H32.1287C34.8057 26.964 36.6166 28.5387 36.6166 31.0779C36.6166 33.6368 34.8057 35.2312 32.1287 35.2312H29.5108V40.7427H27.1487ZM29.5108 33.0463H32.0303C33.4279 33.0463 34.2152 32.2589 34.2152 31.0779C34.2152 29.9165 33.4279 29.1489 32.0303 29.1489H29.5108V33.0463ZM42.721 40.7427V35.6839L38.233 26.964H40.9494L43.6658 32.6132L43.7445 33.7155H44.0791L44.1382 32.6132L46.8743 26.964H49.5906L45.083 35.6839V40.7427H42.721ZM52.1912 40.7427V26.964H57.1122C59.9073 26.964 61.6395 28.2237 61.6395 30.8614C61.6395 33.1644 60.0451 34.3257 57.6633 34.5029V34.7588L58.2539 35.0343L61.6789 40.7427H58.8247L55.3406 34.8572H54.5533V40.7427H52.1912ZM54.5533 32.8298H57.1319C58.4507 32.8298 59.2184 32.1605 59.2184 30.9598C59.2184 29.7591 58.431 29.1489 57.1319 29.1489H54.5533V32.8298ZM64.555 40.7427V38.6168H67.9209V29.0898H64.555V26.964H73.649V29.0898H70.283V38.6168H73.649V40.7427H64.555ZM81.0721 41.0576C78.1786 41.0576 76.4858 38.5184 76.4858 33.8533C76.4858 29.0308 78.336 26.649 82.0563 26.649C84.9498 26.649 86.8788 28.7552 86.8592 31.7865H84.4184C84.4184 29.9559 83.5326 28.8733 82.0169 28.8733C79.8714 28.8733 78.9659 30.3496 78.9659 33.8533C78.9659 37.3767 79.7926 38.9121 81.6823 38.9121C83.1586 38.9121 84.0247 37.7507 84.2018 35.5855H81.2886V33.499H86.4261V40.7427H84.2215L84.7924 37.731H84.4577C83.9853 39.9553 82.9224 41.0576 81.0721 41.0576ZM96.5853 40.7427V34.9556H92.0186V40.7427H89.6566V26.964H92.0186V32.7313H96.5853V26.964H98.9474V40.7427H96.5853ZM105.721 40.7427V29.1685H101.43V26.964H112.374V29.1685H108.083V40.7427H105.721ZM126 42.1205H145.684V22.4367H126V42.1205ZM160.41 40.7427V37.1012L165.016 34.0108C166.492 33.0266 166.964 32.1014 166.964 30.9795C166.964 29.6803 166.098 28.7749 164.78 28.7749C163.323 28.7749 162.358 29.7394 162.358 31.255V31.8849H160.036V31.2354C160.036 28.5387 161.965 26.6884 164.78 26.6884C167.457 26.6884 169.327 28.4009 169.327 30.9401C169.327 32.8691 168.598 34.1683 166.531 35.5264L162.437 38.2428V38.5774H169.327V40.7427H160.41ZM177.38 41.0183C174.073 41.0183 172.34 38.5578 172.34 33.8533C172.34 29.1489 174.073 26.6884 177.38 26.6884C180.667 26.6884 182.419 29.1489 182.419 33.8533C182.419 38.5578 180.667 41.0183 177.38 41.0183ZM174.742 33.8533C174.742 37.2389 175.608 38.9318 177.38 38.9318C179.131 38.9318 180.017 37.2389 180.017 33.8533C180.017 30.448 179.151 28.7749 177.38 28.7749C175.608 28.7749 174.742 30.448 174.742 33.8533ZM185.61 40.7427V37.1012L190.216 34.0108C191.692 33.0266 192.164 32.1014 192.164 30.9795C192.164 29.6803 191.298 28.7749 189.98 28.7749C188.523 28.7749 187.558 29.7394 187.558 31.255V31.8849H185.236V31.2354C185.236 28.5387 187.165 26.6884 189.98 26.6884C192.657 26.6884 194.527 28.4009 194.527 30.9401C194.527 32.8691 193.798 34.1683 191.731 35.5264L187.637 38.2428V38.5774H194.527V40.7427H185.61ZM202.58 41.0183C199.824 41.0183 197.973 39.4042 197.973 36.9831V36.8649H200.316V36.924C200.316 38.046 201.28 38.9514 202.58 38.9514C204.016 38.9514 204.922 38.0066 204.922 36.4516C204.922 34.9556 204.075 34.0502 202.875 34.0502C202.068 34.0502 201.458 34.4045 201.084 35.0737H198.426V26.964H207.264V29.1489H200.591V33.4793H200.906C201.398 32.5345 202.304 32.0227 203.564 32.0227C205.729 32.0227 207.264 33.8533 207.264 36.4319C207.264 39.1876 205.394 41.0183 202.58 41.0183ZM213.723 40.7427V37.9476H216.636V40.7427H213.723ZM234.73 40.7427L238.51 26.964H242.269L246.029 40.7427H243.49L242.348 36.1957H238.431L237.269 40.7427H234.73ZM238.962 34.0502H241.797L240.655 29.5032L240.557 28.204H240.222L240.124 29.5032L238.962 34.0502ZM249.515 40.7427V26.964H251.877V38.5381H258.255V40.7427H249.515ZM262.115 40.7427V26.964H264.477V38.5381H270.855V40.7427H262.115ZM286.469 40.7427V26.964H291.39C294.185 26.964 295.917 28.2237 295.917 30.8614C295.917 33.1644 294.323 34.3257 291.941 34.5029V34.7588L292.531 35.0343L295.956 40.7427H293.102L289.618 34.8572H288.831V40.7427H286.469ZM288.831 32.8298H291.409C292.728 32.8298 293.496 32.1605 293.496 30.9598C293.496 29.7591 292.709 29.1489 291.409 29.1489H288.831V32.8298ZM298.832 40.7427V38.6168H302.198V29.0898H298.832V26.964H307.926V29.0898H304.561V38.6168H307.926V40.7427H298.832ZM315.35 41.0576C312.456 41.0576 310.763 38.5184 310.763 33.8533C310.763 29.0308 312.614 26.649 316.334 26.649C319.227 26.649 321.156 28.7552 321.137 31.7865H318.696C318.696 29.9559 317.81 28.8733 316.294 28.8733C314.149 28.8733 313.243 30.3496 313.243 33.8533C313.243 37.3767 314.07 38.9121 315.96 38.9121C317.436 38.9121 318.302 37.7507 318.479 35.5855H315.566V33.499H320.704V40.7427H318.499L319.07 37.731H318.735C318.263 39.9553 317.2 41.0576 315.35 41.0576ZM330.863 40.7427V34.9556H326.296V40.7427H323.934V26.964H326.296V32.7313H330.863V26.964H333.225V40.7427H330.863ZM339.998 40.7427V29.1685H335.707V26.964H346.652V29.1685H342.36V40.7427H339.998ZM353.72 41.0576C350.492 41.0576 348.74 39.4239 348.74 36.2154H351.201C351.201 38.0066 352.008 38.9121 353.799 38.9121C355.315 38.9121 356.22 38.1641 356.22 36.9437C356.22 35.9792 355.63 35.3296 354.055 35.0343L352.461 34.7391C350.118 34.306 348.858 32.9479 348.858 30.9204C348.858 28.3418 350.827 26.649 353.858 26.649C357.027 26.649 358.799 28.3025 358.799 31.4519H356.358C356.358 29.6803 355.571 28.7749 353.799 28.7749C352.165 28.7749 351.299 29.6016 351.299 30.7433C351.299 31.7078 351.909 32.3377 353.504 32.6526L355.079 32.9479C357.401 33.4203 358.661 34.7391 358.661 36.8453C358.661 39.4042 356.811 41.0576 353.72 41.0576ZM374.669 40.7427V26.964H379.59C382.385 26.964 384.117 28.2237 384.117 30.8614C384.117 33.1644 382.523 34.3257 380.141 34.5029V34.7588L380.731 35.0343L384.156 40.7427H381.302L377.818 34.8572H377.031V40.7427H374.669ZM377.031 32.8298H379.609C380.928 32.8298 381.696 32.1605 381.696 30.9598C381.696 29.7591 380.908 29.1489 379.609 29.1489H377.031V32.8298ZM387.564 40.7427V26.964H395.949V29.1685H389.926V32.751H395.752V34.9359H389.926V38.5184H395.949V40.7427H387.564ZM404.12 41.0576C400.892 41.0576 399.14 39.4239 399.14 36.2154H401.601C401.601 38.0066 402.408 38.9121 404.199 38.9121C405.715 38.9121 406.62 38.1641 406.62 36.9437C406.62 35.9792 406.03 35.3296 404.455 35.0343L402.861 34.7391C400.518 34.306 399.258 32.9479 399.258 30.9204C399.258 28.3418 401.227 26.649 404.258 26.649C407.427 26.649 409.199 28.3025 409.199 31.4519H406.758C406.758 29.6803 405.971 28.7749 404.199 28.7749C402.565 28.7749 401.699 29.6016 401.699 30.7433C401.699 31.7078 402.309 32.3377 403.904 32.6526L405.479 32.9479C407.801 33.4203 409.061 34.7391 409.061 36.8453C409.061 39.4042 407.211 41.0576 404.12 41.0576ZM412.764 40.7427V26.964H421.149V29.1685H415.126V32.751H420.952V34.9359H415.126V38.5184H421.149V40.7427H412.764ZM425.069 40.7427V26.964H429.99C432.785 26.964 434.517 28.2237 434.517 30.8614C434.517 33.1644 432.923 34.3257 430.541 34.5029V34.7588L431.131 35.0343L434.556 40.7427H431.702L428.218 34.8572H427.431V40.7427H425.069ZM427.431 32.8298H430.009C431.328 32.8298 432.096 32.1605 432.096 30.9598C432.096 29.7591 431.308 29.1489 430.009 29.1489H427.431V32.8298ZM440.09 40.7427L436.547 26.964H439.047L441.743 38.1247L441.822 39.4239H442.157L442.235 38.1247L444.932 26.964H447.432L443.889 40.7427H440.09ZM450.564 40.7427V26.964H458.949V29.1685H452.926V32.751H458.752V34.9359H452.926V38.5184H458.949V40.7427H450.564ZM462.79 40.7427V26.964H466.668C470.191 26.964 472.278 29.5425 472.278 33.8533C472.278 38.1641 470.191 40.7427 466.668 40.7427H462.79ZM465.132 38.5184H466.845C468.675 38.5184 469.817 36.7272 469.817 33.8533C469.817 30.9795 468.675 29.1685 466.845 29.1685H465.132V38.5184Z" fill="#0564F2"/>
<line y1="1.44347" x2="1619" y2="1.44347" stroke="#0564F2" stroke-width="1.23024"/>
</svg>
