<svg width="1619" height="46" viewBox="0 0 1619 46" fill="none" xmlns="http://www.w3.org/2000/svg">
<path d="M6.29885 41.0576C2.83448 41.0576 1.12198 38.6562 1.12198 33.8533C1.12198 29.0308 2.89353 26.649 6.476 26.649C9.44827 26.649 11.3379 28.7158 11.3182 31.9243H8.89712C8.89712 29.9953 8.01134 28.8733 6.476 28.8733C4.44856 28.8733 3.58247 30.3496 3.58247 33.8533C3.58247 37.357 4.40919 38.8333 6.29885 38.8333C7.79482 38.8333 8.6806 37.7114 8.6806 35.7823H11.1214C11.1214 38.9711 9.21206 41.0576 6.29885 41.0576ZM18.702 41.0576C15.2573 41.0576 13.4464 38.5774 13.4464 33.8533C13.4464 29.1292 15.2573 26.649 18.702 26.649C22.1467 26.649 23.9576 29.1292 23.9576 33.8533C23.9576 38.5774 22.1467 41.0576 18.702 41.0576ZM15.9266 33.8533C15.9266 37.2586 16.7927 38.8333 18.702 38.8333C20.6113 38.8333 21.4774 37.2586 21.4774 33.8533C21.4774 30.448 20.6113 28.8733 18.702 28.8733C16.7927 28.8733 15.9266 30.448 15.9266 33.8533ZM27.1487 40.7427V26.964H32.1287C34.8057 26.964 36.6166 28.5387 36.6166 31.0779C36.6166 33.6368 34.8057 35.2312 32.1287 35.2312H29.5108V40.7427H27.1487ZM29.5108 33.0463H32.0303C33.4279 33.0463 34.2152 32.2589 34.2152 31.0779C34.2152 29.9165 33.4279 29.1489 32.0303 29.1489H29.5108V33.0463ZM42.721 40.7427V35.6839L38.233 26.964H40.9494L43.6658 32.6132L43.7445 33.7155H44.0791L44.1382 32.6132L46.8743 26.964H49.5906L45.083 35.6839V40.7427H42.721ZM52.1912 40.7427V26.964H57.1122C59.9073 26.964 61.6395 28.2237 61.6395 30.8614C61.6395 33.1644 60.0451 34.3257 57.6633 34.5029V34.7588L58.2539 35.0343L61.6789 40.7427H58.8247L55.3406 34.8572H54.5533V40.7427H52.1912ZM54.5533 32.8298H57.1319C58.4507 32.8298 59.2184 32.1605 59.2184 30.9598C59.2184 29.7591 58.431 29.1489 57.1319 29.1489H54.5533V32.8298ZM64.555 40.7427V38.6168H67.9209V29.0898H64.555V26.964H73.649V29.0898H70.283V38.6168H73.649V40.7427H64.555ZM81.0721 41.0576C78.1786 41.0576 76.4858 38.5184 76.4858 33.8533C76.4858 29.0308 78.336 26.649 82.0563 26.649C84.9498 26.649 86.8788 28.7552 86.8592 31.7865H84.4184C84.4184 29.9559 83.5326 28.8733 82.0169 28.8733C79.8714 28.8733 78.9659 30.3496 78.9659 33.8533C78.9659 37.3767 79.7926 38.9121 81.6823 38.9121C83.1586 38.9121 84.0247 37.7507 84.2018 35.5855H81.2886V33.499H86.4261V40.7427H84.2215L84.7924 37.731H84.4577C83.9853 39.9553 82.9224 41.0576 81.0721 41.0576ZM96.5853 40.7427V34.9556H92.0186V40.7427H89.6566V26.964H92.0186V32.7313H96.5853V26.964H98.9474V40.7427H96.5853ZM105.721 40.7427V29.1685H101.43V26.964H112.374V29.1685H108.083V40.7427H105.721ZM115.132 40.7427V37.1012L119.738 34.0108C121.214 33.0266 121.687 32.1014 121.687 30.9795C121.687 29.6803 120.821 28.7749 119.502 28.7749C118.045 28.7749 117.081 29.7394 117.081 31.255V31.8849H114.758V31.2354C114.758 28.5387 116.687 26.6884 119.502 26.6884C122.179 26.6884 124.049 28.4009 124.049 30.9401C124.049 32.8691 123.321 34.1683 121.254 35.5264L117.16 38.2428V38.5774H124.049V40.7427H115.132ZM132.102 41.0183C128.795 41.0183 127.063 38.5578 127.063 33.8533C127.063 29.1489 128.795 26.6884 132.102 26.6884C135.389 26.6884 137.141 29.1489 137.141 33.8533C137.141 38.5578 135.389 41.0183 132.102 41.0183ZM129.464 33.8533C129.464 37.2389 130.33 38.9318 132.102 38.9318C133.854 38.9318 134.74 37.2389 134.74 33.8533C134.74 30.448 133.874 28.7749 132.102 28.7749C130.33 28.7749 129.464 30.448 129.464 33.8533ZM140.332 40.7427V37.1012L144.938 34.0108C146.414 33.0266 146.887 32.1014 146.887 30.9795C146.887 29.6803 146.021 28.7749 144.702 28.7749C143.245 28.7749 142.281 29.7394 142.281 31.255V31.8849H139.958V31.2354C139.958 28.5387 141.887 26.6884 144.702 26.6884C147.379 26.6884 149.249 28.4009 149.249 30.9401C149.249 32.8691 148.521 34.1683 146.454 35.5264L142.36 38.2428V38.5774H149.249V40.7427H140.332ZM157.302 41.0183C154.546 41.0183 152.696 39.4042 152.696 36.9831V36.8649H155.038V36.924C155.038 38.046 156.003 38.9514 157.302 38.9514C158.739 38.9514 159.644 38.0066 159.644 36.4516C159.644 34.9556 158.798 34.0502 157.597 34.0502C156.79 34.0502 156.18 34.4045 155.806 35.0737H153.149V26.964H161.987V29.1489H155.314V33.4793H155.629C156.121 32.5345 157.026 32.0227 158.286 32.0227C160.451 32.0227 161.987 33.8533 161.987 36.4319C161.987 39.1876 160.117 41.0183 157.302 41.0183Z" fill="#2882FF"/>
<path d="M1443.79 40.7427V26.964H1448.77C1451.45 26.964 1453.26 28.5387 1453.26 31.0779C1453.26 33.6368 1451.45 35.2312 1448.77 35.2312H1446.16V40.7427H1443.79ZM1446.16 33.0463H1448.68C1450.07 33.0463 1450.86 32.2589 1450.86 31.0779C1450.86 29.9165 1450.07 29.1489 1448.68 29.1489H1446.16V33.0463ZM1456.24 40.7427V26.964H1461.16C1463.95 26.964 1465.69 28.2237 1465.69 30.8614C1465.69 33.1644 1464.09 34.3257 1461.71 34.5029V34.7588L1462.3 35.0343L1465.72 40.7427H1462.87L1459.39 34.8572H1458.6V40.7427H1456.24ZM1458.6 32.8298H1461.18C1462.5 32.8298 1463.26 32.1605 1463.26 30.9598C1463.26 29.7591 1462.48 29.1489 1461.18 29.1489H1458.6V32.8298ZM1468.6 40.7427V38.6168H1471.97V29.0898H1468.6V26.964H1477.69V29.0898H1474.33V38.6168H1477.69V40.7427H1468.6ZM1483.86 40.7427L1480.31 26.964H1482.81L1485.51 38.1247L1485.59 39.4239H1485.92L1486 38.1247L1488.7 26.964H1491.2L1487.66 40.7427H1483.86ZM1492.7 40.7427L1496.48 26.964H1500.24L1504 40.7427H1501.46L1500.32 36.1957H1496.4L1495.24 40.7427H1492.7ZM1496.93 34.0502H1499.76L1498.62 29.5032L1498.52 28.204H1498.19L1498.09 29.5032L1496.93 34.0502ZM1511.14 41.0576C1507.68 41.0576 1505.97 38.6562 1505.97 33.8533C1505.97 29.0308 1507.74 26.649 1511.32 26.649C1514.29 26.649 1516.18 28.7158 1516.16 31.9243H1513.74C1513.74 29.9953 1512.86 28.8733 1511.32 28.8733C1509.29 28.8733 1508.43 30.3496 1508.43 33.8533C1508.43 37.357 1509.25 38.8333 1511.14 38.8333C1512.64 38.8333 1513.53 37.7114 1513.53 35.7823H1515.97C1515.97 38.9711 1514.06 41.0576 1511.14 41.0576ZM1522.37 40.7427V35.6839L1517.88 26.964H1520.6L1523.31 32.6132L1523.39 33.7155H1523.72L1523.78 32.6132L1526.52 26.964H1529.24L1524.73 35.6839V40.7427H1522.37ZM1544.59 40.7427V26.964H1549.57C1552.25 26.964 1554.06 28.5387 1554.06 31.0779C1554.06 33.6368 1552.25 35.2312 1549.57 35.2312H1546.96V40.7427H1544.59ZM1546.96 33.0463H1549.48C1550.87 33.0463 1551.66 32.2589 1551.66 31.0779C1551.66 29.9165 1550.87 29.1489 1549.48 29.1489H1546.96V33.0463ZM1561.35 41.0576C1557.9 41.0576 1556.09 38.5774 1556.09 33.8533C1556.09 29.1292 1557.9 26.649 1561.35 26.649C1564.79 26.649 1566.6 29.1292 1566.6 33.8533C1566.6 38.5774 1564.79 41.0576 1561.35 41.0576ZM1558.57 33.8533C1558.57 37.2586 1559.44 38.8333 1561.35 38.8333C1563.26 38.8333 1564.12 37.2586 1564.12 33.8533C1564.12 30.448 1563.26 28.8733 1561.35 28.8733C1559.44 28.8733 1558.57 30.448 1558.57 33.8533ZM1570.48 40.7427V26.964H1572.85V38.5381H1579.22V40.7427H1570.48ZM1582 40.7427V38.6168H1585.37V29.0898H1582V26.964H1591.09V29.0898H1587.73V38.6168H1591.09V40.7427H1582ZM1599.34 41.0576C1595.88 41.0576 1594.17 38.6562 1594.17 33.8533C1594.17 29.0308 1595.94 26.649 1599.52 26.649C1602.49 26.649 1604.38 28.7158 1604.36 31.9243H1601.94C1601.94 29.9953 1601.06 28.8733 1599.52 28.8733C1597.49 28.8733 1596.63 30.3496 1596.63 33.8533C1596.63 37.357 1597.45 38.8333 1599.34 38.8333C1600.84 38.8333 1601.73 37.7114 1601.73 35.7823H1604.17C1604.17 38.9711 1602.26 41.0576 1599.34 41.0576ZM1610.57 40.7427V35.6839L1606.08 26.964H1608.8L1611.51 32.6132L1611.59 33.7155H1611.92L1611.98 32.6132L1614.72 26.964H1617.44L1612.93 35.6839V40.7427H1610.57Z" fill="#2882FF"/>
<line y1="1.44347" x2="1619" y2="1.44347" stroke="#2882FF" stroke-width="1.23024"/>
</svg>
