<svg width="1619" height="46" viewBox="0 0 1619 46" fill="none" xmlns="http://www.w3.org/2000/svg">
<path d="M6.29885 40.8545C2.83448 40.8545 1.12198 38.4531 1.12198 33.6502C1.12198 28.8276 2.89353 26.4459 6.476 26.4459C9.44827 26.4459 11.3379 28.5127 11.3182 31.7212H8.89712C8.89712 29.7921 8.01134 28.6702 6.476 28.6702C4.44856 28.6702 3.58247 30.1465 3.58247 33.6502C3.58247 37.1539 4.40919 38.6302 6.29885 38.6302C7.79482 38.6302 8.6806 37.5082 8.6806 35.5792H11.1214C11.1214 38.768 9.21206 40.8545 6.29885 40.8545ZM18.702 40.8545C15.2573 40.8545 13.4464 38.3743 13.4464 33.6502C13.4464 28.9261 15.2573 26.4459 18.702 26.4459C22.1467 26.4459 23.9576 28.9261 23.9576 33.6502C23.9576 38.3743 22.1467 40.8545 18.702 40.8545ZM15.9266 33.6502C15.9266 37.0555 16.7927 38.6302 18.702 38.6302C20.6113 38.6302 21.4774 37.0555 21.4774 33.6502C21.4774 30.2449 20.6113 28.6702 18.702 28.6702C16.7927 28.6702 15.9266 30.2449 15.9266 33.6502ZM27.1487 40.5396V26.7608H32.1287C34.8057 26.7608 36.6166 28.3355 36.6166 30.8748C36.6166 33.4337 34.8057 35.0281 32.1287 35.0281H29.5108V40.5396H27.1487ZM29.5108 32.8431H32.0303C33.4279 32.8431 34.2152 32.0558 34.2152 30.8748C34.2152 29.7134 33.4279 28.9457 32.0303 28.9457H29.5108V32.8431ZM42.721 40.5396V35.4808L38.233 26.7608H40.9494L43.6658 32.4101L43.7445 33.5124H44.0791L44.1382 32.4101L46.8743 26.7608H49.5906L45.083 35.4808V40.5396H42.721ZM52.1912 40.5396V26.7608H57.1122C59.9073 26.7608 61.6395 28.0206 61.6395 30.6582C61.6395 32.9613 60.0451 34.1226 57.6633 34.2998V34.5556L58.2539 34.8312L61.6789 40.5396H58.8247L55.3406 34.6541H54.5533V40.5396H52.1912ZM54.5533 32.6266H57.1319C58.4507 32.6266 59.2184 31.9574 59.2184 30.7567C59.2184 29.5559 58.431 28.9457 57.1319 28.9457H54.5533V32.6266ZM64.555 40.5396V38.4137H67.9209V28.8867H64.555V26.7608H73.649V28.8867H70.283V38.4137H73.649V40.5396H64.555ZM81.0721 40.8545C78.1786 40.8545 76.4858 38.3153 76.4858 33.6502C76.4858 28.8276 78.336 26.4459 82.0563 26.4459C84.9498 26.4459 86.8788 28.5521 86.8592 31.5834H84.4184C84.4184 29.7528 83.5326 28.6702 82.0169 28.6702C79.8714 28.6702 78.9659 30.1465 78.9659 33.6502C78.9659 37.1736 79.7926 38.7089 81.6823 38.7089C83.1586 38.7089 84.0247 37.5476 84.2018 35.3824H81.2886V33.2959H86.4261V40.5396H84.2215L84.7924 37.5279H84.4577C83.9853 39.7522 82.9224 40.8545 81.0721 40.8545ZM93.1209 40.5396V28.9654H88.8299V26.7608H99.7741V28.9654H95.483V40.5396H93.1209ZM102.532 40.5396V36.898L107.138 33.8077C108.614 32.8235 109.087 31.8983 109.087 30.7763C109.087 29.4772 108.221 28.5717 106.902 28.5717C105.445 28.5717 104.481 29.5363 104.481 31.0519V31.6818H102.158V31.0322C102.158 28.3355 104.087 26.4853 106.902 26.4853C109.579 26.4853 111.449 28.1978 111.449 30.737C111.449 32.666 110.721 33.9651 108.654 35.3233L104.56 38.0397V38.3743H111.449V40.5396H102.532ZM119.502 40.8151C116.195 40.8151 114.463 38.3546 114.463 33.6502C114.463 28.9457 116.195 26.4853 119.502 26.4853C122.789 26.4853 124.541 28.9457 124.541 33.6502C124.541 38.3546 122.789 40.8151 119.502 40.8151ZM116.864 33.6502C116.864 37.0358 117.73 38.7286 119.502 38.7286C121.254 38.7286 122.14 37.0358 122.14 33.6502C122.14 30.2449 121.274 28.5717 119.502 28.5717C117.73 28.5717 116.864 30.2449 116.864 33.6502ZM127.732 40.5396V36.898L132.338 33.8077C133.814 32.8235 134.287 31.8983 134.287 30.7763C134.287 29.4772 133.421 28.5717 132.102 28.5717C130.645 28.5717 129.681 29.5363 129.681 31.0519V31.6818H127.358V31.0322C127.358 28.3355 129.287 26.4853 132.102 26.4853C134.779 26.4853 136.649 28.1978 136.649 30.737C136.649 32.666 135.921 33.9651 133.854 35.3233L129.76 38.0397V38.3743H136.649V40.5396H127.732ZM144.702 40.8151C141.946 40.8151 140.096 39.201 140.096 36.7799V36.6618H142.438V36.7209C142.438 37.8429 143.403 38.7483 144.702 38.7483C146.139 38.7483 147.044 37.8035 147.044 36.2485C147.044 34.7525 146.198 33.847 144.997 33.847C144.19 33.847 143.58 34.2013 143.206 34.8706H140.549V26.7608H149.387V28.9457H142.714V33.2762H143.029C143.521 32.3314 144.426 31.8196 145.686 31.8196C147.851 31.8196 149.387 33.6502 149.387 36.2288C149.387 38.9845 147.517 40.8151 144.702 40.8151Z" fill="#2882FF"/>
<path d="M1443.79 40.5396V26.7608H1448.77C1451.45 26.7608 1453.26 28.3355 1453.26 30.8748C1453.26 33.4337 1451.45 35.0281 1448.77 35.0281H1446.16V40.5396H1443.79ZM1446.16 32.8431H1448.68C1450.07 32.8431 1450.86 32.0558 1450.86 30.8748C1450.86 29.7134 1450.07 28.9457 1448.68 28.9457H1446.16V32.8431ZM1456.24 40.5396V26.7608H1461.16C1463.95 26.7608 1465.68 28.0206 1465.68 30.6582C1465.68 32.9613 1464.09 34.1226 1461.71 34.2998V34.5556L1462.3 34.8312L1465.72 40.5396H1462.87L1459.39 34.6541H1458.6V40.5396H1456.24ZM1458.6 32.6266H1461.18C1462.5 32.6266 1463.26 31.9574 1463.26 30.7567C1463.26 29.5559 1462.48 28.9457 1461.18 28.9457H1458.6V32.6266ZM1468.6 40.5396V38.4137H1471.97V28.8867H1468.6V26.7608H1477.69V28.8867H1474.33V38.4137H1477.69V40.5396H1468.6ZM1483.86 40.5396L1480.31 26.7608H1482.81L1485.51 37.9216L1485.59 39.2207H1485.92L1486 37.9216L1488.7 26.7608H1491.2L1487.66 40.5396H1483.86ZM1492.7 40.5396L1496.48 26.7608H1500.24L1504 40.5396H1501.46L1500.32 35.9926H1496.4L1495.24 40.5396H1492.7ZM1496.93 33.847H1499.76L1498.62 29.3L1498.52 28.0009H1498.19L1498.09 29.3L1496.93 33.847ZM1511.14 40.8545C1507.68 40.8545 1505.97 38.4531 1505.97 33.6502C1505.97 28.8276 1507.74 26.4459 1511.32 26.4459C1514.29 26.4459 1516.18 28.5127 1516.16 31.7212H1513.74C1513.74 29.7921 1512.86 28.6702 1511.32 28.6702C1509.29 28.6702 1508.43 30.1465 1508.43 33.6502C1508.43 37.1539 1509.25 38.6302 1511.14 38.6302C1512.64 38.6302 1513.53 37.5082 1513.53 35.5792H1515.97C1515.97 38.768 1514.06 40.8545 1511.14 40.8545ZM1522.37 40.5396V35.4808L1517.88 26.7608H1520.59L1523.31 32.4101L1523.39 33.5124H1523.72L1523.78 32.4101L1526.52 26.7608H1529.24L1524.73 35.4808V40.5396H1522.37ZM1544.59 40.5396V26.7608H1549.57C1552.25 26.7608 1554.06 28.3355 1554.06 30.8748C1554.06 33.4337 1552.25 35.0281 1549.57 35.0281H1546.96V40.5396H1544.59ZM1546.96 32.8431H1549.48C1550.87 32.8431 1551.66 32.0558 1551.66 30.8748C1551.66 29.7134 1550.87 28.9457 1549.48 28.9457H1546.96V32.8431ZM1561.35 40.8545C1557.9 40.8545 1556.09 38.3743 1556.09 33.6502C1556.09 28.9261 1557.9 26.4459 1561.35 26.4459C1564.79 26.4459 1566.6 28.9261 1566.6 33.6502C1566.6 38.3743 1564.79 40.8545 1561.35 40.8545ZM1558.57 33.6502C1558.57 37.0555 1559.44 38.6302 1561.35 38.6302C1563.26 38.6302 1564.12 37.0555 1564.12 33.6502C1564.12 30.2449 1563.26 28.6702 1561.35 28.6702C1559.44 28.6702 1558.57 30.2449 1558.57 33.6502ZM1570.48 40.5396V26.7608H1572.84V38.335H1579.22V40.5396H1570.48ZM1582 40.5396V38.4137H1585.37V28.8867H1582V26.7608H1591.09V28.8867H1587.73V38.4137H1591.09V40.5396H1582ZM1599.34 40.8545C1595.88 40.8545 1594.17 38.4531 1594.17 33.6502C1594.17 28.8276 1595.94 26.4459 1599.52 26.4459C1602.49 26.4459 1604.38 28.5127 1604.36 31.7212H1601.94C1601.94 29.7921 1601.06 28.6702 1599.52 28.6702C1597.49 28.6702 1596.63 30.1465 1596.63 33.6502C1596.63 37.1539 1597.45 38.6302 1599.34 38.6302C1600.84 38.6302 1601.73 37.5082 1601.73 35.5792H1604.17C1604.17 38.768 1602.26 40.8545 1599.34 40.8545ZM1610.57 40.5396V35.4808L1606.08 26.7608H1608.79L1611.51 32.4101L1611.59 33.5124H1611.92L1611.98 32.4101L1614.72 26.7608H1617.44L1612.93 35.4808V40.5396H1610.57Z" fill="#2882FF"/>
<line y1="1.24035" x2="1619" y2="1.24035" stroke="#2882FF" stroke-width="1.23024"/>
</svg>
