<svg width="61" height="51" viewBox="0 0 61 51" fill="none" xmlns="http://www.w3.org/2000/svg">
<path d="M15.4173 10.4531C15.4173 10.4531 12.1104 14.7513 4.60696 12.6103C3.21351 12.2122 1.84039 13.3416 2.01507 14.7797C2.47007 18.4847 4.81821 24.4241 15.0111 23.0469L15.4173 10.4531Z" fill="black" stroke="black" stroke-width="3.18471" stroke-linejoin="round"/>
<path d="M45.3906 10.4531C45.3906 10.4531 48.6975 14.7513 56.201 12.6103C57.5944 12.2122 58.9675 13.3416 58.7929 14.7797C58.3379 18.4847 55.9897 24.4241 45.7969 23.0469L45.3906 10.4531Z" fill="black" stroke="black" stroke-width="3.18471" stroke-linejoin="round"/>
<path d="M10.3045 41.146C10.3045 41.1459 10.3045 41.1457 10.3046 41.1455L10.9098 37.2135L10.9098 37.2135L15.1586 9.60603H44.9267L49.1753 37.2049L49.1754 37.2054L49.7806 41.1455C50.3882 45.1013 47.3272 48.6714 43.3229 48.6714H16.7622C12.7581 48.6714 9.69723 45.1017 10.3045 41.146Z" fill="#FFEBD4" stroke="black" stroke-width="3.18471" stroke-miterlimit="10" stroke-linejoin="round"/>
<path d="M9.33594 36.9713L13.7925 8.01367H27.1135C31.0948 41.7325 9.33594 36.9713 9.33594 36.9713Z" fill="black"/>
<path d="M50.7487 36.9631L50.7406 36.9713C50.7406 36.9713 28.9859 41.7325 32.9671 8.01367H46.2922L50.7487 36.9631Z" fill="black"/>
<path d="M12.7796 2.37519C11.5243 4.35364 9.18431 9.29365 14.6078 12.4827L19.8719 8.65091L14.0675 2.27363C13.71 1.87551 13.0681 1.92426 12.7796 2.37926V2.37519Z" fill="#FFEBD4" stroke="black" stroke-width="3.18471" stroke-miterlimit="10" stroke-linejoin="round"/>
<path d="M47.7017 2.37535C48.957 4.35379 51.297 9.29381 45.8735 12.4829L40.6094 8.65106L46.4098 2.26973C46.7673 1.8716 47.4092 1.92035 47.6976 2.37535H47.7017Z" fill="#FFEBD4" stroke="black" stroke-width="3.18471" stroke-miterlimit="10" stroke-linejoin="round"/>
</svg>
