<svg width="65" height="57" viewBox="0 0 65 57" fill="none" xmlns="http://www.w3.org/2000/svg">
<path d="M31.8555 35.648L31.8555 0" stroke="white" stroke-width="5.26054" stroke-miterlimit="10"/>
<path d="M27.9961 35.4546L55.0046 8.45508" stroke="white" stroke-width="5.26054" stroke-miterlimit="10"/>
<path d="M36.5477 35.5972L9.25195 8.31055" stroke="white" stroke-width="5.26054" stroke-miterlimit="10"/>
<path d="M53.7017 21.5534L60.4534 28.3053L53.7017 35.0572C41.8349 46.9241 22.5636 46.9241 10.6968 35.0572L3.945 28.3053L10.6968 21.5534C22.5636 9.68654 41.8349 9.68655 53.7017 21.5534Z" fill="white" stroke="white" stroke-width="5.26054" stroke-miterlimit="10"/>
<path d="M31.8567 36.5368C36.2109 36.5368 39.7407 33.0069 39.7407 28.6527C39.7407 24.2984 36.2109 20.7686 31.8567 20.7686C27.5025 20.7686 23.9727 24.2984 23.9727 28.6527C23.9727 33.0069 27.5025 36.5368 31.8567 36.5368Z" fill="#0564F2" stroke="#0564F2" stroke-width="5.26054" stroke-miterlimit="10"/>
</svg>
