<svg width="407" height="170" viewBox="0 0 407 170" fill="none" xmlns="http://www.w3.org/2000/svg">
<path d="M270.999 6.30005C298.134 17.3388 348.507 46.6287 380.445 62.5051C385.529 65.0295 390.718 67.5715 394.826 71.4856C404.466 80.6684 406.137 96.2546 400.983 108.533C395.829 120.812 384.94 129.96 372.951 135.739C360.954 141.518 340.451 148.59 327.424 151.334C307.862 155.45 294.756 158.098 275.195 162.214" fill="white"/>
<path d="M270.999 6.30005C298.134 17.3388 348.507 46.6287 380.445 62.5051C385.529 65.0295 390.718 67.5715 394.826 71.4856C404.466 80.6684 406.137 96.2546 400.983 108.533C395.829 120.812 384.94 129.96 372.951 135.739C360.954 141.518 340.451 148.59 327.424 151.334C307.862 155.45 294.756 158.098 275.195 162.214" stroke="black" stroke-width="5.4" stroke-miterlimit="10"/>
<path d="M214.813 146.673C215.956 146.356 217.135 146.022 218.014 145.23C218.806 144.518 219.281 143.524 219.703 142.548C225.333 129.477 226.344 114.92 226.494 100.689C226.661 84.2229 225.289 66.4378 214.716 53.8071C207.943 45.7237 198.206 40.7981 188.619 36.4178C162.337 24.4115 134.982 14.8329 107.17 6.96069C111.049 17.3837 111.999 28.6335 112.914 39.725C115.658 72.9027 118.402 106.08 121.138 139.267C121.516 143.788 121.78 148.617 119.431 152.689C117.769 155.566 102.834 155.434 105.983 159.4C109.606 163.957 146.118 157.641 151.633 156.894C174.528 153.762 192.515 152.812 214.795 146.673H214.813Z" fill="white" stroke="black" stroke-width="5.4" stroke-miterlimit="10"/>
<path d="M84.9328 166.866C130.183 166.866 166.866 130.183 166.866 84.9328C166.866 39.6826 130.183 3 84.9328 3C39.6826 3 3 39.6826 3 84.9328C3 130.183 39.6826 166.866 84.9328 166.866Z" fill="#FC5E3B" stroke="black" stroke-width="5.4" stroke-miterlimit="10"/>
<path d="M84.9316 152.533C122.264 152.533 152.527 122.269 152.527 84.937C152.527 47.6049 122.264 17.3413 84.9316 17.3413C47.5995 17.3413 17.3359 47.6049 17.3359 84.937C17.3359 122.269 47.5995 152.533 84.9316 152.533Z" fill="white" stroke="black" stroke-width="5.4" stroke-miterlimit="10"/>
<path d="M248.8 166.866C294.05 166.866 330.733 130.183 330.733 84.9328C330.733 39.6826 294.05 3 248.8 3C203.55 3 166.867 39.6826 166.867 84.9328C166.867 130.183 203.55 166.866 248.8 166.866Z" fill="#FC5E3B" stroke="black" stroke-width="5.4" stroke-miterlimit="10"/>
<path d="M248.797 152.533C286.129 152.533 316.392 122.269 316.392 84.937C316.392 47.6049 286.129 17.3413 248.797 17.3413C211.465 17.3413 181.201 47.6049 181.201 84.937C181.201 122.269 211.465 152.533 248.797 152.533Z" fill="white" stroke="black" stroke-width="5.4" stroke-miterlimit="10"/>
<path d="M118.612 86.6657C117.187 89.2077 114.601 90.8613 112.024 92.2246C99.4901 98.8655 85.1089 101.012 70.8862 101.372C69.5228 101.407 68.1595 101.425 66.8049 101.434C62.5302 101.451 58.1235 101.302 54.2445 99.5339C45.2552 95.4263 41.7281 82.6108 48.1578 74.6946C52.5557 69.2676 61.4747 67.6492 69.2853 66.9719C72.1 66.7257 74.7739 66.6025 77.0432 66.4618C86.6394 65.8725 96.4467 65.4415 105.691 68.0714C109.878 69.2588 114.03 71.1763 116.827 74.5099C119.615 77.8523 120.732 82.8659 118.612 86.6657Z" stroke="black" stroke-width="5.4" stroke-miterlimit="10"/>
<path d="M77.5094 84.9307C77.5094 91.3165 74.9938 97.1041 70.8862 101.37C69.5228 101.405 68.1595 101.423 66.8049 101.432C62.5302 101.449 58.1235 101.3 54.2445 99.5317C45.2552 95.4241 41.7281 82.6086 48.1578 74.6924C52.5557 69.2654 61.4747 67.647 69.2853 66.9697C74.3253 71.3148 77.5094 77.7534 77.5094 84.9307Z" fill="black" stroke="black" stroke-width="5.4" stroke-miterlimit="10"/>
<path d="M285.116 86.6657C283.691 89.2077 281.105 90.8613 278.528 92.2246C265.994 98.8655 251.613 101.012 237.39 101.372C236.027 101.407 234.663 101.425 233.309 101.434C229.034 101.451 224.627 101.302 220.748 99.5339C211.759 95.4263 208.232 82.6108 214.662 74.6946C219.06 69.2676 227.979 67.6492 235.789 66.9719C238.604 66.7257 241.278 66.6025 243.547 66.4618C253.143 65.8725 262.951 65.4415 272.195 68.0714C276.382 69.2588 280.533 71.1763 283.33 74.5099C286.119 77.8523 287.236 82.8659 285.116 86.6657Z" stroke="black" stroke-width="5.4" stroke-miterlimit="10"/>
<path d="M244.013 84.9307C244.013 91.3165 241.498 97.1041 237.39 101.37C236.027 101.405 234.663 101.423 233.309 101.432C229.034 101.449 224.627 101.3 220.748 99.5317C211.759 95.4241 208.232 82.6086 214.662 74.6924C219.06 69.2654 227.979 67.647 235.789 66.9697C240.829 71.3148 244.013 77.7534 244.013 84.9307Z" fill="black" stroke="black" stroke-width="5.4" stroke-miterlimit="10"/>
</svg>
