<svg width="39" height="35" viewBox="0 0 39 35" fill="none" xmlns="http://www.w3.org/2000/svg">
<path d="M19.1758 21.7404L19.1758 0.15918" stroke="white" stroke-width="3.18473" stroke-miterlimit="10"/>
<path d="M16.8359 21.6248L33.1869 5.2793" stroke="white" stroke-width="3.18473" stroke-miterlimit="10"/>
<path d="M22.0131 21.7107L5.48828 5.19141" stroke="white" stroke-width="3.18473" stroke-miterlimit="10"/>
<path d="M32.4004 13.2076L36.4879 17.2952L32.4004 21.3828C25.2162 28.567 13.5494 28.567 6.36526 21.3828L2.27773 17.2952L6.36526 13.2076C13.5494 6.02342 25.2162 6.02342 32.4004 13.2076Z" fill="white" stroke="white" stroke-width="3.18473" stroke-miterlimit="10"/>
<path d="M19.1753 22.279C21.8114 22.279 23.9483 20.142 23.9483 17.5059C23.9483 14.8699 21.8114 12.7329 19.1753 12.7329C16.5393 12.7329 14.4023 14.8699 14.4023 17.5059C14.4023 20.142 16.5393 22.279 19.1753 22.279Z" fill="#0564F2" stroke="#0564F2" stroke-width="3.18473" stroke-miterlimit="10"/>
</svg>
