<svg width="29" height="26" viewBox="0 0 29 26" fill="none" xmlns="http://www.w3.org/2000/svg">
<path d="M14.5352 16.0519L14.5352 0.200195" stroke="#FC5E3B" stroke-width="2.33923" stroke-miterlimit="10"/>
<path d="M12.8203 15.9669L24.8303 3.96094" stroke="#FC5E3B" stroke-width="2.33923" stroke-miterlimit="10"/>
<path d="M16.6221 16.0301L4.48438 3.89648" stroke="#FC5E3B" stroke-width="2.33923" stroke-miterlimit="10"/>
<path d="M24.2491 9.78432L27.2514 12.7867L24.2491 15.7891C18.9722 21.066 10.4028 21.066 5.12593 15.7891L2.12359 12.7867L5.12593 9.78432C10.4028 4.50743 18.9722 4.50743 24.2491 9.78432Z" fill="#FC5E3B" stroke="#FC5E3B" stroke-width="2.33923" stroke-miterlimit="10"/>
<path d="M14.5332 16.4473C16.4694 16.4473 18.039 14.8776 18.039 12.9414C18.039 11.0052 16.4694 9.43555 14.5332 9.43555C12.597 9.43555 11.0273 11.0052 11.0273 12.9414C11.0273 14.8776 12.597 16.4473 14.5332 16.4473Z" fill="white" stroke="white" stroke-width="2.33923" stroke-miterlimit="10"/>
</svg>
