<svg width="409" height="190" viewBox="0 0 409 190" fill="none" xmlns="http://www.w3.org/2000/svg">
<path d="M272.999 26.3C300.134 37.3388 350.507 66.6287 382.445 82.5051C387.529 85.0295 392.718 87.5715 396.826 91.4856C406.466 100.668 408.137 116.255 402.983 128.534C397.829 140.812 386.94 149.96 374.951 155.739C362.954 161.518 342.451 168.59 329.424 171.334C309.862 175.45 296.756 178.098 277.195 182.214" fill="white"/>
<path d="M272.999 26.3C300.134 37.3388 350.507 66.6287 382.445 82.5051C387.529 85.0295 392.718 87.5715 396.826 91.4856C406.466 100.668 408.137 116.255 402.983 128.533C397.829 140.812 386.94 149.96 374.951 155.739C362.954 161.518 342.451 168.59 329.424 171.334C309.862 175.45 296.756 178.098 277.195 182.214" stroke="black" stroke-width="5.4" stroke-miterlimit="10"/>
<path d="M216.813 166.673C217.956 166.356 219.135 166.022 220.014 165.23C220.806 164.518 221.281 163.524 221.703 162.548C227.333 149.477 228.344 134.92 228.494 120.689C228.661 104.223 227.289 86.4378 216.716 73.8071C209.943 65.7237 200.206 60.7981 190.619 56.4178C164.337 44.4115 136.982 34.8329 109.17 26.9607C113.049 37.3837 113.999 48.6335 114.914 59.725C117.658 92.9027 120.402 126.08 123.138 159.267C123.516 163.788 123.78 168.617 121.431 172.689C119.769 175.566 104.834 175.434 107.983 179.4C111.606 183.957 148.118 177.641 153.633 176.894C176.528 173.762 194.515 172.812 216.795 166.673H216.813Z" fill="white" stroke="black" stroke-width="5.4" stroke-miterlimit="10"/>
<path d="M86.9328 186.866C132.183 186.866 168.866 150.183 168.866 104.933C168.866 59.6826 132.183 23 86.9328 23C41.6826 23 5 59.6826 5 104.933C5 150.183 41.6826 186.866 86.9328 186.866Z" fill="#FC5E3B" stroke="black" stroke-width="5.4" stroke-miterlimit="10"/>
<path d="M86.9316 172.533C124.264 172.533 154.527 142.269 154.527 104.937C154.527 67.6049 124.264 37.3413 86.9316 37.3413C49.5995 37.3413 19.3359 67.6049 19.3359 104.937C19.3359 142.269 49.5995 172.533 86.9316 172.533Z" fill="white" stroke="black" stroke-width="5.4" stroke-miterlimit="10"/>
<path d="M250.8 186.866C296.05 186.866 332.733 150.183 332.733 104.933C332.733 59.6826 296.05 23 250.8 23C205.55 23 168.867 59.6826 168.867 104.933C168.867 150.183 205.55 186.866 250.8 186.866Z" fill="#FC5E3B" stroke="black" stroke-width="5.4" stroke-miterlimit="10"/>
<path d="M250.797 172.533C288.129 172.533 318.392 142.269 318.392 104.937C318.392 67.6049 288.129 37.3413 250.797 37.3413C213.465 37.3413 183.201 67.6049 183.201 104.937C183.201 142.269 213.465 172.533 250.797 172.533Z" fill="white" stroke="black" stroke-width="5.4" stroke-miterlimit="10"/>
<path d="M120.612 106.666C119.187 109.208 116.601 110.861 114.024 112.225C101.49 118.865 87.1089 121.012 72.8862 121.372C71.5228 121.407 70.1595 121.425 68.8049 121.434C64.5302 121.451 60.1235 121.302 56.2445 119.534C47.2552 115.426 43.7281 102.611 50.1578 94.6946C54.5557 89.2676 63.4747 87.6492 71.2853 86.9719C74.1 86.7257 76.7739 86.6025 79.0432 86.4618C88.6394 85.8725 98.4467 85.4415 107.691 88.0714C111.878 89.2588 116.03 91.1763 118.827 94.5099C121.615 97.8523 122.732 102.866 120.612 106.666Z" stroke="black" stroke-width="5.4" stroke-miterlimit="10"/>
<path d="M79.5094 104.931C79.5094 111.316 76.9938 117.104 72.8862 121.37C71.5228 121.405 70.1595 121.423 68.8049 121.432C64.5302 121.449 60.1235 121.3 56.2445 119.532C47.2552 115.424 43.7281 102.609 50.1578 94.6924C54.5557 89.2654 63.4747 87.647 71.2853 86.9697C76.3253 91.3148 79.5094 97.7534 79.5094 104.931Z" fill="black" stroke="black" stroke-width="5.4" stroke-miterlimit="10"/>
<path d="M287.116 106.666C285.691 109.208 283.105 110.861 280.528 112.225C267.994 118.865 253.613 121.012 239.39 121.372C238.027 121.407 236.663 121.425 235.309 121.434C231.034 121.451 226.627 121.302 222.748 119.534C213.759 115.426 210.232 102.611 216.662 94.6946C221.06 89.2676 229.979 87.6492 237.789 86.9719C240.604 86.7257 243.278 86.6025 245.547 86.4618C255.143 85.8725 264.951 85.4415 274.195 88.0714C278.382 89.2588 282.533 91.1763 285.33 94.5099C288.119 97.8523 289.236 102.866 287.116 106.666Z" stroke="black" stroke-width="5.4" stroke-miterlimit="10"/>
<path d="M246.013 104.931C246.013 111.316 243.498 117.104 239.39 121.37C238.027 121.405 236.663 121.423 235.309 121.432C231.034 121.449 226.627 121.3 222.748 119.532C213.759 115.424 210.232 102.609 216.662 94.6924C221.06 89.2654 229.979 87.647 237.789 86.9697C242.829 91.3148 246.013 97.7534 246.013 104.931Z" fill="black" stroke="black" stroke-width="5.4" stroke-miterlimit="10"/>
<path d="M1 53.4309C14.1667 24.5976 60.5 -22.6691 140.5 18.9309L180.5 36.431C192.667 19.2644 227.4 -10.869 269 5.93105C310.6 22.731 365.833 50.0978 365 51.9312" stroke="white" stroke-dasharray="5 5"/>
</svg>
