<svg width="84" height="84" viewBox="0 0 84 84" fill="none" xmlns="http://www.w3.org/2000/svg">
<circle cx="42" cy="42" r="42" fill="white"/>
<g clip-path="url(#clip0_1363_72)">
<path d="M53.6952 45.9922L55.215 35.8562H45.7019V29.2818C45.6359 28.5249 45.7372 27.7626 45.9983 27.0512C46.2594 26.3397 46.6736 25.6975 47.2102 25.1718C47.7469 24.6462 48.3923 24.2507 49.0986 24.0146C49.805 23.7785 50.5542 23.7078 51.2909 23.8078H55.6148V15.1782C53.0769 14.7586 50.5124 14.5293 47.9419 14.4922C40.1102 14.4922 34.9894 19.3474 34.9894 28.1338V35.8562H26.2842V45.9922H34.9922V70.4922H45.7019V45.9922H53.6952Z" fill="#0041EF"/>
</g>
<defs>
<clipPath id="clip0_1363_72">
<rect width="29.3333" height="56" fill="white" transform="translate(26.2842 14.4922)"/>
</clipPath>
</defs>
</svg>
