<svg width="315" height="96" viewBox="0 0 315 96" fill="none" xmlns="http://www.w3.org/2000/svg">
<path d="M0.460863 35.0002L6.45846 0.980243L16.5889 0.980243L14.1697 14.689H19.5373L21.9565 0.980243L32.1121 0.980243L26.1145 35.0002L15.9589 35.0002L18.2773 21.7702H12.8845L10.5913 35.0002H0.460863ZM29.04 35.0002L35.0628 0.980243L45.168 0.980243L39.1704 35.0002H29.04ZM53.6884 35.2018C47.9764 35.2018 44.8432 33.6058 44.2888 30.4138C43.7344 27.2218 43.8604 23.0386 44.6668 17.8642C45.5404 12.5218 46.834 8.31344 48.5476 5.23904C50.278 2.16464 54.3688 0.627441 60.82 0.627441C67.0024 0.627441 70.4464 2.08064 71.152 4.98704C71.8576 7.89344 72.0004 10.7326 71.5804 13.5046H61.45C61.87 10.5478 61.912 8.84264 61.576 8.38904C61.2568 7.93544 60.6268 7.70864 59.686 7.70864C58.6948 7.70864 57.88 8.02784 57.2416 8.66624C56.6032 9.30464 55.7716 12.5554 54.7468 18.4186C53.9908 22.8874 53.7724 25.6258 54.0916 26.6338C54.4276 27.625 55.1332 28.1206 56.2084 28.1206C57.166 28.1206 57.88 27.8602 58.3504 27.3394C58.8208 26.8186 59.2912 25.4662 59.7616 23.2822L59.8372 23.1058H57.3172L58.4008 16.8058H71.0008L67.8508 35.0002H62.584L61.7776 32.1274C60.1816 34.177 57.4852 35.2018 53.6884 35.2018ZM70.4499 35.0002L76.4475 0.980243L86.5779 0.980243L84.1587 14.689H89.5263L91.9455 0.980243L102.101 0.980243L96.1035 35.0002H85.9479L88.2663 21.7702H82.8735L80.5803 35.0002H70.4499ZM107.856 35.0002L113.854 0.980243L130.435 0.980243C134.736 0.980243 136.937 2.40824 137.038 5.26424C137.155 8.10344 137.063 10.7326 136.761 13.1518C136.492 15.9238 135.736 18.8218 134.493 21.8458C133.249 24.8698 130.469 26.3818 126.151 26.3818H119.473L117.987 35.0002L107.856 35.0002ZM120.759 19.3006L123.909 19.3006C124.614 19.3006 125.169 18.9226 125.572 18.1666C125.975 17.4106 126.345 15.8566 126.681 13.5046C127.033 11.3038 127.159 9.85064 127.059 9.14504C126.975 8.42264 126.58 8.06144 125.874 8.06144L122.724 8.06144L120.759 19.3006ZM134.926 35.0002L140.924 0.980243L158.211 0.980243C162.21 0.980243 164.335 2.14784 164.587 4.48304C164.856 6.80144 164.789 9.16184 164.385 11.5642C164.016 13.9498 163.268 16.1758 162.143 18.2422C161.017 20.2918 158.43 21.3166 154.381 21.3166H147.476L145.107 35.0002H134.926ZM150.223 35.0002L148.787 19.4266L158.69 18.847L160.883 35.0002L150.223 35.0002ZM148.585 15.1426H151.962C152.651 15.1426 153.138 14.857 153.423 14.2858C153.726 13.6978 153.978 12.8158 154.179 11.6398C154.415 10.4134 154.482 9.51464 154.381 8.94344C154.28 8.35544 153.885 8.06144 153.197 8.06144H149.82L148.585 15.1426ZM174.993 35.2522C168.542 35.2522 164.997 33.6982 164.359 30.5902C163.737 27.4822 163.846 23.2738 164.686 17.965C165.56 12.6058 166.904 8.38064 168.718 5.28944C170.533 2.18144 174.657 0.627441 181.091 0.627441C187.526 0.627441 191.054 2.18144 191.675 5.28944C192.314 8.39744 192.213 12.6226 191.373 17.965C190.499 23.2906 189.155 27.5074 187.341 30.6154C185.543 33.7066 181.427 35.2522 174.993 35.2522ZM176.253 28.171C177.311 28.171 178.177 27.8434 178.849 27.1882C179.537 26.533 180.352 23.4586 181.293 17.965C182.251 12.3202 182.511 9.20384 182.074 8.61584C181.654 8.01104 180.915 7.70864 179.857 7.70864C178.765 7.70864 177.883 8.01104 177.211 8.61584C176.539 9.22064 175.724 12.337 174.766 17.965C173.859 23.4586 173.607 26.533 174.01 27.1882C174.413 27.8434 175.161 28.171 176.253 28.171ZM195.883 35.0002L200.596 8.06144H194.094L195.379 0.980243L218.513 0.980243L217.228 8.06144L210.751 8.06144L206.014 35.0002L195.883 35.0002ZM214.531 35.0002L220.529 0.980243L239.983 0.980243L238.723 8.06144L229.425 8.06144L228.316 14.437L237.01 14.437L235.775 21.2914L227.081 21.2914L225.947 27.919H235.221L233.986 35.0002H214.531ZM236.743 35.0002L242.766 0.980243L252.871 0.980243L246.874 35.0002L236.743 35.0002ZM249.951 35.0002L255.948 0.980243L271.623 0.980243L272.379 27.3142H272.505L277.293 0.980243L287.373 0.980243L281.375 35.0002H265.575L264.768 8.21264H264.693L259.98 35.0002H249.951ZM296.636 35.1514C290.185 35.1514 286.607 33.9166 285.901 31.447C285.196 28.9606 285.112 26.1718 285.649 23.0806L295.805 23.0806C295.351 25.7518 295.36 27.2638 295.83 27.6166C296.3 27.9526 296.964 28.1206 297.821 28.1206C298.678 28.1206 299.4 27.9778 299.988 27.6922C300.593 27.3898 300.996 26.6842 301.198 25.5754C301.416 24.3154 301.097 23.4922 300.24 23.1058C299.4 22.7194 298.006 22.249 296.057 21.6946C291.991 20.4514 289.48 19.1578 288.522 17.8138C287.581 16.4698 287.287 14.479 287.64 11.8414C287.909 9.27104 288.883 6.75944 290.563 4.30664C292.26 1.85384 296.284 0.627441 302.634 0.627441C308.951 0.627441 312.462 1.92944 313.168 4.53344C313.873 7.13744 313.982 9.83384 313.495 12.6226H303.34C303.793 10.0186 303.768 8.54864 303.264 8.21264C302.777 7.87664 302.13 7.70864 301.324 7.70864C300.467 7.70864 299.719 7.85984 299.081 8.16224C298.459 8.44784 298.056 9.09464 297.871 10.1026C297.619 11.665 297.913 12.6226 298.753 12.9754C299.593 13.3114 301.088 13.7734 303.239 14.3614C307.271 15.6046 309.774 16.789 310.748 17.9146C311.74 19.0402 312.034 20.9638 311.63 23.6854C311.278 26.2894 310.286 28.8514 308.657 31.3714C307.044 33.8914 303.037 35.1514 296.636 35.1514ZM8.82805 95.0002L14.8257 60.9802H24.9561L20.1933 87.9946H28.3077L27.0729 95.0002H8.82805ZM42.0039 95.2522C35.5527 95.2522 32.0079 93.6982 31.3695 90.5902C30.7479 87.4822 30.8571 83.2738 31.6971 77.965C32.5707 72.6058 33.9147 68.3806 35.7291 65.2894C37.5435 62.1814 41.6679 60.6274 48.1023 60.6274C54.5367 60.6274 58.0647 62.1814 58.6863 65.2894C59.3247 68.3974 59.2239 72.6226 58.3839 77.965C57.5103 83.2906 56.1663 87.5074 54.3519 90.6154C52.5543 93.7066 48.4383 95.2522 42.0039 95.2522ZM43.2639 88.171C44.3223 88.171 45.1875 87.8434 45.8595 87.1882C46.5483 86.533 47.3631 83.4586 48.3039 77.965C49.2615 72.3202 49.5219 69.2038 49.0851 68.6158C48.6651 68.011 47.9259 67.7086 46.8675 67.7086C45.7755 67.7086 44.8935 68.011 44.2215 68.6158C43.5495 69.2206 42.7347 72.337 41.7771 77.965C40.8699 83.4586 40.6179 86.533 41.0211 87.1882C41.4243 87.8434 42.1719 88.171 43.2639 88.171ZM59.3686 95.0002L61.6618 60.9802H72.1954L68.9194 87.6166H68.995L76.5046 60.9802H88.5502L86.6602 87.6166H86.761L92.935 60.9802H103.821L93.9934 95.0002H78.8482L81.4942 68.1622H81.3934L74.4886 95.0002H59.3686ZM121.639 95.2018C115.187 95.2018 111.651 93.6058 111.029 90.4138C110.425 87.205 110.559 83.0218 111.433 77.8642C112.289 72.6562 113.591 68.4814 115.339 65.3398C117.103 62.1982 121.185 60.6274 127.586 60.6274C134.138 60.6274 137.666 62.1814 138.17 65.2894C138.674 68.3806 138.64 71.6818 138.069 75.193L127.888 75.193C128.56 71.2954 128.711 69.0778 128.342 68.5402C127.989 67.9858 127.351 67.7086 126.427 67.7086C125.486 67.7086 124.679 68.011 124.007 68.6158C123.352 69.2038 122.554 72.2866 121.613 77.8642C120.673 83.4418 120.404 86.5498 120.807 87.1882C121.21 87.8098 121.882 88.1206 122.823 88.1206C123.747 88.1206 124.495 87.8434 125.066 87.289C125.637 86.7346 126.259 84.5506 126.931 80.737L137.061 80.737C136.49 84.097 135.406 87.3478 133.81 90.4894C132.231 93.631 128.174 95.2018 121.639 95.2018ZM134.72 95.0002L147.068 60.9298H162.062L162.541 95.0002H152.209L152.612 87.3898H147.32L145.027 95.0002H134.72ZM149.437 80.4346H152.94L153.545 67.4566H153.419L149.437 80.4346ZM164.31 95.0002L170.308 60.9802H180.438L175.675 87.9946H183.79L182.555 95.0002H164.31ZM197.486 95.2522C191.035 95.2522 187.49 93.6982 186.851 90.5902C186.23 87.4822 186.339 83.2738 187.179 77.965C188.053 72.6058 189.397 68.3806 191.211 65.2894C193.025 62.1814 197.15 60.6274 203.584 60.6274C210.019 60.6274 213.547 62.1814 214.168 65.2894C214.807 68.3974 214.706 72.6226 213.866 77.965C212.992 83.2906 211.648 87.5074 209.834 90.6154C208.036 93.7066 203.92 95.2522 197.486 95.2522ZM198.746 88.171C199.804 88.171 200.669 87.8434 201.341 87.1882C202.03 86.533 202.845 83.4586 203.786 77.965C204.743 72.3202 205.004 69.2038 204.567 68.6158C204.147 68.011 203.408 67.7086 202.349 67.7086C201.257 67.7086 200.375 68.011 199.703 68.6158C199.031 69.2206 198.217 72.337 197.259 77.965C196.352 83.4586 196.1 86.533 196.503 87.1882C196.906 87.8434 197.654 88.171 198.746 88.171ZM212.938 95.0002L218.936 60.9802L236.223 60.9802C240.221 60.9802 242.347 62.1478 242.599 64.483C242.867 66.8014 242.8 69.1618 242.397 71.5642C242.027 73.9498 241.28 76.1758 240.154 78.2422C239.029 80.2918 236.441 81.3166 232.393 81.3166H225.488L223.119 95.0002L212.938 95.0002ZM228.235 95.0002L226.798 79.4266L236.702 78.847L238.894 95.0002H228.235ZM226.597 75.1426H229.973C230.662 75.1426 231.149 74.857 231.435 74.2858C231.737 73.6978 231.989 72.8158 232.191 71.6398C232.426 70.4134 232.493 69.5146 232.393 68.9434C232.292 68.3554 231.897 68.0614 231.208 68.0614H227.831L226.597 75.1426ZM240.779 95.0002L246.802 60.9802H256.907L250.909 95.0002H240.779ZM253.709 95.0002L259.707 60.9802H279.161L277.901 68.0614H268.603L267.494 74.437H276.188L274.953 81.2914H266.259L265.125 87.919H274.399L273.164 95.0002H253.709ZM288.269 95.1514C281.818 95.1514 278.24 93.9166 277.534 91.447C276.828 88.9606 276.744 86.1718 277.282 83.0806H287.438C286.984 85.7518 286.992 87.2638 287.463 87.6166C287.933 87.9526 288.597 88.1206 289.454 88.1206C290.31 88.1206 291.033 87.9778 291.621 87.6922C292.226 87.3898 292.629 86.6842 292.83 85.5754C293.049 84.3154 292.73 83.4922 291.873 83.1058C291.033 82.7194 289.638 82.249 287.69 81.6946C283.624 80.4514 281.112 79.1578 280.155 77.8138C279.214 76.4698 278.92 74.479 279.273 71.8414C279.542 69.271 280.516 66.7594 282.196 64.3066C283.893 61.8538 287.916 60.6274 294.267 60.6274C300.584 60.6274 304.095 61.9294 304.8 64.5334C305.506 67.1374 305.615 69.8338 305.128 72.6226H294.972C295.426 70.0186 295.401 68.5486 294.897 68.2126C294.41 67.8766 293.763 67.7086 292.956 67.7086C292.1 67.7086 291.352 67.8598 290.714 68.1622C290.092 68.4478 289.689 69.0946 289.504 70.1026C289.252 71.665 289.546 72.6226 290.386 72.9754C291.226 73.3114 292.721 73.7734 294.872 74.3614C298.904 75.6046 301.407 76.789 302.381 77.9146C303.372 79.0402 303.666 80.9638 303.263 83.6854C302.91 86.2894 301.919 88.8514 300.29 91.3714C298.677 93.8914 294.67 95.1514 288.269 95.1514Z" fill="#FC5E3B"/>
</svg>
