<svg width="84" height="84" viewBox="0 0 84 84" fill="none" xmlns="http://www.w3.org/2000/svg">
<circle cx="42" cy="42" r="42" fill="#0041EF"/>
<g clip-path="url(#clip0_1363_84)">
<path d="M41.9997 29.3536C39.4984 29.3536 37.0533 30.0954 34.9736 31.4853C32.8939 32.8752 31.273 34.8507 30.3158 37.1621C29.3586 39.4734 29.1082 42.0167 29.5961 44.4704C30.0841 46.9241 31.2886 49.1779 33.0572 50.947C34.8259 52.716 37.0793 53.9207 39.5325 54.4087C41.9856 54.8968 44.5284 54.6463 46.8393 53.6889C49.1501 52.7316 51.1253 51.1103 52.5149 49.0302C53.9045 46.95 54.6462 44.5044 54.6462 42.0027C54.6489 40.3408 54.3236 38.6948 53.6889 37.1589C53.0543 35.6231 52.1229 34.2276 50.948 33.0525C49.7732 31.8774 48.378 30.9458 46.8424 30.311C45.3069 29.6763 43.6612 29.3509 41.9997 29.3536ZM41.9997 50.2257C40.3736 50.2257 38.7841 49.7435 37.4321 48.8399C36.0801 47.9363 35.0264 46.6521 34.4041 45.1495C33.7818 43.6469 33.619 41.9936 33.9363 40.3984C34.2535 38.8033 35.0365 37.3381 36.1863 36.1881C37.3361 35.0381 38.801 34.2549 40.3958 33.9376C41.9906 33.6203 43.6436 33.7832 45.1459 34.4056C46.6481 35.0279 47.9321 36.0819 48.8355 37.4342C49.7389 38.7865 50.2211 40.3763 50.2211 42.0027C50.2171 44.1823 49.3496 46.2716 47.8087 47.8128C46.2677 49.3541 44.1789 50.2217 41.9997 50.2257ZM58.1003 28.8377C58.1003 29.421 57.9274 29.9912 57.6034 30.4761C57.2794 30.9611 56.8189 31.3391 56.2802 31.5623C55.7414 31.7855 55.1486 31.8439 54.5767 31.7301C54.0047 31.6163 53.4794 31.3354 53.067 30.923C52.6547 30.5106 52.3739 29.9851 52.2601 29.4131C52.1463 28.841 52.2047 28.248 52.4279 27.7092C52.651 27.1703 53.0289 26.7097 53.5138 26.3857C53.9987 26.0617 54.5687 25.8887 55.1519 25.8887C55.5405 25.8857 55.9259 25.9597 56.2858 26.1065C56.6457 26.2533 56.973 26.4699 57.2487 26.7438C57.5245 27.0178 57.7432 27.3436 57.8924 27.7026C58.0416 28.0615 58.1183 28.4465 58.1179 28.8352L58.1003 28.8377ZM66.4927 31.8346C66.5757 27.9973 65.1441 24.2819 62.5078 21.4928C59.7148 18.8666 56.0061 17.4363 52.1733 17.5071C48.1003 17.2756 35.8965 17.2756 31.8236 17.5071C27.9918 17.4314 24.2825 18.8583 21.489 21.4828C18.8598 24.274 17.43 27.9853 17.5066 31.8195C17.2751 35.8933 17.2751 48.0995 17.5066 52.1733C17.4249 56.0088 18.8565 59.7222 21.4915 62.51C24.2857 65.1344 27.9936 66.5644 31.8261 66.4957C35.899 66.7272 48.1028 66.7272 52.1758 66.4957C56.0105 66.5774 59.7231 65.1455 62.5104 62.51C65.1361 59.7164 66.5661 56.0069 66.4953 52.1733C66.7267 48.0995 66.7267 35.9033 66.4953 31.8295L66.4927 31.8346ZM61.2324 56.544C60.8138 57.6055 60.1815 58.5695 59.3748 59.3764C58.5682 60.1832 57.6043 60.8156 56.5431 61.2343C53.2953 62.5226 45.5921 62.2257 42.0047 62.2257C38.4173 62.2257 30.7016 62.5125 27.4663 61.2343C26.4051 60.8156 25.4412 60.1832 24.6346 59.3764C23.8279 58.5695 23.1956 57.6055 22.777 56.544C21.489 53.2955 21.7858 45.5908 21.7858 42.0027C21.7858 38.4145 21.499 30.6972 22.777 27.4613C23.1962 26.4008 23.8287 25.4377 24.6354 24.6318C25.442 23.8259 26.4056 23.1942 27.4663 22.7761C30.7116 21.4828 38.4173 21.7696 41.9997 21.7696C45.5821 21.7696 53.3028 21.4828 56.538 22.761C57.5993 23.1797 58.5631 23.8121 59.3698 24.6189C60.1765 25.4258 60.8087 26.3898 61.2273 27.4513C62.5154 30.6997 62.2185 38.4045 62.2185 41.9926C62.2185 45.5808 62.5204 53.3081 61.2324 56.544Z" fill="white"/>
</g>
<defs>
<clipPath id="clip0_1363_84">
<rect width="49.3333" height="49.3333" fill="white" transform="translate(17.333 17.3335)"/>
</clipPath>
</defs>
</svg>
