<svg width="758" height="676" viewBox="0 0 758 676" fill="none" xmlns="http://www.w3.org/2000/svg">
<path d="M25.4367 284.401L3.87219 271.362L8.5103 263.691C10.9691 259.625 14.9868 258.268 18.8992 260.634C22.8116 262.999 23.5073 267.206 21.0485 271.273L18.2731 275.863L27.2994 281.32L25.4367 284.401ZM15.3465 274.093L18.1219 269.503C19.5562 267.131 19.0017 264.987 16.9992 263.776C14.9968 262.565 12.8712 263.089 11.4369 265.461L8.66149 270.051L15.3465 274.093Z" fill="white"/>
<path d="M40.7095 259.105L26.7307 236.889L30.529 232.607L54.2546 243.835L51.6745 246.744L43.4757 242.695L38.3157 248.513L43.2895 256.197L40.7095 259.105ZM36.3783 245.543L40.2722 241.153L31.9687 237.06L30.371 235.931L30.0127 236.335L31.3237 237.787L36.3783 245.543Z" fill="white"/>
<path d="M72.0371 227.229L56.2101 216.675L53.55 214.182L53.1231 214.513L66.3738 231.616L63.528 233.821L48.0945 213.9L52.6763 210.35L68.5033 220.904L71.1635 223.397L71.5903 223.067L58.3396 205.963L61.1855 203.758L76.6189 223.679L72.0371 227.229Z" fill="white"/>
<path d="M89.6629 214.15L78.2389 191.688L91.6518 184.867L93.2022 187.915L82.9981 193.105L86.3764 199.747L96.2595 194.72L97.81 197.769L87.9268 202.795L91.3214 209.47L101.525 204.28L103.076 207.328L89.6629 214.15Z" fill="white"/>
<path d="M118.61 200.03L111.833 175.758L126.327 171.712L127.247 175.006L116.22 178.084L118.224 185.262L128.904 182.28L129.823 185.574L119.144 188.556L121.157 195.768L132.184 192.69L133.103 195.984L118.61 200.03Z" fill="white"/>
<path d="M149.022 191.975L147.2 166.841L155.817 166.216C160.987 165.841 164.265 167.733 164.619 172.616C164.95 177.176 161.818 179.28 157.265 179.719L157.304 180.257L158.238 180.695L165.934 190.749L161.374 191.079L153.38 180.398L151.8 180.512L152.613 191.715L149.022 191.975ZM151.566 177.281L157.096 176.88C159.717 176.69 161.128 175.252 160.959 172.918C160.782 170.476 159.116 169.406 156.567 169.591L151.037 169.992L151.566 177.281Z" fill="white"/>
<path d="M199.836 192.433L204.559 171.171L196.546 169.391L197.288 166.053L216.828 170.394L216.086 173.732L208.073 171.952L203.35 193.214L199.836 192.433Z" fill="white"/>
<path d="M236.114 203.368L240.522 193.39L231.96 189.608L227.552 199.585L224.259 198.13L234.443 175.08L237.736 176.535L233.343 186.479L241.904 190.262L246.298 180.317L249.591 181.772L239.407 204.823L236.114 203.368Z" fill="white"/>
<path d="M251.719 210.089L272.264 193.753L276.938 197.057L268.386 221.873L265.211 219.629L268.334 211.035L261.985 206.545L254.894 212.333L251.719 210.089ZM264.723 204.293L269.515 207.681L272.67 198.978L273.616 197.266L273.175 196.954L271.877 198.417L264.723 204.293Z" fill="white"/>
<path d="M283.81 234.805L299.88 220.104L294.34 214.048L296.863 211.739L310.374 226.507L307.85 228.816L302.31 222.76L286.24 237.461L283.81 234.805Z" fill="white"/>
<path d="M307.674 264.651L329.712 252.201L331.122 255.356L313.553 265.1L310.613 266.374L310.833 266.867L313.802 265.659L325.801 262.86L327.46 266.574L317.225 273.317L314.329 274.69L314.549 275.183L317.474 273.876L336.601 267.615L338.011 270.771L313.887 278.554L311.831 273.953L321.811 267.167L324.476 265.897L324.256 265.404L321.531 266.542L309.731 269.253L307.674 264.651Z" fill="white"/>
<path d="M321.658 301.926C320.119 295.891 323.73 291.552 332.032 289.434C340.334 287.317 345.583 289.396 347.123 295.43C348.662 301.465 345.051 305.804 336.748 307.922C328.446 310.04 323.198 307.961 321.658 301.926ZM332.967 293.097C326.583 294.725 324.002 297.279 324.972 301.081C325.942 304.883 329.431 305.888 335.814 304.26C342.198 302.631 344.779 300.078 343.809 296.276C342.839 292.474 339.35 291.469 332.967 293.097Z" fill="white"/>
<path d="M328.227 327.521L353.059 323.23L354.53 331.744C355.413 336.852 353.854 340.3 349.029 341.134C344.524 341.913 342.121 339.003 341.236 334.516L340.704 334.608L340.361 335.581L331.115 344.23L330.336 339.725L340.178 330.717L339.908 329.156L328.84 331.069L328.227 327.521ZM343.101 328.604L344.045 334.067C344.492 336.657 346.062 337.92 348.368 337.522C350.781 337.105 351.681 335.342 351.246 332.823L350.302 327.36L343.101 328.604Z" fill="white"/>
<path d="M333.891 361.577L358.685 357.071L359.329 360.613L346.967 362.86L344.765 362.418L344.861 362.95L361.144 370.602L361.871 374.604L349.114 368.836L337.045 378.933L336.279 374.718L345.849 366.978L339.742 364.173L334.535 365.119L333.891 361.577Z" fill="white"/>
<path d="M342.069 404.579C340.453 398.976 342.422 395.149 348.095 393.513L349.162 397.214C345.703 398.212 344.363 400.321 345.36 403.78C346.208 406.721 348.204 408.056 350.556 407.378C352.424 406.839 353.375 405.329 353.051 402.125L352.767 399.322C352.332 394.952 354.056 392.094 357.549 391.087C361.942 389.821 365.904 392.388 367.4 397.576C368.966 403.007 366.948 406.923 361.448 408.509L360.381 404.808C363.805 403.82 365.096 401.8 364.109 398.375C363.201 395.227 361.131 394.026 358.883 394.674C357.05 395.203 356.134 396.703 356.423 399.917L356.672 402.73C357.073 407.11 355.384 409.958 351.752 411.005C347.393 412.261 343.605 409.907 342.069 404.579Z" fill="white"/>
<path d="M356.759 444.895L381.724 436.789L384.944 441.521L368.243 461.77L366.055 458.556L371.99 451.599L367.615 445.171L358.946 448.109L356.759 444.895ZM370.969 444.02L374.271 448.872L380.274 441.825L381.76 440.553L381.456 440.106L379.727 441.021L370.969 444.02Z" fill="white"/>
<path d="M387.175 483.398C382.596 479.786 381.966 475.528 385.622 470.893L388.647 473.279C386.417 476.105 386.557 478.6 389.384 480.83C391.786 482.725 394.186 482.647 395.703 480.725C396.907 479.199 396.799 477.418 394.669 475.003L392.804 472.891C389.903 469.593 389.639 466.266 391.891 463.412C394.723 459.822 399.438 459.599 403.678 462.944C408.115 466.445 408.758 470.803 405.213 475.297L402.188 472.911C404.396 470.113 404.267 467.719 401.469 465.511C398.897 463.482 396.515 463.712 395.065 465.549C393.884 467.047 394.014 468.801 396.122 471.243L397.964 473.384C400.842 476.71 401.129 480.008 398.788 482.976C395.978 486.537 391.527 486.832 387.175 483.398Z" fill="white"/>
<path d="M438.084 511.017L441.41 500.628L432.496 497.774L429.17 508.163L425.742 507.065L433.425 483.065L436.854 484.163L433.539 494.517L442.453 497.371L445.768 487.017L449.197 488.114L441.513 512.114L438.084 511.017Z" fill="white"/>
<path d="M460.005 517.352L470.189 493.16L475.875 493.816L480.283 519.692L476.42 519.246L475.035 510.208L467.31 509.316L463.867 517.798L460.005 517.352ZM468.632 506.026L474.461 506.699L473.053 497.549L473.061 495.593L472.525 495.531L472.087 497.438L468.632 506.026Z" fill="white"/>
<path d="M498.43 521.087L499.062 495.895L507.7 496.112C512.882 496.242 515.96 498.444 515.837 503.338C515.722 507.909 512.4 509.698 507.827 509.691L507.814 510.231L508.701 510.758L515.381 521.513L510.811 521.398L503.894 509.989L502.311 509.949L502.029 521.178L498.43 521.087ZM502.392 506.71L507.934 506.849C510.562 506.915 512.107 505.621 512.165 503.282C512.227 500.835 510.673 499.608 508.118 499.544L502.575 499.404L502.392 506.71Z" fill="white"/>
<path d="M532.519 521.686L533.733 496.516L540.565 496.845C547.002 497.156 550.588 502.014 550.206 509.925C549.825 517.836 545.787 522.327 539.351 522.016L532.519 521.686ZM536.28 518.444L539.875 518.617C543.651 518.8 546.157 515.424 546.431 509.743C546.705 504.062 544.536 500.461 540.76 500.279L537.164 500.105L536.28 518.444Z" fill="white"/>
<path d="M575.721 524.202L589.734 502.008L595.236 503.587L595.34 529.835L591.603 528.762L591.719 519.619L584.245 517.473L579.458 525.275L575.721 524.202ZM586.089 514.444L591.729 516.064L591.84 506.807L592.168 504.879L591.649 504.73L590.905 506.539L586.089 514.444Z" fill="white"/>
<path d="M613.233 538.056C608.409 534.779 607.477 530.577 610.794 525.694L613.98 527.858C611.958 530.836 612.276 533.315 615.253 535.338C617.785 537.057 620.173 536.808 621.549 534.783C622.641 533.175 622.407 531.406 620.11 529.149L618.1 527.175C614.972 524.092 614.471 520.793 616.514 517.785C619.083 514.003 623.771 513.445 628.238 516.479C632.913 519.655 633.864 523.957 630.648 528.692L627.462 526.527C629.464 523.579 629.165 521.2 626.217 519.197C623.507 517.357 621.147 517.755 619.833 519.691C618.761 521.269 619.015 523.009 621.292 525.295L623.281 527.3C626.39 530.412 626.91 533.682 624.786 536.808C622.238 540.561 617.819 541.171 613.233 538.056Z" fill="white"/>
<path d="M642.255 565.494L650.707 561.149L660.783 546.416L662.708 550.163L655.287 560.373L653.913 561.242L654.159 561.722L655.666 561.109L668.288 561.016L670.214 564.762L652.353 564.35L643.901 568.695L642.255 565.494Z" fill="white"/>
<path d="M654.159 595.444C652.903 589.344 656.714 585.178 665.106 583.451C673.498 581.724 678.644 584.047 679.899 590.147C681.155 596.247 677.344 600.413 668.952 602.14C660.56 603.867 655.414 601.544 654.159 595.444ZM665.868 587.154C659.415 588.481 656.718 590.911 657.508 594.754C658.299 598.598 661.737 599.765 668.19 598.437C674.643 597.109 677.34 594.68 676.549 590.836C675.759 586.993 672.321 585.826 665.868 587.154Z" fill="white"/>
<path d="M658.107 625.745C658.364 620.856 661.885 617.652 666.774 617.91L684.246 618.829L684.057 622.424L666.585 621.505C663.565 621.346 661.673 623.049 661.522 625.925C661.367 628.873 663.074 630.693 666.093 630.852L683.565 631.771L683.376 635.366L665.904 634.447C661.015 634.19 657.849 630.634 658.107 625.745Z" fill="white"/>
<path d="M654.344 660.448L676.257 672.892L672.879 678.84C669.696 684.444 663.742 685.451 656.856 681.539C649.969 677.628 647.784 671.999 650.966 666.395L654.344 660.448ZM655.54 665.267L653.762 668.397C651.895 671.684 653.776 675.444 658.722 678.252C663.668 681.061 667.86 680.751 669.727 677.464L671.505 674.334L655.54 665.267Z" fill="white"/>
</svg>
