<svg width="84" height="84" viewBox="0 0 84 84" fill="none" xmlns="http://www.w3.org/2000/svg">
<circle cx="42" cy="42" r="42" fill="white"/>
<g clip-path="url(#clip0_1363_73)">
<path d="M29.8432 61.3311H20.7205V31.955H29.8432V61.3311ZM25.2783 27.9482C24.2286 27.9532 23.201 27.6469 22.3254 27.068C21.4498 26.489 20.7656 25.6634 20.3592 24.6956C19.9528 23.7277 19.8425 22.6611 20.0423 21.6306C20.2422 20.6001 20.743 19.652 21.4817 18.9062C22.2203 18.1604 23.1636 17.6503 24.1921 17.4406C25.2206 17.2308 26.2882 17.3307 27.2599 17.7277C28.2317 18.1247 29.0638 18.8009 29.6512 19.6709C30.2387 20.5408 30.5549 21.5654 30.56 22.6151C30.5613 24.021 30.0069 25.3705 29.0175 26.3694C28.0282 27.3684 26.6842 27.9358 25.2783 27.9482ZM63.985 61.3381H54.8786V47.0318C54.8786 43.6228 54.8109 39.2541 50.1363 39.2541C45.394 39.2541 44.6678 42.9573 44.6678 46.7866V61.3334H35.5615V31.955H44.3106V35.9641H44.439C45.3144 34.465 46.5805 33.2318 48.1021 32.3962C49.6237 31.5606 51.3436 31.1538 53.0783 31.2194C62.3108 31.2194 64.0083 37.2903 64.0083 45.1965V61.3334L63.985 61.3381Z" fill="#004BF0"/>
</g>
<defs>
<clipPath id="clip0_1363_73">
<rect width="44" height="44" fill="white" transform="translate(20 17.3335)"/>
</clipPath>
</defs>
</svg>
