<svg width="64" height="74" viewBox="0 0 64 74" fill="none" xmlns="http://www.w3.org/2000/svg">
<path d="M40.9002 10.5054C38.7042 9.41214 33.0305 12.5601 30.5988 10.3264C29.5527 9.36502 30.2878 7.76279 31.4753 6.24538C33.775 3.30482 37.036 1.24077 40.6835 0.449077C42.7381 -0.00331694 44.7739 0.119207 46.2064 1.23134C46.8568 1.74029 50.2309 4.44523 45.2922 11.9097C41.8993 17.0369 39.741 19.8455 38.7231 21.099C40.7306 18.771 46.6023 12.3339 49.7125 12.8239C53.5107 13.4271 42.0029 32.5785 42.0029 32.5785C42.0029 32.5785 50.0329 20.9105 54.2647 22.6353C58.4965 24.36 50.5796 39.3361 50.5796 39.3361C50.5796 39.3361 47.2903 47.4792 51.277 49.6187C51.277 49.6187 52.6531 51.2115 58.308 44.0392C63.9723 36.8762 63.4634 46.1315 63.4634 46.1315C63.4634 46.1315 63.1712 57.1303 51.9273 66.5552C39.232 76.3473 38.4794 63.3513 38.4794 63.3513C38.4794 63.3513 37.4914 56.5112 41.3338 44.8308L42.7664 41.6829C40.118 47.0457 35.5657 55.2076 29.5715 61.9559C29.5715 61.9559 26.1409 66.5929 23.6338 65.3394C21.1268 64.0859 25.8487 55.6695 25.8487 55.6695C25.8487 55.6695 34.2463 39.3833 39.232 30.2129L29.4301 47.4887C29.4301 47.4887 15.83 71.2017 9.15722 73.4071C4.99142 74.7831 2.26763 72.8887 1.40054 71.3242C0.853896 70.3346 0.16588 69.524 0.750223 65.2734C1.68329 58.5064 7.12144 49.0155 14.8687 41.2211C24.435 31.6077 35.2924 20.8257 35.2924 20.8257C35.2924 20.8257 41.3809 13.5591 41.5411 10.8918L40.9002 10.4866V10.5054Z" fill="#0564F2"/>
</svg>
