<svg width="37" height="37" viewBox="0 0 37 37" fill="none" xmlns="http://www.w3.org/2000/svg">
<mask id="mask0_333_233" style="mask-type:alpha" maskUnits="userSpaceOnUse" x="5" y="4" width="27" height="27">
<path d="M16.5979 5.8541C17.1966 4.01148 19.8034 4.01148 20.4021 5.8541L22.2045 11.4012C22.4722 12.2253 23.2401 12.7832 24.1066 12.7832H29.9392C31.8766 12.7832 32.6822 15.2624 31.1147 16.4012L26.3961 19.8295C25.6951 20.3388 25.4018 21.2415 25.6695 22.0656L27.4719 27.6127C28.0706 29.4553 25.9617 30.9876 24.3942 29.8488L19.6756 26.4205C18.9746 25.9112 18.0254 25.9112 17.3244 26.4205L12.6058 29.8488C11.0383 30.9876 8.92938 29.4553 9.52809 27.6127L11.3305 22.0656C11.5982 21.2415 11.3049 20.3388 10.6039 19.8295L5.88525 16.4012C4.31782 15.2624 5.12337 12.7832 7.06082 12.7832H12.8934C13.7599 12.7832 14.5278 12.2253 14.7955 11.4012L16.5979 5.8541Z" fill="#FC5E3B"/>
</mask>
<g mask="url(#mask0_333_233)">
<rect x="18" y="2" width="17" height="32" fill="#FFECD6"/>
</g>
</svg>
