<svg width="85" height="58" viewBox="0 0 85 58" fill="none" xmlns="http://www.w3.org/2000/svg">
<path d="M30.1755 34.3255L17.4549 34.907C16.3026 34.9557 15.2385 35.6722 14.8973 36.774C14.2675 38.7942 12.4206 40.3213 10.1687 40.4156C7.29875 40.5422 4.8748 38.3258 4.74986 35.4822C4.69967 34.3936 4.99124 33.3478 5.53788 32.4878C5.89095 31.9312 5.85695 31.1966 5.45369 30.6646C4.70638 29.7031 4.29088 28.4458 4.4141 27.0711C4.58682 24.7659 6.40648 22.79 8.68888 22.413C11.2073 21.9951 13.4914 23.3933 14.3854 25.5489C14.8208 26.6089 15.9448 27.2296 17.0972 27.1808L29.8178 26.5993" fill="black"/>
<path d="M79.0757 28.234C79.567 39.206 69.674 48.5666 56.9689 49.1419C44.2639 49.7171 29.9098 41.4629 29.4186 30.4909C28.9274 19.519 42.4621 10.0008 55.1718 9.41464C67.8769 8.83939 78.5845 17.2621 79.0757 28.234Z" fill="black" stroke="white" stroke-width="1.5" stroke-miterlimit="10"/>
<path d="M36.0287 30.183C35.6672 22.1338 45.6034 15.1447 54.9261 14.7218L36.0287 30.183Z" fill="black"/>
<path d="M36.0287 30.183C35.6672 22.1338 45.6034 15.1447 54.9261 14.7218" stroke="white" stroke-width="1.5" stroke-miterlimit="10"/>
</svg>
