<svg width="618" height="821" viewBox="0 0 618 821" fill="none" xmlns="http://www.w3.org/2000/svg">
<path d="M531.588 711.281C597.225 652.522 629.317 558.583 613.348 471.961C601.937 410.042 562.221 349.071 501.711 331.678C437.756 313.274 363.172 345.514 305.254 312.735C270.296 292.971 250.818 253.62 241.543 214.566C232.272 175.488 231.171 134.853 222.151 95.7314C216.535 71.3391 207.387 46.9335 190.148 28.798C149.98 -13.482 73.617 -5.58004 34.6305 37.8198C-4.33287 81.2245 -7.92351 148.886 15.6708 202.221C42.6853 263.267 101.799 314.381 99.0115 381.097C96.5691 439.461 47.0009 483.913 25.2179 538.106C-6.97167 618.177 28.691 715.726 97.3671 767.995C166.043 820.263 260.352 830.935 344.127 810.181C427.902 789.428 502.211 740.353 566.707 683" fill="#FC5E3B" fill-opacity="0.2"/>
</svg>
