<svg width="383" height="318" viewBox="0 0 383 318" fill="none" xmlns="http://www.w3.org/2000/svg">
<path d="M364.372 26.2002L367.387 9.07357H361.234L361.862 5.53805H379.371L378.728 9.07357H372.591L369.591 26.2002H364.372ZM354.507 58.2002L358.149 37.538H366.445L367.562 53.93H367.608L374.495 37.538H382.974L379.347 58.2002H374.205L377.204 41.1195H377.158L370.041 57.6339H363.996L362.71 41.1195H362.664L359.634 58.2002H354.507Z" fill="white"/>
<mask id="path-2-inside-1_145_7229" fill="white">
<path d="M249.195 81.7339C250.423 86.843 254.205 92.8036 254.205 92.8036L249.195 81.7339Z"/>
</mask>
<path d="M249.195 81.7339C250.423 86.843 254.205 92.8036 254.205 92.8036L249.195 81.7339Z" fill="white"/>
<path d="M249.195 81.7339L251.772 80.5677L246.445 82.3947L249.195 81.7339ZM254.205 92.8036L251.817 94.319L256.782 91.6374L254.205 92.8036ZM246.445 82.3947C247.139 85.2815 248.515 88.2878 249.648 90.4822C250.225 91.5998 250.761 92.5489 251.154 93.2211C251.351 93.5577 251.513 93.8264 251.628 94.0136C251.685 94.1072 251.731 94.1806 251.763 94.232C251.779 94.2578 251.791 94.278 251.801 94.2926C251.805 94.2999 251.809 94.3057 251.812 94.3101C251.813 94.3123 251.814 94.3142 251.815 94.3157C251.816 94.3164 251.816 94.3171 251.816 94.3176C251.817 94.3179 251.817 94.3182 251.817 94.3184C251.817 94.3187 251.817 94.319 254.205 92.8036C256.594 91.2883 256.594 91.2885 256.594 91.2888C256.594 91.2888 256.594 91.289 256.594 91.2891C256.594 91.2893 256.594 91.2894 256.594 91.2894C256.594 91.2895 256.594 91.2892 256.594 91.2885C256.593 91.2871 256.591 91.2844 256.588 91.2802C256.583 91.2719 256.575 91.2581 256.563 91.2389C256.539 91.2005 256.502 91.1408 256.453 91.0615C256.356 90.9028 256.213 90.6658 256.036 90.3638C255.682 89.7587 255.196 88.8984 254.674 87.8872C253.609 85.8239 252.479 83.2954 251.945 81.073L246.445 82.3947ZM256.782 91.6374L251.772 80.5677L246.619 82.9001L251.629 93.9698L256.782 91.6374Z" fill="#4A4A4A" mask="url(#path-2-inside-1_145_7229)"/>
<path d="M249.195 81.7339C250.423 86.843 254.205 92.8036 254.205 92.8036" stroke="#4A4A4A" stroke-width="2.82831" stroke-linecap="round" stroke-linejoin="round"/>
<path d="M166.831 152.548C157.427 154.627 140.479 186.027 139.133 188.541C140.499 185.908 157.704 151.558 133.688 154.646C108.723 157.854 91.3396 180.147 81.1632 193.531C70.967 206.914 62.7506 234.989 72.1549 244.967C80.5098 253.837 91.9929 257.895 110.861 235.919C105.159 243.799 99.6945 250.807 96.507 253.441C87.6768 260.746 81.1434 267.141 61.3251 264.805C37.5274 261.994 31.9442 235.107 16.541 237.998C1.13786 240.908 2.009 264.963 2.009 264.963C2.009 264.963 1.9694 295.334 20.7383 306.877C39.5072 318.439 65.6412 325.289 95.7942 287.553C139.054 233.405 165.326 171.95 165.326 171.95C165.326 171.95 176.631 150.39 166.831 152.548ZM116.662 205.806C105.04 221.842 92.9828 232.949 89.7359 230.593C86.4889 228.237 93.2996 213.349 104.941 197.292C116.583 181.256 128.62 170.149 131.867 172.505C135.114 174.861 128.303 189.749 116.662 205.786V205.806Z" fill="white" stroke="#4A4A4A" stroke-width="2.82831" stroke-linecap="round" stroke-linejoin="round"/>
<path d="M137.474 218.639C137.474 218.639 113.993 255.565 109.696 268.79L126.07 244.972L137.633 218.263L137.474 218.639Z" fill="#4A4A4A" stroke="#4A4A4A" stroke-width="2.82831" stroke-linecap="round" stroke-linejoin="round"/>
<path d="M149.959 23.8506C145.346 21.554 133.427 28.1666 128.319 23.4744C126.122 21.455 127.666 18.0892 130.161 14.9017C134.991 8.72457 141.842 4.38872 149.504 2.72565C153.82 1.77532 158.096 2.0327 161.105 4.36892C162.472 5.43803 169.559 11.1202 159.185 26.8006C152.058 37.5709 147.524 43.4708 145.386 46.104C149.603 41.2138 161.937 27.6915 168.471 28.721C176.449 29.9881 152.275 70.2185 152.275 70.2185C152.275 70.2185 169.144 45.7081 178.033 49.3312C186.923 52.9543 170.292 84.414 170.292 84.414C170.292 84.414 163.382 101.52 171.757 106.014C171.757 106.014 174.648 109.36 186.527 94.2934C198.426 79.2466 197.356 98.6887 197.356 98.6887C197.356 98.6887 196.743 121.793 173.123 141.592C149.484 161.39 147.108 134.148 147.108 134.148C147.108 134.148 144.97 104.707 150.87 95.9565L153.879 89.3438C148.316 100.609 138.753 117.755 126.161 131.93C126.161 131.93 118.955 141.671 113.688 139.038C108.422 136.405 118.341 118.725 118.341 118.725C118.341 118.725 135.981 84.513 146.455 65.2491L125.864 101.54C125.864 101.54 97.2951 151.353 83.2778 155.985C74.5269 158.876 68.8052 154.896 66.9837 151.61C65.8354 149.531 64.3901 147.828 65.6176 138.899C67.5777 124.684 79.0014 104.747 95.2757 88.3737C115.371 68.1793 138.179 45.5299 138.179 45.5299C138.179 45.5299 150.969 30.2653 151.305 24.6623L149.959 23.811V23.8506Z" fill="white" stroke="#4A4A4A" stroke-width="2.82831" stroke-linecap="round" stroke-linejoin="round"/>
<path d="M208.439 73.2636C210.597 67.0465 209.033 60.8294 204.934 59.4038C200.836 57.9782 195.747 61.8589 193.569 68.0761C191.411 74.2932 192.975 80.5104 197.074 81.936C201.172 83.3616 206.261 79.4808 208.439 73.2636Z" fill="white" stroke="#4A4A4A" stroke-width="2.82831" stroke-linecap="round" stroke-linejoin="round"/>
<path d="M228.479 42.0591C228.479 42.0591 215.709 53.3046 195.97 108.424C177.082 161.167 195.475 142.437 201.355 133.627C205.038 128.123 224.777 100.524 233.785 61.224C241.13 29.1901 228.479 42.0591 228.479 42.0591Z" fill="white" stroke="#4A4A4A" stroke-width="2.82831" stroke-linecap="round" stroke-linejoin="round"/>
<path d="M217.961 99.1985L197.806 138.025C197.806 138.025 204.339 129.254 209.428 121.057L218.998 97.3154L217.961 99.1985Z" fill="#4A4A4A" stroke="#4A4A4A" stroke-width="2.82831" stroke-linecap="round" stroke-linejoin="round"/>
<path d="M218.19 170.161C218.19 170.161 210.885 170.399 205.539 198.869C200.213 227.339 197.956 250.306 203.203 256.542C208.449 262.779 215.676 249.058 217.438 238.822C219.18 228.587 227.674 204.373 224.427 179.665C224.427 179.665 223.932 168.439 218.19 170.181V170.161Z" fill="white" stroke="#4A4A4A" stroke-width="2.82831" stroke-linecap="round" stroke-linejoin="round"/>
<path d="M202.291 231.194C202.532 235.56 202.63 241.853 202.186 250.279C201.181 246.542 200.338 240.753 201.026 232.584C201.287 229.486 201.559 227.248 201.825 225.656C201.979 226.928 202.157 228.762 202.291 231.194ZM202.622 222.557C202.634 222.538 202.64 222.53 202.64 222.531C202.64 222.532 202.634 222.542 202.622 222.557Z" fill="#4A4A4A" stroke="#4A4A4A" stroke-width="2.82831"/>
<path d="M289.371 86.0221C289.371 86.0221 384.423 29.3194 354.845 14.629C325.266 -0.0614691 256.961 67.9462 256.961 67.9462C256.961 67.9462 295.766 29.458 283.451 21.598C283.451 21.598 278.997 18.1333 271.533 23.3997C271.533 23.3997 220.809 67.075 203.248 143.616C203.248 143.616 197.625 162.622 210.158 159.989C222.69 157.356 233.737 140.25 240.172 98.5941C240.172 98.5941 226.768 173.511 281.848 163.513C336.927 153.515 339.085 130.39 339.085 130.39C339.085 130.39 345.282 121.145 321.662 117.165C298.043 113.186 269.018 112.512 254.189 92.8526C254.189 92.8526 254.684 100.138 289.371 86.0617V86.0221Z" fill="white" stroke="#4A4A4A" stroke-width="2.82831" stroke-linecap="round" stroke-linejoin="round"/>
<path d="M271.906 118.452L266.183 103.818L274.836 107.778L271.906 118.452Z" fill="#4A4A4A" stroke="#4A4A4A" stroke-width="2.82831" stroke-linecap="round" stroke-linejoin="round"/>
<path d="M300.909 127.4L294.196 113.28L304.236 114.528L300.909 127.4Z" fill="#4A4A4A" stroke="#4A4A4A" stroke-width="2.82831" stroke-linecap="round" stroke-linejoin="round"/>
<mask id="path-16-inside-2_145_7229" fill="white">
<path d="M287.288 116.413L283.565 110.848L286.457 111.205L287.288 116.413Z"/>
</mask>
<path d="M287.288 116.413L283.565 110.848L286.457 111.205L287.288 116.413Z" fill="#4A4A4A"/>
<path d="M287.288 116.413L284.938 117.985L290.081 115.967L287.288 116.413ZM283.565 110.848L283.912 108.041L277.779 107.285L281.215 112.421L283.565 110.848ZM286.457 111.205L289.25 110.759L288.914 108.658L286.803 108.398L286.457 111.205ZM289.639 114.84L285.916 109.275L281.215 112.421L284.938 117.985L289.639 114.84ZM283.219 113.655L286.111 114.012L286.803 108.398L283.912 108.041L283.219 113.655ZM283.664 111.651L284.495 116.859L290.081 115.967L289.25 110.759L283.664 111.651Z" fill="#4A4A4A" mask="url(#path-16-inside-2_145_7229)"/>
<mask id="path-18-inside-3_145_7229" fill="white">
<path d="M304.074 120.092L302.054 114.112L305.321 114.666L304.074 120.092Z"/>
</mask>
<path d="M304.074 120.092L302.054 114.112L305.321 114.666L304.074 120.092Z" fill="white"/>
<path d="M304.074 120.092L301.394 120.997L304.591 130.463L306.83 120.726L304.074 120.092ZM302.054 114.112L302.527 111.323L297.859 110.531L299.374 115.017L302.054 114.112ZM305.321 114.666L308.078 115.3L308.749 112.379L305.794 111.878L305.321 114.666ZM306.753 119.187L304.733 113.207L299.374 115.017L301.394 120.997L306.753 119.187ZM301.581 116.9L304.848 117.455L305.794 111.878L302.527 111.323L301.581 116.9ZM302.565 114.033L301.317 119.458L306.83 120.726L308.078 115.3L302.565 114.033Z" fill="#4A4A4A" mask="url(#path-18-inside-3_145_7229)"/>
<path d="M204.606 159.045C204.606 159.045 206.111 149.064 214.943 144.965L207.675 159.678L204.586 159.045H204.606Z" fill="#4A4A4A" stroke="#4A4A4A" stroke-width="2.82831" stroke-linecap="round" stroke-linejoin="round"/>
<path d="M291.07 160.143C292.121 158.827 293.51 157.205 295.158 155.541C297.658 153.018 300.675 150.484 303.954 148.743L292.557 159.821L291.07 160.143Z" fill="#4A4A4A" stroke="#4A4A4A" stroke-width="2.82831"/>
<path d="M239.581 157.905C239.581 157.905 226.237 162.697 217.169 233.179C209.587 292.178 220.357 287.704 226.534 281.289C228.692 279.052 230.415 276.439 231.682 273.607C235.087 266.005 243.937 244.741 244.333 228.051C244.333 228.051 250.569 278.478 262.052 281.467C273.536 284.457 281.514 247.018 281.514 247.018C281.514 247.018 297.987 186.356 287.513 165.884C281.613 154.361 273.654 160.539 267.834 168.161C263.26 174.14 260.013 181.01 258.152 188.296L254.727 201.759C254.588 202.274 253.836 202.194 253.816 201.66C253.717 189.345 252.411 150.758 239.581 157.925V157.905Z" fill="white" stroke="#4A4A4A" stroke-width="2.82831" stroke-linecap="round" stroke-linejoin="round"/>
<path d="M238.942 198.23L244.308 228.07" stroke="#4A4A4A" stroke-width="2.82831" stroke-linecap="round" stroke-linejoin="round"/>
<path d="M335.535 145.626C335.535 145.626 319.241 134.222 300.828 151.467C293.404 158.436 289.009 168.018 288.276 178.175C287.662 186.53 288.375 198.132 293.582 211.278C298.433 223.513 297.027 232.343 294.136 238.283C291.563 243.569 286.87 247.489 281.287 249.33C275.447 251.251 265.152 256.003 262.835 266.06C261.806 270.574 263.983 275.247 268.161 277.246C273.447 279.8 283.307 280.652 301.343 272.693C335.297 257.725 321.062 216.524 321.062 216.524C321.062 216.524 310.351 190.034 324.804 178.828C334.783 171.087 345.771 173.839 345.018 161.861C344.266 149.883 335.535 145.626 335.535 145.626Z" fill="white" stroke="#4A4A4A" stroke-width="2.82831" stroke-linecap="round" stroke-linejoin="round"/>
<path d="M278.326 120.842C276.524 123.317 272.604 122.268 272.248 119.239C271.555 113.437 270.782 106.092 273.535 96.5287C277.93 81.3031 283.276 71.0867 290.206 71.1461C297.135 71.2055 295.591 89.4406 295.591 89.4406L292.918 102.864C292.918 102.864 297.71 73.3438 309.055 70.0769C318.024 67.4832 318.934 79.7389 319.905 81.7981C320.399 82.8672 320.558 84.0354 320.419 85.2035C319.687 91.4007 317.746 134.543 306.302 133.138C291.611 131.336 306.302 83.6394 306.302 83.6394C306.302 83.6394 296.363 115.556 290.245 117.496C284.107 119.437 286.107 97.6573 287.691 89.8762C287.691 89.8762 284.682 112.091 278.306 120.842H278.326Z" fill="white" stroke="#4A4A4A" stroke-width="2.82831" stroke-linecap="round" stroke-linejoin="round"/>
<mask id="path-26-inside-4_145_7229" fill="white">
<path d="M327.327 102.676C327.327 102.676 312.101 116.298 316.774 125.505C321.446 134.711 337.939 102.834 339.523 99.4685C341.107 96.1027 351.819 71.3932 344.592 62.7805C343.641 61.6321 341.998 61.3549 340.731 62.1469C337.88 63.9486 333.346 70.4824 330.574 93.1328C330.574 93.1328 330.614 57.0585 316.2 62.9191C305.092 67.4333 329.069 105.547 329.069 105.547"/>
</mask>
<path d="M327.327 102.676C327.327 102.676 312.101 116.298 316.774 125.505C321.446 134.711 337.939 102.834 339.523 99.4685C341.107 96.1027 351.819 71.3932 344.592 62.7805C343.641 61.6321 341.998 61.3549 340.731 62.1469C337.88 63.9486 333.346 70.4824 330.574 93.1328C330.574 93.1328 330.614 57.0585 316.2 62.9191C305.092 67.4333 329.069 105.547 329.069 105.547" fill="white"/>
<path d="M344.592 62.7805L342.413 64.5837L342.419 64.5911L342.425 64.5984L344.592 62.7805ZM340.731 62.1469L339.232 59.7485L339.22 59.756L340.731 62.1469ZM330.574 93.1328L327.746 93.1297L333.381 93.4763L330.574 93.1328ZM316.2 62.9191L317.265 65.5392L317.265 65.5391L316.2 62.9191ZM327.327 102.676C325.441 100.568 325.44 100.569 325.44 100.569C325.44 100.569 325.439 100.57 325.438 100.571C325.437 100.572 325.436 100.573 325.434 100.574C325.431 100.577 325.427 100.581 325.422 100.585C325.412 100.594 325.398 100.607 325.381 100.622C325.347 100.654 325.298 100.698 325.237 100.754C325.115 100.867 324.941 101.03 324.724 101.238C324.291 101.653 323.684 102.252 322.974 102.997C321.559 104.481 319.704 106.579 317.989 109.005C316.288 111.41 314.635 114.26 313.742 117.242C312.845 120.237 312.646 123.62 314.252 126.785L319.296 124.225C318.566 122.785 318.517 121.013 319.161 118.865C319.808 116.704 321.086 114.422 322.607 112.271C324.114 110.14 325.774 108.258 327.068 106.9C327.712 106.224 328.258 105.686 328.639 105.321C328.83 105.138 328.978 104.999 329.077 104.908C329.126 104.863 329.163 104.829 329.186 104.808C329.197 104.798 329.205 104.791 329.21 104.786C329.212 104.784 329.213 104.783 329.214 104.783C329.214 104.783 329.214 104.783 329.214 104.783C329.214 104.783 329.214 104.783 329.214 104.783C329.213 104.783 329.213 104.784 327.327 102.676ZM314.252 126.785C315.167 128.588 316.761 129.988 319.019 129.996C320.897 130.002 322.566 129.004 323.822 128.02C326.425 125.979 329.183 122.426 331.648 118.788C336.657 111.395 341.247 102.449 342.082 100.673L336.964 98.2643C336.216 99.8542 331.767 108.529 326.965 115.615C324.526 119.215 322.185 122.116 320.332 123.568C319.359 124.33 318.961 124.339 319.037 124.339C319.492 124.34 319.549 124.723 319.296 124.225L314.252 126.785ZM342.082 100.673C342.918 98.8978 346.069 91.7033 348.101 83.7961C349.116 79.8473 349.886 75.5925 349.9 71.6831C349.913 67.8422 349.199 63.8712 346.758 60.9625L342.425 64.5984C343.598 65.9961 344.255 68.3436 344.243 71.6631C344.232 74.9143 343.58 78.6621 342.622 82.388C340.71 89.8302 337.713 96.6734 336.964 98.2643L342.082 100.673ZM346.771 60.9772C344.928 58.7507 341.716 58.1959 339.232 59.7485L342.23 64.5453C342.261 64.5258 342.288 64.5214 342.318 64.5264C342.35 64.5317 342.383 64.5474 342.413 64.5837L346.771 60.9772ZM339.22 59.756C337.073 61.1131 334.931 63.8299 332.989 68.7904C331.033 73.7854 329.168 81.339 327.767 92.7892L333.381 93.4763C334.752 82.2762 336.539 75.2377 338.256 70.8528C339.987 66.4334 341.538 64.9825 342.242 64.5378L339.22 59.756ZM330.574 93.1328C333.402 93.1359 333.402 93.1352 333.402 93.1344C333.402 93.1339 333.402 93.1329 333.402 93.132C333.402 93.1302 333.402 93.1278 333.402 93.1249C333.402 93.119 333.402 93.111 333.402 93.1008C333.402 93.0804 333.402 93.0515 333.402 93.0143C333.401 92.9399 333.401 92.8325 333.399 92.6943C333.396 92.4181 333.389 92.0188 333.375 91.5156C333.347 90.51 333.29 89.086 333.177 87.3978C332.951 84.0366 332.493 79.5601 331.556 75.2304C330.64 70.9925 329.186 66.4995 326.745 63.4129C325.49 61.8265 323.865 60.4727 321.79 59.8322C319.68 59.1808 317.427 59.3668 315.134 60.299L317.265 65.5391C318.576 65.0062 319.475 65.0375 320.121 65.2371C320.803 65.4477 321.54 65.9507 322.308 66.9222C323.913 68.9512 325.152 72.3779 326.028 76.426C326.883 80.3823 327.316 84.558 327.533 87.7777C327.641 89.3798 327.694 90.7284 327.72 91.6726C327.733 92.1445 327.74 92.5145 327.743 92.7638C327.744 92.8885 327.745 92.9828 327.745 93.0446C327.746 93.0755 327.746 93.0982 327.746 93.1125C327.746 93.1197 327.746 93.1247 327.746 93.1275C327.746 93.129 327.746 93.1299 327.746 93.1302C327.746 93.1304 327.746 93.1303 327.746 93.1304C327.746 93.1301 327.746 93.1297 330.574 93.1328ZM315.135 60.2989C312.791 61.2513 311.435 63.1317 310.837 65.2934C310.274 67.3319 310.361 69.6547 310.733 71.9391C311.482 76.5315 313.568 81.9983 315.896 87.1C318.247 92.2512 320.941 97.2364 323.038 100.92C324.089 102.766 324.995 104.293 325.639 105.361C325.961 105.895 326.218 106.315 326.396 106.603C326.484 106.747 326.553 106.858 326.6 106.933C326.624 106.971 326.642 107 326.655 107.02C326.661 107.03 326.666 107.038 326.669 107.044C326.671 107.046 326.672 107.048 326.673 107.05C326.674 107.051 326.674 107.052 326.675 107.052C326.675 107.053 326.675 107.053 329.069 105.547C331.463 104.041 331.463 104.041 331.463 104.041C331.463 104.041 331.463 104.041 331.463 104.04C331.462 104.04 331.462 104.038 331.46 104.036C331.458 104.033 331.454 104.027 331.449 104.018C331.439 104.002 331.423 103.976 331.401 103.942C331.358 103.873 331.294 103.769 331.21 103.633C331.041 103.36 330.794 102.956 330.482 102.44C329.859 101.406 328.978 99.9199 327.954 98.1219C325.903 94.5185 323.297 89.6932 321.042 84.7516C318.765 79.7607 316.939 74.8527 316.316 71.0291C316.003 69.1056 316.038 67.7101 316.29 66.8002C316.507 66.0135 316.831 65.7154 317.265 65.5392L315.135 60.2989Z" fill="#4A4A4A" mask="url(#path-26-inside-4_145_7229)"/>
<path d="M327.327 102.676C327.327 102.676 312.101 116.298 316.774 125.505C321.446 134.711 337.939 102.834 339.523 99.4685C341.107 96.1027 351.819 71.3932 344.592 62.7805C343.641 61.6321 341.998 61.3549 340.731 62.1469C337.88 63.9486 333.346 70.4824 330.574 93.1328C330.574 93.1328 330.614 57.0585 316.2 62.9191C305.092 67.4333 329.069 105.547 329.069 105.547" stroke="#4A4A4A" stroke-width="2.82831" stroke-linecap="round" stroke-linejoin="round"/>
<path d="M225.887 157.732C229.886 150.802 229.688 143.199 225.451 140.763C221.214 138.308 214.541 141.951 210.542 148.862C206.542 155.792 206.74 163.395 210.977 165.83C215.214 168.286 221.887 164.642 225.887 157.732Z" fill="white" stroke="#4A4A4A" stroke-width="2.82831" stroke-linecap="round" stroke-linejoin="round"/>
<path d="M288.117 196.21L288.563 200.774L287.884 205.521C287.793 202.679 287.908 199.411 288.116 196.218C288.117 196.215 288.117 196.213 288.117 196.21Z" fill="#4A4A4A" stroke="#4A4A4A" stroke-width="2.82831"/>
<path d="M187.988 156.185C187.988 156.185 133.82 202.374 122.079 259.532C122.079 259.532 120.08 275.252 135.8 263.274C149.401 252.9 170.486 223.479 175.931 215.738C176.307 215.204 177.158 215.481 177.138 216.154C176.822 223.024 175.99 243.832 177.257 258.047C177.594 261.928 178.485 266.263 179.989 269.788C182.741 276.202 191.116 278.657 194.185 269.114C197.531 258.76 203.549 235.16 205.47 192.396C207.707 142.465 187.988 156.205 187.988 156.205V156.185ZM179.376 204.473C179.376 204.473 171.635 210.214 174.386 198.236C176.208 190.258 186.008 181.744 192.344 176.914C192.205 184.358 189.948 195.564 179.376 204.473Z" fill="white" stroke="#4A4A4A" stroke-width="2.82831" stroke-linecap="round" stroke-linejoin="round"/>
<path d="M192.442 177.148C192.521 173.168 191.848 170.494 191.848 170.494" stroke="#4A4A4A" stroke-width="2.82831" stroke-linecap="round" stroke-linejoin="round"/>
</svg>
