<svg width="270" height="301" viewBox="0 0 270 301" fill="none" xmlns="http://www.w3.org/2000/svg">
<path d="M44.222 196.309C36.6188 194.924 28.1778 193.12 20.9934 188.255C14.55 183.905 9.84627 177.849 8.55758 171.18C7.68772 166.701 8.3965 161.708 12.2303 158.357C14.7433 156.199 18.255 154.974 21.7666 154.04C44.1898 148.144 70.5434 153.009 87.4253 166.154C89.0361 142.055 95.2862 118.15 105.918 95.5337C87.2642 98.5944 66.8063 87.866 62.9724 73.0139C61.877 68.7935 62.0381 64.2186 64.4866 60.3526C68.256 54.3924 75.9881 49.4954 84.3646 49.0121C92.7411 48.5288 99.99 48.3678 108.076 50.1719C101.987 37.9294 108.528 22.594 122.671 15.7962C136.814 8.99836 156.95 11.5757 167.71 21.5631C174.476 27.8454 179.373 39.8302 180.565 48.0456C182.337 60.5136 180.404 73.3039 174.927 85.0631C183.271 84.9343 192.002 85.5464 199.187 88.9292C206.371 92.312 211.526 99.1743 209.496 105.618C228.698 103.846 246.643 115.927 253.344 130.361C260.045 144.794 257.79 160.806 253.795 175.851C249.897 190.446 244.42 204.782 237.428 218.636C230.308 232.779 221.513 246.568 209.271 258.295C197.028 270.022 181.113 279.655 162.781 284.069C154.663 286.034 146.189 286.936 137.781 287.709C115.519 289.707 92.6767 290.544 70.9623 286.131C49.2479 281.717 28.5967 271.311 18.2872 255.492C18.2872 255.492 -18.2793 210.388 44.222 196.309Z" fill="white" stroke="black" stroke-width="5.40408" stroke-miterlimit="10"/>
<path d="M143.704 61.7988C144.027 65.1816 142.48 68.5 140.579 71.5606C133.298 83.0944 120.154 92.2118 104.754 96.3679" stroke="black" stroke-width="5.40408" stroke-miterlimit="10"/>
<path d="M176.123 84.9668C145.355 88.2529 116.972 108.195 112.171 132.68C108.563 150.239 119.034 165.252 142.971 167.282" stroke="black" stroke-width="5.40408" stroke-miterlimit="10"/>
<path d="M83.3672 163.547C88.5542 167.735 93.9344 172.149 96.0608 177.787C96.7373 179.558 97.0273 181.395 97.1561 183.263C97.4783 187.774 96.7051 192.349 94.9332 196.666" stroke="black" stroke-width="5.40408" stroke-miterlimit="10"/>
<path d="M131.235 132.168C133.852 111.851 107.657 91.7327 72.7256 87.2331C37.7946 82.7336 7.35584 95.5564 4.73872 115.874C2.1216 136.191 28.3172 156.309 63.2482 160.809C98.1792 165.308 128.618 152.485 131.235 132.168Z" fill="#FC5E3B" stroke="black" stroke-width="5.40408" stroke-miterlimit="10"/>
<path d="M44.2227 196.305C44.2227 196.305 60.4279 198.657 67.0969 197.69" stroke="black" stroke-width="5.40408" stroke-miterlimit="10"/>
<path d="M209.498 105.657C187.751 108.782 167.744 120.477 154.471 137.842C147.705 146.734 142.26 157.14 143.195 167.675C143.903 186.361 174.284 195.93 191.939 184.299C198.801 180.111 202.796 173.475 206.372 166.741" stroke="black" stroke-width="5.40408" stroke-miterlimit="10"/>
<path d="M142.793 196.897C152.008 192.855 177.617 186.711 206.331 194.471" stroke="black" stroke-width="5.40408" stroke-miterlimit="10"/>
<path d="M36.6578 116.571C36.6578 116.542 36.6775 116.532 36.7069 116.532C37.4334 116.1 38.2385 115.756 39.1221 115.521C40.0351 115.246 40.9089 115.118 41.7532 115.118C43.54 115.118 44.8457 115.55 45.6606 116.414C45.6606 116.444 45.7195 116.532 45.8569 116.699C45.8864 116.699 45.8864 116.709 45.8569 116.738C45.8275 116.738 45.8275 116.748 45.8569 116.777L46.2692 116.532C46.9957 116.1 47.8008 115.756 48.6844 115.521C49.568 115.246 50.4417 115.118 51.3155 115.118C53.1023 115.118 54.408 115.55 55.2229 116.414C55.861 117.092 55.8414 119.32 55.1738 123.11C54.9774 124.219 54.6535 125.908 54.2019 128.185C53.8091 130.129 53.5343 131.523 53.387 132.368C53.2201 133.291 53.0728 134.312 52.9256 135.45C51.4038 135.666 49.9214 135.745 48.4978 135.696H46.5932C46.6816 134.881 46.927 133.32 47.3394 130.993L47.6928 128.961C47.9579 127.449 48.115 126.31 48.1739 125.554C48.2819 124.15 48.2622 123.198 48.1051 122.717C47.9481 122.226 47.575 121.991 46.9761 121.991C46.7012 121.991 46.4558 122.099 46.23 122.315C46.0042 122.501 45.7882 122.913 45.5722 123.532C45.3758 124.671 45.0322 126.428 44.561 128.804C44.1879 130.591 43.9425 131.877 43.805 132.662C43.6578 133.497 43.5203 134.429 43.3927 135.46C41.871 135.676 40.3885 135.755 38.965 135.706H37.0604C37.1487 134.891 37.3942 133.33 37.8065 131.003L38.1599 128.971C38.3955 127.645 38.533 126.683 38.5821 126.094C38.5821 126.065 38.5821 126.026 38.5624 125.976L38.6312 125.574C38.7392 124.681 38.7686 123.954 38.7293 123.385C38.7293 122.815 38.5723 122.423 38.2876 122.207C38.0912 122.069 37.7967 122 37.3942 122C36.9033 122 36.4419 122.177 36.0001 122.531C35.5583 122.884 35.2539 123.463 35.087 124.278C34.9888 124.681 34.8612 125.309 34.714 126.143C34.5961 126.821 34.4489 127.803 34.2722 129.108C34.0856 130.463 33.9384 131.474 33.8206 132.152C33.6046 133.369 33.3591 134.449 33.0842 135.401C32.3185 135.588 31.7098 135.696 31.2385 135.725C30.7967 135.784 30.3059 135.794 29.7659 135.765C29.5303 135.735 29.1376 135.725 28.5976 135.725C27.9791 135.725 27.3606 135.755 26.7617 135.804C27.3311 132.554 27.7435 130.149 27.9987 128.578C28.5682 125.063 29.0099 122.393 29.3241 120.587C29.5597 119.261 29.9132 117.386 30.404 114.951C31.2484 115.059 31.9159 115.118 32.4068 115.118C32.8683 115.118 33.3199 115.089 33.7617 115.04L34.4685 114.961C35.0772 114.902 35.5386 114.883 35.8626 114.883C36.5106 114.883 36.8444 114.981 36.864 115.167C36.864 115.491 36.8051 115.963 36.6971 116.591V116.63L36.6578 116.571ZM63.6562 115.03C63.7544 116.002 63.774 117.573 63.7151 119.732C63.7347 120.243 63.7347 121.019 63.7151 122.049C63.7544 124.887 63.8231 126.801 63.9213 127.773C64.098 127.557 64.3532 126.88 64.687 125.741C65.0503 124.602 65.4233 123.385 65.816 122.089C66.5033 119.713 67.0531 117.906 67.4556 116.689C67.8876 115.442 68.2115 114.863 68.4079 114.942C69.2718 114.942 69.9394 114.932 70.4009 114.902L72.5607 114.863L75.506 114.942C74.9562 116.208 74.2003 118.034 73.2381 120.42C72.6589 121.883 72.1386 123.129 71.687 124.15C71.8244 123.856 71.363 124.906 70.3223 127.312C68.9577 130.61 67.6618 133.291 66.4346 135.342C65.2368 137.394 63.5482 139.152 61.3687 140.614C59.2186 142.077 56.4795 142.804 53.1514 142.804C52.5329 142.804 51.8947 142.774 51.2566 142.725C51.1093 141.724 51.1388 140.614 51.3548 139.397C51.502 138.563 51.7278 137.748 52.0322 136.962C53.0041 136.962 53.6423 136.972 53.9368 137.002C54.2313 137.031 54.6436 137.041 55.1836 137.041C56.617 137.041 57.4515 136.354 57.6969 134.969L57.746 134.439C57.7264 130.247 57.3729 124.543 56.6661 117.317V117.357C56.5384 116.817 56.4501 115.953 56.3912 114.765C57.1766 114.902 57.9129 114.971 58.5903 114.971L61.3981 114.932C62.2326 114.932 62.8119 114.961 63.126 115.01H63.6562V115.03ZM84.5382 115.148C85.9519 115.089 87.2086 115.03 88.3081 114.942L88.8874 114.902C89.0837 114.873 89.2702 114.873 89.4568 114.902H90.9196C90.8411 115.982 90.7822 116.611 90.7527 116.768C90.7331 116.905 90.6251 117.317 90.4484 118.024L90.3305 118.466L90.1342 119.359C90.1047 119.546 90.0753 119.86 90.0557 120.292H83.7233C82.9674 124.592 82.4863 127.233 82.2899 128.205C82.6041 128.716 83.2717 129.098 84.2829 129.344C85.2941 129.589 86.3642 129.707 87.5031 129.707L88.367 129.668L88.2983 130.031V130.198L88.3179 130.159C88.2787 131.298 88.1805 132.309 88.0234 133.202C87.8663 134.096 87.6111 134.852 87.2478 135.558C86.5311 135.617 85.8145 135.637 85.088 135.637C82.6237 135.637 80.513 135.352 78.7458 134.783C77.0081 134.184 75.9674 133.183 75.6238 131.779C75.6336 130.316 75.7318 128.873 75.8987 127.439C76.0754 125.976 76.3307 124.317 76.6547 122.452L77.0081 120.42C76.6547 120.449 76.3209 120.459 76.0263 120.459C75.7613 120.43 75.5158 120.42 75.2998 120.42H74.0825L75.1526 115.059C75.8791 115.089 76.8314 115.099 78.0291 115.099L79.433 107.353C80.0417 107.294 80.5522 107.274 80.9842 107.274C81.4162 107.274 81.9267 107.303 82.5158 107.353L82.7906 107.392C83.4288 107.451 83.9295 107.47 84.2731 107.47C84.7836 107.47 85.3236 107.431 85.8734 107.353L84.5676 114.735L84.5382 115.138V115.148ZM97.9883 116.571C97.9883 116.542 98.0079 116.532 98.0374 116.532C98.7639 116.1 99.5689 115.756 100.452 115.521C101.366 115.246 102.239 115.118 103.084 115.118C104.87 115.118 106.176 115.55 106.991 116.414C107.629 117.092 107.609 119.32 106.942 123.11C106.746 124.219 106.422 125.908 105.97 128.185C105.577 130.129 105.302 131.523 105.155 132.368C104.988 133.291 104.841 134.312 104.694 135.45C103.172 135.666 101.689 135.745 100.266 135.696H98.3613C98.4497 134.881 98.6951 133.32 99.1075 130.993L99.4609 128.961L99.9321 126.084C99.9321 125.918 99.9714 125.652 100.03 125.27C100.148 124.455 100.178 123.836 100.119 123.404C100.089 122.972 100.03 122.697 99.942 122.589C99.8831 122.481 99.7652 122.344 99.6082 122.187C99.4118 122.049 99.1173 121.981 98.7148 121.981C98.2239 121.981 97.7625 122.157 97.3207 122.511C96.8789 122.864 96.5745 123.444 96.4076 124.258C96.3095 124.661 96.1818 125.289 96.0346 126.124C95.9168 126.801 95.7695 127.783 95.5928 129.089C95.4062 130.443 95.259 131.455 95.1412 132.132C94.9252 133.349 94.6797 134.429 94.4048 135.382C93.6391 135.568 93.0304 135.676 92.5591 135.706C92.1173 135.765 91.6265 135.774 91.0865 135.745C90.8509 135.716 90.4582 135.706 89.9182 135.706C89.2997 135.706 88.6812 135.735 88.0823 135.784L88.6517 132.535L89.4371 127.832C89.7906 125.672 90.468 121.755 91.4596 116.11C92.3726 110.946 93.0009 107.51 93.3544 105.801C94.1987 105.909 94.8663 105.968 95.3571 105.968C95.8186 105.968 96.2702 105.939 96.712 105.89L97.4188 105.811C98.3221 105.733 98.8031 105.693 98.862 105.693C99.51 105.693 99.8241 105.811 99.8143 106.057C99.7358 106.813 99.5002 108.305 99.1075 110.524L98.4202 114.215L97.9981 116.611L97.9883 116.571Z" fill="white"/>
<path d="M174.5 300.521C202.167 289.687 259.7 246.721 268.5 161.521C276 101.521 230.5 92.5207 219.5 94.5207C215.5 87.0207 204.1 71.0003 188.5 75.0003C189.833 48.8336 193 13 143 1" stroke="white" stroke-dasharray="5 5"/>
</svg>
