<svg width="261" height="284" viewBox="0 0 261 284" fill="none" xmlns="http://www.w3.org/2000/svg">
<path d="M44.8392 187.668C37.2359 186.282 28.795 184.478 21.6106 179.613C15.1672 175.264 10.4635 169.207 9.17477 162.538C8.30491 158.06 9.01368 153.066 12.8475 149.716C15.3605 147.557 18.8721 146.333 22.3838 145.399C44.807 139.503 71.1606 144.368 88.0424 157.512C89.6533 133.414 95.9034 109.509 106.535 86.8922C87.8814 89.9528 67.4234 79.2245 63.5896 64.3724C62.4942 60.1519 62.6553 55.5771 65.1038 51.711C68.8732 45.7508 76.6053 40.8538 84.9818 40.3705C93.3583 39.8873 100.607 39.7262 108.694 41.5304C102.605 29.2878 109.145 13.9525 123.288 7.15463C137.431 0.356805 157.567 2.93418 168.328 12.9215C175.093 19.2039 179.99 31.1887 181.182 39.404C182.954 51.8721 181.021 64.6623 175.544 76.4216C183.889 76.2927 192.619 76.9048 199.804 80.2876C206.988 83.6704 212.143 90.5327 210.113 96.9761C229.315 95.2042 247.26 107.286 253.961 121.719C260.662 136.152 258.407 152.164 254.412 167.21C250.514 181.804 245.037 196.141 238.046 209.994C230.926 224.137 222.13 237.926 209.888 249.653C197.645 261.38 181.73 271.013 163.398 275.427C155.28 277.392 146.807 278.294 138.398 279.068C116.136 281.065 93.2938 281.903 71.5795 277.489C49.8651 273.075 29.2139 262.669 18.9044 246.85C18.9044 246.85 -17.6621 201.746 44.8392 187.668Z" fill="white" stroke="black" stroke-width="5.40408" stroke-miterlimit="10"/>
<path d="M144.322 53.1573C144.644 56.5401 143.097 59.8584 141.197 62.9191C133.916 74.4528 120.771 83.5703 105.371 87.7263" stroke="black" stroke-width="5.40408" stroke-miterlimit="10"/>
<path d="M176.74 76.3252C145.972 79.6114 117.589 99.5538 112.789 124.039C109.18 141.597 119.651 156.61 143.588 158.64" stroke="black" stroke-width="5.40408" stroke-miterlimit="10"/>
<path d="M83.9844 154.905C89.1713 159.093 94.5516 163.507 96.6779 169.145C97.3545 170.917 97.6445 172.753 97.7733 174.622C98.0955 179.132 97.3223 183.707 95.5503 188.024" stroke="black" stroke-width="5.40408" stroke-miterlimit="10"/>
<path d="M131.852 123.526C134.469 103.209 108.274 83.0912 73.3428 78.5916C38.4118 74.0921 7.97303 86.9149 5.35591 107.232C2.73878 127.549 28.9344 147.667 63.8654 152.167C98.7964 156.667 129.235 143.844 131.852 123.526Z" fill="#FC5E3B" stroke="black" stroke-width="5.40408" stroke-miterlimit="10"/>
<path d="M44.8398 187.663C44.8398 187.663 61.0451 190.015 67.714 189.048" stroke="black" stroke-width="5.40408" stroke-miterlimit="10"/>
<path d="M210.115 97.0158C188.368 100.141 168.361 111.836 155.088 129.201C148.322 138.093 142.877 148.499 143.812 159.034C144.521 177.72 174.901 187.288 192.556 175.658C199.419 171.47 203.414 164.833 206.99 158.1" stroke="black" stroke-width="5.40408" stroke-miterlimit="10"/>
<path d="M143.41 188.256C152.625 184.213 178.235 178.069 206.948 185.83" stroke="black" stroke-width="5.40408" stroke-miterlimit="10"/>
<path d="M37.2731 107.93C37.2731 107.9 37.2927 107.89 37.3222 107.89C38.0487 107.458 38.8537 107.115 39.7373 106.879C40.6503 106.604 41.5241 106.477 42.3684 106.477C44.1552 106.477 45.4609 106.909 46.2758 107.772C46.2758 107.802 46.3347 107.89 46.4721 108.057C46.5016 108.057 46.5016 108.067 46.4721 108.096C46.4427 108.096 46.4427 108.106 46.4721 108.136L46.8845 107.89C47.611 107.458 48.416 107.115 49.2996 106.879C50.1832 106.604 51.057 106.477 51.9307 106.477C53.7175 106.477 55.0233 106.909 55.8381 107.772C56.4763 108.45 56.4566 110.678 55.789 114.468C55.5927 115.577 55.2687 117.266 54.8171 119.544C54.4244 121.488 54.1495 122.882 54.0022 123.726C53.8353 124.649 53.6881 125.67 53.5408 126.809C52.0191 127.025 50.5366 127.103 49.1131 127.054H47.2085C47.2968 126.239 47.5423 124.678 47.9546 122.352L48.308 120.319C48.5731 118.807 48.7302 117.669 48.7891 116.913C48.8971 115.509 48.8775 114.556 48.7204 114.075C48.5633 113.584 48.1902 113.349 47.5913 113.349C47.3165 113.349 47.071 113.457 46.8452 113.673C46.6194 113.859 46.4034 114.272 46.1874 114.89C45.9911 116.029 45.6475 117.786 45.1762 120.162C44.8032 121.949 44.5577 123.235 44.4203 124.021C44.273 124.855 44.1356 125.788 44.0079 126.819C42.4862 127.035 41.0038 127.113 39.5802 127.064H37.6756C37.764 126.249 38.0094 124.688 38.4217 122.361L38.7752 120.329C39.0108 119.004 39.1482 118.042 39.1973 117.453C39.1973 117.423 39.1973 117.384 39.1777 117.335L39.2464 116.932C39.3544 116.039 39.3839 115.312 39.3446 114.743C39.3446 114.174 39.1875 113.781 38.9028 113.565C38.7064 113.427 38.4119 113.359 38.0094 113.359C37.5185 113.359 37.0571 113.535 36.6153 113.889C36.1735 114.242 35.8692 114.821 35.7023 115.636C35.6041 116.039 35.4765 116.667 35.3292 117.502C35.2114 118.179 35.0641 119.161 34.8874 120.467C34.7009 121.821 34.5536 122.833 34.4358 123.51C34.2198 124.727 33.9744 125.807 33.6995 126.76C32.9337 126.946 32.325 127.054 31.8538 127.084C31.412 127.143 30.9211 127.152 30.3811 127.123C30.1455 127.093 29.7528 127.084 29.2128 127.084C28.5943 127.084 27.9758 127.113 27.377 127.162C27.9464 123.913 28.3587 121.507 28.614 119.936C29.1834 116.422 29.6252 113.751 29.9393 111.945C30.175 110.62 30.5284 108.744 31.0193 106.31C31.8636 106.418 32.5312 106.477 33.0221 106.477C33.4835 106.477 33.9351 106.447 34.3769 106.398L35.0838 106.319C35.6924 106.261 36.1539 106.241 36.4778 106.241C37.1258 106.241 37.4596 106.339 37.4792 106.526C37.4792 106.85 37.4203 107.321 37.3123 107.949V107.988L37.2731 107.93ZM64.2714 106.388C64.3696 107.36 64.3892 108.931 64.3303 111.091C64.35 111.601 64.35 112.377 64.3303 113.408C64.3696 116.245 64.4383 118.159 64.5365 119.131C64.7132 118.915 64.9685 118.238 65.3023 117.099C65.6655 115.96 66.0386 114.743 66.4313 113.447C67.1185 111.071 67.6683 109.265 68.0708 108.047C68.5028 106.801 68.8268 106.221 69.0231 106.3C69.8871 106.3 70.5547 106.29 71.0161 106.261L73.176 106.221L76.1212 106.3C75.5714 107.566 74.8155 109.392 73.8534 111.778C73.2741 113.241 72.7538 114.488 72.3022 115.509C72.4396 115.214 71.9782 116.265 70.9376 118.67C69.5729 121.969 68.277 124.649 67.0498 126.701C65.852 128.753 64.1634 130.51 61.9839 131.973C59.8339 133.436 57.0948 134.162 53.7666 134.162C53.1481 134.162 52.51 134.133 51.8718 134.084C51.7245 133.082 51.754 131.973 51.97 130.755C52.1173 129.921 52.3431 129.106 52.6474 128.321C53.6193 128.321 54.2575 128.33 54.552 128.36C54.8465 128.389 55.2589 128.399 55.7988 128.399C57.2322 128.399 58.0667 127.712 58.3121 126.328L58.3612 125.798C58.3416 121.605 57.9882 115.901 57.2813 108.676V108.715C57.1537 108.175 57.0653 107.311 57.0064 106.123C57.7918 106.261 58.5281 106.329 59.2055 106.329L62.0134 106.29C62.8479 106.29 63.4271 106.319 63.7413 106.369H64.2714V106.388ZM85.1534 106.506C86.5671 106.447 87.8238 106.388 88.9234 106.3L89.5026 106.261C89.6989 106.231 89.8855 106.231 90.072 106.261H91.5348C91.4563 107.341 91.3974 107.969 91.3679 108.126C91.3483 108.263 91.2403 108.676 91.0636 109.383L90.9458 109.824L90.7494 110.718C90.72 110.904 90.6905 111.218 90.6709 111.65H84.3386C83.5826 115.951 83.1015 118.591 82.9052 119.563C83.2193 120.074 83.8869 120.457 84.8982 120.702C85.9094 120.948 86.9795 121.065 88.1183 121.065L88.9823 121.026L88.9135 121.389V121.556L88.9332 121.517C88.8939 122.656 88.7957 123.667 88.6386 124.561C88.4816 125.454 88.2263 126.21 87.8631 126.917C87.1464 126.976 86.4297 126.995 85.7032 126.995C83.239 126.995 81.1282 126.711 79.361 126.141C77.6233 125.542 76.5827 124.541 76.239 123.137C76.2489 121.674 76.347 120.231 76.5139 118.798C76.6907 117.335 76.9459 115.676 77.2699 113.81L77.6233 111.778C77.2699 111.808 76.9361 111.817 76.6416 111.817C76.3765 111.788 76.1311 111.778 75.9151 111.778H74.6977L75.7678 106.418C76.4943 106.447 77.4466 106.457 78.6444 106.457L80.0483 98.7109C80.657 98.6519 81.1675 98.6323 81.5994 98.6323C82.0314 98.6323 82.5419 98.6618 83.131 98.7109L83.4059 98.7501C84.044 98.809 84.5447 98.8287 84.8883 98.8287C85.3988 98.8287 85.9388 98.7894 86.4886 98.7109L85.1829 106.094L85.1534 106.496V106.506ZM98.6035 107.93C98.6035 107.9 98.6231 107.89 98.6526 107.89C99.3791 107.458 100.184 107.115 101.068 106.879C101.981 106.604 102.855 106.477 103.699 106.477C105.486 106.477 106.791 106.909 107.606 107.772C108.244 108.45 108.225 110.678 107.557 114.468C107.361 115.577 107.037 117.266 106.585 119.544C106.192 121.488 105.918 122.882 105.77 123.726C105.603 124.649 105.456 125.67 105.309 126.809C103.787 127.025 102.305 127.103 100.881 127.054H98.9766C99.0649 126.239 99.3104 124.678 99.7227 122.352L100.076 120.319L100.547 117.443C100.547 117.276 100.587 117.011 100.646 116.628C100.763 115.813 100.793 115.195 100.734 114.763C100.704 114.331 100.646 114.056 100.557 113.948C100.498 113.84 100.38 113.702 100.223 113.545C100.027 113.408 99.7325 113.339 99.33 113.339C98.8391 113.339 98.3777 113.516 97.9359 113.869C97.4941 114.223 97.1898 114.802 97.0229 115.617C96.9247 116.019 96.7971 116.648 96.6498 117.482C96.532 118.159 96.3847 119.141 96.208 120.447C96.0215 121.802 95.8742 122.813 95.7564 123.49C95.5404 124.708 95.295 125.788 95.0201 126.74C94.2543 126.927 93.6456 127.035 93.1744 127.064C92.7326 127.123 92.2417 127.133 91.7017 127.103C91.4661 127.074 91.0734 127.064 90.5334 127.064C89.9149 127.064 89.2964 127.093 88.6976 127.143L89.267 123.893L90.0524 119.19C90.4058 117.03 91.0832 113.113 92.0748 107.468C92.9878 102.304 93.6162 98.8679 93.9696 97.1597C94.8139 97.2677 95.4815 97.3266 95.9724 97.3266C96.4338 97.3266 96.8854 97.2971 97.3272 97.248L98.0341 97.1695C98.9373 97.091 99.4184 97.0517 99.4773 97.0517C100.125 97.0517 100.439 97.1695 100.43 97.4149C100.351 98.1709 100.115 99.6632 99.7227 101.882L99.0355 105.573L98.6133 107.969L98.6035 107.93Z" fill="white"/>
</svg>
