<svg width="333" height="254" viewBox="0 0 333 254" fill="none" xmlns="http://www.w3.org/2000/svg">
<g filter="url(#filter0_d_795_2)">
<rect x="6" y="121.833" width="240.929" height="118.738" transform="rotate(-24.541 6 121.833)" fill="#0564F2"/>
<rect x="11.3248" y="124.219" width="233.225" height="109.972" transform="rotate(-24.541 11.3248 124.219)" fill="#FC5E3B" stroke="black" stroke-width="0.796897"/>
<path d="M91.3105 126.753L85.45 104.095L91.677 101.251L97.553 123.902L91.3105 126.753ZM105.09 120.461L99.2145 97.8098L105.457 94.9596L110.123 112.946L115.123 110.663L116.333 115.328L105.09 120.461ZM117.97 114.58L112.11 91.9221L118.336 89.0789L124.212 111.73L117.97 114.58ZM125.798 111.006L119.922 88.3549L131.398 83.1152L132.629 87.8262L127.381 90.2227L128.856 95.7979L133.717 93.5786L134.908 98.1201L130.017 100.354L132.041 108.156L125.798 111.006ZM142.471 103.393L137.795 85.4674L133.789 87.2967L132.589 82.5715L146.844 76.0627L148.044 80.7878L144.053 82.61L148.713 100.543L142.471 103.393ZM151.645 94.025L157.608 91.3023L158.82 95.9286L152.841 98.6583L151.645 94.025ZM55.8387 173.729L49.9783 151.071L56.2052 148.228L62.0812 170.879L55.8387 173.729ZM69.4478 167.516L63.5719 144.864L75.5599 139.391L76.7759 144.109L71.0458 146.725L72.1564 150.966L77.5137 148.52L78.6814 153.091L73.324 155.537L74.4899 159.94L80.2045 157.331L81.4359 162.042L69.4478 167.516ZM82.3815 161.61L80.4045 137.141L89.644 132.923L99.525 153.783L93.1583 156.69L91.2655 151.887L88.0045 153.375L88.7327 158.71L82.3815 161.61ZM87.352 148.494L89.5105 147.508L86.2317 139.341L86.1541 139.376L87.352 148.494ZM102.237 152.544L97.5619 134.618L93.5555 136.447L92.3551 131.722L106.61 125.214L107.811 129.939L103.82 131.761L108.48 149.694L102.237 152.544ZM119.086 144.851L113.21 122.2L123.428 117.535C126.078 116.325 127.836 116.586 128.701 118.317C129.573 120.034 130.256 121.68 130.75 123.256C131.364 125.039 131.714 127.038 131.798 129.251C131.883 131.464 130.595 133.178 127.935 134.393L123.82 136.272L125.328 142.001L119.086 144.851ZM122.619 131.547L124.56 130.661C124.995 130.462 125.23 130.073 125.266 129.494C125.302 128.915 125.092 127.853 124.638 126.309C124.236 124.854 123.905 123.923 123.644 123.516C123.389 123.095 123.044 122.983 122.609 123.182L120.668 124.068L122.619 131.547ZM134.396 137.861L132.419 113.392L141.659 109.173L151.54 130.033L145.173 132.94L143.28 128.137L140.019 129.626L140.747 134.961L134.396 137.861ZM139.367 124.745L141.525 123.759L138.246 115.592L138.169 115.627L139.367 124.745ZM152.63 129.535L146.754 106.884L156.413 102.474L164.288 118.489L164.366 118.453L159.907 100.879L166.118 98.0428L171.994 120.694L162.258 125.139L154.224 108.859L154.177 108.881L158.81 126.713L152.63 129.535ZM173.417 120.044L167.541 97.3933L179.529 91.9196L180.745 96.6377L175.015 99.254L176.125 103.495L181.483 101.049L182.65 105.62L177.293 108.066L178.459 112.469L184.173 109.86L185.405 114.571L173.417 120.044ZM186.731 113.965L180.855 91.314L192.843 85.8403L194.059 90.5584L188.329 93.1747L189.44 97.4154L194.797 94.9693L195.965 99.5405L190.607 101.987L191.773 106.39L197.488 103.78L198.719 108.491L186.731 113.965ZM200.217 107.808L194.341 85.1567L204.993 80.2928C207.457 79.1678 209.095 79.2894 209.908 80.6575C210.726 82.0105 211.348 83.4839 211.776 85.0777C212.219 86.6517 212.385 88.2338 212.273 89.8238C212.156 91.4035 210.85 92.7629 208.355 93.9021L204.1 95.8448L206.49 104.943L200.217 107.808ZM209.643 103.504L204.376 94.3115L210.315 91.1679L216.211 100.505L209.643 103.504ZM203.046 91.7283L205.127 90.7783C205.551 90.5845 205.771 90.2714 205.786 89.839C205.807 89.3916 205.715 88.7772 205.508 87.9958C205.308 87.1739 205.096 86.6012 204.873 86.2776C204.646 85.9436 204.32 85.8735 203.895 86.0673L201.815 87.0174L203.046 91.7283ZM216.018 95.4138L221.981 92.6911L223.192 97.3174L217.214 100.047L216.018 95.4138Z" fill="white"/>
<path d="M77.9334 196.889L72.073 174.231L78.3 171.388L84.1759 194.039L77.9334 196.889ZM91.7134 190.597L85.8374 167.946L96.49 163.082C98.9539 161.957 100.592 162.079 101.404 163.447C102.222 164.8 102.845 166.274 103.272 167.867C103.716 169.441 103.881 171.023 103.769 172.613C103.652 174.193 102.346 175.553 99.8515 176.692L95.5966 178.634L97.9869 187.733L91.7134 190.597ZM101.139 186.294L95.8724 177.101L101.812 173.958L107.708 183.295L101.139 186.294ZM94.5428 174.518L96.6236 173.568C97.0481 173.374 97.2679 173.061 97.2832 172.629C97.3041 172.181 97.2113 171.567 97.0046 170.785C96.8045 169.964 96.593 169.391 96.3702 169.067C96.1426 168.733 95.8166 168.663 95.3922 168.857L93.3113 169.807L94.5428 174.518ZM108.497 182.934L102.621 160.283L114.609 154.81L115.825 159.528L110.095 162.144L111.205 166.385L116.563 163.939L117.73 168.51L112.373 170.956L113.539 175.359L119.253 172.75L120.485 177.461L108.497 182.934ZM121.982 176.777L116.106 154.126L126.324 149.461C128.974 148.251 130.732 148.511 131.598 150.243C132.469 151.959 133.152 153.605 133.646 155.181C134.26 156.965 134.61 158.964 134.695 161.177C134.779 163.39 133.492 165.104 130.831 166.319L126.716 168.198L128.225 173.927L121.982 176.777ZM125.515 163.473L127.457 162.586C127.891 162.388 128.127 161.999 128.162 161.42C128.198 160.84 127.989 159.779 127.534 158.235C127.132 156.779 126.801 155.848 126.54 155.442C126.285 155.02 125.94 154.909 125.506 155.107L123.564 155.994L125.515 163.473ZM138.492 169.239L132.616 146.588L144.604 141.114L145.82 145.832L140.09 148.448L141.201 152.689L146.558 150.243L147.726 154.814L142.369 157.26L143.534 161.663L149.249 159.054L150.48 163.765L138.492 169.239ZM151.426 163.333L149.449 138.864L158.689 134.646L168.57 155.506L162.203 158.413L160.31 153.61L157.049 155.098L157.777 160.433L151.426 163.333ZM156.397 150.217L158.555 149.231L155.276 141.064L155.199 141.1L156.397 150.217ZM171.282 154.267L166.606 136.341L162.6 138.171L161.4 133.445L175.655 126.937L176.855 131.662L172.864 133.484L177.524 151.417L171.282 154.267ZM180.456 144.899L186.419 142.176L187.631 146.802L181.652 149.532L180.456 144.899Z" fill="white"/>
<path d="M262.326 54.1267C261.824 45.3373 254.291 38.6172 245.502 39.1187C254.291 38.6172 261.011 31.084 260.51 22.2946C261.011 31.084 268.544 37.804 277.334 37.3026C268.544 37.804 261.824 45.3373 262.326 54.1267Z" fill="white" stroke="#FC5E3B" stroke-width="0.383529" stroke-miterlimit="10"/>
<path d="M63.9909 146.714C63.6507 140.751 58.54 136.192 52.577 136.532C58.54 136.192 63.099 131.081 62.7588 125.118C63.099 131.081 68.2098 135.64 74.1727 135.3C68.2098 135.64 63.6507 140.751 63.9909 146.714Z" fill="white" stroke="#FC5E3B" stroke-width="0.383529" stroke-miterlimit="10"/>
<path d="M207.204 128.782C207.204 128.782 203.163 116.339 210.308 108.969C210.308 108.969 207.201 119.997 211.106 130.238L207.204 128.782Z" fill="black"/>
<path d="M270.852 131.736C272.092 129.702 274.529 128.73 276.871 128.288C279.213 127.846 281.646 127.791 283.882 126.966C285.546 126.353 287.038 125.332 288.704 124.724C291.726 123.622 295.285 123.874 297.882 121.976C298.699 122.385 295.274 125.179 294.653 125.849C292.2 128.495 287.287 130.903 283.777 131.74C280.267 132.576 280.146 131.542 276.606 132.239C273.717 132.809 272.445 133.365 271.449 136.136C271.123 137.041 269.386 140.054 269.02 140.944C268.538 142.117 265.382 145.204 264.387 145.988C262.445 147.518 251.434 154.366 249.416 152.362C247.923 150.879 258.319 141.555 259.777 140.393C261.441 139.068 263.804 138.606 265.682 137.66C268.581 136.201 269.263 134.34 270.852 131.736Z" fill="black"/>
<path d="M214.121 140.038C214.121 140.038 217.427 145.928 226.644 140.795" stroke="white" stroke-width="0.143373" stroke-miterlimit="10"/>
<path d="M291.133 118.762C287.52 120.569 282.135 122.261 278.522 124.068C270.951 118.208 256.347 106.539 250.048 99.3299C252.469 97.5431 254.379 95.831 256.799 94.0429C261.895 96.3822 261.327 99.305 265.829 102.648C270.448 106.077 285.697 117.389 291.131 118.761L291.133 118.762Z" fill="#FFB3C0" stroke="black" stroke-width="0.0420562" stroke-miterlimit="10"/>
<path d="M237.969 112.874L238.231 148.683L249.286 141.172L248.555 137.596L249.799 115.009L244.54 104.87L239.453 109.43L237.969 112.874Z" fill="#FFB3C0" stroke="black" stroke-width="0.0420562" stroke-miterlimit="10"/>
<path d="M236.729 111.408C237.132 116.409 237.947 113.318 240.437 111.887C242.224 110.92 244.436 111.217 246.177 112.159C246.84 112.515 247.554 112.614 248.073 113.16C248.742 113.872 249.025 113.928 249.479 114.923C249.557 115.094 249.65 115.296 249.866 116.1C250.121 116.109 250.345 115.925 250.38 115.671C250.486 114.901 250.298 113.36 250.295 112.976C250.224 111.008 249.652 105.002 251.924 104.294C252.674 104.057 253.563 104.404 254.26 104.755C254.824 105.043 255.349 105.386 255.885 105.682C257.283 106.487 261.876 111.792 261.561 110.314C261.298 109.081 262.054 107.285 262.618 106.374C263.137 105.536 264.585 104.613 264.958 104.253C265.776 103.446 265.228 103.528 267.605 103.796C269.265 103.984 262.141 97.8335 261.166 97.2657C258.938 96.0173 257.594 94.6885 255.365 93.4495C254.108 92.7381 253.041 91.3601 251.695 92.1489C251.068 92.4844 250.473 93.0319 249.922 93.5364C247.808 95.5374 245.105 96.875 242.242 97.4176C241.428 97.584 240.594 97.7045 239.788 97.8799C238.928 98.0628 237.966 98.3664 237.42 98.9809C236.263 100.288 236.517 102.564 236.494 104.233C236.471 105.808 236.564 107.4 236.617 108.974C236.669 110.509 236.664 112.105 237.028 113.605C237.092 113.869 237.17 114.135 237.32 114.362C237.47 114.59 237.705 114.774 237.975 114.804C237.997 114.482 237.99 114.22 238.013 113.898" fill="#2882FF"/>
<path d="M236.729 111.408C237.132 116.409 237.947 113.318 240.437 111.887C242.224 110.92 244.436 111.217 246.177 112.159C246.84 112.515 247.554 112.614 248.073 113.16C248.742 113.872 249.025 113.928 249.479 114.923C249.557 115.094 249.65 115.296 249.866 116.1C250.121 116.109 250.345 115.925 250.38 115.671C250.486 114.901 250.298 113.36 250.295 112.976C250.224 111.008 249.652 105.002 251.924 104.294C252.674 104.057 253.563 104.404 254.26 104.755C254.824 105.043 255.349 105.386 255.885 105.682C257.283 106.487 261.876 111.792 261.561 110.314C261.298 109.081 262.054 107.285 262.618 106.374C263.137 105.536 264.585 104.613 264.958 104.253C265.776 103.446 265.228 103.528 267.605 103.796C269.265 103.984 262.141 97.8335 261.166 97.2657C258.938 96.0173 257.594 94.6885 255.365 93.4495C254.108 92.7381 253.041 91.3601 251.695 92.1489C251.068 92.4844 250.473 93.0319 249.922 93.5364C247.808 95.5374 245.105 96.875 242.242 97.4176C241.428 97.584 240.594 97.7045 239.788 97.8799C238.928 98.0628 237.966 98.3664 237.42 98.9809C236.263 100.288 236.517 102.564 236.494 104.233C236.471 105.808 236.564 107.4 236.617 108.974C236.669 110.509 236.664 112.105 237.028 113.605C237.092 113.869 237.17 114.135 237.32 114.362C237.47 114.59 237.705 114.774 237.975 114.804C237.997 114.482 237.99 114.22 238.013 113.898" stroke="black" stroke-width="0.0434899" stroke-miterlimit="10"/>
<path d="M243.891 108.597C244.598 108.743 245.323 108.896 245.934 109.281C246.545 109.667 247.026 110.344 246.972 111.064C246.961 111.2 246.927 111.345 246.827 111.437C246.764 111.495 246.683 111.527 246.603 111.556C244.989 112.131 243.053 111.654 241.891 110.395C241.561 110.037 241.283 109.608 241.213 109.124C241.168 108.815 241.21 108.5 241.276 108.194C241.479 107.239 241.914 106.335 242.533 105.581C242.533 105.581 244.554 103.044 247.093 103.244C249.632 103.445 250.475 104.692 251.358 106.33L252.334 108.659L246.681 112.743" fill="#FFB3C0"/>
<path d="M243.891 108.597C244.598 108.743 245.323 108.896 245.934 109.281C246.545 109.667 247.026 110.344 246.972 111.064C246.961 111.2 246.927 111.345 246.827 111.437C246.764 111.495 246.683 111.527 246.603 111.556C244.989 112.131 243.053 111.654 241.891 110.395C241.561 110.037 241.283 109.608 241.213 109.124C241.168 108.815 241.21 108.5 241.276 108.194C241.479 107.239 241.914 106.335 242.533 105.581C242.533 105.581 244.554 103.044 247.093 103.244C249.632 103.445 250.475 104.692 251.358 106.33L252.334 108.659L246.681 112.743" stroke="black" stroke-width="0.0420562" stroke-miterlimit="10"/>
<path d="M236.81 80.6811C238.752 79.7943 239.608 77.5009 238.721 75.5587C237.834 73.6165 235.541 72.761 233.599 73.6477C231.656 74.5345 230.801 76.8279 231.688 78.7701C232.574 80.7123 234.868 81.5679 236.81 80.6811Z" fill="#FFB3C0" stroke="black" stroke-width="0.0420562" stroke-miterlimit="10"/>
<path d="M234.047 79.2909C233.774 79.4745 233.103 78.9977 232.789 79.1303C232.524 79.1925 232.413 79.4515 232.521 79.695C232.687 80.0629 233.163 80.3157 233.523 80.3058C233.756 80.3059 233.971 80.2137 234.201 80.1905C234.609 80.1196 235.152 80.4788 235.309 80.8916C235.438 81.3059 235.04 81.4519 234.621 81.4998C234.055 81.5457 233.442 81.2875 232.983 80.9669C232.435 80.6037 231.926 80.0931 231.361 79.7406C231.154 79.6084 230.938 79.4884 230.744 79.3379C230.179 78.9051 229.758 77.8134 229.916 77.1539C230.006 76.7875 230.408 76.4917 230.373 76.1008C230.32 75.7086 229.958 75.4053 229.95 74.9852C229.93 74.7198 230.002 74.4481 230.099 74.1987C230.531 73.1692 231.238 71.943 232.484 71.9073C233.384 71.9002 234.754 72.2429 234.925 73.2423C234.926 73.3144 234.891 73.3458 234.83 73.3625C234.606 73.4017 234.02 73.5228 233.381 74.0661C232.722 74.6459 232.102 75.4748 231.962 76.3107C231.971 76.5595 232.206 76.6789 232.377 76.8412C232.759 77.1521 233.038 77.694 233.294 78.1335C233.479 78.4544 233.717 78.5984 233.943 78.8404C234.043 78.9644 234.173 79.1441 234.057 79.2805L234.047 79.2896L234.047 79.2909Z" fill="#300A01"/>
<path d="M233.774 80.8969C233.774 80.8969 226.992 81.968 227.644 86.0295C228.296 90.091 235.213 97.8325 235.213 97.8325C235.213 97.8325 239.148 102.501 239.308 103.178C239.467 103.858 236.744 106.453 241.58 108.154L248.351 103.56C248.351 103.56 247.781 100.663 245.166 101.029L243.155 98.3454C243.155 98.3454 247.213 100.246 251.405 95.9256L251.914 95.3927L253.036 96.5342C253.036 96.5342 252.088 98.2451 254.547 99.6779C254.547 99.6779 256.476 96.1657 260.328 98.0155C260.328 98.0155 261.229 95.0486 257.459 94.3638C257.459 94.3638 251.693 91.2837 248.013 84.5444C248.013 84.5444 245.798 79.6923 239.98 79.7929L233.773 80.8943L233.774 80.8969Z" fill="#2882FF" stroke="black" stroke-width="0.0434899" stroke-miterlimit="10"/>
<path d="M243.558 98.9845L235.773 86.3782" stroke="#020202" stroke-width="0.0468353" stroke-miterlimit="10"/>
<path d="M252.003 95.4282C252.003 95.4282 249.405 91.879 248.327 90.3412C247.824 89.6244 247.328 89.1432 245.148 85.0271" stroke="#020202" stroke-width="0.0468353" stroke-miterlimit="10"/>
<path d="M243.891 108.597C244.598 108.743 245.323 108.896 245.934 109.281C246.545 109.667 247.026 110.344 246.972 111.064C246.961 111.2 246.927 111.345 246.827 111.437C246.764 111.495 246.683 111.527 246.603 111.556C244.989 112.131 243.053 111.654 241.891 110.395C241.561 110.037 241.283 109.608 241.213 109.124C241.168 108.815 241.21 108.5 241.276 108.194C241.479 107.239 241.914 106.335 242.533 105.581C242.533 105.581 244.554 103.044 247.093 103.244C247.093 103.244 247.93 103.235 248.956 103.702" fill="#FFB3C0"/>
<path d="M243.891 108.597C244.598 108.743 245.323 108.896 245.934 109.281C246.545 109.667 247.026 110.344 246.972 111.064C246.961 111.2 246.927 111.345 246.827 111.437C246.764 111.495 246.683 111.527 246.603 111.556C244.989 112.131 243.053 111.654 241.891 110.395C241.561 110.037 241.283 109.608 241.213 109.124C241.168 108.815 241.21 108.5 241.276 108.194C241.479 107.239 241.914 106.335 242.533 105.581C242.533 105.581 244.554 103.044 247.093 103.244C247.093 103.244 247.93 103.235 248.956 103.702" stroke="black" stroke-width="0.0420562" stroke-miterlimit="10"/>
<path d="M255.531 107.272L258.357 108.142" stroke="black" stroke-width="0.0434899" stroke-miterlimit="10"/>
<path d="M251.172 104.73C251.172 104.73 252.352 102.785 251.852 101.359Z" fill="#2882FF"/>
<path d="M251.172 104.73C251.172 104.73 252.352 102.785 251.852 101.359" stroke="black" stroke-width="0.0434899" stroke-miterlimit="10"/>
<path d="M238.137 140.923L248.463 136.359L249.272 143.125L238.025 148.638L238.137 140.923Z" fill="white"/>
<path d="M266.478 101.265C268.045 105.535 271.789 107.607 275.032 106.117C275.195 106.042 275.354 105.959 275.514 105.866C276.082 105.537 276.591 105.113 277.041 104.615C279.241 102.179 279.96 97.9568 278.594 94.2334C277.453 91.1241 275.157 89.1806 272.74 88.9307C272.183 88.8722 271.62 88.9043 271.064 89.0334C270.561 89.1487 270.063 89.3425 269.579 89.6203L269.557 89.6333C266.213 91.5751 264.833 96.7834 266.477 101.266L266.478 101.265Z" fill="#CD401D" stroke="black" stroke-width="0.0253293" stroke-miterlimit="10"/>
<path d="M275.132 104.83C277.937 103.202 279.052 98.7008 277.62 94.7968C276.189 90.8967 272.744 89.0431 269.942 90.6646C267.132 92.2959 266.015 96.7968 267.447 100.701C268.878 104.601 272.324 106.455 275.125 104.833L275.132 104.83Z" fill="#CD401D" stroke="black" stroke-width="0.0253293" stroke-miterlimit="10"/>
<path d="M274.126 102.068C274.839 101.654 275.165 100.71 275.295 100.185C275.593 98.9839 275.497 97.5694 275.033 96.303C274.57 95.038 273.776 94.0285 272.856 93.5342C272.454 93.3173 271.672 93.0161 270.956 93.4306C270.24 93.8471 269.913 94.7918 269.781 95.3174C269.483 96.5172 269.579 97.9318 270.043 99.1994C270.507 100.464 271.301 101.474 272.22 101.968C272.623 102.185 273.405 102.486 274.12 102.072L274.127 102.069L274.126 102.068Z" fill="#CD401D" stroke="black" stroke-width="0.0253293" stroke-miterlimit="10"/>
<path d="M270.981 98.6483C271.253 99.392 271.982 99.702 272.608 99.3389C273.235 98.9758 273.523 98.0799 273.25 97.3348C272.979 96.5911 272.25 96.2811 271.623 96.6442C270.997 97.0073 270.709 97.9032 270.981 98.6483Z" fill="#FC5E3B" stroke="black" stroke-width="0.0253293" stroke-miterlimit="10"/>
<path d="M270.481 98.8953C270.753 99.6391 271.482 99.9491 272.108 99.586C272.735 99.2228 273.023 98.3269 272.75 97.5819C272.478 96.8369 271.75 96.5281 271.123 96.8913C270.497 97.2544 270.209 98.1503 270.481 98.8953Z" fill="#FC5E3B" stroke="black" stroke-width="0.0253293" stroke-miterlimit="10"/>
<path d="M275.028 106.118L278.912 104.326L279.868 103.884L279.874 103.882C283.219 101.946 284.631 96.8065 283.025 92.3988C281.554 88.3554 278.056 86.3331 274.904 87.5117L274.718 87.5842L274.688 87.5982L271.058 89.0336C271.614 88.9045 272.177 88.8724 272.734 88.931C275.151 89.1808 277.447 91.1243 278.588 94.2336C279.954 97.957 279.235 102.179 277.035 104.616C276.585 105.114 276.076 105.537 275.508 105.866C275.348 105.959 275.187 106.042 275.026 106.117L275.028 106.118Z" fill="#FC5E3B" stroke="black" stroke-width="0.0253293" stroke-miterlimit="10"/>
<path d="M271.431 99.6059L231.185 118.561L229.77 115.462L270.375 97.304C271.107 96.976 271.956 97.4038 272.13 98.1862C272.258 98.7642 271.967 99.3532 271.432 99.6053L271.431 99.6059Z" fill="#FC5E3B" stroke="black" stroke-width="0.0329759" stroke-miterlimit="10"/>
<path d="M221.901 139.458C221.779 139.638 221.922 139.855 222.099 139.761L231.075 135.098L232.461 134.366C236.206 131.549 238.594 122.191 235.833 113.919C233.23 106.116 228.295 101.14 224.226 101.848L222.553 102.502L212.878 106.288C214.726 106.101 216.879 108.184 218.778 111.721C220.109 114.197 221.312 117.386 222.198 121.005C222.856 123.69 223.266 126.325 223.443 128.752C223.791 133.503 223.245 137.46 221.9 139.456L221.901 139.458Z" fill="#FC5E3B" stroke="black" stroke-width="0.0329759" stroke-miterlimit="10"/>
<path d="M221.441 140.099C221.631 140.032 221.816 139.949 221.999 139.848C222.318 139.675 222.62 139.457 222.904 139.199C225.196 137.111 226.319 132.373 226.03 126.826C225.902 124.346 225.49 121.704 224.775 119.066C223.81 115.511 222.434 112.475 220.874 110.208C218.646 106.971 216.049 105.3 213.747 105.918C213.455 105.996 213.169 106.109 212.889 106.262C212.683 106.375 212.485 106.504 212.295 106.652C208.725 109.41 207.727 118.243 210.115 127.045C212.516 135.899 217.475 141.525 221.441 140.099Z" fill="#CD401D" stroke="black" stroke-width="0.0372771" stroke-miterlimit="10"/>
<path d="M221.309 138.014C221.492 137.909 221.674 137.775 221.849 137.62C223.659 135.99 224.692 131.776 224.477 126.887C224.373 124.487 223.991 122.049 223.345 119.64C222.484 116.434 221.231 113.599 219.721 111.443C217.787 108.68 215.615 107.312 213.911 107.784C213.724 107.835 213.54 107.91 213.361 108.007C213.344 108.015 213.327 108.026 213.307 108.038C213.193 108.104 213.083 108.177 212.978 108.258C211.641 109.281 210.659 111.678 210.28 114.837C209.857 118.353 210.207 122.466 211.267 126.414C212.33 130.377 213.999 133.772 215.964 135.977C217.689 137.91 219.485 138.724 220.891 138.21L220.903 138.204C221.016 138.165 221.132 138.112 221.248 138.05C221.27 138.038 221.289 138.028 221.309 138.016L221.309 138.014Z" fill="#CD401D" stroke="black" stroke-width="0.0367992" stroke-miterlimit="10"/>
<path d="M214.942 123.604C215.377 125.344 216.543 126.393 217.549 125.946C218.553 125.499 219.015 123.725 218.579 121.983C218.144 120.243 216.977 119.194 215.971 119.641C214.967 120.088 214.505 121.862 214.942 123.604Z" fill="#CD401D" stroke="black" stroke-width="0.0305863" stroke-miterlimit="10"/>
<path d="M210.494 128.331L211.665 127.771L216.098 125.65L216.943 125.245C217.655 124.91 217.991 124.086 217.719 123.348C217.412 122.514 216.456 122.122 215.652 122.498L214.818 122.891L210.869 124.753L209.694 125.306" fill="black"/>
<path d="M210.494 128.331L211.665 127.771L216.098 125.65L216.943 125.245C217.655 124.91 217.991 124.086 217.719 123.348C217.412 122.514 216.456 122.122 215.652 122.498L214.818 122.891L210.869 124.753L209.694 125.306" stroke="black" stroke-width="0.043012" stroke-miterlimit="10"/>
<path d="M217.435 122.396C217.707 123.134 217.371 123.957 216.66 124.294L203.336 130.668C202.496 131.067 201.495 130.647 201.191 129.768C200.931 129.017 201.278 128.19 201.996 127.848L215.368 121.546C216.174 121.169 217.128 121.562 217.437 122.395L217.435 122.396Z" fill="#FC5E3B" stroke="black" stroke-width="0.043012" stroke-miterlimit="10"/>
<path d="M249.658 106.671C249.658 106.671 249.658 106.662 249.657 106.658C249.562 105.899 250.367 105.329 251.06 105.655C251.541 105.881 251.94 106.229 252.241 106.635C252.722 107.284 252.973 108.076 253.161 108.876C253.317 109.542 253.379 110.369 252.768 110.935C252.636 111.057 252.477 111.159 252.306 111.204C251.874 111.32 251.519 111.061 251.239 110.818" fill="#FFB3C0"/>
<path d="M249.658 106.671C249.658 106.671 249.658 106.662 249.657 106.658C249.562 105.899 250.367 105.329 251.06 105.655C251.541 105.881 251.94 106.229 252.241 106.635C252.722 107.284 252.973 108.076 253.161 108.876C253.317 109.542 253.379 110.369 252.768 110.935C252.636 111.057 252.477 111.159 252.306 111.204C251.874 111.32 251.519 111.061 251.239 110.818" stroke="black" stroke-width="0.0420562" stroke-miterlimit="10"/>
<path d="M247.814 107.793C247.651 107.186 248.04 106.441 248.663 106.361C249.232 106.288 249.726 106.733 250.104 107.163C250.64 107.774 251.135 108.44 251.408 109.206C251.679 109.971 251.706 110.854 251.327 111.573C251.174 111.863 250.945 112.131 250.635 112.239C250.102 112.425 249.526 112.089 249.131 111.685" fill="#FFB3C0"/>
<path d="M247.814 107.793C247.651 107.186 248.04 106.441 248.663 106.361C249.232 106.288 249.726 106.733 250.104 107.163C250.64 107.774 251.135 108.44 251.408 109.206C251.679 109.971 251.706 110.854 251.327 111.573C251.174 111.863 250.945 112.131 250.635 112.239C250.102 112.425 249.526 112.089 249.131 111.685" stroke="black" stroke-width="0.0420562" stroke-miterlimit="10"/>
<path d="M244.117 111.877C244.68 112.613 245.337 113.326 246.198 113.666C247.06 114.007 248.167 113.877 248.734 113.144C249.302 112.409 249.166 111.365 248.946 110.464C248.87 110.153 248.786 109.844 248.697 109.537C248.528 108.958 248.326 108.37 247.922 107.922C247.519 107.474 246.869 107.199 246.301 107.4C245.609 107.645 245.315 108.63 245.761 109.214" fill="#FFB3C0"/>
<path d="M244.117 111.877C244.68 112.613 245.337 113.326 246.198 113.666C247.06 114.007 248.167 113.877 248.734 113.144C249.302 112.409 249.166 111.365 248.946 110.464C248.87 110.153 248.786 109.844 248.697 109.537C248.528 108.958 248.326 108.37 247.922 107.922C247.519 107.474 246.869 107.199 246.301 107.4C245.609 107.645 245.315 108.63 245.761 109.214" stroke="black" stroke-width="0.0420562" stroke-miterlimit="10"/>
<path d="M243.892 108.587C244.599 108.733 245.324 108.886 245.935 109.272C246.546 109.657 247.027 110.334 246.972 111.054C246.962 111.19 246.928 111.335 246.828 111.427C246.765 111.485 246.684 111.517 246.604 111.547C244.99 112.121 243.054 111.644 241.892 110.385C241.562 110.027 241.284 109.598 241.214 109.115" fill="#FFB3C0"/>
<path d="M243.892 108.587C244.599 108.733 245.324 108.886 245.935 109.272C246.546 109.657 247.027 110.334 246.972 111.054C246.962 111.19 246.928 111.335 246.828 111.427C246.765 111.485 246.684 111.517 246.604 111.547C244.99 112.121 243.054 111.644 241.892 110.385C241.562 110.027 241.284 109.598 241.214 109.115" stroke="black" stroke-width="0.0420562" stroke-miterlimit="10"/>
<path d="M264.199 103.456C264.435 103.734 264.879 103.774 265.198 103.598C265.517 103.422 265.712 103.069 265.766 102.708C265.942 101.545 265.183 100.378 264.479 99.5253C263.934 98.8661 263.417 98.2868 262.682 97.821C261.271 96.9253 259.526 96.4363 257.876 96.8184C256.925 97.0383 256.05 97.5502 255.375 98.2517C255.072 98.5673 254.651 99.0186 254.523 99.4483C254.396 99.878 254.466 100.421 254.603 100.833C254.797 101.415 255.269 102.21 255.843 102.479C256.581 102.823 257.42 102.742 258.147 103.108C258.664 103.37 259.096 103.887 259.079 104.467C259.07 104.776 258.937 105.08 258.985 105.385C259.066 105.891 259.634 106.197 260.144 106.169C261.457 106.097 262.141 104.735 262.053 103.531C261.984 102.582 261.453 101.715 260.769 101.053C260.085 100.391 259.252 99.9079 258.43 99.4308" fill="#FFB3C0"/>
<path d="M264.199 103.456C264.435 103.734 264.879 103.774 265.198 103.598C265.517 103.422 265.712 103.069 265.766 102.708C265.942 101.545 265.183 100.378 264.479 99.5253C263.934 98.8661 263.417 98.2868 262.682 97.821C261.271 96.9253 259.526 96.4363 257.876 96.8184C256.925 97.0383 256.05 97.5502 255.375 98.2517C255.072 98.5673 254.651 99.0186 254.523 99.4483C254.396 99.878 254.466 100.421 254.603 100.833C254.797 101.415 255.269 102.21 255.843 102.479C256.581 102.823 257.42 102.742 258.147 103.108C258.664 103.37 259.096 103.887 259.079 104.467C259.07 104.776 258.937 105.08 258.985 105.385C259.066 105.891 259.634 106.197 260.144 106.169C261.457 106.097 262.141 104.735 262.053 103.531C261.984 102.582 261.453 101.715 260.769 101.053C260.085 100.391 259.252 99.9079 258.43 99.4308" stroke="black" stroke-width="0.0420562" stroke-miterlimit="10"/>
<path d="M261.935 104.691C262.337 104.981 262.921 104.941 263.328 104.656C263.734 104.372 263.967 103.885 264.02 103.392C264.073 102.9 263.961 102.402 263.786 101.939C263.206 100.414 261.889 99.1892 260.326 98.7236" fill="#FFB3C0"/>
<path d="M261.935 104.691C262.337 104.981 262.921 104.941 263.328 104.656C263.734 104.372 263.967 103.885 264.02 103.392C264.073 102.9 263.961 102.402 263.786 101.939C263.206 100.414 261.889 99.1892 260.326 98.7236" stroke="black" stroke-width="0.0420562" stroke-miterlimit="10"/>
<path d="M260.762 101.055C260.762 101.055 262.729 102.904 261.749 104.945Z" fill="#FFB3C0"/>
<path d="M260.762 101.055C260.762 101.055 262.729 102.904 261.749 104.945" stroke="black" stroke-width="0.0420562" stroke-miterlimit="10"/>
<path d="M254.703 99.1079C254.015 100.475 253.927 102.3 254.474 103.79C254.718 104.451 255.15 105.097 255.721 105.159C256.263 105.216 256.755 104.707 256.984 104.089C257.214 103.47 257.238 102.763 257.257 102.076" fill="#FFB3C0"/>
<path d="M254.703 99.1079C254.015 100.475 253.927 102.3 254.474 103.79C254.718 104.451 255.15 105.097 255.721 105.159C256.263 105.216 256.755 104.707 256.984 104.089C257.214 103.47 257.238 102.763 257.257 102.076" stroke="black" stroke-width="0.0420562" stroke-miterlimit="10"/>
<path d="M273.305 120.059L280.287 112.962L288.519 117.803L276.936 123.092L273.305 120.059Z" fill="white"/>
<path d="M300.399 117.098C300.466 116.356 300.35 115.604 299.992 114.891C299.318 113.552 297.879 112.634 296.381 112.587C294.559 112.53 292.937 113.634 291.37 114.565C290.142 115.296 288.102 116.395 286.624 115.778C285.27 115.211 284.221 114.036 282.72 113.605C281.871 113.366 281.217 113.644 281.277 114.56C281.317 115.244 281.641 115.965 281.768 116.654C281.987 117.677 281.684 118.612 281.114 119.578C280.702 120.284 280.146 120.993 279.624 121.367C277.519 122.872 276.821 121.603 275.91 121.652C275.072 121.705 275.696 122.507 275.855 123.18C276.378 125.084 278.276 127.356 280.365 127.6C281.587 127.817 282.989 127.269 284.142 126.715C285.661 126.034 287.21 125.279 288.704 124.688C290.81 123.911 293.144 123.24 295.293 122.532C296.93 122.054 298.051 121.439 299.125 120.085C299.813 119.225 300.3 118.175 300.399 117.098Z" fill="#2882FF" stroke="black" stroke-width="0.037755" stroke-miterlimit="10"/>
<path d="M299.092 118.279C297.331 120.295 294.523 121.799 292.018 122.702C290.729 123.149 289.334 123.246 288.015 123.473C286.33 123.744 284.809 124.531 283.164 125.157C282.117 125.555 281.04 125.907 279.954 126.163C279.305 126.349 278.505 126.355 278.211 126.643C277.934 126.978 278.209 127.564 278.5 127.911C279.072 128.636 280.096 128.93 281.015 128.762C283.555 128.385 285.389 126.865 288.2 125.851C290.757 124.844 293.572 124.611 296.015 123.415C297.71 122.597 299.05 121.338 300.235 120.103C300.849 119.524 300.838 116.612 300.457 115.778C300.202 115.22 300.381 115.983 300.153 116.592C300.028 116.928 299.367 117.978 299.107 118.263L299.092 118.279Z" fill="#2882FF" stroke="black" stroke-width="0.037755" stroke-miterlimit="10"/>
<path d="M236.664 147.192C236.931 148.274 237.448 149.155 238.036 150.034C238.802 151.188 239.781 152.145 241.011 152.8C241.701 153.166 242.478 153.687 243.272 153.525C243.667 153.437 244.071 153.159 244.608 152.79C245.105 152.448 245.701 152.038 246.256 151.657C247.267 150.944 248.028 150.501 248.867 149.733C249.864 148.787 251.133 147.505 252.091 146.568C252.816 145.873 253.342 145.254 253.941 144.408C254.858 143.159 255.902 141.734 256.837 140.466C257.552 139.367 258.383 139.06 259.497 138.593C259.951 138.398 260.468 138.179 260.912 137.988C261.33 137.772 262.402 137.466 262.166 137.085C261.791 136.673 260.899 136.35 259.899 136.036C257.614 135.305 255.223 136.342 253.441 137.816C252.944 138.187 252.556 138.707 251.984 138.923C251.598 139.057 251.209 138.988 250.794 138.889C250.075 138.702 249.055 138.379 248.22 138.194C247.268 137.996 246.711 137.826 245.955 137.984C244.201 138.448 242.006 140.29 241.789 142.073C241.547 143.521 242.523 143.78 243.655 143.927C243.901 143.971 243.942 144.06 243.707 144.214C243.328 144.456 242.609 144.61 242.076 144.647C238.369 144.96 238.499 140.919 237.534 142.187C236.78 143.307 236.208 145.593 236.656 147.157L236.666 147.196L236.664 147.192Z" fill="#2882FF" stroke="black" stroke-width="0.0253293" stroke-miterlimit="10"/>
<path d="M249.248 143.317C249.248 143.317 249.837 140.909 251.912 139.285Z" fill="#2882FF"/>
<path d="M249.248 143.317C249.248 143.317 249.837 140.909 251.912 139.285" stroke="black" stroke-width="0.0253293" stroke-miterlimit="10"/>
<path d="M247.491 153.482C247.491 153.482 255.473 150.67 261.951 145.741C261.951 145.741 264.576 142.464 263.791 140.006C263.007 137.549 259.115 138.417 259.115 138.417L253.592 146.797L248.182 151.97L247.491 153.482Z" fill="#FF8663"/>
<path d="M263.563 142.349C263.601 141.997 263.627 141.591 263.584 141.189C263.467 140.122 262.967 138.922 261.961 138.635C259.841 138.086 255.332 145.124 253.753 147.215C252.299 149.116 251.455 150.825 249.464 152.333C246.336 154.748 242.217 154.824 239.364 153.905C238.952 153.785 238.572 153.595 238.384 153.176L238.376 153.159C238.099 152.464 238.072 151.201 238.724 150.974C239.094 150.847 239.59 151.074 240.409 151.204C245.321 151.99 248.88 149.966 251.491 145.797C252.697 143.928 253.11 141.79 254.606 140.137C256.238 138.344 258.785 136.624 261.291 136.895C262.696 137.101 263.526 138.391 263.916 139.66C264.548 141.603 263.169 144.241 262.114 145.565C262.114 145.565 263.459 143.284 263.562 142.349L263.563 142.349Z" fill="#2882FF" stroke="black" stroke-width="0.0253293" stroke-miterlimit="10"/>
<path d="M287.947 115.97C285.522 116.52 285.68 119.025 285.68 119.025Z" fill="#2882FF"/>
<path d="M287.947 115.97C285.522 116.52 285.68 119.025 285.68 119.025" stroke="black" stroke-width="0.0516144" stroke-miterlimit="10"/>
<path d="M240.426 110.641C240.426 110.641 243.087 110.757 242.853 113.149L244.52 112.33L244.156 111.653C244.156 111.653 242.763 111.595 241.653 110.112L240.426 110.643L240.426 110.641Z" fill="black"/>
<path d="M257.181 103.19C257.181 103.19 258.853 104.474 257.973 105.933L258.991 105.468C258.991 105.468 258.933 105.064 259.039 104.759C259.145 104.453 259.182 103.316 257.658 102.952L257.181 103.19Z" fill="black"/>
<path d="M254.361 104.452C254.361 104.452 254.485 106.122 256.128 105.139C256.128 105.139 255.094 105.324 254.69 104.302L254.361 104.452Z" fill="black"/>
<path d="M247.375 89.1042C247.375 89.1042 251.424 95.359 250.226 97.0127L251.842 95.3775L247.376 89.1037L247.375 89.1042Z" fill="black" stroke="black" stroke-width="0.0477912" stroke-miterlimit="10"/>
<path d="M239.915 105.215C239.915 105.215 240.316 102.719 242.718 102.24Z" fill="#2882FF"/>
<path d="M239.915 105.215C239.915 105.215 240.316 102.719 242.718 102.24" stroke="black" stroke-width="0.0434899" stroke-miterlimit="10"/>
<path d="M235.094 152.309C236.196 151.806 236.681 150.505 236.178 149.403C235.675 148.302 234.374 147.816 233.272 148.319C232.171 148.822 231.685 150.123 232.188 151.225C232.691 152.327 233.992 152.812 235.094 152.309Z" fill="white"/>
<path d="M238.721 150.974C238.721 150.974 240.859 154.667 246.664 153.82C246.664 153.82 243.637 155.007 240.173 154.119C240.173 154.119 238.174 154.071 238.176 152.391C238.176 152.391 238.008 151.195 238.72 150.976L238.721 150.974Z" fill="black"/>
<path d="M275.908 121.651C275.908 121.651 279.249 128.186 288.202 125.849C288.202 125.849 284.311 127.692 283.763 127.917C283.763 127.917 280.239 130.028 278.501 127.908C278.501 127.908 277.783 127.058 278.212 126.64C278.212 126.64 276.442 125.437 275.9 123.221C274.933 121.708 275.909 121.649 275.909 121.649L275.908 121.651Z" fill="black"/>
<path d="M239.308 103.179C239.308 103.179 239.703 102.384 240.214 102.151C240.724 101.918 236.145 98.3055 230.297 91.573L239.308 103.179Z" fill="black"/>
<path d="M225.802 123.778C225.802 123.778 225.945 138.005 231.073 135.099L221.998 139.85C221.998 139.85 226.928 137.227 225.802 123.778Z" fill="black"/>
<path d="M279.16 99.5261C279.16 99.5261 278.776 102.888 279.716 102.921C281.823 102.995 282.042 99.2383 282.042 99.2383C282.042 99.2383 282.523 97.5253 283.563 97.6424C283.563 97.6424 283.468 101.578 279.872 103.883L275.513 105.865C275.513 105.865 279.254 102.617 279.16 99.5261Z" fill="black"/>
<path d="M233.984 76.0159C233.984 76.0159 236.064 77.5326 237.861 76.4039" stroke="#300A01" stroke-width="0.0477912" stroke-miterlimit="10"/>
<path d="M213.706 164.953C213.706 164.953 209.84 168.815 214.446 168.099C219.052 167.383 224.096 165.37 224.096 165.37L214.71 169.745C214.054 170.05 213.315 170.155 212.608 169.999C211.814 169.823 211.051 169.33 211.405 168.023C212.073 165.565 213.706 164.953 213.706 164.953Z" fill="black"/>
</g>
<defs>
<filter id="filter0_d_795_2" x="0.795566" y="-2.23047" width="337.283" height="263.745" filterUnits="userSpaceOnUse" color-interpolation-filters="sRGB">
<feFlood flood-opacity="0" result="BackgroundImageFix"/>
<feColorMatrix in="SourceAlpha" type="matrix" values="0 0 0 0 0 0 0 0 0 0 0 0 0 0 0 0 0 0 127 0" result="hardAlpha"/>
<feOffset dy="2.97396"/>
<feGaussianBlur stdDeviation="2.60222"/>
<feComposite in2="hardAlpha" operator="out"/>
<feColorMatrix type="matrix" values="0 0 0 0 0 0 0 0 0 0.239444 0 0 0 0 0.572005 0 0 0 1 0"/>
<feBlend mode="normal" in2="BackgroundImageFix" result="effect1_dropShadow_795_2"/>
<feBlend mode="normal" in="SourceGraphic" in2="effect1_dropShadow_795_2" result="shape"/>
</filter>
</defs>
</svg>
