<svg width="256" height="152" viewBox="0 0 256 152" fill="none" xmlns="http://www.w3.org/2000/svg">
<path fill-rule="evenodd" clip-rule="evenodd" d="M184.207 144.583C207.017 145.133 230.327 144.033 252.137 151.833C253.437 152.293 254.867 151.623 255.337 150.323C255.797 149.023 255.127 147.593 253.827 147.123C231.507 139.143 207.667 140.143 184.327 139.583C182.947 139.543 181.797 140.643 181.767 142.023C181.727 143.403 182.827 144.543 184.207 144.583Z" fill="#FC5E3B"/>
<path fill-rule="evenodd" clip-rule="evenodd" d="M182.153 111.466C189.263 104.924 197.023 100.023 206.403 97.5938C207.743 97.2478 208.543 95.8827 208.203 94.5467C207.853 93.2107 206.483 92.4077 205.153 92.7537C194.953 95.3937 186.503 100.676 178.773 107.785C177.753 108.719 177.683 110.302 178.623 111.318C179.553 112.333 181.143 112.4 182.153 111.466Z" fill="#FC5E3B"/>
<path fill-rule="evenodd" clip-rule="evenodd" d="M162.374 40.0426C165.634 28.8676 172.054 20.1256 181.894 13.8126C183.054 13.0676 183.394 11.5197 182.644 10.3587C181.904 9.19767 180.354 8.85964 179.194 9.60464C168.304 16.5946 161.184 26.2686 157.574 38.6416C157.184 39.9656 157.954 41.3557 159.274 41.7417C160.604 42.1287 161.994 41.3666 162.374 40.0426Z" fill="#FC5E3B"/>
<path fill-rule="evenodd" clip-rule="evenodd" d="M50.0249 24.8766C48.0849 27.1596 46.3449 29.6196 44.8649 32.2386C44.2049 33.4046 43.0449 35.8826 42.8649 38.0076C42.6649 40.2716 43.4348 42.1816 45.4148 43.1876C48.0448 44.5216 50.1449 44.3826 51.7649 43.5756C53.3249 42.8006 54.5448 41.2776 55.3148 39.2356C56.7848 35.3326 56.5648 29.3676 55.7948 25.9636C57.8648 23.8276 60.1348 21.8906 62.5648 20.1686C80.6648 7.34356 107.215 12.0726 127.645 31.2486C134.795 37.9626 138.235 52.0626 140.025 67.2756C142.815 90.9626 141.225 117.419 141.005 125.17C140.955 127.084 141.135 128.22 141.235 128.447C141.705 129.563 142.535 129.853 143.115 129.963C143.955 130.113 144.625 129.953 145.165 129.673C145.895 129.289 146.495 128.613 146.775 127.57C146.925 126.994 146.965 126.192 146.945 125.337C146.925 124.744 146.805 124.096 146.925 123.671C147.705 120.949 148.645 118.291 149.565 115.614C152.635 106.615 156.605 98.1816 161.015 89.7586C175.025 62.9946 188.575 34.7156 211.545 14.3246C212.575 13.4096 212.675 11.8276 211.755 10.7956C210.845 9.76358 209.265 9.66955 208.225 10.5856C184.795 31.3796 170.875 60.1456 156.585 87.4396C152.835 94.6046 149.395 101.78 146.535 109.285C146.825 96.0086 146.715 77.6316 144.285 61.3716C142.125 46.9106 138.015 34.1306 131.065 27.6036C108.685 6.59656 79.4948 2.03958 59.6748 16.0896C57.5548 17.5936 55.5349 19.2476 53.6549 21.0416C43.2849 2.31661 21.0848 -5.18844 1.46484 3.76756C0.204836 4.34056 -0.345154 5.82457 0.224846 7.07957C0.804846 8.33457 2.28479 8.8886 3.54479 8.3156C21.2248 0.245596 41.2749 7.44757 50.0249 24.8766ZM51.4748 31.1456C50.6648 32.2896 49.9148 33.4756 49.2148 34.7016C48.8448 35.3596 48.2048 36.6246 47.9348 37.8626C47.8748 38.1526 47.8649 38.6066 47.8649 38.8166C48.5549 39.1566 49.0948 39.3206 49.5348 39.0996C50.0848 38.8276 50.3649 38.1876 50.6349 37.4726C51.3149 35.6786 51.5348 33.3006 51.4748 31.1456Z" fill="#FC5E3B"/>
</svg>
