<svg width="283" height="272" viewBox="0 0 283 272" fill="none" xmlns="http://www.w3.org/2000/svg">
<path d="M180.457 233.215C184.682 231.829 188.804 230.332 192.795 228.738C202.104 225.024 226.31 213.957 236.137 190.437C237.424 187.353 244.948 169.35 238.261 151.533C231.573 133.723 213.647 125.082 197.111 118.499C165.781 106.025 160.981 102.789 155.788 92.9413C146.237 74.8336 161.901 57.017 152.191 46.7331C144.542 38.6321 128.255 42.7207 115.329 45.9639C79.4489 54.9727 57.0065 79.2202 48.0227 90.5158C41.3902 98.8455 28.6648 114.881 25.8639 138.096C24.8403 146.585 18.1802 201.816 67.1177 229.709C100.169 248.551 144.079 245.141 180.45 233.208L180.457 233.215Z" fill="#4D95FF"/>
<path d="M175.457 231.215C179.682 229.829 183.804 228.332 187.795 226.738C197.104 223.024 221.31 211.957 231.137 188.437C232.424 185.353 239.948 167.35 233.261 149.533C226.573 131.723 208.647 123.082 192.111 116.499C160.781 104.025 155.981 100.789 150.788 90.9413C141.237 72.8336 156.901 55.017 147.191 44.7331C139.542 36.6321 123.255 40.7207 110.329 43.9639C74.4489 52.9727 52.0065 77.2202 43.0227 88.5158C36.3902 96.8455 23.6648 112.881 20.8639 136.096C19.8403 144.585 13.1802 199.816 62.1177 227.709C95.1692 246.551 139.079 243.141 175.45 231.208L175.457 231.215Z" fill="white"/>
<path d="M181.4 90.8C181.4 84.5045 176.295 79.4 170 79.4C176.295 79.4 181.4 74.2955 181.4 68C181.4 74.2955 186.504 79.4 192.8 79.4C186.504 79.4 181.4 84.5045 181.4 90.8Z" fill="white"/>
</svg>
