<svg width="283" height="272" viewBox="0 0 283 272" fill="none" xmlns="http://www.w3.org/2000/svg">
<path d="M180.457 233.215C184.682 231.829 188.804 230.332 192.795 228.738C202.104 225.024 226.31 213.957 236.137 190.437C237.424 187.353 244.948 169.35 238.261 151.533C231.573 133.723 213.647 125.082 197.111 118.499C165.781 106.025 160.981 102.789 155.788 92.9413C146.237 74.8336 161.901 57.017 152.191 46.7331C144.542 38.6321 128.255 42.7207 115.329 45.9639C79.4489 54.9727 57.0065 79.2202 48.0227 90.5158C41.3902 98.8455 28.6648 114.881 25.8639 138.096C24.8403 146.585 18.1802 201.816 67.1177 229.709C100.169 248.551 144.079 245.141 180.45 233.208L180.457 233.215Z" fill="#4D95FF"/>
<path d="M175.457 231.215C179.682 229.829 183.804 228.332 187.795 226.738C197.104 223.024 221.31 211.957 231.137 188.437C232.424 185.353 239.948 167.35 233.261 149.533C226.573 131.723 208.647 123.082 192.111 116.499C160.781 104.025 155.981 100.789 150.788 90.9413C141.237 72.8336 156.901 55.017 147.191 44.7331C139.542 36.6321 123.255 40.7207 110.329 43.9639C74.4489 52.9727 52.0065 77.2202 43.0227 88.5158C36.3902 96.8455 23.6648 112.881 20.8639 136.096C19.8403 144.585 13.1802 199.816 62.1177 227.709C95.1692 246.551 139.079 243.141 175.45 231.208L175.457 231.215Z" fill="white"/>
<path d="M77.7912 156.34C76.4539 156.34 75.2185 156.136 74.0852 155.728C72.9745 155.297 71.9999 154.674 71.1612 153.858C70.3452 153.019 69.7105 151.988 69.2572 150.764C68.8265 149.517 68.6112 148.078 68.6112 146.446V142.264C68.6112 140.609 68.8379 139.17 69.2912 137.946C69.7445 136.699 70.3792 135.657 71.1952 134.818C72.0112 133.979 72.9745 133.356 74.0852 132.948C75.2185 132.54 76.4539 132.336 77.7912 132.336H78.7092C80.0465 132.336 81.2705 132.551 82.3812 132.982C83.5145 133.39 84.4892 134.013 85.3052 134.852C86.1212 135.668 86.7559 136.699 87.2092 137.946C87.6625 139.17 87.8892 140.609 87.8892 142.264V146.446C87.8892 148.078 87.6625 149.517 87.2092 150.764C86.7559 151.988 86.1212 153.019 85.3052 153.858C84.4892 154.674 83.5259 155.297 82.4152 155.728C81.3045 156.136 80.0692 156.34 78.7092 156.34H77.7912ZM78.2332 152.022C78.7999 152.022 79.3099 151.943 79.7632 151.784C80.2392 151.625 80.6472 151.365 80.9872 151.002C81.3499 150.639 81.6219 150.175 81.8032 149.608C82.0072 149.019 82.1092 148.305 82.1092 147.466V141.142C82.1092 140.303 82.0072 139.601 81.8032 139.034C81.6219 138.467 81.3499 138.003 80.9872 137.64C80.6472 137.277 80.2392 137.017 79.7632 136.858C79.3099 136.699 78.7999 136.62 78.2332 136.62C77.6892 136.62 77.1792 136.699 76.7032 136.858C76.2499 137.017 75.8532 137.277 75.5132 137.64C75.1732 138.003 74.9012 138.467 74.6972 139.034C74.5159 139.601 74.4252 140.303 74.4252 141.142V147.466C74.4252 148.305 74.5159 149.019 74.6972 149.608C74.9012 150.175 75.1732 150.639 75.5132 151.002C75.8532 151.365 76.2499 151.625 76.7032 151.784C77.1792 151.943 77.6892 152.022 78.2332 152.022ZM106.338 156.272C105.499 156.272 104.763 156.147 104.128 155.898C103.493 155.626 102.995 155.173 102.632 154.538C102.292 153.903 102.122 153.019 102.122 151.886C102.122 151.206 102.054 150.583 101.918 150.016C101.805 149.427 101.612 148.917 101.34 148.486C101.068 148.055 100.717 147.715 100.286 147.466C99.8553 147.194 99.3339 147.058 98.7219 147.058H95.7979V156H90.2559V132.676H101.17C102.553 132.676 103.777 132.937 104.842 133.458C105.907 133.979 106.735 134.705 107.324 135.634C107.913 136.563 108.208 137.651 108.208 138.898C108.208 140.394 107.834 141.663 107.086 142.706C106.338 143.726 105.341 144.372 104.094 144.644V144.814C104.933 145.041 105.624 145.437 106.168 146.004C106.712 146.571 107.109 147.228 107.358 147.976C107.63 148.724 107.766 149.495 107.766 150.288C107.766 151.739 107.891 152.77 108.14 153.382C108.412 153.994 108.865 154.391 109.5 154.572V155.762C109.047 155.943 108.537 156.068 107.97 156.136C107.426 156.227 106.882 156.272 106.338 156.272ZM95.7979 142.842H99.6399C100.705 142.842 101.476 142.547 101.952 141.958C102.451 141.369 102.7 140.655 102.7 139.816C102.7 139 102.462 138.32 101.986 137.776C101.51 137.232 100.773 136.96 99.7759 136.96H95.7979V142.842ZM110.643 156V132.676H119.551C120.888 132.676 122.123 132.857 123.257 133.22C124.413 133.583 125.41 134.127 126.249 134.852C127.087 135.577 127.745 136.484 128.221 137.572C128.697 138.637 128.935 139.873 128.935 141.278V147.398C128.935 148.781 128.697 150.016 128.221 151.104C127.745 152.169 127.087 153.065 126.249 153.79C125.41 154.515 124.413 155.071 123.257 155.456C122.123 155.819 120.888 156 119.551 156H110.643ZM116.355 151.648H119.075C119.913 151.648 120.639 151.523 121.251 151.274C121.863 151.025 122.327 150.617 122.645 150.05C122.985 149.483 123.155 148.701 123.155 147.704V140.938C123.155 139.941 122.985 139.159 122.645 138.592C122.327 138.003 121.863 137.583 121.251 137.334C120.639 137.085 119.913 136.96 119.075 136.96H116.355V151.648ZM131.607 156V132.676H147.791L147.179 136.994H137.183V141.958H146.533V146.174H137.183V151.512H147.281L147.859 156H131.607ZM167.498 156.272C166.659 156.272 165.923 156.147 165.288 155.898C164.653 155.626 164.155 155.173 163.792 154.538C163.452 153.903 163.282 153.019 163.282 151.886C163.282 151.206 163.214 150.583 163.078 150.016C162.965 149.427 162.772 148.917 162.5 148.486C162.228 148.055 161.877 147.715 161.446 147.466C161.015 147.194 160.494 147.058 159.882 147.058H156.958V156H151.416V132.676H162.33C163.713 132.676 164.937 132.937 166.002 133.458C167.067 133.979 167.895 134.705 168.484 135.634C169.073 136.563 169.368 137.651 169.368 138.898C169.368 140.394 168.994 141.663 168.246 142.706C167.498 143.726 166.501 144.372 165.254 144.644V144.814C166.093 145.041 166.784 145.437 167.328 146.004C167.872 146.571 168.269 147.228 168.518 147.976C168.79 148.724 168.926 149.495 168.926 150.288C168.926 151.739 169.051 152.77 169.3 153.382C169.572 153.994 170.025 154.391 170.66 154.572V155.762C170.207 155.943 169.697 156.068 169.13 156.136C168.586 156.227 168.042 156.272 167.498 156.272ZM156.958 142.842H160.8C161.865 142.842 162.636 142.547 163.112 141.958C163.611 141.369 163.86 140.655 163.86 139.816C163.86 139 163.622 138.32 163.146 137.776C162.67 137.232 161.933 136.96 160.936 136.96H156.958V142.842ZM90.2559 186V162.676H95.5599L100.694 173.522L101.68 175.902H101.85V162.676H106.984V186H101.68L96.4439 175.154L95.5599 172.944L95.4239 172.978V186H90.2559ZM118.565 186.34C117.227 186.34 115.992 186.136 114.859 185.728C113.748 185.297 112.773 184.674 111.935 183.858C111.119 183.019 110.484 181.988 110.031 180.764C109.6 179.517 109.385 178.078 109.385 176.446V172.264C109.385 170.609 109.611 169.17 110.065 167.946C110.518 166.699 111.153 165.657 111.969 164.818C112.785 163.979 113.748 163.356 114.859 162.948C115.992 162.54 117.227 162.336 118.565 162.336H119.483C120.82 162.336 122.044 162.551 123.155 162.982C124.288 163.39 125.263 164.013 126.079 164.852C126.895 165.668 127.529 166.699 127.983 167.946C128.436 169.17 128.663 170.609 128.663 172.264V176.446C128.663 178.078 128.436 179.517 127.983 180.764C127.529 181.988 126.895 183.019 126.079 183.858C125.263 184.674 124.299 185.297 123.189 185.728C122.078 186.136 120.843 186.34 119.483 186.34H118.565ZM119.007 182.022C119.573 182.022 120.083 181.943 120.537 181.784C121.013 181.625 121.421 181.365 121.761 181.002C122.123 180.639 122.395 180.175 122.577 179.608C122.781 179.019 122.883 178.305 122.883 177.466V171.142C122.883 170.303 122.781 169.601 122.577 169.034C122.395 168.467 122.123 168.003 121.761 167.64C121.421 167.277 121.013 167.017 120.537 166.858C120.083 166.699 119.573 166.62 119.007 166.62C118.463 166.62 117.953 166.699 117.477 166.858C117.023 167.017 116.627 167.277 116.287 167.64C115.947 168.003 115.675 168.467 115.471 169.034C115.289 169.601 115.199 170.303 115.199 171.142V177.466C115.199 178.305 115.289 179.019 115.471 179.608C115.675 180.175 115.947 180.639 116.287 181.002C116.627 181.365 117.023 181.625 117.477 181.784C117.953 181.943 118.463 182.022 119.007 182.022ZM131.913 186L129.193 162.676H133.919L135.755 177.5H135.891L137.829 162.676H141.535L143.473 177.5H143.609L145.411 162.676H149.593L146.907 186H141.297L139.461 172.434H139.325L137.523 186H131.913Z" fill="#004DF0"/>
<path d="M181.4 90.8C181.4 84.5045 176.295 79.4 170 79.4C176.295 79.4 181.4 74.2955 181.4 68C181.4 74.2955 186.504 79.4 192.8 79.4C186.504 79.4 181.4 84.5045 181.4 90.8Z" fill="white"/>
</svg>
