<svg width="216" height="201" viewBox="0 0 216 201" fill="none" xmlns="http://www.w3.org/2000/svg">
<path d="M155.457 191.215C159.682 189.829 163.804 188.332 167.795 186.738C177.104 183.024 201.31 171.957 211.137 148.437C212.424 145.353 219.948 127.35 213.261 109.533C206.573 91.7233 188.647 83.0818 172.111 76.4984C140.781 64.0247 135.981 60.7885 130.788 50.9412C121.237 32.8335 136.901 15.0169 127.191 4.73298C119.542 -3.368 103.255 0.720604 90.329 3.96377C54.4489 12.9726 32.0065 37.2201 23.0227 48.5157C16.3902 56.8454 3.66482 72.881 0.86385 96.096C-0.159715 104.585 -6.81981 159.816 42.1177 187.708C75.1692 206.551 119.079 203.141 155.45 191.208L155.457 191.215Z" fill="white"/>
</svg>
