<svg width="758" height="676" viewBox="0 0 758 676" fill="none" xmlns="http://www.w3.org/2000/svg">
<path d="M26.2924 284.918L4.72792 271.88L9.36604 264.209C11.8248 260.142 15.8425 258.785 19.7549 261.151C23.6673 263.517 24.363 267.724 21.9042 271.79L19.1288 276.38L28.1551 281.838L26.2924 284.918ZM16.2022 274.611L18.9776 270.02C20.4119 267.648 19.8574 265.504 17.855 264.293C15.8526 263.083 13.7269 263.606 12.2926 265.978L9.51723 270.568L16.2022 274.611Z" fill="#0054F1"/>
<path d="M41.4576 259.769L27.4788 237.553L31.2771 233.27L55.0027 244.499L52.4226 247.407L44.2238 243.359L39.0638 249.176L44.0376 256.86L41.4576 259.769ZM37.1264 246.206L41.0203 241.817L32.7168 237.723L31.1191 236.595L30.7608 236.999L32.0718 238.451L37.1264 246.206Z" fill="#0054F1"/>
<path d="M72.6495 228.019L56.8225 217.466L54.1624 214.973L53.7355 215.303L66.9863 232.407L64.1404 234.612L48.7069 214.691L53.2888 211.141L69.1158 221.695L71.7759 224.188L72.2028 223.857L58.952 206.753L61.7979 204.549L77.2314 224.47L72.6495 228.019Z" fill="#0054F1"/>
<path d="M90.1163 215.041L78.6922 192.58L92.1051 185.758L93.6555 188.806L83.4514 193.996L86.8297 200.638L96.7129 195.612L98.2633 198.66L88.3801 203.687L91.7747 210.361L101.979 205.171L103.529 208.22L90.1163 215.041Z" fill="#0054F1"/>
<path d="M118.878 200.993L112.102 176.721L126.596 172.675L127.516 175.969L116.489 179.047L118.493 186.225L129.173 183.244L130.092 186.538L119.413 189.519L121.426 196.731L132.453 193.653L133.372 196.947L118.878 200.993Z" fill="#0054F1"/>
<path d="M149.094 192.972L147.272 167.838L155.889 167.214C161.06 166.839 164.337 168.731 164.691 173.614C165.022 178.174 161.89 180.278 157.338 180.716L157.377 181.255L158.311 181.692L166.006 191.746L161.446 192.077L153.453 181.395L151.873 181.51L152.685 192.712L149.094 192.972ZM151.638 178.278L157.168 177.877C159.789 177.687 161.201 176.249 161.031 173.915C160.854 171.474 159.189 170.403 156.639 170.588L151.11 170.989L151.638 178.278Z" fill="#0054F1"/>
<path d="M199.619 193.409L204.342 172.148L196.329 170.368L197.071 167.029L216.611 171.37L215.869 174.708L207.856 172.928L203.133 194.19L199.619 193.409Z" fill="#0054F1"/>
<path d="M235.71 204.282L240.118 194.305L231.556 190.522L227.148 200.5L223.855 199.045L234.039 175.994L237.332 177.449L232.938 187.394L241.5 191.177L245.894 181.232L249.187 182.687L239.003 205.737L235.71 204.282Z" fill="#0054F1"/>
<path d="M251.142 210.905L271.687 194.569L276.361 197.874L267.808 222.69L264.634 220.445L267.756 211.851L261.407 207.362L254.316 213.15L251.142 210.905ZM264.146 205.11L268.937 208.497L272.093 199.794L273.039 198.082L272.598 197.771L271.299 199.233L264.146 205.11Z" fill="#0054F1"/>
<path d="M283.072 235.48L299.142 220.779L293.602 214.723L296.125 212.414L309.636 227.182L307.112 229.491L301.572 223.435L285.502 238.136L283.072 235.48Z" fill="#0054F1"/>
<path d="M306.761 265.059L328.799 252.609L330.209 255.764L312.64 265.508L309.7 266.782L309.92 267.275L312.89 266.067L324.888 263.268L326.547 266.982L316.312 273.725L313.416 275.098L313.636 275.591L316.562 274.284L335.688 268.023L337.098 271.179L312.974 278.962L310.918 274.361L320.898 267.575L323.563 266.305L323.343 265.812L320.619 266.95L308.818 269.661L306.761 265.059Z" fill="#0054F1"/>
<path d="M320.689 302.173C319.15 296.139 322.761 291.799 331.063 289.682C339.366 287.564 344.614 289.643 346.154 295.678C347.693 301.712 344.082 306.052 335.78 308.169C327.477 310.287 322.229 308.208 320.689 302.173ZM331.998 293.344C325.614 294.973 323.033 297.526 324.003 301.328C324.973 305.13 328.462 306.135 334.845 304.507C341.229 302.878 343.81 300.325 342.84 296.523C341.87 292.721 338.381 291.716 331.998 293.344Z" fill="#0054F1"/>
<path d="M327.242 327.692L352.074 323.4L353.545 331.914C354.428 337.023 352.868 340.471 348.044 341.304C343.538 342.083 341.136 339.173 340.251 334.687L339.719 334.779L339.375 335.751L330.129 344.4L329.351 339.895L339.192 330.887L338.923 329.326L327.855 331.239L327.242 327.692ZM342.115 328.775L343.059 334.238C343.507 336.827 345.077 338.09 347.383 337.692C349.795 337.275 350.696 335.512 350.261 332.993L349.317 327.53L342.115 328.775Z" fill="#0054F1"/>
<path d="M332.907 361.756L357.701 357.25L358.345 360.792L345.983 363.039L343.781 362.597L343.877 363.128L360.16 370.781L360.887 374.783L348.13 369.015L336.061 379.111L335.295 374.897L344.866 367.157L338.758 364.352L333.551 365.298L332.907 361.756Z" fill="#0054F1"/>
<path d="M341.108 404.856C339.493 399.253 341.461 395.426 347.134 393.79L348.201 397.491C344.742 398.489 343.402 400.598 344.4 404.057C345.247 406.998 347.243 408.333 349.595 407.655C351.463 407.116 352.414 405.606 352.09 402.402L351.806 399.599C351.371 395.229 353.095 392.371 356.588 391.364C360.981 390.098 364.944 392.665 366.439 397.853C368.005 403.284 365.987 407.2 360.487 408.786L359.42 405.085C362.845 404.097 364.135 402.077 363.148 398.652C362.241 395.504 360.171 394.303 357.922 394.951C356.089 395.48 355.173 396.98 355.462 400.194L355.711 403.007C356.112 407.387 354.423 410.235 350.791 411.282C346.432 412.538 342.644 410.184 341.108 404.856Z" fill="#0054F1"/>
<path d="M355.932 445.457L380.897 437.351L384.118 442.083L367.416 462.333L365.229 459.118L371.163 452.162L366.788 445.733L358.12 448.672L355.932 445.457ZM370.142 444.583L373.444 449.434L379.448 442.388L380.933 441.115L380.629 440.669L378.901 441.584L370.142 444.583Z" fill="#0054F1"/>
<path d="M386.555 484.183C381.977 480.571 381.346 476.313 385.003 471.678L388.027 474.064C385.797 476.89 385.938 479.386 388.764 481.615C391.167 483.511 393.567 483.432 395.083 481.511C396.287 479.984 396.18 478.203 394.049 475.788L392.185 473.676C389.284 470.378 389.02 467.052 391.272 464.197C394.103 460.608 398.819 460.384 403.059 463.729C407.496 467.23 408.138 471.588 404.593 476.082L401.569 473.696C403.776 470.898 403.648 468.504 400.85 466.297C398.278 464.267 395.895 464.497 394.446 466.334C393.264 467.832 393.394 469.586 395.502 472.028L397.344 474.169C400.223 477.495 400.51 480.793 398.168 483.761C395.359 487.322 390.908 487.617 386.555 484.183Z" fill="#0054F1"/>
<path d="M437.779 511.969L441.105 501.58L432.191 498.726L428.865 509.115L425.437 508.017L433.12 484.017L436.549 485.115L433.234 495.469L442.148 498.323L445.463 487.969L448.892 489.067L441.208 513.067L437.779 511.969Z" fill="#0054F1"/>
<path d="M459.891 518.345L470.074 494.153L475.761 494.809L480.168 520.685L476.306 520.239L474.92 511.201L467.196 510.31L463.753 518.791L459.891 518.345ZM468.517 507.02L474.347 507.692L472.938 498.542L472.947 496.586L472.41 496.525L471.973 498.431L468.517 507.02Z" fill="#0054F1"/>
<path d="M498.405 522.087L499.037 496.895L507.675 497.112C512.857 497.242 515.935 499.444 515.812 504.338C515.697 508.909 512.375 510.698 507.802 510.691L507.789 511.231L508.676 511.757L515.356 522.512L510.785 522.398L503.869 510.989L502.286 510.949L502.004 522.177L498.405 522.087ZM502.367 507.71L507.909 507.849C510.537 507.915 512.081 506.621 512.14 504.282C512.202 501.835 510.648 500.607 508.093 500.543L502.55 500.404L502.367 507.71Z" fill="#0054F1"/>
<path d="M532.471 522.685L533.685 497.515L540.517 497.844C546.954 498.155 550.54 503.013 550.158 510.924C549.776 518.835 545.739 523.326 539.303 523.015L532.471 522.685ZM536.231 519.443L539.827 519.616C543.603 519.798 546.108 516.423 546.382 510.742C546.657 505.06 544.488 501.46 540.712 501.278L537.116 501.104L536.231 519.443Z" fill="#0054F1"/>
<path d="M575.445 525.163L589.458 502.969L594.96 504.548L595.064 530.796L591.327 529.724L591.443 520.58L583.969 518.434L579.182 526.236L575.445 525.163ZM585.813 515.406L591.453 517.025L591.564 507.768L591.892 505.84L591.373 505.691L590.629 507.5L585.813 515.406Z" fill="#0054F1"/>
<path d="M612.671 538.883C607.847 535.606 606.915 531.405 610.232 526.521L613.419 528.685C611.396 531.663 611.714 534.142 614.692 536.165C617.223 537.884 619.611 537.636 620.987 535.611C622.079 534.002 621.845 532.233 619.548 529.977L617.538 528.002C614.41 524.919 613.909 521.62 615.952 518.612C618.521 514.83 623.209 514.272 627.676 517.306C632.351 520.482 633.303 524.784 630.086 529.519L626.9 527.354C628.902 524.406 628.604 522.027 625.655 520.025C622.945 518.184 620.586 518.583 619.271 520.518C618.199 522.097 618.453 523.836 620.73 526.123L622.719 528.127C625.828 531.239 626.348 534.509 624.224 537.636C621.676 541.388 617.257 541.999 612.671 538.883Z" fill="#0054F1"/>
<path d="M641.365 565.951L649.818 561.606L659.893 546.874L661.819 550.62L654.398 560.83L653.023 561.699L653.27 562.179L654.777 561.566L667.399 561.474L669.324 565.22L651.464 564.807L643.011 569.153L641.365 565.951Z" fill="#0054F1"/>
<path d="M653.179 595.645C651.924 589.545 655.735 585.38 664.127 583.653C672.519 581.926 677.665 584.248 678.92 590.349C680.175 596.449 676.364 600.614 667.972 602.341C659.58 604.068 654.434 601.745 653.179 595.645ZM664.889 587.355C658.436 588.683 655.738 591.113 656.529 594.956C657.32 598.799 660.758 599.967 667.21 598.639C673.663 597.311 676.361 594.881 675.57 591.038C674.779 587.194 671.341 586.027 664.889 587.355Z" fill="#0054F1"/>
<path d="M657.108 625.693C657.365 620.803 660.887 617.6 665.776 617.857L683.248 618.777L683.058 622.372L665.587 621.452C662.567 621.293 660.675 622.996 660.523 625.872C660.368 628.82 662.075 630.64 665.095 630.799L682.567 631.719L682.377 635.314L664.906 634.394C660.016 634.137 656.851 630.582 657.108 625.693Z" fill="#0054F1"/>
<path d="M653.474 659.954L675.387 672.399L672.009 678.346C668.827 683.95 662.873 684.957 655.986 681.046C649.099 677.134 646.914 671.505 650.097 665.902L653.474 659.954ZM654.67 664.773L652.893 667.904C651.026 671.19 652.907 674.95 657.853 677.759C662.799 680.568 666.991 680.257 668.858 676.97L670.635 673.84L654.67 664.773Z" fill="#0054F1"/>
</svg>
