<svg width="65" height="75" viewBox="0 0 65 75" fill="none" xmlns="http://www.w3.org/2000/svg">
<g clip-path="url(#clip0_272_14)">
<path d="M31.9091 32.7271L30.7613 20.2613C30.5872 19.0796 31.4206 17.9725 32.6023 17.8108L43.7478 16.231C44.9296 16.0569 46.0366 16.8903 46.1984 18.072L47.8154 29.4912" fill="white"/>
<path d="M31.9091 32.7271L30.7613 20.2613C30.5872 19.0796 31.4206 17.9725 32.6023 17.8108L43.7478 16.231C44.9296 16.0569 46.0366 16.8903 46.1984 18.072L47.8154 29.4912" stroke="black" stroke-width="1.5" stroke-miterlimit="10"/>
<path d="M29.7534 36.0738L34.0592 24.1322C34.4697 23.0002 33.8726 21.7563 32.7531 21.3583L30.8126 20.6617L22.1549 17.5394C21.0229 17.1289 19.779 17.7136 19.3809 18.8455L14.8967 29.8077" fill="white"/>
<path d="M29.7534 36.0738L34.0592 24.1322C34.4697 23.0002 33.8726 21.7563 32.7531 21.3583L30.8126 20.6617L22.1549 17.5394C21.0229 17.1289 19.779 17.7136 19.3809 18.8455L14.8967 29.8077" stroke="black" stroke-width="1.5" stroke-miterlimit="10"/>
<path d="M24.8287 39.611V29.4149C24.8287 28.2207 23.8585 27.238 22.6519 27.238H11.3819C10.1878 27.238 9.20508 28.2083 9.20508 29.4149L9.20508 39.611" fill="white"/>
<path d="M24.8287 39.611V29.4149C24.8287 28.2207 23.8585 27.238 22.6519 27.238H11.3819C10.1878 27.238 9.20508 28.2083 9.20508 29.4149L9.20508 39.611" stroke="black" stroke-width="1.5" stroke-miterlimit="10"/>
<path d="M41.2598 38.1371L41.2101 38.0128L38.262 30.0392C37.8515 28.9197 36.5951 28.3351 35.4756 28.758L24.9147 32.639C23.7827 33.0495 23.2105 34.3059 23.621 35.4254L24.5788 38.0128" fill="white"/>
<path d="M41.2598 38.1371L41.2101 38.0128L38.262 30.0392C37.8515 28.9197 36.5951 28.3351 35.4756 28.758L24.9147 32.639C23.7827 33.0495 23.2105 34.3059 23.621 35.4254L24.5788 38.0128" stroke="black" stroke-width="1.5" stroke-miterlimit="10"/>
<path d="M41.2598 38.1373L41.2846 38.013L42.9142 32.1043L43.3496 30.5121C43.6605 29.3553 44.8547 28.6711 46.0115 28.9945L47.8401 29.4921L56.8834 31.9799C58.0403 32.3034 58.7244 33.4975 58.401 34.6544L57.4681 38.0254" fill="white"/>
<path d="M41.2598 38.1373L41.2846 38.013L42.9142 32.1043L43.3496 30.5121C43.6605 29.3553 44.8547 28.6711 46.0115 28.9945L47.8401 29.4921L56.8834 31.9799C58.0403 32.3034 58.7244 33.4975 58.401 34.6544L57.4681 38.0254" stroke="black" stroke-width="1.5" stroke-miterlimit="10"/>
<path d="M1.24414 41.7423C1.24414 39.6813 2.91491 38.0105 4.9759 38.0105H59.8577C61.9187 38.0105 63.5894 39.6813 63.5894 41.7423V47.4519C63.5894 57.3037 55.591 65.3021 45.7392 65.3021H19.0944C9.24255 65.3021 1.24414 57.3037 1.24414 47.4519V41.7423Z" fill="black" stroke="white" stroke-width="1.5" stroke-miterlimit="10"/>
<path d="M19.3672 65.4958C19.3672 63.6615 20.8542 62.1746 22.6885 62.1746H42.1309C43.9652 62.1746 45.4522 63.6615 45.4522 65.4958C45.4522 68.0583 43.3624 70.1481 40.7999 70.1481H24.0194C21.457 70.1481 19.3672 68.0583 19.3672 65.4958Z" fill="black"/>
<path d="M1.24414 47.4517H63.5894" stroke="white" stroke-width="1.5" stroke-miterlimit="10"/>
</g>
<defs>
<clipPath id="clip0_272_14">
<rect width="64.8331" height="74.5233" fill="white"/>
</clipPath>
</defs>
</svg>
