<svg width="53" height="59" viewBox="0 0 53 59" fill="none" xmlns="http://www.w3.org/2000/svg">
<path d="M44.2461 8.27148H8.58203V14.8753H44.2461V8.27148Z" fill="black" stroke="white" stroke-width="1.5" stroke-miterlimit="10"/>
<path d="M48.0957 14.8735H4.7331C2.7555 14.8735 1.15234 16.4767 1.15234 18.4543V54.5847C1.15234 56.5623 2.7555 58.1654 4.7331 58.1654H48.0957C50.0733 58.1654 51.6764 56.5623 51.6764 54.5847V18.4543C51.6764 16.4767 50.0733 14.8735 48.0957 14.8735Z" fill="black" stroke="white" stroke-width="1.5" stroke-miterlimit="10"/>
<path d="M51.6764 22.2903H1.15234V50.7542H51.6764V22.2903Z" fill="black" stroke="white" stroke-width="1.5" stroke-miterlimit="10"/>
<path d="M35.2955 27.8955H1.42188V45.1483H35.2955V27.8955Z" fill="black" stroke="white" stroke-width="1.5" stroke-miterlimit="10"/>
<path d="M46.9147 1.64844H5.91538C4.92658 1.64844 4.125 2.45002 4.125 3.43881V8.22729C4.125 9.21609 4.92658 10.0177 5.91538 10.0177H46.9147C47.9035 10.0177 48.7051 9.21609 48.7051 8.22729V3.43881C48.7051 2.45002 47.9035 1.64844 46.9147 1.64844Z" fill="black" stroke="white" stroke-width="1.5" stroke-miterlimit="10"/>
</svg>
