<svg width="87" height="76" viewBox="0 0 87 76" fill="none" xmlns="http://www.w3.org/2000/svg">
<ellipse cx="43.2304" cy="37.6598" rx="24.8521" ry="36.1643" transform="rotate(65.3773 43.2304 37.6598)" fill="black"/>
<path d="M38.7871 49.707C39.3394 49.707 39.7871 49.2593 39.7871 48.707C39.7871 48.1547 39.3394 47.707 38.7871 47.707C38.2348 47.707 37.7871 48.1547 37.7871 48.707C37.7871 49.2593 38.2348 49.707 38.7871 49.707Z" fill="white" stroke="white" stroke-width="2" stroke-linecap="round" stroke-linejoin="round"/>
<path d="M49.7871 49.707C50.3394 49.707 50.7871 49.2593 50.7871 48.707C50.7871 48.1547 50.3394 47.707 49.7871 47.707C49.2348 47.707 48.7871 48.1547 48.7871 48.707C48.7871 49.2593 49.2348 49.707 49.7871 49.707Z" fill="white" stroke="white" stroke-width="2" stroke-linecap="round" stroke-linejoin="round"/>
<path d="M30.7871 28.707H34.7871L37.4671 42.097C37.5586 42.5574 37.809 42.971 38.1747 43.2653C38.5403 43.5597 38.9978 43.716 39.4671 43.707H49.1871C49.6564 43.716 50.1139 43.5597 50.4796 43.2653C50.8452 42.971 51.0957 42.5574 51.1871 42.097L52.7871 33.707H35.7871" fill="white"/>
<path d="M30.7871 28.707H34.7871L37.4671 42.097C37.5586 42.5574 37.809 42.971 38.1747 43.2653C38.5403 43.5597 38.9978 43.716 39.4671 43.707H49.1871C49.6564 43.716 50.1139 43.5597 50.4796 43.2653C50.8452 42.971 51.0957 42.5574 51.1871 42.097L52.7871 33.707H35.7871" stroke="white" stroke-width="3" stroke-linecap="round" stroke-linejoin="round"/>
</svg>
