<svg width="1346" height="134" viewBox="0 0 1346 134" fill="none" xmlns="http://www.w3.org/2000/svg">
<rect x="1.59875" y="15.7989" width="1338.8" height="116.802" rx="13.7713" stroke="#0051F0" stroke-width="1.19751"/>
<rect x="0.761719" y="0.509888" width="1344.8" height="118.553" rx="14.3701" fill="#004CF0"/>
<path d="M287.683 43.3546C291.24 43.5702 295.443 43.3546 299.072 43.3546C306.041 43.3546 310.783 45.6538 310.783 50.9348C310.783 55.8925 308.807 59.7724 299.287 59.7724H297.994C298.03 63.2572 298.102 66.7778 298.281 70.2626H287.683C287.971 61.4968 287.971 52.5155 287.683 43.3546ZM298.138 49.1386C298.138 51.6533 298.066 54.1322 298.066 56.6469H298.784C300.796 56.6469 300.796 49.1386 298.784 49.1386H298.138ZM312.206 43.3546C315.763 43.5702 319.966 43.3546 323.595 43.3546C330.564 43.3546 335.306 45.6538 335.306 50.9348C335.306 55.4614 333.654 57.8684 326.074 58.4432V59.018C336.564 59.2695 332.073 59.018 336.348 70.2626H325.93C325.355 68.1789 323.559 60.455 323.164 58.515H322.517C322.553 61.9998 322.625 66.7778 322.804 70.2626H312.206C312.494 61.4968 312.494 52.5155 312.206 43.3546ZM322.661 49.1386C322.661 51.6533 322.589 52.8748 322.589 55.3896H323.307C325.319 55.3896 325.319 49.1386 323.307 49.1386H322.661ZM348.064 43.2109C354.746 43.2109 360.135 46.4442 360.135 56.8266C360.135 67.2089 354.746 70.514 348.064 70.514C341.382 70.514 335.993 67.3886 335.993 56.8266C335.993 46.2646 341.382 43.2109 348.064 43.2109ZM348.064 49.1386C347.273 49.1386 346.591 51.2582 346.591 56.8266C346.591 62.395 347.273 64.5145 348.064 64.5145C348.854 64.5145 349.501 62.359 349.501 56.8266C349.501 51.2941 348.854 49.1386 348.064 49.1386ZM369.616 53.7729C366.957 53.8089 364.263 53.8807 361.568 53.9885L362.143 43.3546L387.255 43.8935L387.83 53.9885C385.135 53.8807 382.405 53.8089 379.711 53.7729C379.675 59.2695 379.747 64.766 379.998 70.2626H369.4C369.58 64.6942 369.652 59.3054 369.616 53.7729ZM389.284 43.3546H408.289L407.893 53.9885C405.127 53.8089 402.361 53.7011 399.595 53.7011C399.595 54.204 399.595 54.707 399.595 55.2459L407.319 55.0662V58.6228L399.595 58.4073C399.595 58.9461 399.595 59.4491 399.595 59.9521C402.505 59.9521 405.415 59.8443 408.217 59.6647L408.612 70.2985H399.882H390.362H389.284C389.572 61.4968 389.572 52.5155 389.284 43.3546ZM420.651 43.9654C420.256 52.6952 420.256 61.4609 420.651 70.2626H410.053C410.341 61.4968 410.341 52.5155 410.053 43.3546L420.651 43.9654ZM422.087 43.3546C425.176 43.5343 428.302 43.7139 431.427 43.8935L436.098 56.4673H436.744C436.744 52.3 436.277 47.6297 436.134 43.3546L446.732 43.9654C446.372 52.6952 446.336 61.4609 446.732 70.2626H437.678L433.008 57.078H432.397C432.397 61.4609 432.469 65.8797 432.685 70.2626H422.087C422.374 61.4968 422.374 52.5155 422.087 43.3546ZM466.691 53.7729C464.032 53.8089 461.338 53.8807 458.644 53.9885L459.218 43.3546L484.33 43.8935L484.905 53.9885C482.21 53.8807 479.48 53.8089 476.786 53.7729C476.75 59.2695 476.822 64.766 477.073 70.2626H466.475C466.655 64.6942 466.727 59.3054 466.691 53.7729ZM496.957 43.9654C496.778 47.8812 496.67 51.833 496.67 55.7488L498.933 55.7847C498.897 51.6533 498.825 47.5219 498.718 43.3546L509.315 43.9654C508.92 52.6952 508.92 61.4609 509.315 70.2626H498.718C498.825 66.5264 498.897 62.7183 498.933 58.9102H496.67C496.67 62.6824 496.778 66.4904 496.957 70.2626H486.359C486.647 61.4968 486.647 52.5155 486.359 43.3546L496.957 43.9654ZM521.376 70.2985H510.742C512.934 62.7183 516.023 52.4796 517.783 43.3546L527.591 43.9294C529.351 52.5515 532.189 62.0357 534.668 70.2626L524.034 70.2985L523.747 64.4786H521.699L521.376 70.2985ZM523.567 61.3531L523.028 51.7611H522.382L521.879 61.3531H523.567ZM539.839 53.7729C537.181 53.8089 534.486 53.8807 531.792 53.9885L532.367 43.3546L557.478 43.8935L558.053 53.9885C555.359 53.8807 552.629 53.8089 549.934 53.7729C549.898 59.2695 549.97 64.766 550.222 70.2626H539.624C539.803 64.6942 539.875 59.3054 539.839 53.7729ZM569.998 43.3546C573.554 43.5702 577.757 43.3546 581.386 43.3546C588.355 43.3546 593.097 45.6538 593.097 50.9348C593.097 55.8925 591.122 59.7724 581.601 59.7724H580.308C580.344 63.2572 580.416 66.7778 580.595 70.2626L569.998 70.2626C570.285 61.4968 570.285 52.5155 569.998 43.3546ZM580.452 49.1386C580.452 51.6533 580.38 54.1322 580.38 56.6469H581.098C583.11 56.6469 583.11 49.1386 581.098 49.1386H580.452ZM606.241 43.2109C612.923 43.2109 618.312 46.4442 618.312 56.8266C618.312 67.2089 612.923 70.514 606.241 70.514C599.559 70.514 594.17 67.3886 594.17 56.8266C594.17 46.2646 599.559 43.2109 606.241 43.2109ZM606.241 49.1386C605.45 49.1386 604.768 51.2582 604.768 56.8266C604.768 62.395 605.45 64.5145 606.241 64.5145C607.031 64.5145 607.678 62.359 607.678 56.8266C607.678 51.2941 607.031 49.1386 606.241 49.1386ZM635.291 58.9821H634.968H634.645L633.279 70.4063L620.634 70.2626C620.274 61.3172 619.664 52.3718 618.658 43.3546L629.328 43.9294L630.226 64.3708H630.836L633.423 44.0013L636.513 43.9654L638.92 64.4068H639.53L640.68 43.3546L651.242 43.9654C650.164 52.767 649.589 61.5328 649.302 70.2626L636.477 70.4063L635.291 58.9821ZM652.689 43.3546H671.693L671.298 53.9885C668.532 53.8089 665.765 53.7011 662.999 53.7011C662.999 54.204 662.999 54.707 662.999 55.2459L670.723 55.0662V58.6228L662.999 58.4073C662.999 58.9461 662.999 59.4491 662.999 59.9521C665.909 59.9521 668.819 59.8443 671.621 59.6647L672.016 70.2985H663.286L653.766 70.2985H652.689C652.976 61.4968 652.976 52.5155 652.689 43.3546ZM673.458 43.3546C677.014 43.5702 681.218 43.3546 684.846 43.3546C691.816 43.3546 696.558 45.6538 696.558 50.9348C696.558 55.4614 694.905 57.8684 687.325 58.4432V59.018C697.815 59.2695 693.324 59.018 697.599 70.2626H687.181C686.606 68.1789 684.81 60.455 684.415 58.515H683.768C683.804 61.9998 683.876 66.7778 684.056 70.2626H673.458C673.745 61.4968 673.745 52.5155 673.458 43.3546ZM683.912 49.1386C683.912 51.6533 683.84 52.8748 683.84 55.3896H684.559C686.57 55.3896 686.57 49.1386 684.559 49.1386H683.912ZM709.279 70.4422C702.202 70.4422 697.244 65.4486 697.244 58.8384L707.339 58.8743C707.088 62.359 708.309 64.5145 709.243 64.5145C710.177 64.5145 710.86 63.3649 710.86 60.5987C710.86 56.5032 697.244 60.8143 697.639 51.797C697.891 45.3664 703.711 43.2109 709.243 43.2109C714.776 43.2109 719.446 46.1927 720.775 53.0544L710.608 54.2759C711.039 50.5756 710.033 49.0667 709.243 49.0667C708.453 49.0667 707.159 50.0726 707.159 52.3359C707.159 56.3236 720.739 52.8389 720.739 61.892C720.739 65.9875 716.32 70.4422 709.279 70.4422ZM740.976 61.7483L732.713 43.3546L743.347 43.9654L745.826 55.8925H746.473L749.059 43.3546L759.585 43.9654L751.143 61.7483C751.179 64.5864 751.251 67.4245 751.394 70.2626L740.76 70.2626C740.868 67.4604 740.94 64.6223 740.976 61.7483ZM769.518 43.2109C776.2 43.2109 781.589 46.4442 781.589 56.8266C781.589 67.2089 776.2 70.514 769.518 70.514C762.836 70.514 757.447 67.3886 757.447 56.8266C757.447 46.2646 762.836 43.2109 769.518 43.2109ZM769.518 49.1386C768.727 49.1386 768.045 51.2582 768.045 56.8266C768.045 62.395 768.727 64.5145 769.518 64.5145C770.308 64.5145 770.955 62.359 770.955 56.8266C770.955 51.2941 770.308 49.1386 769.518 49.1386ZM806.302 56.8266C806.302 67.2089 801.165 70.514 794.77 70.514C788.375 70.514 783.238 67.3886 783.238 56.8266C783.238 52.3718 783.166 47.8812 783.022 43.3546L793.62 43.9654C793.513 46.4801 792.471 64.5145 794.77 64.5145C797.069 64.5145 796.099 45.9053 795.991 43.3546L806.625 43.9654C806.41 48.2405 806.338 52.5155 806.302 56.8266ZM808.79 62.0357V59.2336L841.841 59.2336V62.0357L808.79 62.0357ZM856.068 43.2109C862.75 43.2109 868.139 46.4442 868.139 56.8266C868.139 67.2089 862.75 70.514 856.068 70.514C849.386 70.514 843.997 67.3886 843.997 56.8266C843.997 46.2646 849.386 43.2109 856.068 43.2109ZM856.068 49.1386C855.278 49.1386 854.595 51.2582 854.595 56.8266C854.595 62.395 855.278 64.5145 856.068 64.5145C856.858 64.5145 857.505 62.359 857.505 56.8266C857.505 51.2941 856.858 49.1386 856.068 49.1386ZM869.222 43.3546C872.778 43.5702 876.982 43.3546 880.61 43.3546C887.58 43.3546 892.322 45.6538 892.322 50.9348C892.322 55.4614 890.669 57.8684 883.089 58.4432V59.018C893.579 59.2695 889.088 59.018 893.364 70.2626L882.945 70.2626C882.37 68.1789 880.574 60.455 880.179 58.515H879.532C879.568 61.9998 879.64 66.7778 879.82 70.2626H869.222C869.509 61.4968 869.509 52.5155 869.222 43.3546ZM879.676 49.1386C879.676 51.6533 879.604 52.8748 879.604 55.3896H880.323C882.334 55.3896 882.334 49.1386 880.323 49.1386H879.676ZM894.797 43.3546C899.001 43.6061 902.018 43.3546 905.97 43.3546C912.652 43.3546 918.041 46.4442 918.041 56.8266C918.041 67.2089 912.652 70.2985 905.97 70.2985H894.797C895.085 61.4968 895.085 52.5155 894.797 43.3546ZM905.18 64.5145H905.97C906.904 64.5145 907.695 62.359 907.695 56.8266C907.695 51.2941 906.904 49.1386 906.078 49.1386H905.18V64.5145ZM919.11 43.3546H938.114L937.719 53.9885C934.953 53.8089 932.187 53.7011 929.421 53.7011C929.421 54.204 929.421 54.707 929.421 55.2459L937.144 55.0662V58.6228L929.421 58.4073C929.421 58.9461 929.421 59.4491 929.421 59.9521C932.331 59.9521 935.24 59.8443 938.043 59.6647L938.438 70.2985H929.708H920.188H919.11C919.397 61.4968 919.397 52.5155 919.11 43.3546ZM939.879 43.3546C943.436 43.5702 947.639 43.3546 951.268 43.3546C958.237 43.3546 962.979 45.6538 962.979 50.9348C962.979 55.4614 961.327 57.8684 953.746 58.4432V59.018C964.237 59.2695 959.746 59.018 964.021 70.2626H953.603C953.028 68.1789 951.232 60.455 950.836 58.515H950.19C950.226 61.9998 950.298 66.7778 950.477 70.2626H939.879C940.167 61.4968 940.167 52.5155 939.879 43.3546ZM950.333 49.1386C950.333 51.6533 950.262 52.8748 950.262 55.3896H950.98C952.992 55.3896 952.992 49.1386 950.98 49.1386H950.333ZM975.945 43.3546C979.034 43.5343 982.16 43.7139 985.285 43.8935L989.956 56.4673H990.602C990.602 52.3 990.135 47.6297 989.991 43.3546L1000.59 43.9654C1000.23 52.6952 1000.19 61.4609 1000.59 70.2626H991.536L986.866 57.078H986.255C986.255 61.4609 986.327 65.8797 986.543 70.2626H975.945C976.232 61.4968 976.232 52.5155 975.945 43.3546ZM1013.73 43.2109C1020.41 43.2109 1025.8 46.4442 1025.8 56.8266C1025.8 67.2089 1020.41 70.514 1013.73 70.514C1007.05 70.514 1001.66 67.3886 1001.66 56.8266C1001.66 46.2646 1007.05 43.2109 1013.73 43.2109ZM1013.73 49.1386C1012.94 49.1386 1012.26 51.2582 1012.26 56.8266C1012.26 62.395 1012.94 64.5145 1013.73 64.5145C1014.52 64.5145 1015.17 62.359 1015.17 56.8266C1015.17 51.2941 1014.52 49.1386 1013.73 49.1386ZM1042.78 58.9821H1042.46H1042.14L1040.77 70.4063L1028.12 70.2626C1027.77 61.3172 1027.15 52.3718 1026.15 43.3546L1036.82 43.9294L1037.72 64.3708H1038.33L1040.91 44.0013L1044 43.9654L1046.41 64.4068H1047.02L1048.17 43.3546L1058.73 43.9654C1057.66 52.767 1057.08 61.5328 1056.79 70.2626L1043.97 70.4063L1042.78 58.9821ZM1065.6 70.2626C1062.59 70.2626 1060.18 69.3644 1060.18 66.3827C1060.18 63.4009 1062.59 62.4668 1065.6 62.4668C1068.62 62.4668 1071.06 63.4009 1071.06 66.3827C1071.06 69.3644 1068.62 70.2626 1065.6 70.2626ZM1070.31 61.3891H1060.83C1060.97 56.0721 1060.86 47.7016 1060.36 42.7439L1070.92 43.3546C1070.53 48.0249 1070.2 58.0839 1070.31 61.3891Z" fill="white"/>
<path d="M1280.9 96.3108C1280.9 79.1167 1266.95 65.1754 1249.76 65.1754C1266.95 65.1754 1280.9 51.234 1280.9 34.0399C1280.9 51.234 1294.84 65.1754 1312.03 65.1754C1294.84 65.1754 1280.9 79.1167 1280.9 96.3108Z" fill="white"/>
<path d="M63.0316 96.311C63.0316 79.1169 49.0904 65.1755 31.8965 65.1755C49.0904 65.1755 63.0316 51.2341 63.0316 34.04C63.0316 51.2341 76.9728 65.1755 94.1668 65.1755C76.9728 65.1755 63.0316 79.1169 63.0316 96.311Z" fill="white"/>
</svg>
