<svg width="214" height="214" viewBox="0 0 214 214" fill="none" xmlns="http://www.w3.org/2000/svg">
<g filter="url(#filter0_d_144_6143)">
<circle cx="106.583" cy="106.784" r="82.323" transform="rotate(21.2757 106.583 106.784)" fill="#0564F2"/>
<circle cx="106.579" cy="106.784" r="77.8279" transform="rotate(21.2757 106.579 106.784)" fill="#FC5E3B" stroke="black" stroke-width="0.770574"/>
<path d="M55.2645 154.368C55.0092 154.268 54.8451 154.124 54.7721 153.934C54.6991 153.743 54.7173 153.508 54.8267 153.227L55.1063 152.509C55.2156 152.228 55.3615 152.042 55.5438 151.952C55.7306 151.859 55.95 151.862 56.2022 151.96C56.3553 152.02 56.474 152.097 56.5582 152.192C56.6456 152.289 56.6965 152.399 56.711 152.522C56.7255 152.645 56.7016 152.777 56.6393 152.919C56.6194 152.97 56.5951 152.99 56.5664 152.978L56.3127 152.88C56.2871 152.87 56.2818 152.845 56.2967 152.807C56.3503 152.688 56.3567 152.582 56.3158 152.489C56.278 152.397 56.1985 152.328 56.0773 152.281C55.9337 152.225 55.81 152.226 55.7062 152.285C55.6069 152.342 55.5193 152.468 55.4435 152.662L55.1788 153.342C55.1055 153.53 55.0856 153.681 55.119 153.793C55.1557 153.906 55.2458 153.991 55.3894 154.047C55.5107 154.094 55.6141 154.098 55.6996 154.058C55.7895 154.015 55.8565 153.933 55.9005 153.811C55.9167 153.769 55.9375 153.753 55.963 153.763L56.2215 153.864C56.2471 153.874 56.2536 153.895 56.2412 153.927C56.1517 154.157 56.0237 154.311 55.8572 154.389C55.6919 154.464 55.4943 154.457 55.2645 154.368ZM56.5164 154.811C56.4908 154.801 56.4837 154.782 56.4949 154.753L57.7344 151.57C57.7456 151.541 57.764 151.532 57.7895 151.542L58.0576 151.646C58.0831 151.656 58.0903 151.675 58.0791 151.704L56.8395 154.887C56.8283 154.916 56.81 154.926 56.7845 154.916L56.5164 154.811ZM58.0599 155.456C57.8109 155.359 57.6494 155.217 57.5752 155.031C57.5022 154.84 57.5204 154.605 57.6297 154.324L57.9187 153.582C58.028 153.301 58.171 153.118 58.3477 153.032C58.5288 152.945 58.7406 152.948 58.9831 153.043C59.2257 153.137 59.3825 153.277 59.4535 153.463C59.5245 153.649 59.5078 153.876 59.4034 154.144L59.2357 154.575C59.2245 154.603 59.2077 154.613 59.1854 154.605L58.0844 154.176L57.9912 154.415C57.9141 154.613 57.8917 154.77 57.9239 154.885C57.9574 154.997 58.0475 155.082 58.1943 155.139C58.3124 155.185 58.4101 155.194 58.4874 155.165C58.5692 155.135 58.6262 155.069 58.6583 154.967C58.672 154.932 58.6916 154.919 58.7171 154.929L58.9804 155.032C58.9995 155.039 59.0067 155.059 59.0019 155.09C58.93 155.293 58.8117 155.427 58.6469 155.492C58.4821 155.556 58.2865 155.545 58.0599 155.456ZM58.2055 153.865L58.9954 154.172L59.0513 154.029C59.1209 153.85 59.1393 153.708 59.1066 153.604C59.0782 153.497 58.9971 153.418 58.863 153.365C58.7258 153.312 58.6075 153.314 58.5082 153.371C58.412 153.429 58.3298 153.546 58.2615 153.721L58.2055 153.865ZM60.3359 156.299C60.3168 156.291 60.3092 156.268 60.3133 156.229C60.3275 156.183 60.3466 156.115 60.3706 156.025C60.399 155.934 60.4257 155.856 60.4505 155.792L60.463 155.703L60.8936 154.597C60.9496 154.454 60.9657 154.346 60.9422 154.274C60.9231 154.201 60.8529 154.14 60.7316 154.093C60.5178 154.01 60.3759 154.072 60.3059 154.28C60.2935 154.312 60.2745 154.323 60.249 154.313L60.0001 154.216C59.9682 154.204 59.9599 154.173 59.9754 154.124C60.0327 153.929 60.1394 153.802 60.2953 153.741C60.4524 153.677 60.6427 153.689 60.8661 153.776C61.0927 153.864 61.2359 153.983 61.2958 154.131C61.3569 154.276 61.339 154.473 61.242 154.722L60.8133 155.823C60.7648 155.947 60.7254 156.053 60.6951 156.141C60.6679 156.229 60.646 156.3 60.6293 156.352C60.622 156.39 60.604 156.403 60.5753 156.392L60.3359 156.299ZM59.6556 156.078C59.5088 156.021 59.4166 155.922 59.3791 155.783C59.3416 155.643 59.3626 155.471 59.4421 155.267C59.5303 155.04 59.6561 154.887 59.8195 154.807C59.9841 154.724 60.2076 154.721 60.49 154.798L60.8382 154.895L60.7301 155.173L60.4011 155.083C60.2417 155.04 60.1142 155.042 60.0186 155.089C59.9274 155.134 59.8532 155.23 59.7961 155.377C59.7538 155.486 59.7391 155.575 59.7518 155.647C59.7645 155.718 59.806 155.767 59.8762 155.794C59.9528 155.824 60.0416 155.827 60.1425 155.804C60.2434 155.781 60.3847 155.72 60.5663 155.622L60.4566 155.932C60.2806 156.025 60.1307 156.084 60.007 156.11C59.8876 156.133 59.7705 156.122 59.6556 156.078ZM62.331 157.075C62.3055 157.065 62.2983 157.046 62.3095 157.017L62.9488 155.375C62.9985 155.248 63.0106 155.146 62.9851 155.07C62.9628 154.995 62.9038 154.939 62.8081 154.902C62.7187 154.867 62.6175 154.862 62.5046 154.888C62.3916 154.914 62.249 154.969 62.0768 155.052L62.178 154.75C62.3527 154.66 62.5083 154.605 62.6449 154.584C62.7827 154.561 62.9154 154.574 63.0431 154.624C63.2122 154.69 63.3181 154.795 63.3608 154.94C63.4079 155.084 63.3879 155.267 63.301 155.49L62.6541 157.152C62.6429 157.18 62.6246 157.19 62.5991 157.18L62.331 157.075ZM61.1725 156.624C61.147 156.614 61.1398 156.595 61.151 156.566L61.8165 154.857C61.8624 154.739 61.9012 154.635 61.9328 154.544C61.9644 154.454 61.987 154.382 62.0005 154.328C62.0122 154.289 62.0308 154.274 62.0564 154.284L62.2957 154.377C62.3213 154.387 62.33 154.407 62.322 154.437C62.3092 154.498 62.2874 154.578 62.2565 154.676C62.2268 154.771 62.203 154.846 62.1851 154.902L62.1704 154.968L61.4957 156.7C61.4845 156.729 61.4661 156.739 61.4406 156.729L61.1725 156.624ZM62.815 157.981C62.7831 157.968 62.7788 157.946 62.802 157.915L63.4107 156.989C63.4283 156.962 63.4483 156.954 63.4706 156.962L63.7818 157.083C63.8169 157.097 63.8222 157.121 63.7977 157.156L63.0913 158.05C63.0795 158.071 63.0623 158.077 63.04 158.068L62.815 157.981ZM66.0568 158.526C66.0313 158.516 66.0241 158.497 66.0353 158.468L66.6747 156.826C66.7244 156.699 66.7365 156.597 66.711 156.521C66.6887 156.446 66.6297 156.39 66.5339 156.352C66.4446 156.318 66.3434 156.313 66.2304 156.339C66.1175 156.365 65.9749 156.42 65.8026 156.503L65.9038 156.201C66.0785 156.111 66.2342 156.056 66.3707 156.035C66.5085 156.012 66.6412 156.025 66.7689 156.075C66.938 156.14 67.044 156.246 67.0866 156.391C67.1337 156.535 67.1138 156.718 67.0268 156.941L66.38 158.602C66.3688 158.631 66.3504 158.641 66.3249 158.631L66.0568 158.526ZM64.8984 158.075C64.8728 158.065 64.8657 158.046 64.8768 158.017L65.5423 156.308C65.5883 156.19 65.6271 156.086 65.6587 155.995C65.6903 155.905 65.7128 155.832 65.7263 155.779C65.7381 155.739 65.7567 155.725 65.7822 155.734L66.0216 155.828C66.0471 155.838 66.0559 155.858 66.0479 155.888C66.0351 155.949 66.0132 156.028 65.9823 156.127C65.9527 156.222 65.9289 156.297 65.911 156.352L65.8963 156.418L65.2215 158.151C65.2103 158.18 65.192 158.189 65.1664 158.179L64.8984 158.075ZM67.9512 159.264C67.9321 159.256 67.9246 159.233 67.9286 159.194C67.9429 159.149 67.9619 159.081 67.9859 158.991C68.0143 158.899 68.041 158.821 68.0658 158.757L68.0784 158.668L68.509 157.563C68.5649 157.419 68.5811 157.311 68.5575 157.24C68.5384 157.166 68.4682 157.106 68.3469 157.058C68.1331 156.975 67.9912 157.038 67.9213 157.246C67.9088 157.277 67.8899 157.288 67.8643 157.278L67.6154 157.182C67.5835 157.169 67.5752 157.138 67.5907 157.089C67.6481 156.895 67.7547 156.767 67.9106 156.707C68.0677 156.643 68.258 156.654 68.4814 156.741C68.708 156.83 68.8512 156.948 68.9111 157.096C68.9722 157.241 68.9543 157.438 68.8574 157.687L68.4286 158.788C68.3802 158.913 68.3407 159.019 68.3104 159.106C68.2832 159.195 68.2613 159.265 68.2446 159.317C68.2373 159.355 68.2193 159.368 68.1906 159.357L67.9512 159.264ZM67.2709 159.043C67.1241 158.986 67.0319 158.888 66.9944 158.748C66.9569 158.608 66.9779 158.436 67.0574 158.232C67.1456 158.006 67.2714 157.852 67.4348 157.773C67.5994 157.69 67.8229 157.687 68.1054 157.764L68.4535 157.861L68.3454 158.138L68.0164 158.049C67.857 158.005 67.7295 158.007 67.6339 158.054C67.5427 158.1 67.4686 158.196 67.4114 158.342C67.3691 158.451 67.3544 158.541 67.3671 158.612C67.3799 158.683 67.4213 158.732 67.4915 158.76C67.5681 158.789 67.6569 158.793 67.7578 158.77C67.8587 158.746 68 158.686 68.1816 158.587L68.0719 158.897C67.8959 158.991 67.7461 159.05 67.6223 159.075C67.5029 159.098 67.3858 159.088 67.2709 159.043ZM69.3952 159.87C69.2038 159.796 69.087 159.69 69.0451 159.552C69.0075 159.412 69.036 159.221 69.1304 158.979L69.6636 157.61L69.3907 157.503C69.3652 157.494 69.3574 157.476 69.3673 157.45L69.4586 157.216C69.4698 157.187 69.4882 157.178 69.5137 157.188L69.7914 157.296L70.06 156.733C70.0731 156.709 70.0925 156.702 70.118 156.712L70.3334 156.796C70.3558 156.804 70.362 156.821 70.352 156.847L70.1312 157.428L70.6722 157.639C70.7009 157.65 70.7097 157.67 70.6985 157.698L70.6072 157.933C70.5972 157.959 70.5779 157.966 70.5492 157.955L70.0082 157.744L69.4788 159.103C69.4254 159.241 69.4066 159.345 69.4226 159.418C69.4417 159.491 69.4991 159.547 69.5949 159.584C69.6459 159.604 69.6979 159.617 69.7507 159.623C69.8067 159.63 69.8564 159.635 69.8997 159.637C69.9346 159.632 69.9452 159.647 69.9316 159.682L69.8402 159.917C69.829 159.945 69.8117 159.957 69.7881 159.952C69.7327 159.952 69.6713 159.945 69.6038 159.929C69.5381 159.919 69.4686 159.899 69.3952 159.87ZM70.6862 160.373C70.5139 160.306 70.409 160.203 70.3714 160.063C70.3383 159.921 70.3653 159.739 70.4523 159.516L71.0991 157.854C71.1103 157.826 71.1286 157.816 71.1542 157.826L71.4223 157.931C71.4478 157.941 71.455 157.96 71.4438 157.989L70.8007 159.64C70.7497 159.771 70.7328 159.871 70.75 159.94C70.7716 160.007 70.8239 160.057 70.9069 160.09C71.0058 160.128 71.1146 160.132 71.2332 160.101C71.3531 160.067 71.4956 160.003 71.6608 159.909L71.5558 160.221C71.3951 160.313 71.2408 160.374 71.0929 160.405C70.9463 160.432 70.8107 160.421 70.6862 160.373ZM71.4144 160.612C71.3857 160.601 71.3769 160.581 71.3881 160.553C71.4034 160.485 71.424 160.408 71.4499 160.323C71.4759 160.238 71.4994 160.168 71.5205 160.113L71.5349 160.02L72.2097 158.287C72.2209 158.258 72.2392 158.249 72.2648 158.259L72.5281 158.361C72.5568 158.372 72.5655 158.392 72.5544 158.421L71.8889 160.13C71.8429 160.248 71.8047 160.351 71.7744 160.438C71.744 160.526 71.7202 160.601 71.703 160.664C71.6957 160.702 71.6761 160.714 71.6442 160.702L71.4144 160.612ZM72.2472 160.937C72.2217 160.927 72.2145 160.907 72.2257 160.879L72.893 159.165C72.9403 159.044 72.9784 158.941 73.0075 158.857C73.0367 158.772 73.0598 158.699 73.0771 158.636C73.0843 158.598 73.1024 158.585 73.1311 158.596L73.3752 158.691C73.3976 158.7 73.4047 158.719 73.3967 158.749C73.3815 158.817 73.3602 158.895 73.3331 158.983C73.3059 159.072 73.2817 159.144 73.2606 159.198L73.234 159.309L72.5704 161.013C72.5592 161.042 72.5408 161.051 72.5153 161.041L72.2472 160.937ZM73.1435 159.428L73.2625 159.094C73.339 159.039 73.4215 158.992 73.5102 158.953C73.6001 158.911 73.6877 158.884 73.7728 158.874C73.8623 158.861 73.9438 158.868 74.0172 158.897C74.0396 158.906 74.0571 158.913 74.0699 158.918C74.0858 158.924 74.099 158.933 74.1092 158.944C74.1208 158.952 74.1263 158.962 74.1257 158.972C74.1296 158.981 74.1285 158.994 74.1222 159.01C74.1018 159.071 74.0788 159.131 74.0533 159.187C74.0321 159.241 74.0078 159.294 73.9803 159.346C73.9672 159.37 73.9469 159.375 73.9194 159.361C73.9027 159.347 73.8832 159.336 73.8609 159.327C73.843 159.316 73.8213 159.306 73.7957 159.296C73.7383 159.274 73.6721 159.264 73.5971 159.268C73.5265 159.27 73.4509 159.285 73.3704 159.312C73.2943 159.338 73.2187 159.376 73.1435 159.428ZM74.5521 161.834C74.533 161.827 74.5254 161.804 74.5295 161.765C74.5437 161.719 74.5628 161.651 74.5868 161.561C74.6152 161.469 74.6418 161.391 74.6667 161.328L74.6792 161.239L75.1098 160.133C75.1658 159.989 75.1819 159.882 75.1584 159.81C75.1393 159.736 75.0691 159.676 74.9478 159.629C74.734 159.546 74.5921 159.608 74.5221 159.816C74.5097 159.848 74.4907 159.859 74.4652 159.849L74.2163 159.752C74.1844 159.739 74.1761 159.709 74.1916 159.66C74.2489 159.465 74.3556 159.338 74.5115 159.277C74.6686 159.213 74.8589 159.225 75.0823 159.312C75.3089 159.4 75.4521 159.518 75.512 159.667C75.5731 159.812 75.5552 160.009 75.4582 160.258L75.0295 161.359C74.981 161.483 74.9416 161.589 74.9113 161.676C74.8841 161.765 74.8622 161.835 74.8455 161.888C74.8382 161.925 74.8202 161.939 74.7915 161.927L74.5521 161.834ZM73.8718 161.613C73.725 161.556 73.6328 161.458 73.5953 161.318C73.5578 161.179 73.5788 161.007 73.6583 160.803C73.7465 160.576 73.8723 160.423 74.0357 160.343C74.2003 160.26 74.4238 160.257 74.7062 160.334L75.0544 160.431L74.9463 160.709L74.6173 160.619C74.4579 160.575 74.3304 160.577 74.2348 160.625C74.1436 160.67 74.0694 160.766 74.0123 160.913C73.97 161.021 73.9553 161.111 73.968 161.182C73.9807 161.253 74.0222 161.303 74.0924 161.33C74.169 161.36 74.2578 161.363 74.3587 161.34C74.4596 161.317 74.6009 161.256 74.7825 161.158L74.6728 161.468C74.4968 161.561 74.3469 161.62 74.2232 161.645C74.1038 161.669 73.9867 161.658 73.8718 161.613ZM75.3887 162.16C75.3632 162.15 75.356 162.131 75.3672 162.102L76.6068 158.919C76.618 158.89 76.6363 158.88 76.6619 158.89L76.9299 158.995C76.9555 159.005 76.9626 159.024 76.9514 159.053L75.7119 162.236C75.7007 162.265 75.6823 162.274 75.6568 162.264L75.3887 162.16ZM75.8718 163.065C75.8399 163.052 75.8356 163.03 75.8588 162.999L76.4676 162.073C76.4851 162.047 76.5051 162.038 76.5274 162.047L76.8386 162.168C76.8737 162.181 76.879 162.206 76.8545 162.24L76.1482 163.134C76.1363 163.155 76.1192 163.161 76.0968 163.152L75.8718 163.065ZM78.9605 163.551C78.9413 163.543 78.9338 163.52 78.9379 163.481C78.9521 163.435 78.9712 163.368 78.9952 163.278C79.0236 163.186 79.0502 163.108 79.0751 163.044L79.0876 162.955L79.5182 161.849C79.5741 161.706 79.5903 161.598 79.5668 161.527C79.5476 161.453 79.4774 161.393 79.3562 161.345C79.1424 161.262 79.0005 161.324 78.9305 161.532C78.9181 161.564 78.8991 161.575 78.8736 161.565L78.6246 161.468C78.5927 161.456 78.5845 161.425 78.5999 161.376C78.6573 161.182 78.7639 161.054 78.9198 160.994C79.077 160.93 79.2672 160.941 79.4906 161.028C79.7172 161.117 79.8605 161.235 79.9203 161.383C79.9814 161.528 79.9635 161.725 79.8666 161.974L79.4379 163.075C79.3894 163.2 79.35 163.306 79.3196 163.393C79.2925 163.482 79.2705 163.552 79.2538 163.604C79.2466 163.642 79.2286 163.655 79.1998 163.644L78.9605 163.551ZM78.2802 163.33C78.1334 163.273 78.0412 163.174 78.0037 163.035C77.9661 162.895 77.9871 162.723 78.0667 162.519C78.1549 162.293 78.2807 162.139 78.444 162.06C78.6086 161.977 78.8322 161.974 79.1146 162.051L79.4628 162.148L79.3546 162.425L79.0256 162.336C78.8662 162.292 78.7387 162.294 78.6431 162.341C78.552 162.387 78.4778 162.483 78.4207 162.629C78.3784 162.738 78.3636 162.828 78.3764 162.899C78.3891 162.97 78.4306 163.019 78.5008 163.047C78.5774 163.076 78.6661 163.08 78.7671 163.057C78.868 163.033 79.0092 162.973 79.1909 162.874L79.0811 163.184C78.9052 163.278 78.7553 163.337 78.6315 163.362C78.5122 163.385 78.3951 163.375 78.2802 163.33ZM80.9556 164.328C80.93 164.318 80.9228 164.298 80.934 164.27L81.5734 162.628C81.6231 162.5 81.6352 162.398 81.6097 162.322C81.5874 162.247 81.5284 162.191 81.4326 162.154C81.3433 162.119 81.2421 162.115 81.1291 162.14C81.0162 162.166 80.8736 162.221 80.7014 162.305L80.8026 162.002C80.9773 161.912 81.1329 161.857 81.2695 161.837C81.4072 161.813 81.54 161.826 81.6676 161.876C81.8368 161.942 81.9427 162.047 81.9853 162.193C82.0325 162.336 82.0125 162.519 81.9255 162.743L81.2787 164.404C81.2675 164.433 81.2492 164.442 81.2236 164.432L80.9556 164.328ZM79.7971 163.877C79.7716 163.867 79.7644 163.847 79.7756 163.819L80.441 162.11C80.487 161.992 80.5258 161.887 80.5574 161.797C80.589 161.706 80.6116 161.634 80.6251 161.58C80.6368 161.541 80.6554 161.526 80.6809 161.536L80.9203 161.629C80.9458 161.639 80.9546 161.659 80.9466 161.689C80.9338 161.75 80.912 161.83 80.8811 161.928C80.8514 162.023 80.8276 162.098 80.8097 162.154L80.795 162.22L80.1202 163.953C80.1091 163.982 80.0907 163.991 80.0652 163.981L79.7971 163.877ZM82.2797 164.887C82.1074 164.82 81.9995 164.71 81.9562 164.557C81.914 164.401 81.9389 164.205 82.0309 163.969L82.3851 163.06C82.4845 162.804 82.6177 162.632 82.7848 162.543C82.9551 162.455 83.1424 162.45 83.3466 162.53C83.4487 162.57 83.5421 162.623 83.6266 162.689C83.7144 162.756 83.7811 162.82 83.8268 162.882L83.7134 163.202C83.6459 163.12 83.5749 163.052 83.5007 162.998C83.4264 162.943 83.3573 162.903 83.2935 162.879C83.1659 162.829 83.054 162.833 82.9578 162.891C82.8617 162.949 82.7795 163.066 82.7111 163.242L82.3718 164.113C82.3197 164.247 82.3041 164.353 82.3252 164.431C82.3494 164.51 82.4094 164.569 82.5052 164.606C82.5945 164.641 82.6957 164.645 82.8086 164.619C82.9229 164.59 83.0657 164.53 83.2372 164.439L83.119 164.757C82.9487 164.845 82.7979 164.902 82.6665 164.928C82.5395 164.952 82.4106 164.938 82.2797 164.887ZM83.0079 165.127C82.9792 165.116 82.9695 165.094 82.9787 165.06C82.9959 164.997 83.0175 164.923 83.0434 164.837C83.0706 164.749 83.0935 164.681 83.1121 164.633L83.1284 164.534L84.1685 161.863C84.1797 161.834 84.1981 161.825 84.2236 161.835L84.4869 161.937C84.5156 161.949 84.5244 161.969 84.5132 161.997L83.4768 164.659C83.4333 164.771 83.3951 164.873 83.3623 164.967C83.3307 165.058 83.3094 165.127 83.2984 165.174C83.2898 165.215 83.2696 165.229 83.2377 165.216L83.0079 165.127ZM85.7613 166.199C85.7358 166.189 85.7286 166.17 85.7398 166.141L86.3791 164.499C86.4288 164.371 86.4409 164.27 86.4154 164.193C86.3931 164.119 86.3341 164.063 86.2384 164.025C86.149 163.99 86.0478 163.986 85.9349 164.012C85.8219 164.038 85.6793 164.092 85.5071 164.176L85.6083 163.874C85.783 163.784 85.9386 163.728 86.0752 163.708C86.213 163.685 86.3457 163.698 86.4734 163.747C86.6425 163.813 86.7484 163.919 86.7911 164.064C86.8382 164.207 86.8182 164.391 86.7313 164.614L86.0844 166.275C86.0733 166.304 86.0549 166.313 86.0294 166.303L85.7613 166.199ZM84.6028 165.748C84.5773 165.738 84.5701 165.719 84.5813 165.69L85.2468 163.981C85.2928 163.863 85.3315 163.759 85.3631 163.668C85.3948 163.577 85.4173 163.505 85.4308 163.452C85.4425 163.412 85.4612 163.397 85.4867 163.407L85.726 163.5C85.7516 163.51 85.7603 163.53 85.7523 163.56C85.7395 163.622 85.7177 163.701 85.6868 163.799C85.6571 163.894 85.6334 163.97 85.6154 164.025L85.6008 164.091L84.926 165.824C84.9148 165.853 84.8964 165.862 84.8709 165.852L84.6028 165.748ZM87.0903 166.761C86.9179 166.693 86.813 166.59 86.7755 166.451C86.7424 166.309 86.7693 166.127 86.8563 165.903L87.5031 164.242C87.5143 164.213 87.5327 164.204 87.5582 164.214L87.8263 164.318C87.8518 164.328 87.859 164.348 87.8478 164.376L87.2047 166.028C87.1537 166.159 87.1369 166.259 87.154 166.328C87.1756 166.395 87.2279 166.445 87.3109 166.477C87.4098 166.516 87.5186 166.519 87.6373 166.488C87.7571 166.454 87.8997 166.39 88.0648 166.297L87.9599 166.609C87.7992 166.7 87.6449 166.762 87.497 166.792C87.3503 166.82 87.2147 166.809 87.0903 166.761ZM87.8184 167C87.7897 166.989 87.781 166.969 87.7921 166.94C87.8074 166.873 87.828 166.796 87.8539 166.711C87.8799 166.625 87.9034 166.555 87.9245 166.501L87.9389 166.407L88.6137 164.675C88.6249 164.646 88.6433 164.636 88.6688 164.646L88.9321 164.749C88.9608 164.76 88.9696 164.78 88.9584 164.809L88.2929 166.518C88.2469 166.636 88.2088 166.739 88.1784 166.826C88.148 166.913 88.1243 166.989 88.107 167.052C88.0997 167.089 88.0801 167.102 88.0482 167.09L87.8184 167ZM89.2586 167.605C89.0672 167.53 88.9504 167.424 88.9085 167.287C88.8709 167.147 88.8994 166.956 88.9938 166.713L89.527 165.344L89.2541 165.238C89.2286 165.228 89.2208 165.21 89.2307 165.185L89.322 164.95C89.3332 164.922 89.3516 164.912 89.3771 164.922L89.6548 165.03L89.9234 164.468C89.9365 164.444 89.9559 164.436 89.9814 164.446L90.1968 164.53C90.2192 164.539 90.2254 164.556 90.2154 164.582L89.9946 165.163L90.5356 165.373C90.5643 165.384 90.5731 165.404 90.5619 165.433L90.4706 165.668C90.4606 165.693 90.4413 165.7 90.4126 165.689L89.8716 165.479L89.3422 166.838C89.2888 166.975 89.27 167.08 89.286 167.153C89.3051 167.226 89.3625 167.282 89.4583 167.319C89.5093 167.339 89.5613 167.352 89.6141 167.357C89.6701 167.365 89.7198 167.369 89.7631 167.371C89.798 167.367 89.8086 167.382 89.795 167.417L89.7036 167.651C89.6924 167.68 89.6751 167.692 89.6515 167.686C89.5961 167.687 89.5347 167.679 89.4672 167.664C89.4015 167.653 89.332 167.634 89.2586 167.605ZM90.1098 167.892C90.0843 167.882 90.0771 167.863 90.0883 167.834L90.7556 166.121C90.8028 165.999 90.841 165.897 90.8701 165.812C90.8992 165.728 90.9224 165.654 90.9396 165.591C90.9469 165.554 90.9649 165.54 90.9936 165.552L91.2378 165.647C91.2601 165.655 91.2673 165.675 91.2593 165.705C91.244 165.772 91.2228 165.85 91.1956 165.939C91.1685 166.028 91.1443 166.099 91.1232 166.153L91.0965 166.264L90.4329 167.968C90.4218 167.997 90.4034 168.007 90.3779 167.997L90.1098 167.892ZM91.006 166.383L91.1251 166.049C91.2015 165.995 91.2841 165.948 91.3728 165.909C91.4627 165.867 91.5502 165.84 91.6354 165.829C91.7249 165.816 91.8064 165.824 91.8798 165.853C91.9021 165.861 91.9197 165.868 91.9325 165.873C91.9484 165.879 91.9615 165.888 91.9718 165.899C91.9833 165.908 91.9888 165.917 91.9883 165.928C91.9922 165.937 91.991 165.949 91.9848 165.965C91.9644 166.027 91.9414 166.086 91.9158 166.142C91.8947 166.197 91.8704 166.25 91.8429 166.301C91.8298 166.326 91.8095 166.331 91.782 166.316C91.7653 166.302 91.7458 166.291 91.7235 166.282C91.7056 166.272 91.6838 166.261 91.6583 166.252C91.6009 166.229 91.5346 166.22 91.4596 166.224C91.3891 166.226 91.3135 166.24 91.233 166.268C91.1569 166.293 91.0813 166.332 91.006 166.383ZM91.4842 168.427C91.4587 168.418 91.4515 168.398 91.4627 168.369L92.3369 166.124C92.3481 166.096 92.3665 166.086 92.392 166.096L92.6601 166.201C92.6856 166.211 92.6928 166.23 92.6816 166.259L91.8073 168.504C91.7962 168.532 91.7778 168.542 91.7523 168.532L91.4842 168.427ZM92.6911 165.739C92.6145 165.709 92.5652 165.666 92.543 165.609C92.5209 165.553 92.5235 165.49 92.5508 165.419L92.5676 165.376C92.5949 165.306 92.6358 165.258 92.6903 165.231C92.7447 165.204 92.8102 165.206 92.8868 165.236C92.9634 165.266 93.0112 165.308 93.0302 165.363C93.0523 165.42 93.0497 165.483 93.0224 165.553L93.0056 165.596C92.9782 165.667 92.9373 165.715 92.8829 165.742C92.8316 165.769 92.7677 165.768 92.6911 165.739ZM92.9798 169.054C92.7883 168.979 92.6716 168.873 92.6296 168.736C92.5921 168.596 92.6206 168.405 92.715 168.163L93.2481 166.793L92.9753 166.687C92.9497 166.677 92.9419 166.659 92.9519 166.634L93.0432 166.399C93.0544 166.371 93.0728 166.361 93.0983 166.371L93.3759 166.479L93.6446 165.917C93.6577 165.893 93.677 165.885 93.7026 165.895L93.918 165.979C93.9403 165.988 93.9465 166.005 93.9366 166.031L93.7158 166.612L94.2568 166.822C94.2855 166.833 94.2943 166.853 94.2831 166.882L94.1917 167.117C94.1818 167.142 94.1625 167.149 94.1337 167.138L93.5928 166.928L93.0634 168.287C93.01 168.424 92.9912 168.529 93.0071 168.602C93.0263 168.675 93.0837 168.731 93.1794 168.768C93.2305 168.788 93.2824 168.801 93.3353 168.806C93.3913 168.814 93.441 168.818 93.4842 168.82C93.5192 168.816 93.5298 168.831 93.5161 168.866L93.4248 169.1C93.4136 169.129 93.3962 169.141 93.3726 169.135C93.3173 169.136 93.2559 169.128 93.1883 169.113C93.1227 169.102 93.0532 169.083 92.9798 169.054ZM93.831 169.341C93.8054 169.331 93.7983 169.312 93.8094 169.283L94.6837 167.038C94.6949 167.009 94.7132 167 94.7388 167.01L95.0068 167.114C95.0324 167.124 95.0395 167.144 95.0283 167.172L94.1541 169.418C94.1429 169.446 94.1246 169.456 94.099 169.446L93.831 169.341ZM95.0379 166.652C94.9613 166.623 94.9119 166.579 94.8898 166.523C94.8676 166.467 94.8702 166.403 94.8976 166.333L94.9144 166.29C94.9417 166.22 94.9826 166.171 95.037 166.145C95.0915 166.118 95.157 166.12 95.2336 166.15C95.3102 166.18 95.358 166.222 95.3769 166.277C95.3991 166.334 95.3965 166.397 95.3691 166.467L95.3524 166.51C95.325 166.58 95.2841 166.629 95.2297 166.655C95.1784 166.683 95.1145 166.682 95.0379 166.652ZM95.384 169.99C95.1319 169.892 94.9671 169.749 94.8897 169.561C94.8168 169.37 94.835 169.135 94.9443 168.854L95.2276 168.127C95.3382 167.843 95.4841 167.657 95.6652 167.569C95.8475 167.478 96.0663 167.483 96.3216 167.582C96.577 167.682 96.7411 167.826 96.8141 168.017C96.8883 168.204 96.8701 168.439 96.7595 168.723L96.4762 169.451C96.3668 169.732 96.221 169.917 96.0386 170.008C95.8575 170.096 95.6393 170.09 95.384 169.99ZM95.5089 169.669C95.6589 169.728 95.7826 169.726 95.88 169.665C95.9806 169.605 96.0669 169.482 96.139 169.297L96.4074 168.608C96.4807 168.42 96.5006 168.269 96.4672 168.157C96.4369 168.046 96.3467 167.961 96.1968 167.903C96.05 167.846 95.9263 167.847 95.8257 167.907C95.7251 167.967 95.6382 168.092 95.5649 168.28L95.2964 168.969C95.2244 169.154 95.2051 169.303 95.2385 169.415C95.272 169.528 95.3621 169.612 95.5089 169.669ZM97.1458 170.676C96.9735 170.609 96.8686 170.506 96.831 170.366C96.7979 170.225 96.8249 170.042 96.9119 169.819L97.5587 168.158C97.5699 168.129 97.5882 168.12 97.6138 168.13L97.8819 168.234C97.9074 168.244 97.9146 168.263 97.9034 168.292L97.2603 169.943C97.2093 170.074 97.1924 170.174 97.2096 170.243C97.2312 170.311 97.2835 170.36 97.3665 170.393C97.4654 170.431 97.5742 170.435 97.6928 170.404C97.8127 170.37 97.9552 170.306 98.1204 170.212L98.0154 170.524C97.8547 170.616 97.7004 170.677 97.5525 170.708C97.4059 170.735 97.2703 170.725 97.1458 170.676ZM97.874 170.916C97.8453 170.904 97.8365 170.884 97.8477 170.856C97.863 170.788 97.8836 170.712 97.9095 170.626C97.9355 170.541 97.959 170.471 97.9801 170.417L97.9945 170.323L98.6693 168.59C98.6805 168.561 98.6988 168.552 98.7244 168.562L98.9877 168.664C99.0164 168.676 99.0252 168.696 99.014 168.724L98.3485 170.433C98.3025 170.551 98.2644 170.654 98.234 170.742C98.2036 170.829 98.1798 170.904 98.1626 170.967C98.1553 171.005 98.1357 171.018 98.1038 171.005L97.874 170.916ZM99.2424 171.493C99.0126 171.403 98.8655 171.276 98.801 171.111C98.741 170.945 98.7624 170.743 98.8651 170.508C98.8763 170.479 98.8947 170.47 98.9202 170.48L99.1883 170.584C99.2106 170.593 99.2168 170.61 99.2069 170.635C99.1485 170.785 99.1308 170.901 99.1538 170.984C99.1768 171.066 99.2506 171.132 99.375 171.18C99.4867 171.224 99.5796 171.231 99.6538 171.201C99.7323 171.169 99.7921 171.1 99.8331 170.995C99.863 170.918 99.8709 170.846 99.8569 170.778C99.8429 170.71 99.807 170.637 99.749 170.56L99.4353 170.162C99.3362 170.039 99.2766 169.918 99.2565 169.8C99.2407 169.68 99.2602 169.55 99.3149 169.409C99.3882 169.221 99.4978 169.1 99.6435 169.047C99.7938 168.991 99.971 169.003 100.175 169.083C100.392 169.167 100.535 169.287 100.603 169.442C100.676 169.596 100.668 169.767 100.579 169.957C100.565 169.984 100.546 169.994 100.524 169.985L100.256 169.881C100.246 169.877 100.238 169.87 100.231 169.86C100.227 169.851 100.232 169.834 100.245 169.81C100.284 169.719 100.288 169.638 100.257 169.567C100.226 169.496 100.158 169.44 100.052 169.399C99.9533 169.36 99.8696 169.353 99.8011 169.378C99.7359 169.404 99.6871 169.459 99.6548 169.542C99.6249 169.618 99.6167 169.687 99.6299 169.747C99.6464 169.809 99.6862 169.881 99.7493 169.964L100.052 170.363C100.151 170.494 100.21 170.616 100.229 170.73C100.248 170.84 100.23 170.967 100.174 171.111C100.092 171.322 99.9716 171.46 99.8132 171.527C99.6561 171.591 99.4658 171.58 99.2424 171.493ZM101.983 172.56C101.888 172.523 101.794 172.471 101.701 172.406C101.614 172.339 101.543 172.269 101.491 172.197L101.607 171.884C101.658 171.952 101.72 172.014 101.793 172.072C101.866 172.13 101.942 172.174 102.022 172.206C102.143 172.253 102.251 172.245 102.345 172.183C102.441 172.117 102.525 171.99 102.598 171.802L102.919 170.978C102.974 170.838 102.99 170.728 102.969 170.65C102.953 170.57 102.898 170.512 102.806 170.476C102.716 170.442 102.613 170.438 102.495 170.466C102.378 170.494 102.237 170.549 102.072 170.632L102.181 170.31C102.35 170.226 102.501 170.172 102.635 170.151C102.768 170.129 102.897 170.143 103.021 170.191C103.197 170.259 103.306 170.366 103.349 170.512C103.391 170.657 103.367 170.847 103.275 171.084L102.934 171.96C102.826 172.237 102.689 172.427 102.525 172.528C102.365 172.628 102.184 172.638 101.983 172.56ZM100.844 173.092C100.819 173.082 100.812 173.063 100.823 173.034L101.848 170.401C101.888 170.299 101.922 170.208 101.949 170.127C101.979 170.042 102.002 169.969 102.019 169.906C102.026 169.868 102.044 169.855 102.073 169.866L102.312 169.959C102.338 169.969 102.347 169.989 102.339 170.019C102.331 170.057 102.319 170.109 102.3 170.175C102.282 170.241 102.263 170.298 102.244 170.346L102.2 170.516L101.167 173.168C101.156 173.197 101.138 173.206 101.112 173.197L100.844 173.092ZM103.171 172.978C103.146 172.968 103.139 172.949 103.15 172.92L103.817 171.207C103.864 171.085 103.902 170.983 103.932 170.898C103.961 170.814 103.984 170.74 104.001 170.677C104.008 170.64 104.026 170.627 104.055 170.638L104.299 170.733C104.322 170.742 104.329 170.761 104.321 170.791C104.306 170.858 104.284 170.936 104.257 171.025C104.23 171.114 104.206 171.185 104.185 171.239L104.158 171.35L103.494 173.055C103.483 173.083 103.465 173.093 103.439 173.083L103.171 172.978ZM104.068 171.47L104.187 171.135C104.263 171.081 104.346 171.034 104.434 170.995C104.524 170.953 104.612 170.926 104.697 170.915C104.786 170.902 104.868 170.91 104.941 170.939C104.964 170.947 104.981 170.954 104.994 170.959C105.01 170.965 105.023 170.974 105.033 170.986C105.045 170.994 105.05 171.003 105.05 171.014C105.054 171.023 105.053 171.035 105.046 171.051C105.026 171.113 105.003 171.172 104.977 171.228C104.956 171.283 104.932 171.336 104.904 171.387C104.891 171.412 104.871 171.417 104.843 171.402C104.827 171.388 104.807 171.377 104.785 171.368C104.767 171.358 104.745 171.348 104.72 171.338C104.662 171.315 104.596 171.306 104.521 171.31C104.451 171.312 104.375 171.326 104.294 171.354C104.218 171.379 104.143 171.418 104.068 171.47ZM105.136 173.787C104.884 173.689 104.719 173.546 104.641 173.358C104.568 173.168 104.587 172.932 104.696 172.651L104.979 171.924C105.09 171.64 105.236 171.454 105.417 171.366C105.599 171.276 105.818 171.28 106.073 171.38C106.329 171.479 106.493 171.624 106.566 171.814C106.64 172.001 106.622 172.236 106.511 172.52L106.228 173.248C106.119 173.529 105.973 173.715 105.79 173.805C105.609 173.893 105.391 173.887 105.136 173.787ZM105.261 173.467C105.411 173.525 105.534 173.524 105.632 173.462C105.732 173.402 105.819 173.28 105.891 173.095L106.159 172.405C106.232 172.217 106.252 172.067 106.219 171.954C106.189 171.843 106.098 171.759 105.948 171.7C105.802 171.643 105.678 171.645 105.577 171.705C105.477 171.765 105.39 171.889 105.317 172.077L105.048 172.766C104.976 172.952 104.957 173.1 104.99 173.213C105.024 173.325 105.114 173.41 105.261 173.467ZM106.893 174.472C106.72 174.404 106.613 174.294 106.569 174.142C106.527 173.986 106.552 173.789 106.644 173.553L106.998 172.644C107.098 172.388 107.231 172.216 107.398 172.127C107.568 172.039 107.755 172.035 107.96 172.114C108.062 172.154 108.155 172.207 108.24 172.273C108.327 172.34 108.394 172.405 108.44 172.466L108.326 172.786C108.259 172.705 108.188 172.637 108.114 172.582C108.039 172.527 107.97 172.488 107.907 172.463C107.779 172.413 107.667 172.417 107.571 172.475C107.475 172.533 107.392 172.65 107.324 172.826L106.985 173.697C106.933 173.831 106.917 173.937 106.938 174.015C106.962 174.094 107.022 174.153 107.118 174.19C107.208 174.225 107.309 174.229 107.422 174.203C107.536 174.174 107.679 174.114 107.85 174.023L107.732 174.341C107.562 174.429 107.411 174.486 107.28 174.512C107.153 174.536 107.024 174.523 106.893 174.472ZM107.621 174.711C107.592 174.7 107.582 174.678 107.592 174.645C107.609 174.581 107.631 174.507 107.656 174.422C107.684 174.333 107.707 174.265 107.725 174.217L107.741 174.118L108.782 171.447C108.793 171.419 108.811 171.409 108.837 171.419L109.1 171.522C109.129 171.533 109.137 171.553 109.126 171.582L108.09 174.243C108.046 174.355 108.008 174.458 107.975 174.551C107.944 174.642 107.922 174.711 107.911 174.758C107.903 174.799 107.883 174.813 107.851 174.801L107.621 174.711ZM108.894 175.251C108.721 175.184 108.616 175.08 108.579 174.941C108.546 174.799 108.573 174.617 108.66 174.393L109.307 172.732C109.318 172.704 109.336 172.694 109.362 172.704L109.63 172.808C109.655 172.818 109.662 172.838 109.651 172.866L109.008 174.518C108.957 174.649 108.94 174.749 108.957 174.818C108.979 174.885 109.031 174.935 109.114 174.967C109.213 175.006 109.322 175.01 109.441 174.979C109.561 174.944 109.703 174.88 109.868 174.787L109.763 175.099C109.603 175.19 109.448 175.252 109.3 175.282C109.154 175.31 109.018 175.299 108.894 175.251ZM109.622 175.49C109.593 175.479 109.584 175.459 109.596 175.43C109.611 175.363 109.631 175.286 109.657 175.201C109.683 175.115 109.707 175.045 109.728 174.991L109.742 174.898L110.417 173.165C110.428 173.136 110.447 173.127 110.472 173.137L110.736 173.239C110.764 173.25 110.773 173.27 110.762 173.299L110.096 175.008C110.05 175.126 110.012 175.229 109.982 175.316C109.952 175.404 109.928 175.479 109.91 175.542C109.903 175.58 109.884 175.592 109.852 175.58L109.622 175.49ZM111.12 176.117C110.864 176.018 110.7 175.873 110.627 175.683C110.554 175.493 110.572 175.258 110.682 174.977L110.961 174.259C111.071 173.978 111.217 173.792 111.399 173.701C111.586 173.609 111.805 173.611 112.057 173.71C112.21 173.769 112.329 173.847 112.413 173.942C112.501 174.038 112.552 174.148 112.566 174.272C112.581 174.395 112.557 174.527 112.494 174.668C112.474 174.719 112.45 174.739 112.421 174.728L112.168 174.629C112.142 174.619 112.137 174.595 112.152 174.557C112.205 174.438 112.212 174.332 112.171 174.239C112.133 174.147 112.054 174.078 111.932 174.03C111.789 173.974 111.665 173.976 111.561 174.035C111.462 174.092 111.374 174.217 111.299 174.412L111.034 175.092C110.96 175.28 110.941 175.43 110.974 175.543C111.011 175.656 111.101 175.741 111.244 175.797C111.366 175.844 111.469 175.847 111.555 175.807C111.645 175.765 111.711 175.683 111.756 175.56C111.772 175.519 111.793 175.503 111.818 175.513L112.077 175.614C112.102 175.624 112.109 175.644 112.096 175.676C112.007 175.906 111.879 176.06 111.712 176.139C111.547 176.214 111.349 176.207 111.12 176.117ZM112.951 176.831C112.759 176.756 112.643 176.65 112.601 176.512C112.563 176.373 112.591 176.182 112.686 175.939L113.219 174.57L112.946 174.464C112.921 174.454 112.913 174.436 112.923 174.411L113.014 174.176C113.025 174.147 113.044 174.138 113.069 174.148L113.347 174.256L113.616 173.693C113.629 173.669 113.648 173.662 113.673 173.672L113.889 173.756C113.911 173.764 113.917 173.782 113.908 173.807L113.687 174.388L114.228 174.599C114.256 174.61 114.265 174.63 114.254 174.659L114.163 174.893C114.153 174.919 114.133 174.926 114.105 174.915L113.564 174.704L113.034 176.064C112.981 176.201 112.962 176.306 112.978 176.378C112.997 176.452 113.055 176.507 113.15 176.544C113.201 176.564 113.253 176.577 113.306 176.583C113.362 176.59 113.412 176.595 113.455 176.597C113.49 176.592 113.501 176.607 113.487 176.642L113.396 176.877C113.385 176.906 113.367 176.917 113.344 176.912C113.288 176.912 113.227 176.905 113.159 176.89C113.094 176.879 113.024 176.859 112.951 176.831ZM114.305 177.358C114.075 177.268 113.928 177.141 113.863 176.976C113.803 176.81 113.825 176.609 113.927 176.373C113.939 176.344 113.957 176.335 113.983 176.345L114.251 176.449C114.273 176.458 114.279 176.475 114.269 176.5C114.211 176.65 114.193 176.767 114.216 176.849C114.239 176.932 114.313 176.997 114.437 177.046C114.549 177.089 114.642 177.096 114.716 177.066C114.795 177.034 114.854 176.965 114.895 176.86C114.925 176.784 114.933 176.711 114.919 176.643C114.905 176.575 114.869 176.503 114.811 176.425L114.498 176.027C114.399 175.904 114.339 175.783 114.319 175.665C114.303 175.545 114.323 175.415 114.377 175.275C114.451 175.086 114.56 174.965 114.706 174.912C114.856 174.856 115.033 174.868 115.238 174.948C115.455 175.033 115.597 175.152 115.665 175.308C115.738 175.461 115.73 175.632 115.642 175.822C115.627 175.849 115.609 175.859 115.586 175.85L115.318 175.746C115.309 175.742 115.3 175.735 115.293 175.725C115.289 175.716 115.294 175.7 115.307 175.675C115.346 175.584 115.35 175.503 115.319 175.432C115.288 175.361 115.22 175.305 115.115 175.264C115.016 175.225 114.932 175.219 114.863 175.243C114.798 175.269 114.749 175.324 114.717 175.407C114.687 175.483 114.679 175.552 114.692 175.612C114.709 175.674 114.749 175.746 114.812 175.83L115.114 176.228C115.214 176.359 115.273 176.481 115.291 176.595C115.31 176.706 115.292 176.833 115.236 176.976C115.154 177.187 115.034 177.326 114.876 177.393C114.718 177.456 114.528 177.445 114.305 177.358Z" fill="white"/>
<path d="M63.8793 63.6745L76.3079 43.2121L82.8503 45.7597L77.8405 54.0047L81.307 55.3545L86.3168 47.1095L92.8754 49.6634L80.4468 70.1258L73.8882 67.5719L78.7125 59.6108L75.2297 58.2546L70.4217 66.2221L63.8793 63.6745ZM82.3362 70.8615L94.7811 50.4055L101.307 52.9467L88.8786 73.4091L82.3362 70.8615ZM98.2038 77.1902C94.5149 75.7538 92.8928 73.9351 93.3375 71.7343C93.7822 69.5334 94.9155 66.8635 96.7375 63.7246C98.6452 60.4941 100.539 58.1015 102.419 56.547C104.309 54.9966 107.338 55.0326 111.504 56.6549C115.497 58.2097 117.356 60.0143 117.08 62.0687C116.805 64.1232 116.183 65.9927 115.215 67.6773L108.673 65.1297C109.688 63.3258 110.144 62.2351 110.041 61.8576C109.949 61.4844 109.599 61.1795 108.991 60.9429C108.351 60.6937 107.744 60.6949 107.172 60.9467C106.599 61.1984 105.244 63.0887 103.108 66.6175C101.496 69.3134 100.666 71.027 100.619 71.7583C100.587 72.4829 100.918 72.9804 101.612 73.2508C102.23 73.4916 102.757 73.503 103.192 73.2849C103.627 73.0669 104.27 72.3118 105.124 71.0196L105.217 70.9247L103.589 70.291L105.873 66.4949L114.011 69.6635L107.401 80.6216L103.999 79.2971L104.201 77.239C102.655 78.1613 100.656 78.145 98.2038 77.1902ZM109.079 81.2752L121.508 60.8128L128.05 63.3603L123.041 71.6053L126.507 72.9552L131.517 64.7102L138.076 67.2641L125.647 87.7265L119.088 85.1726L123.913 77.2114L120.43 75.8553L115.622 83.8227L109.079 81.2752ZM133.449 90.7644L145.893 70.3083L152.42 72.8495L139.991 93.3119L133.449 90.7644ZM141.978 94.0858L154.407 73.6234L164.53 77.5651L158.395 94.7622L158.477 94.7939L168.191 78.991L174.701 81.5259L162.273 101.988L152.068 98.0149L158.284 80.5122L158.235 80.4932L148.455 96.608L141.978 94.0858ZM46.8853 87.1051L59.3139 66.6426L70.0226 70.8125C72.8001 71.8941 73.8623 73.3698 73.2092 75.2396C72.5712 77.1027 71.8503 78.7775 71.0466 80.2638C70.1759 81.9864 68.9589 83.6679 67.3956 85.3082C65.8322 86.9485 63.6564 87.2258 60.868 86.14L56.5552 84.4606L53.4277 89.6526L46.8853 87.1051ZM59.166 80.2107L61.2003 81.0028C61.656 81.1803 62.1091 81.0756 62.5596 80.6887C63.0101 80.3019 63.6396 79.3912 64.4481 77.9568C65.2294 76.6242 65.6762 75.7173 65.7885 75.2363C65.916 74.7486 65.7518 74.4161 65.2961 74.2387L63.2618 73.4465L59.166 80.2107ZM64.3678 93.9126L76.7964 73.4502L87.9607 77.7975C90.543 78.8031 91.6218 80.0915 91.1973 81.663C90.7879 83.2279 90.1509 84.7354 89.2864 86.1855C88.4478 87.6332 87.4052 88.8828 86.1586 89.9342C84.9162 90.9748 82.9876 90.9861 80.3729 89.9679L75.9136 88.2315L70.9427 96.4729L64.3678 93.9126ZM74.2464 97.7593L77.2352 87.3404L83.7769 89.4566L81.1306 100.44L74.2464 97.7593ZM78.1823 84.523L80.3631 85.3722C80.808 85.5454 81.1944 85.4835 81.5225 85.1864C81.8657 84.8828 82.2502 84.3765 82.6762 83.6677C83.1365 82.9349 83.4059 82.3713 83.4844 81.9771C83.5672 81.572 83.3862 81.2828 82.9413 81.1096L80.7605 80.2604L78.1823 84.523ZM90.18 104.151C86.0137 102.529 84.1152 100.634 84.4845 98.4661C84.8646 96.3025 85.9935 93.6121 87.871 90.3949C89.7829 87.1535 91.7134 84.7628 93.6626 83.2227C95.6159 81.6718 98.6703 81.7054 102.826 83.3235C106.981 84.9416 108.869 86.8324 108.489 88.9959C108.119 91.1637 106.992 93.867 105.106 97.106C103.202 100.326 101.274 102.711 99.3206 104.262C97.3823 105.806 94.3354 105.769 90.18 104.151ZM92.7744 99.8949C93.458 100.161 94.0991 100.167 94.6979 99.9129C95.3075 99.663 96.6068 97.8824 98.5959 94.5711C100.634 91.1664 101.586 89.2193 101.452 88.7297C101.332 88.2335 100.931 87.8523 100.248 87.5861C99.5423 87.3115 98.8967 87.285 98.3106 87.5066C97.7245 87.7282 96.4146 89.5359 94.3808 92.9298C92.4134 96.2495 91.4775 98.1716 91.5732 98.6961C91.6688 99.2207 92.0692 99.6203 92.7744 99.8949ZM103.735 109.242L113.553 93.0294L109.354 91.3944L111.964 87.1445L126.905 92.962L124.294 97.212L120.111 95.5833L110.277 111.789L103.735 109.242ZM115.778 113.931L128.206 93.469L140.77 98.3614L138.176 102.618L132.171 100.279L129.851 104.118L135.466 106.304L132.945 110.42L127.33 108.234L124.931 112.229L130.92 114.561L128.342 118.824L115.778 113.931ZM130.123 119.517L142.568 99.0611L149.094 101.602L136.665 122.065L130.123 119.517ZM138.652 122.839L151.081 102.376L161.204 106.318L155.07 123.515L155.151 123.547L164.865 107.744L171.375 110.279L158.947 130.741L148.743 126.768L154.958 109.265L154.909 109.246L145.13 125.361L138.652 122.839Z" fill="white"/>
<path d="M51.7264 129.491C51.7264 129.491 36.5017 122.153 40.2267 127.67C43.0663 131.874 61.2251 137.188 69.6966 139.477C72.4929 140.232 75.1995 141.274 77.7762 142.598C84.8486 146.236 100.731 153.805 114.627 156.178L131.087 144.767L51.7256 129.493L51.7264 129.491Z" fill="black"/>
<path d="M115.653 133.772C118.795 131.022 119.449 126.533 116.98 123.107C115.064 120.457 111.768 119.018 108.503 118.835C105.241 118.651 102.216 119.986 99.3412 121.545C97.99 122.277 96.6427 123.011 95.2915 123.743C88.5411 123.42 83.1219 124.1 76.3735 123.778C80.152 120.52 83.6929 117.268 87.3365 114.013C89.6852 111.914 89.5379 108.168 86.9922 106.312C86.9769 106.299 86.9588 106.288 86.9427 106.277C84.0759 104.189 80.9427 102.623 77.4951 102.747C76.5537 102.78 75.635 102.935 74.7402 103.185C72.2449 103.874 69.9164 105.283 67.7729 106.779C63.1704 109.99 58.9466 113.749 55.2252 117.951C52.3802 121.162 49.7103 125.704 51.7303 129.49C53.2525 132.351 56.9445 132.835 59.9632 134.011C76.3273 140.383 84.0864 142.431 95.4293 146.848C98.9814 148.231 100.982 142.369 104.768 141.932C104.768 141.932 111.279 140.989 107.396 148.061C106.244 150.162 104.091 153.209 105.327 155.26C105.396 155.373 105.467 155.482 105.546 155.585C106.611 157.021 108.511 157.634 110.272 158.091C116.301 159.655 122.468 160.692 128.678 161.186C133.042 161.532 137.62 161.571 141.575 159.696C145.532 157.819 148.649 153.51 147.815 149.212C146.908 144.526 141.657 139.897 137.361 137.82C130.136 134.329 125.607 132.966 117.117 132.25C117.963 131.168 118.413 129.85 118.507 128.489" fill="#2882FF"/>
<path d="M115.653 133.772C118.795 131.022 119.449 126.533 116.98 123.107C115.064 120.457 111.768 119.018 108.503 118.835C105.241 118.651 102.216 119.986 99.3412 121.545C97.99 122.277 96.6427 123.011 95.2915 123.743C88.5412 123.42 83.1219 124.1 76.3735 123.778C80.152 120.52 83.6929 117.268 87.3365 114.013C89.6852 111.914 89.5379 108.168 86.9922 106.312C86.9769 106.299 86.9588 106.288 86.9427 106.277C84.0759 104.189 80.9427 102.623 77.4951 102.747C76.5537 102.78 75.635 102.935 74.7402 103.185C72.2449 103.874 69.9164 105.283 67.7729 106.779C63.1704 109.99 58.9466 113.749 55.2252 117.951C52.3802 121.162 49.7103 125.704 51.7303 129.49C53.2525 132.351 56.9445 132.835 59.9632 134.011C76.3273 140.383 84.0864 142.431 95.4293 146.848C98.9814 148.231 100.982 142.369 104.768 141.932C104.768 141.932 111.279 140.989 107.396 148.061C106.244 150.162 104.091 153.209 105.327 155.26C105.396 155.373 105.467 155.482 105.546 155.585C106.611 157.021 108.511 157.634 110.271 158.091C116.301 159.655 122.468 160.692 128.678 161.186C133.042 161.532 137.62 161.571 141.575 159.696C145.532 157.819 148.649 153.51 147.815 149.212C146.908 144.526 141.657 139.897 137.361 137.82C130.136 134.329 125.607 132.966 117.117 132.25C117.963 131.168 118.413 129.85 118.507 128.489" stroke="black" stroke-width="0.214152" stroke-miterlimit="10"/>
<path d="M111.883 71.1162C110.509 70.2763 109.342 69.1034 108.512 67.7234C108.23 67.2542 107.977 66.7132 108.083 66.1759C108.248 65.3231 109.285 64.8687 110.134 65.0568C110.982 65.2448 111.65 65.8891 112.201 66.5623C112.753 67.2354 113.246 67.9743 113.954 68.4779C115.214 69.3775 117.004 69.4283 118.068 70.5521C118.741 71.2612 118.99 72.3026 118.874 73.2739C118.759 74.2431 118.311 75.1486 117.744 75.9442C116.15 78.1743 115.095 80.0313 112.386 79.611C108.798 79.0544 105.533 76.7032 103.872 73.4745C103.577 72.9034 103.327 72.2912 103.306 71.6503C103.284 71.0095 103.529 70.3298 104.054 69.9607C104.686 69.5202 105.579 69.6285 106.238 70.0317C106.895 70.4322 107.366 71.074 107.803 71.7095C108.238 72.3442 108.67 73.0048 109.279 73.4749" fill="#FFB3C0"/>
<path d="M111.883 71.1162C110.509 70.2763 109.342 69.1034 108.512 67.7234C108.23 67.2542 107.977 66.7132 108.083 66.1759C108.248 65.3231 109.285 64.8687 110.134 65.0568C110.982 65.2448 111.65 65.8891 112.201 66.5623C112.753 67.2354 113.246 67.9743 113.954 68.4779C115.214 69.3775 117.004 69.4283 118.068 70.5521C118.741 71.2612 118.99 72.3026 118.874 73.2739C118.759 74.2431 118.311 75.1486 117.744 75.9442C116.15 78.1743 115.095 80.0313 112.386 79.611C108.798 79.0544 105.533 76.7032 103.872 73.4745C103.577 72.9034 103.327 72.2912 103.306 71.6503C103.284 71.0095 103.529 70.3298 104.054 69.9607C104.686 69.5202 105.579 69.6285 106.238 70.0317C106.895 70.4322 107.366 71.074 107.803 71.7095C108.238 72.3442 108.67 73.0048 109.279 73.4749" stroke="black" stroke-width="0.218757" stroke-miterlimit="10"/>
<path d="M108.731 73.0443C107.534 72.2712 106.565 71.1508 105.972 69.8558C105.758 69.3887 105.59 68.8825 105.622 68.3709C105.654 67.8594 105.923 67.3362 106.388 67.1174C106.816 66.916 107.336 67.0031 107.754 67.2291C108.172 67.4551 108.503 67.8035 108.83 68.1476C109.813 69.1807 110.795 70.2138 111.777 71.2468" fill="#FFB3C0"/>
<path d="M108.731 73.0443C107.534 72.2712 106.565 71.1508 105.972 69.8558C105.758 69.3887 105.59 68.8825 105.622 68.3709C105.654 67.8594 105.923 67.3362 106.388 67.1174C106.816 66.916 107.336 67.0031 107.754 67.2291C108.172 67.4551 108.503 67.8035 108.83 68.1476C109.813 69.1807 110.795 70.2138 111.777 71.2468" stroke="black" stroke-width="0.218757" stroke-miterlimit="10"/>
<path d="M110.775 72.6372C110.697 72.3561 110.879 72.0746 111.065 71.8512C111.601 71.2174 112.268 70.6953 113.01 70.3249" fill="#FFB3C0"/>
<path d="M110.775 72.6372C110.697 72.3561 110.879 72.0746 111.065 71.8512C111.601 71.2174 112.268 70.6953 113.01 70.3249" stroke="black" stroke-width="0.218757" stroke-miterlimit="10"/>
<path d="M107.819 75.7073C107.259 74.3667 107.148 72.8417 107.507 71.432C107.621 70.9838 107.793 70.5311 108.125 70.2064C108.457 69.8816 108.982 69.7224 109.397 69.9269C109.804 70.1284 109.99 70.5962 110.143 71.0263C110.557 72.1971 110.974 73.3667 111.387 74.5375" fill="#FFB3C0"/>
<path d="M107.819 75.7073C107.259 74.3667 107.148 72.8417 107.507 71.432C107.621 70.9838 107.793 70.5311 108.125 70.2064C108.457 69.8816 108.982 69.7224 109.397 69.9269C109.804 70.1284 109.99 70.5962 110.143 71.0263C110.557 72.1971 110.974 73.3667 111.387 74.5375" stroke="black" stroke-width="0.218757" stroke-miterlimit="10"/>
<path d="M106.237 156.536C105.775 157.205 104.374 156.842 103.771 156.725C102.565 156.493 101.378 156.166 100.194 155.836C93.9927 154.103 87.7915 152.371 81.5902 150.638C80.0607 150.21 78.2117 149.395 78.1905 147.808C78.168 146.247 79.9334 145.374 81.4122 144.877C83.9456 144.027 86.4781 143.179 89.0115 142.329C93.3529 140.873 97.6944 139.417 102.038 137.961C103.74 137.391 105.709 136.863 107.5 137.312C108.23 137.495 109.073 137.936 109.571 138.512C110.138 139.168 110.068 140.318 110.028 141.122C109.994 141.812 109.943 142.528 110.121 143.203C110.299 143.877 110.745 144.338 111.219 144.85C111.554 145.213 111.888 145.556 111.534 146.012C111.067 146.616 110.011 147.047 109.381 147.482C108.163 148.323 106.982 149.297 106.29 150.604C105.828 151.477 105.634 152.474 105.685 153.457C105.712 153.964 105.805 154.467 105.96 154.95C106.085 155.342 106.459 155.843 106.356 156.266C106.331 156.371 106.289 156.461 106.237 156.536Z" fill="white" stroke="black" stroke-width="0.253298" stroke-miterlimit="10"/>
<path d="M119.142 116.72C120.361 115.934 127.004 109.854 127.828 109.208C131.874 106.033 135.922 102.859 139.968 99.6843C143.491 96.92 146.093 93.5217 144.874 88.8321C143.968 85.351 135.112 82.1692 132.079 80.5205C129.437 79.0852 126.598 77.758 124.743 75.3914C123.911 74.3312 123.533 71.8506 122.076 71.7643C120.965 71.6998 120.094 73.0188 119.396 73.6932C117.601 75.4249 115.79 77.1411 113.987 78.865C112.979 79.83 110.868 81.6306 111.911 83.1638C112.444 83.9473 113.383 84.3265 114.268 84.6643C118.297 86.2038 122.325 87.7432 126.355 89.2807C122.05 92.7139 117.953 96.002 113.645 99.4364C112.201 100.586 110.63 101.989 110.6 103.834C110.577 105.257 111.501 106.51 112.451 107.573C114.079 108.207 114.88 111.546 116.745 111.879C117.362 111.988 118.454 117.166 119.141 116.724L119.142 116.72Z" fill="#2882FF" stroke="black" stroke-width="0.214152" stroke-miterlimit="10"/>
<path d="M88.1538 92.3918C90.125 92.0051 92.0495 91.3382 94.0434 91.0846C95.8307 90.8567 99.1544 91.6607 100.122 89.6634C101.617 86.5774 95.7622 85.899 94.4184 84.3321C93.7412 83.5421 93.4857 82.2319 92.7532 81.5604C91.491 80.4048 88.7371 80.7307 87.4251 81.5999C86.2653 82.3681 85.5681 83.6597 84.5519 84.6103C82.4971 86.5343 79.4662 86.8291 76.725 87.4762C73.6905 88.192 70.3266 89.9857 70.4154 93.3543C70.4371 94.1918 70.6979 95.0071 71.1096 95.7366C72.1804 97.6331 73.9946 98.7981 75.8056 99.867C80.9301 102.897 86.3434 105.441 91.9468 107.456C94.5069 108.376 96.5226 108.745 99.1333 109.558C99.9918 109.825 106.625 111.696 106.944 111.475C104.44 113.224 102.249 115.66 99.7448 117.409C98.928 117.981 98.0853 118.579 97.6997 119.54C97.5682 119.866 97.5133 120.222 97.5587 120.569C97.7286 121.925 99.0942 122.287 100.183 122.032C101.016 121.836 101.749 121.356 102.516 120.972C105.693 119.384 109.678 119.535 112.726 121.359C114.862 122.638 116.953 124.52 118.048 126.754C118.411 127.494 119.495 127.388 119.704 126.592C120.553 123.325 121.242 120.019 121.272 116.654C121.311 112.186 120.05 107.529 116.92 104.343C113.149 100.505 107.493 99.536 102.609 97.7968C96.6415 95.672 90.6743 93.5472 84.7091 91.4231" fill="#2882FF"/>
<path d="M88.1538 92.3918C90.125 92.0051 92.0495 91.3382 94.0434 91.0846C95.8307 90.8567 99.1544 91.6607 100.122 89.6634C101.617 86.5774 95.7622 85.899 94.4184 84.3321C93.7412 83.5421 93.4857 82.2319 92.7532 81.5604C91.491 80.4048 88.7371 80.7307 87.4251 81.5999C86.2653 82.3681 85.5681 83.6597 84.5519 84.6103C82.4971 86.5343 79.4662 86.8291 76.725 87.4762C73.6905 88.192 70.3266 89.9857 70.4154 93.3543C70.4371 94.1918 70.6979 95.0071 71.1096 95.7366C72.1804 97.6331 73.9946 98.7981 75.8056 99.867C80.9301 102.897 86.3434 105.441 91.9468 107.456C94.5069 108.376 96.5226 108.745 99.1333 109.558C99.9918 109.825 106.625 111.696 106.944 111.475C104.44 113.224 102.249 115.66 99.7448 117.409C98.928 117.981 98.0853 118.579 97.6997 119.54C97.5682 119.866 97.5133 120.222 97.5587 120.569C97.7286 121.925 99.0942 122.287 100.183 122.032C101.016 121.836 101.749 121.356 102.516 120.972C105.693 119.384 109.678 119.535 112.726 121.359C114.862 122.638 116.953 124.52 118.048 126.754C118.411 127.494 119.495 127.388 119.704 126.592C120.553 123.325 121.242 120.019 121.272 116.654C121.311 112.186 120.05 107.529 116.92 104.343C113.149 100.505 107.493 99.536 102.609 97.7968C96.6415 95.672 90.6743 93.5472 84.7091 91.4231" stroke="black" stroke-width="0.214152" stroke-miterlimit="10"/>
<path d="M131.053 150.152C131.053 150.152 122.409 141.52 112.861 144.152L131.053 150.152Z" fill="#2882FF"/>
<path d="M131.053 150.152C131.053 150.152 122.409 141.52 112.861 144.152" stroke="black" stroke-width="0.214152" stroke-miterlimit="10"/>
<path d="M69.597 124.984C69.597 124.984 74.6874 122.968 76.3713 123.777L69.597 124.984Z" fill="#2882FF"/>
<path d="M69.597 124.984C69.597 124.984 74.6874 122.968 76.3713 123.777" stroke="black" stroke-width="0.292444" stroke-miterlimit="10"/>
<path d="M103.169 73.9403C102.68 73.6594 102.135 73.3705 101.589 73.2187C100.765 72.9906 99.7889 73.1301 99.009 73.416C97.485 73.9768 96.0893 74.8812 94.9649 76.0516C92.2775 78.852 90.7442 83.9788 93.9291 86.9605C94.6743 87.6573 95.6727 88.1387 96.6935 88.0754C97.876 88.0028 98.8978 87.2351 99.7478 86.4096C101.5 84.7064 103.414 83.1433 105.571 81.9548C106.273 81.4871 106.975 81.0221 107.642 80.5047C108.225 80.0518 108.817 79.496 108.918 78.7653C109.022 78.0174 108.543 77.2639 107.875 76.9135C107.207 76.5632 106.394 76.5648 105.67 76.7801C104.945 76.9947 104.295 77.401 103.674 77.83" fill="#FFB3C0"/>
<path d="M103.169 73.9403C102.68 73.6594 102.135 73.3705 101.589 73.2187C100.765 72.9906 99.7889 73.1301 99.009 73.416C97.485 73.9768 96.0893 74.8812 94.9649 76.0516C92.2775 78.852 90.7442 83.9788 93.9291 86.9605C94.6743 87.6573 95.6727 88.1387 96.6935 88.0754C97.876 88.0028 98.8978 87.2351 99.7478 86.4096C101.5 84.7064 103.414 83.1433 105.571 81.9548C106.273 81.4871 106.975 81.0221 107.642 80.5047C108.225 80.0518 108.817 79.496 108.918 78.7653C109.022 78.0174 108.543 77.2639 107.875 76.9135C107.207 76.5632 106.394 76.5648 105.67 76.7801C104.945 76.9947 104.295 77.401 103.674 77.83" stroke="black" stroke-width="0.253298" stroke-miterlimit="10"/>
<path d="M98.3304 78.8234C98.3304 78.8234 97.6589 77.2472 96.3145 76.6334L98.3304 78.8234Z" fill="#FFB3C0"/>
<path d="M98.3304 78.8234C98.3304 78.8234 97.6589 77.2472 96.3145 76.6334" stroke="black" stroke-width="0.253298" stroke-miterlimit="10"/>
<path d="M103.264 78.1436C104.094 77.613 104.401 77.1497 105.732 76.6946C106.267 76.5118 106.719 76.0398 106.87 75.4955C107.069 74.7822 106.516 74.027 105.825 73.7649C105.132 73.5019 104.358 73.6181 103.641 73.7997C101.295 74.3951 99.1274 75.6857 97.4895 77.4672" fill="#FFB3C0"/>
<path d="M103.264 78.1436C104.094 77.613 104.401 77.1497 105.732 76.6946C106.267 76.5118 106.719 76.0398 106.87 75.4955C107.069 74.7822 106.516 74.027 105.825 73.7649C105.132 73.5019 104.358 73.6181 103.641 73.7997C101.295 74.3951 99.1274 75.6857 97.4895 77.4672" stroke="black" stroke-width="0.253298" stroke-miterlimit="10"/>
<path d="M101.701 82.9917C101.701 82.9917 104.69 79.0574 102.514 77.0874C100.338 75.1174 99.4385 80.7215 96.4756 82.0366" fill="#FFB3C0"/>
<path d="M101.701 82.9917C101.701 82.9917 104.69 79.0574 102.514 77.0874C100.338 75.1174 99.4385 80.7215 96.4756 82.0366" stroke="black" stroke-width="0.253298" stroke-miterlimit="10"/>
<path d="M109.058 87.8696C108.348 88.926 107.249 89.6432 106.239 90.4155C102.557 93.2351 99.7739 97.2156 98.3964 101.646C97.997 102.927 97.707 104.258 97.0655 105.436C96.4219 106.613 95.3381 107.65 94.0083 107.816C92.0085 108.068 90.2604 106.35 88.2524 106.176C87.7978 106.137 87.358 106.176 86.9438 106.276C84.0771 104.189 80.9439 102.623 77.4962 102.747C76.5549 102.78 75.6362 102.935 74.7414 103.185C75.2198 102.931 75.6162 102.719 75.8288 102.585C77.7225 101.382 79.6198 100.176 81.5155 98.974C85.2451 96.6066 88.9754 94.2372 92.7042 91.8718C96.1998 89.6527 100.653 87.6551 103.713 84.8846C104.55 84.3523 105.412 83.8093 106.383 83.6003C107.352 83.3924 108.472 83.5799 109.129 84.3217C109.973 85.2759 109.775 86.8115 109.063 87.8672L109.058 87.8696Z" fill="white" stroke="black" stroke-width="0.253298" stroke-miterlimit="10"/>
<path d="M113.562 101.715C116.541 102.875 119.897 101.4 121.057 98.4214C122.217 95.4424 120.742 92.0871 117.763 90.9271C114.784 89.7671 111.429 91.2417 110.269 94.2206C109.109 97.1996 110.583 100.555 113.562 101.715Z" fill="#FFB3C0" stroke="black" stroke-width="0.287838" stroke-miterlimit="10"/>
<path d="M117.019 91.7348C112.598 92.3852 114.695 96.3006 114.695 96.3006C114.695 96.3006 115.17 98.0036 113.485 98.2712C112.611 98.4097 112.597 99.3148 112.787 100.157C112.932 100.803 113.199 101.413 113.286 101.6C113.305 101.639 113.314 101.661 113.314 101.661C113.314 101.661 112.746 101.399 112.038 100.872C110.291 99.5689 107.699 96.6419 110.71 92.0023C110.972 91.5961 111.254 91.2495 111.546 90.9521C112.222 90.2646 112.968 89.8457 113.72 89.6098C115.368 89.0885 117.048 89.451 118.1 89.8065C119.044 90.1246 119.725 90.9927 119.724 91.9883C119.725 92.0724 119.718 92.1354 119.709 92.1816C119.617 92.6401 119.025 91.4385 117.019 91.7348Z" fill="#280F05"/>
<path d="M114.362 143.874C114.362 143.874 106.217 145.281 104.769 151.038C103.32 156.794 108.851 157.737 108.851 157.737" fill="#2882FF"/>
<path d="M114.362 143.874C114.362 143.874 106.217 145.281 104.769 151.038C103.32 156.794 108.851 157.737 108.851 157.737" stroke="black" stroke-width="0.22106" stroke-miterlimit="10"/>
<path d="M106.947 111.477L111.116 107.808" stroke="black" stroke-width="0.308563" stroke-miterlimit="10"/>
<path d="M126.356 89.2813L130.368 90.6493" stroke="black" stroke-width="0.308563" stroke-miterlimit="10"/>
<path d="M88.8257 92.9893L78.0267 101.075L90.3655 93.4262L88.8257 92.9893Z" fill="black"/>
<path d="M104.186 137.439C104.186 137.439 87.1906 143.125 69.1328 137.564L85.2169 143.402L104.189 137.438L104.186 137.439Z" fill="black"/>
<path d="M98.6178 121.902C98.6178 121.902 99.3636 123.137 102.471 120.959C102.471 120.959 101.282 123.432 95.2895 123.744L98.6178 121.902Z" fill="black"/>
<path d="M119.713 143.752C118.263 143.161 116.724 142.812 115.16 142.718C114.506 142.678 113.718 142.638 112.793 142.601C111.094 142.531 110.117 141.62 109.977 140.544C109.977 140.544 109.291 143.358 111.215 144.855C111.215 144.855 116.983 141.933 122.455 144.877L119.711 143.756L119.713 143.752Z" fill="black"/>
<path d="M55.2231 117.948C55.2231 117.948 49.5254 128.955 57.6644 133.177C57.6644 133.177 50.2857 132.154 50.9266 125.792C50.9266 125.792 52.1223 121.062 55.2231 117.948Z" fill="black"/>
<path d="M89.8037 82.1434C89.8037 82.1434 88.908 86.7641 93.4627 88.9894L89.8037 82.1434Z" fill="#2882FF"/>
<path d="M89.8037 82.1434C89.8037 82.1434 88.908 86.7641 93.4627 88.9894" stroke="black" stroke-width="0.308563" stroke-miterlimit="10"/>
<path d="M73.0779 133.076C73.0779 133.076 73.8743 125.648 66.971 128.972C60.0676 132.297 56.0872 136.643 58.322 137.755C60.5574 138.865 67.3374 137.301 67.3374 137.301C67.3374 137.301 69.3242 141.933 74.7306 140.544L77.0895 139.892C77.0895 139.892 82.598 144.773 90.3988 140.286C98.1995 135.8 91.5822 133.157 86.5635 134.844C81.5448 136.531 80.9472 137.306 80.9472 137.306C80.9472 137.306 75.1028 135.261 71.8446 137.073L73.0798 133.077L73.0779 133.076Z" fill="white"/>
<path d="M122.08 109.669C122.934 107.696 122.1 105.186 120.317 104.018C119.668 103.584 118.894 103.274 118.139 102.996C117.761 102.83 117.093 102.661 117.056 102.303C117.136 101.952 117.69 101.777 118.046 101.548C118.682 101.201 119.295 100.717 119.801 100.219C120.459 99.5621 120.949 99.1612 121.921 98.8822C123.305 98.4364 124.87 98.2981 126.222 98.9756C128.456 100.036 129.339 102.589 129.234 104.946C129.124 107.601 127.424 109.363 126.005 110.373C125.43 110.788 124.81 111.116 124.293 111.615C123.736 112.116 123.496 112.827 123.137 113.37C123.001 113.547 122.842 113.584 122.636 113.445C121.585 112.578 121.516 111.008 122.07 109.708L122.085 109.669L122.08 109.669Z" fill="#280F05"/>
<path d="M110.233 93.4891C109.469 93.2459 109.788 90.1827 111.71 90.7233C112.174 90.8543 112.439 91.2873 112.798 91.2105C113.104 91.1444 114.125 90.6339 114.027 90.2525C113.36 89.1477 110.789 85.9872 108.525 85.7222C105.347 85.35 102.869 87.6942 105.959 92.2767C106.893 93.6612 109.835 96.7949 110.665 98.1749" fill="#280F05"/>
<path d="M113.717 89.6096C112.965 89.8456 112.219 90.2644 111.543 90.9519C111.415 90.8683 111.307 90.7583 111.227 90.621C110.904 90.0705 111.171 89.314 111.824 88.9312C112.476 88.5504 113.267 88.6889 113.589 89.2414C113.657 89.3561 113.699 89.4808 113.717 89.6096Z" fill="#2882FF" stroke="black" stroke-width="0.214152" stroke-miterlimit="10"/>
<path d="M116.244 94.5868C116.244 94.5868 114.706 97.3762 118.161 98.9471" stroke="black" stroke-width="0.308563" stroke-miterlimit="10"/>
<path d="M146.526 87.261C148.6 90.1537 150.333 97.2099 140.673 102.293" stroke="white" stroke-width="0.418007"/>
<path d="M155.329 153.678C157.672 147.662 154.694 140.885 148.678 138.543C154.694 140.885 161.47 137.907 163.813 131.891C161.47 137.907 164.449 144.684 170.464 147.026C164.449 144.684 157.672 147.662 155.329 153.678Z" fill="white" stroke="#FC5E3B" stroke-width="1.37526" stroke-miterlimit="10"/>
<path d="M100.757 49.329C102.346 45.2479 100.325 40.6503 96.2444 39.0611C100.325 40.6503 104.923 38.6297 106.512 34.5486C104.923 38.6297 106.944 43.2273 111.025 44.8165C106.944 43.2273 102.346 45.2479 100.757 49.329Z" fill="white" stroke="#FC5E3B" stroke-width="1.37526" stroke-miterlimit="10"/>
</g>
<defs>
<filter id="filter0_d_144_6143" x="18.9756" y="22.1833" width="175.215" height="175.215" filterUnits="userSpaceOnUse" color-interpolation-filters="sRGB">
<feFlood flood-opacity="0" result="BackgroundImageFix"/>
<feColorMatrix in="SourceAlpha" type="matrix" values="0 0 0 0 0 0 0 0 0 0 0 0 0 0 0 0 0 0 127 0" result="hardAlpha"/>
<feOffset dy="3.00723"/>
<feGaussianBlur stdDeviation="2.63133"/>
<feComposite in2="hardAlpha" operator="out"/>
<feColorMatrix type="matrix" values="0 0 0 0 0 0 0 0 0 0.142376 0 0 0 0 0.34012 0 0 0 0.46 0"/>
<feBlend mode="normal" in2="BackgroundImageFix" result="effect1_dropShadow_144_6143"/>
<feBlend mode="normal" in="SourceGraphic" in2="effect1_dropShadow_144_6143" result="shape"/>
</filter>
</defs>
</svg>
