<svg width="384" height="72" viewBox="0 0 384 72" fill="none" xmlns="http://www.w3.org/2000/svg">
<rect x="0.5" y="8.7002" width="383" height="62" rx="11.5" stroke="#0051F0"/>
<rect y="0.200195" width="384" height="63" rx="12" fill="#004CF0"/>
<path d="M37.3616 36.585L36.5616 32.185L36.5016 29.505H36.1216V40.585H33.4616V26.585H37.4016L38.1816 32.845V33.905H38.5816L38.6016 32.845L39.3616 26.585H43.3016V40.585H40.6416V29.505H40.2816L40.2216 32.185L39.4016 36.585H37.3616ZM50.784 40.925C47.204 40.925 45.384 38.445 45.384 33.585C45.384 28.725 47.204 26.245 50.784 26.245C54.364 26.245 56.184 28.725 56.184 33.585C56.184 38.445 54.364 40.925 50.784 40.925ZM48.564 33.585C48.564 36.725 49.244 38.105 50.784 38.105C52.324 38.105 53.004 36.725 53.004 33.585C53.004 30.445 52.324 29.065 50.784 29.065C49.244 29.065 48.564 30.445 48.564 33.585ZM58.6063 40.585V26.585H63.9463C66.7263 26.585 68.5063 28.005 68.5063 30.625C68.5063 32.725 67.1263 34.005 64.9663 34.365V34.665L65.7263 34.925L68.6063 40.585H65.1063L62.3463 35.025H61.6663V40.585H58.6063ZM61.6663 32.545H63.5263C64.6863 32.545 65.3863 31.945 65.3863 30.885C65.3863 29.865 64.6663 29.305 63.5263 29.305H61.6663V32.545ZM71.3687 40.585V26.585H80.1487V29.405H74.4087V32.225H79.9487V34.945H74.4087V37.765H80.1487V40.585H71.3687ZM95.8134 40.585V26.585H101.153C103.933 26.585 105.713 28.005 105.713 30.625C105.713 32.725 104.333 34.005 102.173 34.365V34.665L102.933 34.925L105.813 40.585H102.313L99.5534 35.025H98.8734V40.585H95.8134ZM98.8734 32.545H100.733C101.893 32.545 102.593 31.945 102.593 30.885C102.593 29.865 101.873 29.305 100.733 29.305H98.8734V32.545ZM108.576 40.585V26.585H117.356V29.405H111.616V32.225H117.156V34.945H111.616V37.765H117.356V40.585H108.576ZM125.358 40.925C121.798 40.925 120.018 38.485 120.018 33.585C120.018 28.665 121.838 26.245 125.498 26.245C128.578 26.245 130.598 28.385 130.578 31.665H127.418C127.418 29.985 126.718 29.065 125.498 29.065C123.878 29.065 123.218 30.385 123.218 33.585C123.218 36.765 123.838 38.105 125.358 38.105C126.518 38.105 127.198 37.145 127.198 35.505H130.378C130.378 38.825 128.438 40.925 125.358 40.925ZM133.38 40.585V26.585H142.16V29.405H136.42V32.225H141.96V34.945H136.42V37.765H142.16V40.585H133.38ZM145.283 40.585V37.825H148.483V29.345H145.283V26.585H154.723V29.345H151.523V37.825H154.723V40.585H145.283ZM157.965 40.585V26.585H163.205C166.025 26.585 167.965 28.305 167.965 30.985C167.965 33.685 166.045 35.405 163.205 35.405H161.025V40.585H157.965ZM161.025 32.685H162.945C164.125 32.685 164.825 31.985 164.825 30.985C164.825 29.965 164.145 29.305 162.945 29.305H161.025V32.685ZM170.587 40.585V26.585H179.367V29.405H173.627V32.225H179.167V34.945H173.627V37.765H179.367V40.585H170.587ZM187.17 40.925C183.83 40.925 181.97 39.225 181.97 36.005H185.03C185.03 37.525 185.73 38.285 187.25 38.285C188.51 38.285 189.29 37.645 189.29 36.645C189.29 35.825 188.77 35.285 187.41 35.025L185.67 34.685C183.31 34.225 182.03 32.845 182.03 30.685C182.03 27.945 184.07 26.245 187.25 26.245C190.61 26.245 192.47 27.905 192.47 31.125H189.41C189.41 29.625 188.75 28.865 187.21 28.865C185.85 28.865 185.11 29.545 185.11 30.505C185.11 31.325 185.63 31.845 187.01 32.125L188.71 32.465C191.05 32.925 192.35 34.285 192.35 36.525C192.35 39.225 190.39 40.925 187.17 40.925ZM212.014 40.925C208.434 40.925 206.614 38.445 206.614 33.585C206.614 28.725 208.434 26.245 212.014 26.245C215.594 26.245 217.414 28.725 217.414 33.585C217.414 38.445 215.594 40.925 212.014 40.925ZM209.794 33.585C209.794 36.725 210.474 38.105 212.014 38.105C213.554 38.105 214.234 36.725 214.234 33.585C214.234 30.445 213.554 29.065 212.014 29.065C210.474 29.065 209.794 30.445 209.794 33.585ZM225.017 40.585L222.817 31.925L222.677 29.385H222.297V40.585H219.497V26.585H223.817L226.017 35.325L226.157 37.885H226.537V26.585H229.337V40.585H225.017ZM247.701 40.585V29.405H243.681V26.585H254.761V29.405H250.741V40.585H247.701ZM263.484 40.585V34.985H259.764V40.585H256.704V26.585H259.764V32.165H263.484V26.585H266.544V40.585H263.484ZM269.806 40.585V26.585H278.586V29.405H272.846V32.225H278.386V34.945H272.846V37.765H278.586V40.585H269.806ZM294.311 40.585V26.585H299.351C302.231 26.585 303.951 27.985 303.951 30.305C303.951 32.045 302.731 33.265 300.791 33.365V33.785C302.711 33.885 303.951 35.105 303.951 36.845C303.951 39.165 302.211 40.585 299.351 40.585H294.311ZM297.251 37.985H298.971C300.151 37.985 300.831 37.485 300.831 36.425C300.831 35.325 300.151 34.825 298.971 34.825H297.251V37.985ZM297.251 32.325H298.971C300.151 32.325 300.831 31.825 300.831 30.765C300.831 29.685 300.151 29.185 298.971 29.185H297.251V32.325ZM307.433 40.585V26.585H310.473V37.765H316.513V40.585H307.433ZM323.636 40.925C320.056 40.925 318.236 38.445 318.236 33.585C318.236 28.725 320.056 26.245 323.636 26.245C327.216 26.245 329.036 28.725 329.036 33.585C329.036 38.445 327.216 40.925 323.636 40.925ZM321.416 33.585C321.416 36.725 322.096 38.105 323.636 38.105C325.176 38.105 325.856 36.725 325.856 33.585C325.856 30.445 325.176 29.065 323.636 29.065C322.096 29.065 321.416 30.445 321.416 33.585ZM335.258 40.925C332.358 40.925 330.638 38.345 330.638 33.585C330.638 28.665 332.558 26.245 336.378 26.245C339.418 26.245 341.378 28.425 341.378 31.505H338.198C338.198 29.965 337.478 29.065 336.278 29.065C334.538 29.065 333.818 30.385 333.818 33.585C333.818 36.885 334.498 38.305 336.078 38.305C337.238 38.305 337.958 37.365 338.138 35.565H335.718V33.025H340.978V40.585H338.358L339.018 37.545H338.638C338.058 39.845 337.098 40.925 335.258 40.925Z" fill="white"/>
</svg>
