<svg width="86" height="42" viewBox="0 0 86 42" fill="none" xmlns="http://www.w3.org/2000/svg">
<path d="M71.4338 37.3568L14.7374 37.3568L8.38558 39.8457L0.913435 39.8457L0.913435 39.8405C0.924002 37.9434 3.03777 37.9592 3.05362 36.0621C3.06419 34.1756 0.966277 34.1544 0.960997 32.2838L0.960997 32.2415C0.992697 30.3655 3.08533 30.3708 3.10118 28.4843C3.11175 26.5977 1.00856 26.5819 1.00856 24.7059L1.00856 24.6795C1.0297 22.7983 3.13288 22.8088 3.14873 20.917C3.15931 19.0305 1.05612 19.0093 1.05612 17.1334L1.05612 17.1175C1.06669 15.2257 3.18045 15.2416 3.1963 13.3497C3.20687 11.4632 1.10368 11.4421 1.10368 9.56611L1.10368 9.55026C1.11424 7.65844 3.228 7.6743 3.23857 5.78248C3.25442 3.89066 1.15124 3.87481 1.15124 1.99885L1.15124 1.98828L8.62338 1.98828L14.9752 4.47723L71.196 4.47723L77.5479 1.98828L85.02 1.98828L85.02 1.99885C85.02 3.87481 82.9168 3.89067 82.9327 5.78248C82.9432 7.6743 85.057 7.65845 85.0676 9.55026L85.0676 9.56612C85.0676 11.4421 82.9644 11.4632 82.9749 13.3498C82.9908 15.2416 85.1046 15.2257 85.1151 17.1175L85.1151 17.1334C85.1151 19.0093 83.0119 19.0305 83.0225 20.917C83.0384 22.8088 85.1416 22.7983 85.1627 24.6795L85.1627 24.7059C85.1627 26.5819 83.0595 26.5978 83.0701 28.4843C83.0859 30.3761 85.1838 30.3655 85.2103 32.2468L85.2103 32.2838C85.205 34.1544 83.1071 34.1756 83.1176 36.0621C83.1335 37.9592 85.2472 37.9434 85.2578 39.8405L85.2578 39.8458L77.7857 39.8458L71.4338 37.3568Z" fill="black" stroke="black" stroke-width="1.5" stroke-miterlimit="10"/>
<path d="M77.5469 1.28125L77.5469 41.23" stroke="white" stroke-width="1.5" stroke-miterlimit="10"/>
<path d="M8.04688 0.417969L8.04687 41.3969" stroke="white" stroke-width="1.5" stroke-miterlimit="10"/>
<rect x="20.8379" y="11.9062" width="44.5117" height="18.0059" rx="3" fill="black" stroke="white" stroke-width="1.5" stroke-miterlimit="10"/>
</svg>
