<?xml version="1.0" encoding="UTF-8"?>
<svg id="Layer_1" xmlns="http://www.w3.org/2000/svg" version="1.1" xmlns:xlink="http://www.w3.org/1999/xlink" viewBox="0 0 648.4 745">
  <!-- Generator: Adobe Illustrator 29.1.0, SVG Export Plug-In . SVG Version: 2.1.0 Build 142)  -->
  <defs>
    <style>
      .st0 {
        fill: none;
      }

      .st0, .st1, .st2, .st3, .st4 {
        stroke: #4a4a4a;
        stroke-width: .9px;
      }

      .st0, .st3, .st4 {
        stroke-linecap: round;
        stroke-linejoin: round;
      }

      .st1, .st5, .st3 {
        fill: #fff;
      }

      .st6 {
        mask: url(#mask-1);
      }

      .st7, .st2, .st4 {
        fill: #4a4a4a;
      }

      .st8 {
        mask: url(#mask);
      }
    </style>
    <mask id="mask" x="415.5" y="284" width="9.1" height="17.2" maskUnits="userSpaceOnUse">
      <g id="path-3-inside-1_2017_2">
        <path class="st5" d="M416.4,284.4c1.8,7.6,7.4,16.4,7.4,16.4l-7.4-16.4Z"/>
      </g>
    </mask>
    <mask id="mask-1" x="510.3" y="253.8" width="51.8" height="98.7" maskUnits="userSpaceOnUse">
      <g id="path-25-inside-2_2017_2">
        <path class="st5" d="M532.1,315.4s-22.5,20.2-15.6,33.8c6.9,13.6,31.3-33.6,33.7-38.5,2.3-5,18.2-41.6,7.5-54.3-1.4-1.7-3.8-2.1-5.7-.9-4.2,2.7-10.9,12.3-15,45.9,0,0,0-53.4-21.3-44.7-16.4,6.7,19.1,63.1,19.1,63.1"/>
      </g>
    </mask>
  </defs>
  <path class="st5" d="M587.7,174.6l.9-5.4h-1.9l.2-1.1h5.6l-.2,1.1h-1.9l-.9,5.4h-1.7ZM592,174.6l1.2-6.5h2.6l.3,5.2h0l2.2-5.2h2.7l-1.2,6.5h-1.6l.9-5.4h0l-2.2,5.2h-1.9l-.4-5.2h0l-.9,5.4h-1.6Z"/>
  <path class="st5" d="M416.4,284.4c1.8,7.6,7.4,16.4,7.4,16.4l-7.4-16.4Z"/>
  <g class="st8">
    <path class="st7" d="M416.4,284.4l.8-.4-1.7.6.9-.2ZM423.8,300.8l-.8.5,1.6-.8-.8.4ZM415.5,284.6c.9,3.9,2.8,8.1,4.5,11.2.8,1.6,1.6,2.9,2.1,3.9.3.5.5.9.7,1.1,0,.1.1.2.2.3,0,0,0,0,0,0,0,0,0,0,0,0,0,0,0,0,0,0t0,0h0s0,0,.8-.5l.8-.5h0s0,0,0,0,0,0,0,0c0,0,0,0,0,0,0,0,0,0,0,0,0,0,0-.2-.2-.3-.2-.3-.4-.6-.6-1.1-.5-.9-1.3-2.3-2.1-3.8-1.6-3.1-3.4-7.2-4.3-10.8l-1.7.4ZM424.6,300.4l-7.4-16.4-1.6.7,7.4,16.4,1.6-.7Z"/>
  </g>
  <path class="st0" d="M416.4,284.4c1.8,7.6,7.4,16.4,7.4,16.4"/>
  <path class="st3" d="M294.4,389.2c-13.9,3.1-39,49.6-41,53.3,2-3.9,27.5-54.8-8.1-50.2-37,4.7-62.7,37.8-77.8,57.6-15.1,19.8-27.3,61.4-13.3,76.2,12.4,13.1,29.4,19.1,57.3-13.4-8.4,11.7-16.5,22-21.3,25.9-13.1,10.8-22.7,20.3-52.1,16.8-35.2-4.2-43.5-44-66.3-39.7-22.8,4.3-21.5,39.9-21.5,39.9,0,0,0,45,27.7,62.1,27.8,17.1,66.5,27.3,111.1-28.6,64.1-80.2,102.9-171.2,102.9-171.2,0,0,16.7-31.9,2.2-28.7ZM220.2,468c-17.2,23.7-35.1,40.2-39.9,36.7-4.8-3.5,5.3-25.5,22.5-49.3,17.2-23.7,35.1-40.2,39.9-36.7,4.8,3.5-5.3,25.5-22.5,49.3h0Z"/>
  <path class="st4" d="M251,487s-34.8,54.7-41.1,74.2l24.2-35.3,17.1-39.5-.2.6Z"/>
  <path class="st3" d="M269.5,198.7c-6.8-3.4-24.5,6.4-32-.6-3.3-3-1-8,2.7-12.7,7.2-9.1,17.3-15.6,28.6-18,6.4-1.4,12.7-1,17.2,2.4,2,1.6,12.5,10-2.8,33.2-10.6,15.9-17.3,24.7-20.4,28.6,6.2-7.2,24.5-27.3,34.2-25.7,11.8,1.9-24,61.4-24,61.4,0,0,25-36.3,38.1-30.9,13.2,5.4-11.5,51.9-11.5,51.9,0,0-10.2,25.3,2.2,32,0,0,4.3,5,21.9-17.4,17.6-22.3,16,6.5,16,6.5,0,0-.9,34.2-35.9,63.5-35,29.3-38.5-11-38.5-11,0,0-3.2-43.6,5.6-56.5l4.5-9.8c-8.2,16.7-22.4,42.1-41,63.1,0,0-10.7,14.4-18.5,10.5-7.8-3.9,6.9-30.1,6.9-30.1,0,0,26.1-50.7,41.6-79.2l-30.5,53.7s-42.3,73.8-63.1,80.6c-13,4.3-21.4-1.6-24.1-6.5-1.7-3.1-3.8-5.6-2-18.8,2.9-21,19.8-50.6,43.9-74.8,29.8-29.9,63.5-63.4,63.5-63.4,0,0,18.9-22.6,19.4-30.9l-2-1.3h0Z"/>
  <path class="st3" d="M356,271.8c3.2-9.2.9-18.4-5.2-20.5-6.1-2.1-13.6,3.6-16.8,12.8-3.2,9.2-.9,18.4,5.2,20.5,6.1,2.1,13.6-3.6,16.8-12.8Z"/>
  <path class="st3" d="M385.8,225.6s-18.9,16.6-48.1,98.3c-28,78.1-.7,50.4,8,37.3,5.5-8.1,34.7-49,48-107.2,10.9-47.4-7.9-28.4-7.9-28.4Z"/>
  <path class="st4" d="M370.2,310.2l-29.8,57.5s9.7-13,17.2-25.1l14.2-35.2-1.5,2.8Z"/>
  <path class="st3" d="M370.5,415.3s-10.8.4-18.7,42.5c-7.9,42.2-11.2,76.2-3.5,85.4,7.8,9.2,18.5-11.1,21.1-26.2,2.6-15.2,15.2-51,10.3-87.6,0,0-.7-16.6-9.2-14h0Z"/>
  <path class="st2" d="M347.4,493.9h0s0,0,0,0c0,0,0,0,0,.1,0,.1,0,.3,0,.5,0,.5.2,1.2.3,2.1.2,1.9.5,4.9.8,8.9.4,7.8.6,19.7-.6,36.1-.1-.2-.2-.5-.4-.8-.7-1.4-1.5-3.4-2.3-6.3-1.6-5.7-2.9-14.6-1.8-27,.5-6.3,1.1-10.2,1.6-12.7.3-1.2.5-2,.8-2.6.3-.5.4-.7.5-.7t0,0s0,0,0,0c0,0,0,0,.2.1.1.2.3.4.4.8.1.3.2.6.3.9,0,.1,0,.2,0,.3,0,0,0,0,0,0h0Z"/>
  <path class="st3" d="M475.9,290.7s140.7-84,96.9-105.7c-43.8-21.8-144.9,78.9-144.9,78.9,0,0,57.5-57,39.2-68.6,0,0-6.6-5.1-17.6,2.7,0,0-75.1,64.7-101.1,178,0,0-8.3,28.1,10.2,24.2,18.6-3.9,34.9-29.2,44.4-90.9,0,0-19.8,110.9,61.7,96.1,81.6-14.8,84.7-49,84.7-49,0,0,9.2-13.7-25.8-19.6-35-5.9-77.9-6.9-99.9-36,0,0,.7,10.8,52.1-10.1h0Z"/>
  <path class="st4" d="M450,338.7l-8.5-21.7,12.8,5.9-4.3,15.8Z"/>
  <path class="st4" d="M493,352l-9.9-20.9,14.9,1.8-4.9,19.1Z"/>
  <path class="st2" d="M471.2,328.4l.9,5.4-3.8-5.7,3,.4Z"/>
  <path class="st1" d="M498.9,333.5l-1.4,6-2.2-6.6,3.6.6Z"/>
  <path class="st4" d="M350.4,398.8s2.2-14.8,15.3-20.8l-10.8,21.8-4.6-.9h0Z"/>
  <path class="st2" d="M474.4,403s0,0,0,0c.4-.6,1.1-1.5,1.9-2.6,1.7-2.1,4-5,7-7.9,5.5-5.6,13-11.4,21.1-13.3l-22.9,22.3-7,1.5Z"/>
  <path class="st3" d="M402.1,397.1s-19.8,7.1-33.2,111.4c-11.2,87.4,4.7,80.7,13.9,71.2,3.2-3.3,5.7-7.2,7.6-11.4,5-11.3,18.1-42.7,18.7-67.5,0,0,9.2,74.7,26.2,79.1,17,4.4,28.8-51,28.8-51,0,0,24.4-89.8,8.9-120.1-8.7-17.1-20.5-7.9-29.1,3.4-6.8,8.9-11.6,19-14.3,29.8l-5.1,19.9c-.2.8-1.3.6-1.3-.1-.1-18.2-2.1-75.4-21.1-64.8h0Z"/>
  <path class="st0" d="M401.2,456.9l7.9,44.2"/>
  <path class="st3" d="M544.2,379s-24.1-16.9-51.4,8.6c-11,10.3-17.5,24.5-18.6,39.5-.9,12.4.1,29.5,7.8,49,7.2,18.1,5.1,31.2.8,40-3.8,7.8-10.8,13.6-19,16.4-8.6,2.8-23.9,9.9-27.3,24.8-1.5,6.7,1.7,13.6,7.9,16.6,7.8,3.8,22.4,5,49.1-6.7,50.3-22.2,29.2-83.2,29.2-83.2,0,0-15.9-39.2,5.5-55.8,14.8-11.5,31-7.4,29.9-25.1-1.1-17.7-14-24-14-24Z"/>
  <path class="st3" d="M459.5,342.3c-2.7,3.7-8.5,2.1-9-2.4-1-8.6-2.2-19.5,1.9-33.6,6.5-22.5,14.4-37.7,24.7-37.6,10.3,0,8,27.1,8,27.1l-4,19.9s7.1-43.7,23.9-48.5c13.3-3.8,14.6,14.3,16.1,17.4.7,1.6,1,3.3.8,5-1.1,9.2-3.9,73-20.9,71-21.8-2.7,0-73.3,0-73.3,0,0-14.7,47.3-23.8,50.1-9.1,2.9-6.1-29.4-3.8-40.9,0,0-4.5,32.9-13.9,45.8h0Z"/>
  <path class="st5" d="M532.1,315.4s-22.5,20.2-15.6,33.8c6.9,13.6,31.3-33.6,33.7-38.5,2.3-5,18.2-41.6,7.5-54.3-1.4-1.7-3.8-2.1-5.7-.9-4.2,2.7-10.9,12.3-15,45.9,0,0,0-53.4-21.3-44.7-16.4,6.7,19.1,63.1,19.1,63.1"/>
  <g class="st6">
    <path class="st7" d="M557.6,256.3l-.7.6h0s.7-.6.7-.6ZM551.9,255.4l-.5-.8h0s.5.8.5.8ZM536.9,301.3h-.9s1.8.1,1.8.1h-.9ZM515.6,256.5l.3.8h0l-.3-.8ZM532.1,315.4q-.6-.7-.6-.7h0s0,0,0,0c0,0,0,0,0,0,0,0-.1,0-.2.2-.2.2-.4.4-.7.7-.6.6-1.5,1.4-2.5,2.5-2,2.1-4.7,5.1-7.1,8.5-2.4,3.4-4.7,7.3-5.8,11.2-1.2,3.9-1.3,8,.5,11.7l1.6-.8c-1.6-3.1-1.5-6.7-.4-10.4,1.1-3.7,3.2-7.4,5.6-10.7,2.3-3.3,4.9-6.2,6.9-8.3,1-1,1.8-1.9,2.4-2.4.3-.3.5-.5.7-.7,0,0,.1-.1.2-.2,0,0,0,0,0,0,0,0,0,0,0,0h0s0,0-.6-.7ZM515.6,349.6c1,1.9,2.4,2.9,4.1,3,1.7,0,3.4-.9,5.1-2.2,3.4-2.7,7.3-7.6,10.9-12.9,7.3-10.8,14-23.9,15.2-26.4l-1.6-.8c-1.2,2.5-7.8,15.5-15.1,26.1-3.6,5.4-7.3,10-10.5,12.5-1.6,1.3-2.9,1.8-4,1.8-.9,0-1.8-.5-2.5-2l-1.6.8ZM550.9,311c1.2-2.5,5.8-13,8.7-24.4,1.5-5.7,2.5-11.7,2.6-17.1,0-5.4-1-10.3-3.9-13.7l-1.4,1.2c2.5,2.9,3.5,7.4,3.5,12.6,0,5.2-1.1,11-2.5,16.7-2.9,11.3-7.4,21.6-8.6,24.1l1.6.8ZM558.3,255.7c-1.7-2-4.6-2.5-6.9-1.1l.9,1.5c1.5-.9,3.4-.6,4.6.8l1.4-1.1ZM551.4,254.6c-2.3,1.5-5.2,4.8-7.9,11.8-2.8,7-5.5,17.9-7.5,34.7l1.8.2c2.1-16.7,4.7-27.4,7.4-34.3,2.7-6.9,5.3-9.7,7.2-10.9l-1-1.5ZM536.9,301.3q.9,0,.9,0h0v-.6c0-.4,0-1,0-1.7,0-1.5-.1-3.5-.3-6-.3-4.9-1-11.3-2.3-17.5-1.3-6.2-3.4-12.2-6.5-16.1-1.6-2-3.5-3.5-5.7-4.2-2.3-.7-4.8-.6-7.6.6l.7,1.7c2.5-1,4.6-1.1,6.4-.5,1.8.6,3.4,1.8,4.8,3.6,2.9,3.6,4.8,9.3,6.1,15.4,1.3,6.1,2,12.4,2.3,17.3.2,2.4.2,4.5.3,5.9,0,.7,0,1.3,0,1.7v.4h0q0,.1.9.1ZM515.2,255.7c-2.4,1-3.8,2.8-4.4,5.2-.7,2.4-.6,5.3,0,8.4,1,6.4,4,14.1,7.4,21.6,3.4,7.5,7.4,14.8,10.4,20.2,1.5,2.7,2.9,4.9,3.8,6.5.5.8.8,1.4,1.1,1.8.1.2.2.4.3.5,0,0,0,0,0,.1,0,0,0,0,0,0h0s0,0,.8-.5q.8-.5.8-.5h0s0,0,0,0c0,0,0,0,0,0,0,0,0,0,0-.1,0-.1-.2-.3-.3-.5-.3-.4-.6-1-1.1-1.8-.9-1.5-2.3-3.8-3.8-6.5-3.1-5.4-7-12.6-10.4-20.1-3.4-7.5-6.2-15-7.2-21.2-.5-3.1-.5-5.7,0-7.7.5-2,1.6-3.3,3.4-4l-.7-1.7Z"/>
  </g>
  <path class="st0" d="M532.1,315.4s-22.5,20.2-15.6,33.8c6.9,13.6,31.3-33.6,33.7-38.5,2.3-5,18.2-41.6,7.5-54.3-1.4-1.7-3.8-2.1-5.7-.9-4.2,2.7-10.9,12.3-15,45.9,0,0,0-53.4-21.3-44.7-16.4,6.7,19.1,63.1,19.1,63.1"/>
  <path class="st3" d="M381.9,396.9c5.9-10.3,5.6-21.5-.6-25.1-6.3-3.6-16.2,1.8-22.1,12-5.9,10.3-5.6,21.5.6,25.1,6.3,3.6,16.2-1.8,22.1-12Z"/>
  <path class="st2" d="M474,436.7l2.3,23.9-2.5,17.8c-.4-.7-.7-1.7-.9-2.8-.4-1.7-.6-3.8-.8-6.1-.3-4.7,0-10.3.3-15.8.4-5.4.9-10.7,1.3-14.5.1-.9.2-1.7.3-2.5Z"/>
  <path class="st3" d="M325.8,394.6s-80.2,68.4-97.6,153c0,0-3,23.3,20.3,5.5,20.1-15.4,51.4-58.9,59.4-70.4.6-.8,1.8-.4,1.8.6-.5,10.2-1.7,41,.2,62,.5,5.7,1.8,12.2,4,17.4,4.1,9.5,16.5,13.1,21-1,5-15.3,13.9-50.3,16.7-113.6,3.3-73.9-25.9-53.6-25.9-53.6h0ZM313,466.1s-11.5,8.5-7.4-9.2c2.7-11.8,17.2-24.4,26.6-31.6-.2,11-3.5,27.6-19.2,40.8Z"/>
  <path class="st0" d="M332.4,425.6c.1-5.9-.9-9.8-.9-9.8"/>
</svg>