<svg width="81" height="6" viewBox="0 0 81 6" fill="none" xmlns="http://www.w3.org/2000/svg">
<path fill-rule="evenodd" clip-rule="evenodd" d="M80.4791 1.67626C64.5244 0.199048 48.2999 1.01612 32.305 0.75014C21.7283 0.572186 11.1509 0.143555 0.581936 4.29205e-05C0.265062 -0.00378406 0.00445267 0.24879 5.16351e-05 0.566429C-0.00415805 0.884069 0.249568 1.14431 0.566251 1.14814C11.1341 1.29165 21.7103 1.72028 32.2858 1.89824C48.252 2.16421 64.4459 1.34523 80.3719 2.82053C80.6876 2.84923 80.967 2.61771 80.9976 2.30198C81.0263 1.98625 80.7929 1.70688 80.4791 1.67626Z" fill="#FC5E3B"/>
<path fill-rule="evenodd" clip-rule="evenodd" d="M0.520938 4.78141C16.4756 3.21153 32.7001 4.07985 48.695 3.79719C59.2717 3.60808 69.8491 3.15256 80.4181 3.00005C80.7349 2.99598 80.9955 3.26439 80.9999 3.60196C81.0042 3.93952 80.7504 4.21609 80.4337 4.22015C69.8659 4.37267 59.2897 4.82818 48.7142 5.0173C32.748 5.29996 16.5541 4.4296 0.628081 5.99744C0.312355 6.02795 0.0330045 5.7819 0.0023886 5.44637C-0.0263138 5.11084 0.207125 4.81394 0.520938 4.78141Z" fill="#FC5E3B"/>
</svg>
