<svg width="221" height="16" viewBox="0 0 221 16" fill="none" xmlns="http://www.w3.org/2000/svg">
<path fill-rule="evenodd" clip-rule="evenodd" d="M132.262 7.30784C102.85 7.59202 73.4247 8.71935 44.1417 10.7344C30.2196 11.6926 14.0519 11.5729 0.549188 14.8397C-0.123617 15.0041 0.00451675 15.4973 0.0190796 15.5467C0.0482054 15.6476 0.170565 15.9835 0.706478 15.9999C0.76473 16.0023 1.17537 15.9553 1.33265 15.9389C5.31997 15.5161 9.29273 15.0229 13.283 14.6237C27.0594 13.2404 40.8767 12.1953 54.7143 11.2793C73.081 10.0628 91.605 9.41453 110.021 8.90723C120.102 8.6301 130.424 8.99882 140.536 8.42576C144.25 8.40932 147.963 8.40702 151.677 8.41642C167.201 8.46104 182.707 8.93545 198.205 9.586C203.189 9.79503 206.99 10.0205 211.868 10.1731C213.72 10.2319 216.659 10.2718 218.704 10.2976C219.004 10.3023 219.77 10.307 220.087 10.3093C220.119 10.314 220.151 10.314 220.186 10.314C220.309 10.314 220.367 10.307 220.379 10.307C221.072 10.2248 221.008 9.69636 220.99 9.61651C220.987 9.60007 220.883 9.15383 220.285 9.13739C220.143 9.13269 219.12 9.12804 218.727 9.12334C216.694 9.09751 213.767 9.05758 211.923 9.00121C207.054 8.84855 203.256 8.62309 198.281 8.41407C182.76 7.76351 167.23 7.28675 151.683 7.24213C149.784 7.23743 147.882 7.23508 145.983 7.23743C145.919 7.10356 145.776 6.95325 145.461 6.88749C145.167 6.82643 143.061 6.77242 142.249 6.7184C136.234 6.31915 136.412 6.33793 129.795 6.01148C119.772 5.51593 118.246 5.40315 107.822 5.19412C88.8875 4.81366 69.9442 4.84423 51.0066 4.8818C41.6573 4.90294 31.6467 5.41257 22.1546 4.4614C25.2827 4.16548 28.4225 3.94941 31.5564 3.70281C42.2572 2.86202 52.9668 2.34062 63.7113 1.97424C89.4846 1.09587 115.299 0.745962 141.063 1.94373C135.579 1.98601 130.098 2.08462 124.613 2.14803C102.288 2.41107 79.7479 2.21381 57.4696 3.57833C57.0706 3.60417 56.7706 3.88598 56.7997 4.20773C56.8289 4.53184 57.1813 4.77375 57.5803 4.75027C79.8294 3.38575 102.338 3.58536 124.634 3.32232C132.917 3.22603 141.197 3.05225 149.481 3.10392C152.323 3.1227 155.166 3.20727 158.009 3.23545C158.571 3.2425 160.018 3.33174 160.225 3.29416C160.683 3.21196 160.781 2.93951 160.811 2.80564C160.825 2.72579 160.872 2.26547 160.173 2.10107C155.402 0.978452 146.597 1.03012 141.96 0.809355C115.878 -0.435389 89.7439 -0.0878092 63.6501 0.799952C52.8794 1.16868 42.1437 1.69244 31.4137 2.53558C27.6652 2.82915 23.908 3.0828 20.1741 3.47266C19.5712 3.53607 18.2169 3.62768 17.5615 3.72397C17.2878 3.7639 17.0897 3.82022 17.0023 3.86015C16.6615 4.01516 16.6004 4.24062 16.6004 4.39328C16.5975 4.51071 16.6586 4.92406 17.3722 5.03679C28.2449 6.7536 40.0757 6.07958 51.0095 6.05609C69.9354 6.01851 88.8643 5.98794 107.787 6.36841C118.185 6.57743 119.705 6.68787 129.707 7.18342C130.695 7.23039 131.531 7.27261 132.262 7.30784Z" fill="#FC5E3B"/>
</svg>
