<svg width="84" height="12" viewBox="0 0 84 12" fill="none" xmlns="http://www.w3.org/2000/svg">
<path fill-rule="evenodd" clip-rule="evenodd" d="M22.3889 6.81831C18.78 7.8646 14.6134 8.90587 10.6051 9.16587C7.17916 9.38778 3.86999 9.0431 1.16139 7.57659C0.779579 7.3701 0.301443 7.51205 0.0949535 7.89418C-0.111851 8.276 0.0304242 8.75415 0.41224 8.96095C3.36699 10.5603 6.96983 10.9786 10.7068 10.7363C14.7872 10.4719 19.029 9.42365 22.7102 8.36225C23.1374 9.22755 24.0219 10.0343 25.58 10.6295C27.9732 11.5439 31.2408 11.5326 34.6831 11.0173C39.6757 10.2704 45.0463 8.4891 48.4994 7.22341C48.641 7.17179 48.8519 7.08964 49.11 6.98136C49.1887 7.15511 49.2768 7.32635 49.3744 7.49444C50.2211 8.95938 51.7195 10.1439 53.2461 10.5669C62.9284 13.2494 74.2287 10.0353 83.4294 7.41951C83.8449 7.30084 84.0873 6.86522 83.9708 6.44752C83.8512 6.02982 83.4168 5.78713 82.9982 5.90579C74.0556 8.44851 63.0764 11.6566 53.6647 9.05002C52.5064 8.72895 51.3795 7.81865 50.7374 6.70688C50.665 6.58286 50.602 6.45601 50.5422 6.32727C51.8107 5.69867 53.3028 4.82236 54.1054 3.88434C54.9301 2.92272 55.1347 1.89625 54.417 0.926762C53.8001 0.0979717 52.8652 0.0274618 51.8926 0.457123C50.8444 0.917317 49.7647 1.99318 49.4153 2.49808C48.7606 3.44113 48.5529 4.46414 48.6725 5.46165C48.364 5.59196 48.1135 5.68891 47.9589 5.74557C44.5814 6.98324 39.332 8.73023 34.4502 9.46081C31.3091 9.93108 28.3254 9.99371 26.1416 9.15956C25.2101 8.80356 24.5948 8.38807 24.2608 7.90584C24.9199 7.7088 25.5555 7.51489 26.1626 7.32981C27.3635 6.96373 29.8637 6.35781 31.65 5.27783C33.0706 4.41914 34.0338 3.25102 33.9778 1.78671C33.9491 1.03441 33.5138 0.532344 32.821 0.250939C31.7857 -0.169279 29.9953 0.0340584 29.3286 0.175705C27.3065 0.604422 24.6077 2.3791 23.2724 4.37884C22.7395 5.17678 22.4225 6.01155 22.3889 6.81831ZM24.0499 6.32663C24.6212 6.15477 25.1733 5.98605 25.7037 5.82426C26.8246 5.48242 29.1677 4.93943 30.8357 3.93091C31.719 3.39706 32.4401 2.75746 32.4052 1.84683C32.4023 1.776 32.3321 1.75586 32.2701 1.7269C32.1741 1.68252 32.0643 1.65198 31.9472 1.62806C31.1549 1.46627 30.0907 1.6227 29.655 1.71524C27.9584 2.07503 25.7015 3.57491 24.5812 5.25295C24.3445 5.60738 24.156 5.96843 24.0499 6.32663ZM50.2274 4.73705C50.9672 4.35649 51.7415 3.89629 52.3521 3.39549C52.6764 3.12951 52.9502 2.85598 53.1233 2.57206C53.2681 2.33724 53.3248 2.09674 53.1517 1.86444C53.0824 1.77033 52.9785 1.76845 52.8715 1.78608C52.7582 1.80496 52.6417 1.84524 52.5253 1.89718C51.7572 2.23524 50.964 3.02501 50.7091 3.39549C50.41 3.82515 50.2621 4.27969 50.2274 4.73705Z" fill="#FC5E3B"/>
</svg>
