<svg width="22" height="21" viewBox="0 0 22 21" fill="none" xmlns="http://www.w3.org/2000/svg">
<path d="M9.17263 2.00849C9.62166 0.626523 11.5768 0.626524 12.0258 2.00849L13.1322 5.41356C13.4669 6.44361 14.4268 7.14102 15.5098 7.14102H19.0901C20.5432 7.14102 21.1474 9.00044 19.9718 9.85454L17.0753 11.959C16.1991 12.5956 15.8324 13.724 16.1671 14.7541L17.2735 18.1591C17.7225 19.5411 16.1408 20.6903 14.9652 19.8362L12.0687 17.7317C11.1925 17.0951 10.006 17.0951 9.12976 17.7317L6.23323 19.8362C5.05766 20.6903 3.47594 19.5411 3.92497 18.1591L5.03134 14.7541C5.36603 13.724 4.99938 12.5956 4.12316 11.959L1.22664 9.85454C0.0510678 9.00044 0.655231 7.14102 2.10832 7.14102H5.68862C6.77168 7.14102 7.73157 6.44362 8.06626 5.41356L9.17263 2.00849Z" fill="white" stroke="black"/>
</svg>
