<svg width="22" height="21" viewBox="0 0 22 21" fill="none" xmlns="http://www.w3.org/2000/svg">
<path d="M9.49789 1.8541C10.0966 0.0114822 12.7034 0.0114808 13.3021 1.8541L14.4085 5.25917C14.6762 6.08322 15.4441 6.64114 16.3106 6.64114H19.8909C21.8283 6.64114 22.6339 9.12037 21.0665 10.2592L18.1699 12.3636C17.469 12.8729 17.1757 13.7756 17.4434 14.5997L18.5498 18.0048C19.1485 19.8474 17.0395 21.3796 15.4721 20.2408L12.5756 18.1364C11.8746 17.6271 10.9254 17.6271 10.2244 18.1364L7.3279 20.2408C5.76048 21.3796 3.65152 19.8474 4.25022 18.0048L5.35659 14.5997C5.62434 13.7756 5.33103 12.8729 4.63005 12.3636L1.73353 10.2592C0.1661 9.12037 0.971651 6.64114 2.9091 6.64114H6.4894C7.35585 6.64114 8.12376 6.08322 8.39151 5.25917L9.49789 1.8541Z" fill="black"/>
</svg>
