<svg width="185" height="37" viewBox="0 0 185 37" fill="none" xmlns="http://www.w3.org/2000/svg">
<path d="M16.5979 5.8541C17.1966 4.01148 19.8034 4.01148 20.4021 5.8541L22.2045 11.4012C22.4722 12.2253 23.2401 12.7832 24.1066 12.7832H29.9392C31.8766 12.7832 32.6822 15.2624 31.1147 16.4012L26.3961 19.8295C25.6951 20.3388 25.4018 21.2415 25.6695 22.0656L27.4719 27.6127C28.0706 29.4553 25.9617 30.9876 24.3942 29.8488L19.6756 26.4205C18.9746 25.9112 18.0254 25.9112 17.3244 26.4205L12.6058 29.8488C11.0383 30.9876 8.92938 29.4553 9.52809 27.6127L11.3305 22.0656C11.5982 21.2415 11.3049 20.3388 10.6039 19.8295L5.88525 16.4012C4.31782 15.2624 5.12337 12.7832 7.06082 12.7832H12.8934C13.7599 12.7832 14.5278 12.2253 14.7955 11.4012L16.5979 5.8541Z" fill="black"/>
<path d="M53.5979 5.8541C54.1966 4.01148 56.8034 4.01148 57.4021 5.8541L59.2045 11.4012C59.4722 12.2253 60.2401 12.7832 61.1066 12.7832H66.9392C68.8766 12.7832 69.6822 15.2624 68.1147 16.4012L63.3961 19.8295C62.6951 20.3388 62.4018 21.2415 62.6695 22.0656L64.4719 27.6127C65.0706 29.4553 62.9617 30.9876 61.3942 29.8488L56.6756 26.4205C55.9746 25.9112 55.0254 25.9112 54.3244 26.4205L49.6058 29.8488C48.0383 30.9876 45.9294 29.4553 46.5281 27.6127L48.3305 22.0656C48.5982 21.2415 48.3049 20.3388 47.6039 19.8295L42.8853 16.4012C41.3178 15.2624 42.1234 12.7832 44.0608 12.7832H49.8934C50.7599 12.7832 51.5278 12.2253 51.7955 11.4012L53.5979 5.8541Z" fill="black"/>
<path d="M90.5979 5.8541C91.1966 4.01148 93.8034 4.01148 94.4021 5.8541L96.2045 11.4012C96.4722 12.2253 97.2401 12.7832 98.1066 12.7832H103.939C105.877 12.7832 106.682 15.2624 105.115 16.4012L100.396 19.8295C99.6951 20.3388 99.4018 21.2415 99.6695 22.0656L101.472 27.6127C102.071 29.4553 99.9617 30.9876 98.3942 29.8488L93.6756 26.4205C92.9746 25.9112 92.0254 25.9112 91.3244 26.4205L86.6058 29.8488C85.0383 30.9876 82.9294 29.4553 83.5281 27.6127L85.3305 22.0656C85.5982 21.2415 85.3049 20.3388 84.6039 19.8295L79.8853 16.4012C78.3178 15.2624 79.1234 12.7832 81.0608 12.7832H86.8934C87.7599 12.7832 88.5278 12.2253 88.7955 11.4012L90.5979 5.8541Z" fill="black"/>
<path d="M127.598 5.8541C128.197 4.01148 130.803 4.01148 131.402 5.8541L133.204 11.4012C133.472 12.2253 134.24 12.7832 135.107 12.7832H140.939C142.877 12.7832 143.682 15.2624 142.115 16.4012L137.396 19.8295C136.695 20.3388 136.402 21.2415 136.67 22.0656L138.472 27.6127C139.071 29.4553 136.962 30.9876 135.394 29.8488L130.676 26.4205C129.975 25.9112 129.025 25.9112 128.324 26.4205L123.606 29.8488C122.038 30.9876 119.929 29.4553 120.528 27.6127L122.33 22.0656C122.598 21.2415 122.305 20.3388 121.604 19.8295L116.885 16.4012C115.318 15.2624 116.123 12.7832 118.061 12.7832H123.893C124.76 12.7832 125.528 12.2253 125.796 11.4012L127.598 5.8541Z" fill="black"/>
<path d="M164.598 5.8541C165.197 4.01148 167.803 4.01148 168.402 5.8541L170.204 11.4012C170.472 12.2253 171.24 12.7832 172.107 12.7832H177.939C179.877 12.7832 180.682 15.2624 179.115 16.4012L174.396 19.8295C173.695 20.3388 173.402 21.2415 173.67 22.0656L175.472 27.6127C176.071 29.4553 173.962 30.9876 172.394 29.8488L167.676 26.4205C166.975 25.9112 166.025 25.9112 165.324 26.4205L160.606 29.8488C159.038 30.9876 156.929 29.4553 157.528 27.6127L159.33 22.0656C159.598 21.2415 159.305 20.3388 158.604 19.8295L153.885 16.4012C152.318 15.2624 153.123 12.7832 155.061 12.7832H160.893C161.76 12.7832 162.528 12.2253 162.796 11.4012L164.598 5.8541Z" fill="black"/>
</svg>
