<svg width="253" height="233" viewBox="0 0 253 233" fill="none" xmlns="http://www.w3.org/2000/svg">
<g filter="url(#filter0_d_144_6415)">
<path d="M247.944 111.733C245.528 117.936 238.431 112.402 233.016 116.265C227.6 120.128 230.747 124.542 225.331 128.405C219.916 132.268 216.767 127.855 211.351 131.718C205.935 135.581 209.082 139.995 203.666 143.858C198.249 147.722 195.102 143.308 189.685 147.172C184.269 151.035 187.417 155.449 182.001 159.312C176.585 163.175 173.436 158.762 168.021 162.625C162.605 166.488 165.752 170.902 160.336 174.765C154.921 178.628 151.772 174.215 146.355 178.079C140.939 181.942 144.087 186.355 138.671 190.218C133.254 194.082 130.106 189.669 124.691 193.532C119.275 197.395 122.422 201.809 117.006 205.672C111.59 209.535 108.442 205.122 103.025 208.986C97.6083 212.849 100.756 217.262 95.3395 221.126C89.9229 224.99 89.4716 223.674 82.8195 223.941C78.4733 224.114 78.2001 224.671 75.6709 221.125C73.1416 217.579 77.5435 214.433 75.0163 210.89C72.4891 207.347 68.0798 210.482 65.5526 206.939C63.0254 203.396 67.4252 200.248 64.898 196.705C62.3708 193.162 57.9615 196.297 55.4343 192.754C52.9071 189.211 57.3069 186.063 54.7797 182.52C52.2525 178.977 47.8432 182.112 45.316 178.569C42.7889 175.026 47.1886 171.877 44.6607 168.333C42.1329 164.789 37.7242 167.925 35.1971 164.382C32.6699 160.839 37.0697 157.691 34.5418 154.147C32.0139 150.603 27.6053 153.739 25.0781 150.196C22.5509 146.653 26.9507 143.504 24.4235 139.961C21.8963 136.418 17.487 139.553 14.9591 136.009C12.4313 132.465 16.8317 129.318 14.3038 125.774C11.776 122.23 2.93802 123.314 4.51989 119.264C6.93574 113.06 14.0323 118.594 19.448 114.731C24.8637 110.868 21.7168 106.454 27.1324 102.592C32.5481 98.7286 35.697 103.141 41.1127 99.2781C46.5283 95.4152 43.3814 91.0013 48.798 87.1377C54.2147 83.2741 57.3616 87.6879 62.7783 83.8243C68.1949 79.9607 65.047 75.5475 70.4627 71.6846C75.8784 67.8217 79.0272 72.2341 84.4429 68.3712C89.8586 64.5083 86.7117 60.0944 92.1273 56.2315C97.543 52.3686 100.692 56.781 106.109 52.9174C111.525 49.0538 108.376 44.6413 113.793 40.7777C119.21 36.9141 122.357 41.3272 127.773 37.4643C133.189 33.6013 130.042 29.1875 135.458 25.3246C140.873 21.4616 144.022 25.8741 149.439 22.0105C154.855 18.1469 151.708 13.7337 157.124 9.87009C162.541 6.00647 162.992 7.32173 169.644 7.05546C173.99 6.8822 174.264 6.32545 176.793 9.87133C179.322 13.4172 174.92 16.5627 177.447 20.1057C179.975 23.6487 184.384 20.5137 186.911 24.0568C189.438 27.5997 185.038 30.7482 187.566 34.2912C190.093 37.8342 194.502 34.6992 197.029 38.2422C199.557 41.7852 195.157 44.9336 197.684 48.4766C200.211 52.0196 204.62 48.8846 207.148 52.4276C209.675 55.9706 205.275 59.1191 207.803 62.663C210.331 66.207 214.739 63.071 217.267 66.614C219.794 70.157 215.394 73.3054 217.922 76.8494C220.45 80.3933 224.858 77.2574 227.386 80.8004C229.913 84.3434 225.513 87.4918 228.04 91.0348C230.567 94.5778 234.977 91.4428 237.505 94.9868C240.032 98.5308 235.264 103.099 238.702 105.78C243.407 109.467 249.522 107.676 247.944 111.733Z" fill="#2882FF"/>
<path d="M241.561 111.895C239.264 117.773 232.543 112.54 227.406 116.205C222.268 119.87 225.245 124.046 220.108 127.711C214.97 131.376 211.99 127.2 206.853 130.865C201.715 134.53 204.692 138.706 199.554 142.372C194.415 146.037 191.437 141.861 186.298 145.526C181.16 149.191 184.138 153.367 179 157.032C173.863 160.697 170.883 156.522 165.745 160.186C160.607 163.851 163.585 168.028 158.447 171.692C153.309 175.357 150.33 171.182 145.191 174.847C140.052 178.513 143.032 182.688 137.893 186.353C132.754 190.019 129.776 185.843 124.638 189.508C119.5 193.172 122.478 197.349 117.34 201.014C112.202 204.678 109.223 200.503 104.084 204.169C98.9453 207.834 101.924 212.01 96.7851 215.675C91.6464 219.341 91.2202 218.096 84.9146 218.355C80.7948 218.525 80.5352 219.052 78.142 215.697C75.7487 212.342 79.9247 209.358 77.5335 206.005C75.1422 202.653 70.9591 205.627 68.5678 202.274C66.1765 198.922 70.3505 195.935 67.9593 192.583C65.568 189.23 61.3849 192.204 58.9936 188.852C56.6023 185.499 60.7764 182.512 58.3851 179.16C55.9938 175.807 51.8107 178.782 49.4194 175.429C47.0282 172.077 51.2022 169.09 48.8102 165.736C46.4183 162.383 42.2359 165.358 39.8446 162.006C37.4533 158.653 41.6274 155.666 39.2354 152.313C36.8435 148.96 32.661 151.935 30.2698 148.582C27.8785 145.23 32.0525 142.243 29.6612 138.89C27.27 135.538 23.0869 138.512 20.6949 135.159C18.303 131.805 22.4777 128.819 20.0858 125.466C17.6938 122.112 9.31541 123.15 10.8195 119.311C13.1167 113.434 19.8368 118.666 24.9746 115.002C30.1124 111.337 27.1348 107.16 32.2726 103.496C37.4104 99.8309 40.3899 104.006 45.5278 100.341C50.6656 96.6766 47.6879 92.5001 52.8266 88.8347C57.9654 85.1693 60.9431 89.3458 66.0818 85.6804C71.2206 82.015 68.242 77.8392 73.3798 74.1744C78.5176 70.5097 81.4971 74.6849 86.635 71.0201C91.7728 67.3554 88.7951 63.1789 93.9329 59.5141C99.0708 55.8494 102.05 60.0246 107.189 56.3592C112.328 52.6938 109.348 48.5186 114.487 44.8532C119.626 41.1878 122.604 45.3636 127.742 41.6989C132.88 38.0341 129.902 33.8576 135.04 30.1929C140.178 26.5281 143.157 30.7034 148.296 27.038C153.435 23.3726 150.456 19.1967 155.595 15.5313C160.734 11.8659 161.16 13.111 167.466 12.8511C171.585 12.6819 171.845 12.1543 174.238 15.5095C176.632 18.8647 172.456 21.8488 174.847 25.2013C177.238 28.5538 181.421 25.5796 183.812 28.9321C186.204 32.2846 182.03 35.2715 184.421 38.624C186.812 41.9764 190.995 39.0022 193.387 42.3547C195.778 45.7072 191.604 48.6941 193.995 52.0466C196.386 55.399 200.57 52.4248 202.961 55.7773C205.352 59.1298 201.178 62.1167 203.57 65.4701C205.962 68.8235 210.144 65.8484 212.536 69.2009C214.927 72.5533 210.753 75.5402 213.145 78.8936C215.537 82.247 219.719 79.2719 222.11 82.6244C224.502 85.9769 220.328 88.9638 222.719 92.3163C225.11 95.6687 229.293 92.6946 231.685 96.0479C234.077 99.4013 229.552 103.733 232.808 106.269C237.263 109.755 243.061 108.051 241.561 111.895Z" fill="#FC5E3B"/>
<path d="M44.9207 147.575L33.5714 123.782L43.8728 116.435C46.5447 114.529 48.5447 114.441 49.8729 116.17C51.2041 117.882 52.3118 119.556 53.196 121.193C54.2573 123.035 55.0719 125.17 55.6396 127.599C56.2073 130.029 55.1499 132.2 52.4676 134.114L48.3189 137.073L51.2143 143.086L44.9207 147.575ZM45.9794 132.104L47.9363 130.708C48.3747 130.396 48.5516 129.915 48.4671 129.267C48.3826 128.619 47.9236 127.489 47.0901 125.879C46.334 124.356 45.7683 123.397 45.393 123.003C45.0207 122.592 44.6154 122.542 44.177 122.855L42.2201 124.251L45.9794 132.104ZM60.3564 136.565L52.93 109.927L62.2451 103.283L77.6402 124.237L71.2214 128.815L68.0995 123.909L64.8118 126.254L66.7596 131.998L60.3564 136.565ZM63.0448 120.995L65.221 119.442L59.8457 111.112L59.7674 111.168L63.0448 120.995ZM78.7393 123.453L67.39 99.66L77.1278 92.7142L89.2669 108.739L89.3452 108.683L80.6503 90.2016L86.9125 85.7348L98.2619 109.528L88.4458 116.529L76.0744 100.245L76.0274 100.278L84.9703 119.008L78.7393 123.453ZM99.6961 108.505L88.3467 84.7118L100.433 76.0909L102.788 81.0485L97.0111 85.1691L99.1475 89.6213L104.549 85.7687L106.819 90.5742L101.418 94.4268L103.65 99.0468L109.411 94.9373L111.782 99.8838L99.6961 108.505ZM113.12 98.9299L101.77 75.137L113.856 66.5161L116.211 71.4737L110.435 75.5943L112.571 80.0465L117.972 76.1939L120.242 80.9995L114.841 84.8521L117.074 89.472L122.835 85.3626L125.206 90.309L113.12 98.9299ZM126.715 89.2322L115.366 65.4394L126.106 57.7789C128.59 56.007 130.427 55.7907 131.619 57.1298C132.813 58.451 133.817 59.9472 134.631 61.6183C135.459 63.2642 135.981 64.9784 136.197 66.7609C136.406 68.533 135.253 70.3162 132.738 72.1103L128.448 75.1701L133.04 84.7208L126.715 89.2322ZM136.218 82.4539L128.425 73.4152L134.32 68.6665L142.841 77.7303L136.218 82.4539ZM126.401 70.8431L128.499 69.3467C128.927 69.0415 129.103 68.6482 129.027 68.1668C128.955 67.6675 128.72 67.0078 128.324 66.1879C127.927 65.3218 127.57 64.7336 127.255 64.4234C126.932 64.1028 126.556 64.0951 126.128 64.4003L124.03 65.8967L126.401 70.8431ZM63.5031 173.627L52.1538 149.834L58.4473 145.345L67.4594 164.238L72.5005 160.643L74.8378 165.542L63.5031 173.627ZM84.2254 159.082C80.2176 161.941 77.3267 162.546 75.5529 160.898C73.7894 159.243 71.9924 156.58 70.1617 152.91C68.3296 149.193 67.2923 145.973 67.0497 143.248C66.7996 140.513 68.6733 137.72 72.6707 134.869C76.6681 132.018 79.5485 131.42 81.3119 133.075C83.0858 134.723 84.8955 137.393 86.741 141.084C88.5583 144.78 89.5919 147.995 89.8419 150.73C90.095 153.447 88.2228 156.231 84.2254 159.082ZM81.8703 154.125C82.5278 153.656 82.9202 153.069 83.0473 152.364C83.1849 151.652 82.3287 149.381 80.4788 145.551C78.5723 141.62 77.3531 139.568 76.8212 139.396C76.2922 139.207 75.699 139.346 75.0415 139.815C74.3631 140.299 73.9491 140.878 73.7996 141.552C73.6502 142.225 74.5249 144.522 76.424 148.443C78.2948 152.258 79.5006 154.28 80.0414 154.508C80.5822 154.736 81.1919 154.609 81.8703 154.125ZM96.5321 150.068L81.3158 129.033L87.6563 124.511L98.6254 141.843L98.6568 141.82L91.7268 121.607L98.2082 116.984L105.706 143.524L96.5321 150.068ZM110.665 139.987L99.3154 116.194L111.401 107.574L113.757 112.531L107.98 116.652L110.116 121.104L115.517 117.251L117.788 122.057L112.386 125.909L114.619 130.529L120.38 126.42L122.751 131.366L110.665 139.987ZM124.26 130.29L112.911 106.497L123.651 98.8362C126.135 97.0644 127.973 96.848 129.164 98.1871C130.358 99.5083 131.362 101.005 132.177 102.676C133.004 104.322 133.526 106.036 133.742 107.818C133.951 109.59 132.798 111.374 130.283 113.168L125.993 116.227L130.585 125.778L124.26 130.29ZM133.763 123.511L125.97 114.473L131.866 109.724L140.386 118.788L133.763 123.511ZM123.946 111.9L126.044 110.404C126.472 110.099 126.648 109.706 126.572 109.224C126.5 108.725 126.265 108.065 125.87 107.245C125.472 106.379 125.116 105.791 124.8 105.481C124.477 105.16 124.101 105.152 123.673 105.458L121.575 106.954L123.946 111.9ZM149.478 112.444C145.471 115.302 142.7 116.121 141.168 114.899C139.627 113.667 138.339 111.972 137.304 109.813L143.613 105.313C144.515 107.174 145.19 108.109 145.638 108.12C146.08 108.12 146.566 107.931 147.099 107.551C147.631 107.171 148.016 106.762 148.255 106.324C148.497 105.868 148.435 105.251 148.069 104.473C147.646 103.594 147.083 103.224 146.379 103.363C145.686 103.496 144.612 103.821 143.155 104.34C140.078 105.37 137.945 105.679 136.754 105.268C135.574 104.85 134.51 103.744 133.56 101.949C132.588 100.233 132.08 98.2407 132.037 95.9724C132.004 93.6967 133.96 91.1518 137.906 88.3377C141.83 85.5385 144.588 84.7915 146.181 86.0965C147.773 87.4016 149.036 89.0284 149.969 90.9768L143.66 95.4771C142.787 93.6584 142.12 92.7563 141.658 92.7709C141.207 92.778 140.731 92.9603 140.23 93.3176C139.697 93.6973 139.3 94.1225 139.037 94.5933C138.778 95.0462 138.814 95.6267 139.146 96.3348C139.681 97.4171 140.288 97.8817 140.967 97.7287C141.637 97.5652 142.771 97.1896 144.367 96.602C147.423 95.5876 149.503 95.2142 150.607 95.4817C151.722 95.7418 152.757 96.8065 153.713 98.676C154.647 100.45 155.167 102.481 155.271 104.769C155.386 107.049 153.455 109.607 149.478 112.444ZM89.5405 193.275C86.7016 195.3 84.4 196.256 82.6355 196.145C80.8711 196.033 79.4285 194.795 78.3079 192.429L70.0459 175.15L76.3394 170.661L84.1907 187.099C84.6208 187.989 85.0474 188.543 85.4705 188.761C85.8936 188.979 86.4652 188.831 87.1854 188.317C87.9264 187.788 88.3202 187.248 88.3668 186.695C88.4238 186.135 88.2372 185.409 87.8071 184.519L79.9559 168.081L86.2651 163.581L94.5271 180.86C95.6477 183.226 95.8065 185.38 95.0035 187.323C94.2108 189.258 92.3898 191.242 89.5405 193.275ZM99.148 186.28L87.7986 162.487L97.5364 155.541L109.676 171.566L109.754 171.511L101.059 153.029L107.321 148.562L118.671 172.355L108.854 179.356L96.483 163.072L96.436 163.105L105.379 181.836L99.148 186.28ZM120.48 171.064L109.147 147.26L115.425 142.782L126.774 166.575L120.48 171.064ZM132.615 162.409L123.605 143.585L119.566 146.466L117.226 141.497L131.598 131.246L133.937 136.214L129.914 139.084L138.908 157.92L132.615 162.409ZM144.2 154.145L132.85 130.352L144.937 121.731L147.292 126.689L141.515 130.81L143.651 135.262L149.052 131.409L151.323 136.215L145.921 140.067L148.154 144.687L153.915 140.578L156.286 145.524L144.2 154.145Z" fill="white"/>
<path d="M206.324 105.583C205.391 103.388 201.588 102.903 197.83 104.5C194.071 106.097 191.781 109.171 192.714 111.366C193.646 113.561 197.449 114.046 201.207 112.449C204.966 110.852 207.256 107.778 206.324 105.583Z" fill="#2882FF" stroke="black" stroke-width="0.0976287" stroke-miterlimit="10"/>
<path d="M178.358 97.9655C180.739 95.7033 183.756 94.0199 187.018 93.6258C190.279 93.2318 193.772 94.2388 196.036 96.6184C199.268 100.017 198.952 105.876 195.822 109.292C194.815 110.389 193.188 111.057 191.804 110.506C190.648 110.044 189.924 108.837 189.7 107.612C189.612 107.132 189.943 104.816 189.698 104.592C189.172 104.113 187.688 105.168 187.114 105.392C185.419 106.055 183.556 106.472 181.756 105.992C180.558 105.673 179.506 104.956 178.542 104.178C178.025 103.761 177.516 103.312 177.177 102.74C176.837 102.168 176.683 101.454 176.913 100.831C177.154 100.187 177.742 99.7564 178.222 99.264C178.701 98.7716 178.617 98.6029 178.36 97.9669L178.358 97.9655Z" fill="#2882FF" stroke="black" stroke-width="0.0976287" stroke-miterlimit="10"/>
<path d="M166.064 77.8781C166.781 76.3423 167.665 74.6556 169.274 74.1285C171.968 73.2475 174.951 76.1631 177.54 75.0094C179.958 73.9314 179.904 70.2908 181.92 68.5776C183.861 66.9302 187.135 67.8836 188.502 70.0326C189.867 72.1803 189.659 75.016 188.727 77.3864C187.262 81.1104 184.081 84.1192 180.281 85.3758C176.48 86.6324 172.135 86.1139 168.738 83.9988C167.202 83.0424 165.771 81.611 165.59 79.8098L166.061 77.8779L166.064 77.8781Z" fill="#2882FF" stroke="black" stroke-width="0.0880781" stroke-miterlimit="10"/>
<path d="M166.982 76.5345C169.252 74.4796 169.427 70.9734 167.372 68.7032C165.317 66.433 161.81 66.2585 159.54 68.3134C157.27 70.3683 157.096 73.8745 159.15 76.1447C161.205 78.4149 164.712 78.5895 166.982 76.5345Z" fill="#FFB3C0" stroke="black" stroke-width="0.0848945" stroke-miterlimit="10"/>
<path d="M159.094 67.4708C159.096 67.4843 159.099 67.4991 159.103 67.514C159.228 67.9201 160.366 67.7186 160.669 67.7137C162.506 67.6901 163.535 68.3712 164.115 70.1321C164.352 70.85 164.665 71.5985 165.58 71.6187C165.853 71.6242 166.126 71.5242 166.364 71.3982C167.691 70.6886 168.356 73.1143 168.538 73.9914C168.614 73.2809 168.919 72.7318 169.051 72.0616C169.184 71.3914 169.059 70.5721 168.883 69.908C168.504 68.4754 167.6 67.1679 166.337 66.3775C164.796 65.4127 162.781 65.2442 161.099 65.9335C160.725 66.0861 159.022 66.9189 159.093 67.4694L159.094 67.4708Z" fill="#280F05"/>
<path d="M169.062 71.8229C169.062 71.8229 166.286 68.4749 162.729 68.663L158.832 67.6826C158.832 67.6826 160.191 67.242 162.222 67.216C164.129 67.1919 166.015 67.7111 167.594 68.7847C168.279 69.2522 168.653 69.6934 169.004 70.3489L169.065 71.823L169.062 71.8229Z" fill="#2882FF" stroke="black" stroke-width="0.0880781" stroke-miterlimit="10"/>
<path d="M157.771 70.6889C157.771 70.6889 152.404 69.602 154.237 67.5814C156.072 65.5609 162.725 68.6659 162.725 68.6659C162.725 68.6659 160.08 67.9979 157.771 70.6889Z" fill="#2882FF" stroke="black" stroke-width="0.0880781" stroke-miterlimit="10"/>
<path d="M167.433 72.2727C167.914 71.8365 167.952 71.0922 167.515 70.6103C167.079 70.1284 166.335 70.0914 165.853 70.5276C165.371 70.9638 165.334 71.708 165.77 72.1899C166.206 72.6718 166.951 72.7088 167.433 72.2727Z" fill="#FFB3C0"/>
<path d="M184.799 59.5217C184.384 59.406 183.909 59.5455 183.624 59.8671C183.339 60.1886 183.255 60.6779 183.418 61.0752C183.585 61.4794 183.967 61.7579 184.371 61.9224C184.775 62.087 185.21 62.1595 185.631 62.278C186.824 62.617 187.81 63.3735 188.951 63.8208C189.426 64.0076 189.87 64.1916 190.393 64.1869C190.922 64.1824 191.449 64.0335 191.913 63.7797C192.38 63.5248 192.789 63.1747 193.149 62.7833C193.327 62.5915 193.532 62.3824 193.665 62.155C193.754 62.0056 193.797 61.8419 193.889 61.6927C194.36 60.927 194.669 60.1025 194.715 59.1967C194.727 58.9539 194.719 58.6966 194.586 58.4934C194.465 58.3095 194.257 58.1949 194.044 58.1428C193.767 58.0755 193.487 58.1298 193.222 58.0363C192.956 57.9429 192.68 57.869 192.4 57.8069C191.025 57.5071 189.651 57.2073 188.274 56.9087C187.891 56.8254 187.487 56.7425 187.109 56.848C186.533 57.0093 186.167 57.5555 185.851 58.0627C185.54 58.5635 185.109 59.0168 184.798 59.5176L184.799 59.5217Z" fill="#FFB3C0" stroke="black" stroke-width="0.0328966" stroke-miterlimit="10"/>
<path d="M194.69 58.7857C194.823 58.2494 194.728 57.6602 194.433 57.1935C194.138 56.7267 193.647 56.3866 193.105 56.2781C192.354 56.1271 191.567 56.4115 190.96 56.8775C189.943 57.6574 189.353 58.9615 189.44 60.2404C189.465 60.6081 189.559 61.002 189.845 61.2342C190.177 61.5048 190.683 61.4698 191.05 61.25C191.416 61.0302 191.669 60.6616 191.875 60.2867C192.231 59.6383 192.485 58.9368 192.627 58.2096" fill="#FFB3C0"/>
<path d="M194.69 58.7857C194.823 58.2494 194.728 57.6602 194.433 57.1935C194.138 56.7267 193.647 56.3866 193.105 56.2781C192.354 56.1271 191.567 56.4115 190.96 56.8775C189.943 57.6574 189.353 58.9615 189.44 60.2404C189.465 60.6081 189.559 61.002 189.845 61.2342C190.177 61.5048 190.683 61.4698 191.05 61.25C191.416 61.0302 191.669 60.6616 191.875 60.2867C192.231 59.6383 192.485 58.9368 192.627 58.2096" stroke="black" stroke-width="0.0328966" stroke-miterlimit="10"/>
<path d="M191.749 67.6749C191.57 66.7205 193.308 66.4057 193.502 65.4537C193.507 65.4286 193.512 65.4034 193.515 65.3782C193.852 63.2844 190.714 59.8716 189.033 59.0443C185.705 57.4089 181.835 58.7356 180.285 62.1184C178.245 66.5695 184.9 80.3179 175.001 78.9131C171.617 78.4317 168.406 77.4039 165.223 76.7586C163.495 76.4092 161.683 76.8058 160.31 77.909C160.301 77.9167 160.293 77.9243 160.283 77.9305C158.07 79.7302 157.336 82.7644 157.005 85.5993C156.675 88.433 156.368 90.4921 155.421 93.184C154.433 96.0023 153.99 99.0096 154.128 101.994C154.139 102.231 154.156 102.47 154.178 102.71C154.599 103.843 155.159 104.875 156.279 105.871C157.038 106.545 157.885 106.904 158.777 107.042C161.374 107.443 164.342 105.947 166.505 104.761C168.357 103.748 170.052 102.404 171.918 101.436C174.021 100.345 176.294 99.5031 178.441 98.5079C180.336 97.6285 180.329 94.9413 178.823 93.6439C178.165 93.0775 177.312 92.8077 176.519 92.4526C175.442 91.9724 174.445 91.3156 173.577 90.5194C173.147 90.1262 172.13 88.3944 171.683 88.2691C173.004 88.6372 174.223 89.206 175.612 89.4062C178.732 89.8558 184.076 88.6934 186.754 86.6386C186.754 86.6386 194.472 82.2789 191.746 67.6748L191.749 67.6749Z" fill="#2882FF" stroke="black" stroke-width="0.0530591" stroke-miterlimit="10"/>
<path d="M176.644 56.0521C175.271 54.7466 172.814 53.541 172.037 52.9727C168.801 50.7373 166.112 47.9393 163.148 45.5569C161.419 44.1668 159.595 42.9205 157.514 42.0065C154.988 40.8964 152.402 40.3705 149.638 40.2276C146.828 40.0824 142.79 41.2308 140.235 42.6337C140.082 42.7184 139.935 42.8033 139.793 42.8886C137.059 44.5406 134.687 46.9958 133.704 50.0284C133.673 50.1231 133.642 50.2192 133.613 50.3167C132.304 54.7989 135.088 58.8561 137.799 62.1634C140.45 65.3996 144.747 67.3427 148.942 66.8882C156.59 66.0611 162.33 58.472 170.012 58.0598C171.381 57.9849 174.858 59.2172 176.561 58.8485C176.885 58.7764 177.147 58.6464 177.315 58.4381C177.509 58.1963 177.597 57.9465 177.597 57.6911C177.598 57.6042 177.587 57.5141 177.568 57.4248C177.467 56.9704 177.121 56.5038 176.644 56.0521ZM161.161 48.6478C164.678 53.3782 161.836 58.6547 157.499 61.1097C152.718 63.9826 145.882 64.4248 141.062 60.5016L141.031 60.4786C140.683 60.2019 140.351 59.9018 140.036 59.5852C137.757 57.2958 136.372 54.037 136.885 50.9811C137.824 45.8426 143.122 44.0105 148.032 43.7601C152.292 43.5815 156.909 44.3757 160.078 47.4343C160.46 47.8065 160.823 48.2097 161.161 48.6478Z" fill="#FC5E3B" stroke="black" stroke-width="0.106118" stroke-miterlimit="10"/>
<path d="M179.92 56.1472L179.93 56.1812C180.148 56.7511 180.029 58.1736 179.407 58.0356C179.158 57.9349 178.936 57.4224 178.652 56.9401C178.652 56.9401 178.652 56.9401 178.651 56.9387C178.602 56.856 178.551 56.7719 178.498 56.693C178.334 56.4509 178.138 56.2364 177.916 56.0448C177.745 55.9146 177.569 55.7855 177.391 55.6616C176.372 54.9502 175.251 54.3314 174.244 53.6179C173.219 52.9275 172.207 52.2178 171.217 51.4784C169.463 50.2169 167.872 48.7521 166.253 47.3287C165.402 46.5802 164.545 45.8421 163.653 45.149C163.125 44.7402 162.585 44.3469 162.027 43.9754C156.81 40.5875 149.909 39.1594 143.848 41.0324C143.283 41.2102 142.73 41.4154 142.198 41.6391C141.655 41.8608 141.238 42.0781 141.102 42.0459C141.16 41.9927 141.222 41.9369 141.289 41.8814L141.29 41.8801C142.14 41.1828 143.686 40.4733 144.703 40.1388C149.539 38.5137 154.961 39.0992 159.624 41.0271C161.612 41.8055 163.361 42.9545 165.012 44.2471C165.94 44.9767 166.837 45.7502 167.73 46.5316C169.088 47.7226 170.437 48.9306 171.86 50.0166C173.379 51.1822 174.957 52.2718 176.558 53.3171C177.259 53.7827 177.99 54.2095 178.685 54.6815C178.727 54.7117 178.769 54.7405 178.81 54.772C179.303 55.1255 179.744 55.5728 179.918 56.1485L179.92 56.1472Z" fill="black" stroke="black" stroke-width="0.106118" stroke-miterlimit="10"/>
<path d="M178.865 56.9012L178.875 56.9351C179.093 57.505 178.974 58.9275 178.352 58.7895C178.103 58.6888 177.881 58.1763 177.598 57.694C177.598 57.694 177.598 57.694 177.596 57.6926C177.547 57.6099 177.496 57.5258 177.443 57.4469C177.28 57.2048 177.083 56.9903 176.861 56.7987C176.69 56.6685 176.514 56.5394 176.336 56.4155C175.317 55.7041 174.197 55.0853 173.189 54.3718C172.164 53.6815 171.152 52.9717 170.162 52.2323C168.408 50.9708 166.818 49.506 165.198 48.0826C164.347 47.3341 163.49 46.596 162.598 45.9029C162.07 45.4942 161.531 45.1008 160.973 44.7294C155.755 41.3414 148.854 39.9133 142.794 41.7863C142.228 41.9641 141.675 42.1693 141.144 42.393C140.6 42.6147 140.183 42.832 140.047 42.7998C140.106 42.7466 140.167 42.6908 140.234 42.6353L140.236 42.634C141.085 41.9367 142.631 41.2272 143.649 40.8927C148.484 39.2676 153.906 39.8531 158.569 41.781C160.558 42.5594 162.306 43.7084 163.958 45.001C164.886 45.7306 165.782 46.5041 166.675 47.2855C168.034 48.4765 169.382 49.6845 170.806 50.7705C172.325 51.9361 173.902 53.0257 175.503 54.071C176.205 54.5366 176.935 54.9635 177.63 55.4354C177.673 55.4656 177.714 55.4944 177.755 55.5259C178.248 55.8794 178.689 56.3267 178.864 56.9024L178.865 56.9012Z" fill="#FC5E3B" stroke="black" stroke-width="0.106118" stroke-miterlimit="10"/>
<path d="M195.46 62.1316C195.624 63.1322 194.838 63.8647 193.697 63.9778C192.636 64.0761 191.55 63.7144 190.511 63.414C187.062 62.3543 182.28 60.9728 178.504 59.7657C177.184 59.3041 175.255 58.633 176.132 56.7762C177.314 54.2738 180.642 56.1005 182.473 56.5635C184.958 57.3131 187.518 58.0918 189.99 58.8381C191.9 59.4882 194.935 59.9669 195.46 62.1115L195.463 62.1318L195.46 62.1316Z" fill="#FC5E3B" stroke="black" stroke-width="0.0880781" stroke-miterlimit="10"/>
<path d="M187.414 61.9764C187.281 60.8022 187.149 59.6147 187.302 58.444C187.456 57.2733 187.929 56.1012 188.824 55.3313C189.72 54.5614 191.086 54.283 192.118 54.8546C192.999 55.3438 193.47 56.5 193.141 57.46C192.717 58.6948 192.16 59.2582 192.323 60.7255C192.597 63.1839 192.111 65.7236 189.208 66.1315C186.963 66.4464 184.589 65.6849 182.947 64.1213C181.305 62.5577 180.428 60.2257 180.631 57.9675C180.695 57.2672 180.867 56.5509 181.297 55.9959C181.728 55.4408 182.46 55.0761 183.145 55.2385L186.312 56.0355L186.853 57.2661L187.278 57.8142" fill="#FFB3C0"/>
<path d="M187.414 61.9764C187.281 60.8022 187.149 59.6147 187.302 58.444C187.456 57.2733 187.929 56.1012 188.824 55.3313C189.72 54.5614 191.086 54.283 192.118 54.8546C192.999 55.3438 193.47 56.5 193.141 57.46C192.717 58.6948 192.16 59.2582 192.323 60.7255C192.597 63.1839 192.111 65.7236 189.208 66.1315C186.963 66.4464 184.589 65.6849 182.947 64.1213C181.305 62.5577 180.428 60.2257 180.631 57.9675C180.695 57.2672 180.867 56.5509 181.297 55.9959C181.728 55.4408 182.46 55.0761 183.145 55.2385L186.312 56.0355L186.853 57.2661L187.278 57.8142" stroke="black" stroke-width="0.106118" stroke-miterlimit="10"/>
<path d="M183.475 58.6871C182.831 56.8616 183.141 54.7264 184.279 53.1607C184.545 52.7955 184.862 52.4528 185.261 52.2413C185.661 52.0298 186.156 51.9635 186.568 52.1512C186.98 52.3389 187.268 52.812 187.165 53.2522" fill="#FFB3C0"/>
<path d="M183.475 58.6871C182.831 56.8616 183.141 54.7264 184.279 53.1607C184.545 52.7955 184.862 52.4528 185.261 52.2413C185.661 52.0298 186.156 51.9635 186.568 52.1512C186.98 52.3389 187.268 52.812 187.165 53.2522" stroke="black" stroke-width="0.106118" stroke-miterlimit="10"/>
<path d="M190.064 54.5866C190.056 53.9723 189.584 53.4192 188.999 53.2242C188.415 53.0293 187.758 53.1557 187.227 53.4677C186.697 53.7797 186.284 54.258 185.952 54.7751C184.859 56.4808 184.612 58.6993 185.302 60.6021" fill="#FFB3C0"/>
<path d="M190.064 54.5866C190.056 53.9723 189.584 53.4192 188.999 53.2242C188.415 53.0293 187.758 53.1557 187.227 53.4677C186.697 53.7797 186.284 54.258 185.952 54.7751C184.859 56.4808 184.612 58.6993 185.302 60.6021" stroke="black" stroke-width="0.106118" stroke-miterlimit="10"/>
<path d="M187.305 58.446C187.305 58.446 187.696 55.1179 190.454 54.5864L187.305 58.446Z" fill="#FFB3C0"/>
<path d="M187.305 58.446C187.305 58.446 187.696 55.1179 190.454 54.5864" stroke="black" stroke-width="0.106118" stroke-miterlimit="10"/>
<path d="M157.411 106.892C157.95 104.298 160.917 102.238 163.521 102.73C164.374 100.588 165.253 98.4005 166.759 96.6525C168.265 94.9045 170.54 93.6455 172.824 93.9625C174.683 94.2195 176.254 95.4493 177.597 96.7586C181.847 100.905 184.462 105.885 185.612 111.71C186.969 111.463 188.44 112.34 188.867 113.651C189.294 114.962 188.622 116.538 187.38 117.137C184.932 118.319 181.906 118.732 179.941 120.615C177.978 122.496 177.942 125.359 176.391 127.595C175.468 128.924 173.414 129.027 172.029 128.195C170.643 127.362 169.81 125.859 169.2 124.36C167.867 121.092 166.805 117.793 167.06 114.272C165.765 115.513 163.682 115.712 162.034 115.008C160.385 114.304 159.152 112.823 158.435 111.179C157.719 109.534 157.468 107.725 157.348 105.935" fill="#2882FF"/>
<path d="M157.411 106.892C157.95 104.298 160.917 102.238 163.521 102.73C164.374 100.588 165.253 98.4005 166.759 96.6525C168.265 94.9045 170.54 93.6455 172.824 93.9625C174.683 94.2195 176.254 95.4493 177.597 96.7586C181.847 100.905 184.462 105.885 185.612 111.71C186.969 111.463 188.44 112.34 188.867 113.651C189.294 114.962 188.622 116.538 187.38 117.137C184.932 118.319 181.906 118.732 179.941 120.615C177.978 122.496 177.942 125.359 176.391 127.595C175.468 128.924 173.414 129.027 172.029 128.195C170.643 127.362 169.81 125.859 169.2 124.36C167.867 121.092 166.805 117.793 167.06 114.272C165.765 115.513 163.682 115.712 162.034 115.008C160.385 114.304 159.152 112.823 158.435 111.179C157.719 109.534 157.468 107.725 157.348 105.935" stroke="black" stroke-width="0.106118" stroke-miterlimit="10"/>
<path d="M167.062 114.267C167.144 114.231 166.985 108.387 166.985 108.387" stroke="black" stroke-width="0.118852" stroke-miterlimit="10"/>
<path d="M188.598 104.606C188.598 104.606 190.306 103.921 190.911 104.156L188.598 104.606Z" fill="#2882FF"/>
<path d="M188.598 104.606C188.598 104.606 190.306 103.921 190.911 104.156" stroke="black" stroke-width="0.0976287" stroke-miterlimit="10"/>
<path d="M175.638 127.788C177.621 132.926 182.442 134.8 187.95 134.771C193.457 134.741 198.764 131.038 200.692 125.878C201.205 124.507 201.497 123.023 201.295 121.572C201.093 120.122 200.351 118.709 199.13 117.9C197.733 116.973 195.932 116.943 194.268 117.139C192.603 117.336 190.937 117.733 189.271 117.55C187.776 117.385 186.365 116.758 184.876 116.526C181.932 116.067 178.784 117.303 176.941 119.645C175.098 121.986 174.631 125.335 175.766 128.09C178.973 132.179 186.808 131.263 190.758 129.8C192.013 129.334 193.408 128.474 193.42 127.136C193.429 125.963 192.365 125.109 191.755 124.109C190.928 122.753 190.959 120.921 191.83 119.595" fill="#2882FF"/>
<path d="M175.638 127.788C177.621 132.926 182.442 134.8 187.95 134.771C193.457 134.741 198.764 131.038 200.692 125.878C201.205 124.507 201.497 123.023 201.295 121.572C201.093 120.122 200.351 118.709 199.13 117.9C197.733 116.973 195.932 116.943 194.268 117.139C192.603 117.336 190.937 117.733 189.271 117.55C187.776 117.385 186.365 116.758 184.876 116.526C181.932 116.067 178.784 117.303 176.941 119.645C175.098 121.986 174.631 125.335 175.766 128.09C178.973 132.179 186.808 131.263 190.758 129.8C192.013 129.334 193.408 128.474 193.42 127.136C193.429 125.963 192.365 125.109 191.755 124.109C190.928 122.753 190.959 120.921 191.83 119.595" stroke="black" stroke-width="0.0710992" stroke-miterlimit="10"/>
<path d="M173.441 88.8374L167.219 87.0954C167.219 87.0954 165.409 87.6004 166.412 88.9597" stroke="black" stroke-width="0.146443" stroke-miterlimit="10"/>
<path d="M177.289 78.9209C177.289 78.9209 180.448 78.5819 182.498 78.9327" stroke="black" stroke-width="0.101873" stroke-miterlimit="10"/>
<path d="M154.573 110.604C154.893 109.611 154.508 108.598 153.714 108.343C152.919 108.087 152.016 108.684 151.696 109.677C151.376 110.671 151.761 111.683 152.556 111.939C153.35 112.195 154.253 111.597 154.573 110.604Z" fill="white"/>
<path d="M159.592 113.004C159.592 113.004 165.276 116.319 167.17 109.845L167.211 114.394C167.211 114.394 163.055 117.381 159.592 113.004Z" fill="black"/>
<path d="M176.093 120.675C176.093 120.675 173.59 130.101 170.198 126.317C170.198 126.317 172.191 130.213 175.764 128.089C175.764 128.089 174.669 124.436 176.093 120.675Z" fill="black"/>
<path d="M160.488 103.199C160.488 103.199 154.665 106.112 154.286 97.484C154.286 97.484 153.082 101.351 154.657 103.989C156.232 106.627 157.399 107.353 157.399 107.353C157.399 107.353 158.115 103.986 160.488 103.199Z" fill="black"/>
<path d="M162.094 76.0894C162.596 75.6343 162.635 74.8578 162.18 74.3551C161.725 73.8523 160.948 73.8137 160.445 74.2687C159.943 74.7238 159.904 75.5003 160.359 76.0031C160.814 76.5059 161.591 76.5445 162.094 76.0894Z" fill="#280F05"/>
<path d="M184.715 67.417C184.715 67.417 186.942 69.9058 189.97 68.1841" stroke="black" stroke-width="0.106118" stroke-miterlimit="10"/>
<path d="M139.007 58.3886L140.556 46.1291" stroke="#280F05" stroke-width="0.106118" stroke-miterlimit="10"/>
<path d="M142.347 61.229L144.492 44.254" stroke="#280F05" stroke-width="0.146443" stroke-miterlimit="10"/>
<path d="M146.143 62.8878L148.568 43.6892" stroke="#280F05" stroke-width="0.166605" stroke-miterlimit="10"/>
<path d="M158.421 60.5873L159.934 48.3221" stroke="#280F05" stroke-width="0.106118" stroke-miterlimit="10"/>
<path d="M154.491 62.5201L156.585 45.5372" stroke="#280F05" stroke-width="0.146443" stroke-miterlimit="10"/>
<path d="M150.403 63.1934L152.772 43.9867" stroke="#280F05" stroke-width="0.166605" stroke-miterlimit="10"/>
<path d="M140.031 59.5869L159.3 59.6097" stroke="black" stroke-width="0.11673" stroke-miterlimit="10"/>
<path d="M137.141 55.1475L161.722 55.9977" stroke="black" stroke-width="0.11673" stroke-miterlimit="10"/>
<path d="M137.113 50.0166L162.023 51.9452" stroke="black" stroke-width="0.11673" stroke-miterlimit="10"/>
<path d="M139.082 47.0791L160.071 47.435" stroke="black" stroke-width="0.11673" stroke-miterlimit="10"/>
<g clip-path="url(#clip0_144_6415)">
<path d="M135.467 70.5792C138.242 68.0672 139.172 64.5729 137.544 62.7743C135.916 60.9757 132.347 61.554 129.572 64.066C126.797 66.5779 125.867 70.0723 127.495 71.8709C129.123 73.6695 132.692 73.0912 135.467 70.5792Z" fill="#FC5E3B" stroke="black" stroke-width="0.125828" stroke-miterlimit="10"/>
<path d="M134.205 71.5126C130.067 73.2335 127.417 70.0153 126.893 68.3459C126.637 69.4651 126.771 70.6984 126.937 71.1089C128.435 73.9126 131.882 73.1427 134.205 71.5126Z" fill="black"/>
</g>
<path d="M151.645 54.8871L144.934 48.585" stroke="white" stroke-width="2.33923" stroke-miterlimit="10"/>
<path d="M150.927 55.5788L150.619 45.7207" stroke="white" stroke-width="2.33923" stroke-miterlimit="10"/>
<path d="M152.467 53.9945L142.504 54.3096" stroke="white" stroke-width="2.33923" stroke-miterlimit="10"/>
<path d="M152.854 48.2814L155.318 48.2039L155.396 50.6687C155.532 55.0008 152.125 58.629 147.793 58.7653L145.328 58.8428L145.251 56.378C145.115 52.0459 148.522 48.4177 152.854 48.2814Z" fill="white" stroke="white" stroke-width="2.33923" stroke-miterlimit="10"/>
<path d="M151.816 55.0445C152.585 54.2247 152.545 52.9361 151.725 52.1663C150.905 51.3966 149.617 51.4371 148.847 52.2569C148.077 53.0767 148.118 54.3652 148.937 55.135C149.757 55.9048 151.046 55.8643 151.816 55.0445Z" fill="#2882FF" stroke="#2882FF" stroke-width="2.33923" stroke-miterlimit="10"/>
</g>
<defs>
<filter id="filter0_d_144_6415" x="0.332031" y="6.91699" width="251.865" height="225.162" filterUnits="userSpaceOnUse" color-interpolation-filters="sRGB">
<feFlood flood-opacity="0" result="BackgroundImageFix"/>
<feColorMatrix in="SourceAlpha" type="matrix" values="0 0 0 0 0 0 0 0 0 0 0 0 0 0 0 0 0 0 127 0" result="hardAlpha"/>
<feOffset dy="4"/>
<feGaussianBlur stdDeviation="2"/>
<feComposite in2="hardAlpha" operator="out"/>
<feColorMatrix type="matrix" values="0 0 0 0 0 0 0 0 0 0 0 0 0 0 0 0 0 0 0.25 0"/>
<feBlend mode="normal" in2="BackgroundImageFix" result="effect1_dropShadow_144_6415"/>
<feBlend mode="normal" in="SourceGraphic" in2="effect1_dropShadow_144_6415" result="shape"/>
</filter>
<clipPath id="clip0_144_6415">
<rect width="22.0231" height="17.3059" fill="white" transform="translate(118.547 68.2979) rotate(-42.1508)"/>
</clipPath>
</defs>
</svg>
