<svg width="338" height="272" viewBox="0 0 338 272" fill="none" xmlns="http://www.w3.org/2000/svg">
<path d="M247.294 8.20948C247.294 8.20948 176.861 73.0642 111.942 3.24939C111.942 3.24939 100.939 63.2858 3 52.8374C3 52.8374 82.2454 110.477 3 175.86C3 175.86 113.591 134.814 100.939 252.555C100.939 252.555 159.816 154.062 239.59 217.345C239.59 217.345 221.978 137.017 306.712 122.704C306.712 122.704 206.029 126.44 247.294 8.19659V8.20948Z" fill="#FC5E3B" stroke="black" stroke-width="5.4" stroke-miterlimit="10" stroke-linejoin="round"/>
<path d="M253.083 1.00053L258.955 0.999878C215.955 115.055 337.455 121.555 337.455 121.555C228.455 149.555 253.084 246.055 253.084 246.055C162.732 174.504 106.956 271.555 106.956 271.555" stroke="white" stroke-miterlimit="10" stroke-linejoin="round" stroke-dasharray="5 5"/>
<path d="M217.704 144.297C229.097 113.841 205.55 76.8892 165.112 61.7617C124.673 46.6343 82.6555 59.0602 71.2625 89.5158C59.8696 119.971 83.4158 156.924 123.854 172.051C164.293 187.179 206.311 174.753 217.704 144.297Z" fill="white" stroke="black" stroke-width="5.4" stroke-miterlimit="10"/>
<path d="M107.451 124.348C116.188 124.348 123.271 117.264 123.271 108.527C123.271 99.7892 116.188 92.7061 107.451 92.7061C98.7131 92.7061 91.6299 99.7892 91.6299 108.527C91.6299 117.264 98.7131 124.348 107.451 124.348Z" fill="black"/>
<path d="M151.72 124.348C160.458 124.348 167.541 117.264 167.541 108.527C167.541 99.7892 160.458 92.7061 151.72 92.7061C142.983 92.7061 135.899 99.7892 135.899 108.527C135.899 117.264 142.983 124.348 151.72 124.348Z" fill="black"/>
<path d="M79.9639 108.524H103.296" stroke="black" stroke-width="5.4" stroke-miterlimit="10"/>
<path d="M158.675 108.524H182.007" stroke="black" stroke-width="5.4" stroke-miterlimit="10"/>
<path d="M115.572 108.524H138.904" stroke="black" stroke-width="5.4" stroke-miterlimit="10"/>
</svg>
