<svg width="69" height="57" viewBox="0 0 69 57" fill="none" xmlns="http://www.w3.org/2000/svg">
<path d="M54.8558 2.09348C54.8558 2.09348 39.3285 16.391 25.0167 1C25.0167 1 22.5912 14.2353 1 11.9319C1 11.9319 18.47 24.639 1 39.053C1 39.053 25.3802 30.0041 22.5912 55.9606C22.5912 55.9606 35.5709 34.2473 53.1574 48.1984C53.1574 48.1984 49.2748 30.4898 67.9548 27.3343C67.9548 27.3343 45.7587 28.158 54.8558 2.09064V2.09348Z" fill="#FC5E3B" stroke="black" stroke-width="1.1375" stroke-miterlimit="10" stroke-linejoin="round"/>
<path d="M48.3334 32.0966C50.845 25.3826 45.6541 17.2362 36.7392 13.9013C27.8243 10.5664 18.5613 13.3057 16.0497 20.0198C13.538 26.7339 18.7289 34.8802 27.6438 38.2152C36.5587 41.5501 45.8217 38.8107 48.3334 32.0966Z" fill="white" stroke="black" stroke-width="1.1375" stroke-miterlimit="10"/>
<path d="M24.0278 27.6985C25.954 27.6985 27.5156 26.137 27.5156 24.2108C27.5156 22.2845 25.954 20.723 24.0278 20.723C22.1016 20.723 20.54 22.2845 20.54 24.2108C20.54 26.137 22.1016 27.6985 24.0278 27.6985Z" fill="black"/>
<path d="M33.7856 27.6985C35.7118 27.6985 37.2734 26.137 37.2734 24.2108C37.2734 22.2845 35.7118 20.723 33.7856 20.723C31.8594 20.723 30.2979 22.2845 30.2979 24.2108C30.2979 26.137 31.8594 27.6985 33.7856 27.6985Z" fill="black"/>
<path d="M17.9668 24.2102H23.1104" stroke="black" stroke-width="1.1375" stroke-miterlimit="10"/>
<path d="M35.3193 24.2102H40.4629" stroke="black" stroke-width="1.1375" stroke-miterlimit="10"/>
<path d="M25.8164 24.2102H30.96" stroke="black" stroke-width="1.1375" stroke-miterlimit="10"/>
<path d="M26.2342 25.3522C25.9899 26.4206 24.1071 30.467 29.0861 30.1501" stroke="black" stroke-width="1.1375"/>
</svg>
