<svg width="306" height="328" viewBox="0 0 306 328" fill="none" xmlns="http://www.w3.org/2000/svg">
<path d="M264.309 170.054C271.684 199.066 262.927 231.646 241.999 253.056C219.964 274.449 191.932 287.155 180.67 290.834C152.732 299.767 120.51 298.282 96.0399 282.112C71.5696 265.941 57.2695 233.67 66.3733 205.79C72.5337 186.92 88.3364 170.725 87.8441 150.879C87.2799 128.193 66.0783 112.198 55.5366 92.1083C46.3292 74.5567 46.016 51.5317 58.2463 35.9318C70.4845 20.3331 96.2 15.9259 110.777 29.354C117.034 35.1137 120.688 43.1825 123.144 51.3268C127.088 64.3887 128.38 78.1429 132.408 91.1842C136.437 104.218 143.932 117.121 156.233 123.032C176.615 132.837 201.177 120.216 223.28 125.01C244.192 129.539 259.039 149.316 264.309 170.054Z" fill="#FC5E3B" stroke="black" stroke-width="5.40408" stroke-miterlimit="10"/>
<path d="M83.9046 152.577C80.9817 178.174 84.5398 204.114 99.5641 223.377C114.588 242.641 142.516 253.968 171.338 247.626C199.416 241.439 224.388 218.785 232.978 193.996C241.569 169.206 234.566 143.46 217.102 126.845C211.681 121.693 205.363 117.349 199.558 112.556C185.336 100.841 174.093 86.3592 166.56 70.0685C160.368 56.6737 157.635 42.8048 161.261 27.129C165.013 10.8861 153.866 10.2653 142.827 24.0337C122.71 49.1284 106.374 77.3626 95.7021 105.562C89.8298 121.082 85.7128 136.887 83.9144 152.595L83.9046 152.577Z" fill="white" stroke="black" stroke-width="5.40408" stroke-miterlimit="10"/>
<path d="M99.7203 147.63C94.9442 173.57 99.3123 227.45 154.994 235.448" stroke="black" stroke-width="5.40408" stroke-miterlimit="10"/>
<path d="M202.572 96.4012C186.648 85.891 180.554 67.0443 188.962 54.306C197.369 41.5677 217.094 39.7615 233.018 50.2717C248.942 60.782 255.036 79.6286 246.628 92.3669C238.221 105.105 218.496 106.911 202.572 96.4012Z" fill="#FC5E3B" stroke="black" stroke-width="5.40408" stroke-miterlimit="10"/>
<path d="M197.552 264.485L209.657 250.91C180.799 240.145 141.789 252.206 125.891 259.582L197.552 264.485Z" fill="#FC5E3B"/>
<path d="M118.522 256.837C138.216 249.594 183.847 237.648 208.823 247.814" stroke="black" stroke-width="5.40408" stroke-miterlimit="10"/>
</svg>
