<svg width="274" height="298" viewBox="0 0 274 298" fill="none" xmlns="http://www.w3.org/2000/svg">
<path d="M236.597 151.864C243.219 177.915 235.356 207.17 216.564 226.395C196.778 245.604 171.607 257.013 161.494 260.317C136.407 268.338 107.475 267.004 85.5021 252.484C63.5294 237.965 50.6889 208.987 58.8634 183.952C64.3951 167.009 78.5848 152.467 78.1428 134.646C77.6362 114.276 58.5985 99.9132 49.1328 81.8741C40.8652 66.1139 40.5839 45.439 51.5659 31.4313C62.555 17.4246 85.6459 13.4673 98.7354 25.5249C104.353 30.6966 107.634 37.942 109.84 45.255C113.381 56.9837 114.542 69.3341 118.158 81.0443C121.776 92.7474 128.506 104.334 139.552 109.641C157.853 118.445 179.908 107.113 199.755 111.418C218.533 115.485 231.864 133.243 236.597 151.864Z" fill="#FC5E3B" stroke="black" stroke-width="5.40408" stroke-miterlimit="10"/>
<path d="M74.6067 136.171C71.9821 159.156 75.1771 182.448 88.6679 199.745C102.159 217.043 127.236 227.213 153.116 221.519C178.329 215.964 200.751 195.622 208.465 173.362C216.179 151.103 209.891 127.985 194.209 113.065C189.342 108.439 183.669 104.539 178.456 100.235C165.685 89.716 155.59 76.712 148.826 62.084C143.266 50.0563 140.811 37.6031 144.067 23.5271C147.437 8.94217 137.427 8.38469 127.515 20.7478C109.451 43.2812 94.7829 68.6336 85.2001 93.955C79.9272 107.891 76.2304 122.083 74.6156 136.188L74.6067 136.171Z" fill="white" stroke="black" stroke-width="5.40408" stroke-miterlimit="10"/>
<path d="M88.81 131.728C84.5213 155.021 88.4435 203.401 138.442 210.583" stroke="black" stroke-width="5.40408" stroke-miterlimit="10"/>
<path d="M181.162 85.7288C166.864 76.2913 161.392 59.3682 168.941 47.9301C176.491 36.4919 194.202 34.87 208.501 44.3075C222.8 53.745 228.272 70.6681 220.722 82.1063C213.173 93.5444 195.461 95.1663 181.162 85.7288Z" fill="#FC5E3B" stroke="black" stroke-width="5.40408" stroke-miterlimit="10"/>
<path d="M176.654 236.657L187.524 224.468C161.611 214.801 126.583 225.631 112.308 232.254L176.654 236.657Z" fill="#FC5E3B"/>
<path d="M105.691 229.79C123.375 223.286 164.349 212.56 186.776 221.688" stroke="black" stroke-width="5.40408" stroke-miterlimit="10"/>
<path d="M61.832 135C38.2764 154.146 12.5763 212.991 49.7027 248.824C96.1108 293.617 166.25 288.874 210.022 259.364C253.793 229.854 258.539 168.726 242.718 146.066" stroke="white" stroke-dasharray="5 5"/>
</svg>
