<svg width="394" height="373" viewBox="0 0 394 373" fill="none" xmlns="http://www.w3.org/2000/svg">
<path d="M133.145 128.883C145.048 125.694 152.848 116.213 150.575 107.715C148.293 99.2148 136.803 94.9054 124.899 98.0938C112.995 101.282 105.196 110.764 107.469 119.262C109.751 127.762 121.241 132.071 133.145 128.883Z" fill="#FC5E3B" stroke="black" stroke-width="5.40408" stroke-miterlimit="10"/>
<path d="M287.276 249.085C286.898 245.45 285.319 242.052 282.73 238.906C284.157 230.869 272.405 219.048 271.529 210.692C265.27 151.613 213.155 113.507 140.202 121.224C67.2323 128.9 13.1719 183.071 19.4071 242.171C20.2894 250.502 22.3355 258.491 25.4089 266.056C23.5474 269.697 22.7232 273.365 23.1099 277.002C24.1487 286.941 34.0094 295.206 49.9346 301.161C75.1026 310.553 115.414 314.165 160.092 309.454C204.793 304.723 243.484 292.739 266.102 278.276C280.434 269.155 288.33 259 287.287 249.079L287.276 249.085Z" fill="#FC5E3B" stroke="black" stroke-width="5.40408" stroke-miterlimit="10"/>
<path d="M249.762 273.357C237.509 281.049 219.193 287.984 197.269 293.038C186.108 295.613 174.019 297.717 161.303 299.168C123.578 303.476 83.4434 301.673 61.6063 294.675C47.7853 290.263 39.006 283.948 37.6467 276.18C37.1221 273.335 37.6378 270.471 39.0517 267.595C47.6846 250.271 95.5524 232.783 148.377 226.759C168.297 224.488 187.299 224.04 204.021 225.174C231.656 227.03 253.014 233.173 261.95 242.346C264.3 244.785 265.815 247.41 266.314 250.248C267.685 257.972 261.489 266.028 249.762 273.357Z" fill="white" stroke="black" stroke-width="5.40408" stroke-miterlimit="10"/>
<path d="M346.191 259.668C337.155 278.254 313.202 274.522 295.84 271.912C291.726 271.257 286.913 270.359 283.59 268.182C275.557 262.141 281.472 250.401 276.612 241.537C267.698 225.423 243.954 220.981 224.903 217.331C195.266 212.057 152.862 219.661 147.48 179.093C142.851 132.302 202.407 136.651 234.203 136.061C251.563 135.584 253.237 127.249 240.874 119.376C229.567 112.3 216.1 109.316 203.196 104.786C193.536 101.517 178.163 93.8826 183.73 81.5645C190.314 69.4165 217.359 63.553 224.04 78.0151C227.479 85.5383 227.358 95.6977 233.829 101.786C237.86 105.813 243.554 108.159 249.06 109.709C262.536 113.32 276.918 114.106 290.597 117.585C304.492 120.329 320.136 131.961 308.933 146.872C302.145 156.196 287.129 159.203 278.586 166.276C269.731 173.013 269.583 185.291 276.527 193.446C291.055 210.011 316.267 212.244 332.847 226.123C342.803 233.546 351.411 246.763 346.327 259.266L346.191 259.668Z" fill="white"/>
<path d="M346.327 259.266C351.411 246.763 342.803 233.546 332.847 226.123C316.267 212.244 291.055 210.011 276.527 193.446C269.583 185.291 269.731 173.013 278.586 166.276C287.129 159.203 302.145 156.196 308.933 146.872C320.136 131.961 304.492 120.329 290.597 117.585C276.918 114.106 262.536 113.32 249.06 109.709C243.554 108.159 237.86 105.813 233.829 101.786C227.358 95.6977 227.479 85.5383 224.04 78.0151C217.359 63.553 190.314 69.4165 183.73 81.5645C178.163 93.8826 193.536 101.517 203.196 104.786C216.1 109.316 229.567 112.3 240.874 119.376C253.237 127.249 251.563 135.584 234.203 136.061C202.407 136.651 142.851 132.302 147.48 179.093C152.862 219.661 195.266 212.057 224.903 217.331C243.954 220.981 267.698 225.423 276.612 241.537C281.472 250.401 275.557 262.141 283.59 268.182C286.913 270.359 291.726 271.257 295.84 271.912C313.202 274.522 337.155 278.254 346.191 259.668L346.327 259.266ZM346.327 259.266L346.183 259.628" stroke="black" stroke-width="5.40408" stroke-miterlimit="10"/>
<path d="M260.086 82.5558C271.425 85.5942 282.5 81.0305 284.823 72.3626C287.146 63.6947 279.836 54.2049 268.497 51.1665C257.157 48.1281 246.082 52.6918 243.759 61.3597C241.437 70.0276 248.746 79.5174 260.086 82.5558Z" fill="white" stroke="black" stroke-width="5.40408" stroke-miterlimit="10"/>
<path d="M35.8622 234.245C35.8631 215.206 46.8324 169.341 96.655 150.142" stroke="black" stroke-width="5.40408"/>
<path d="M25.4028 266.063C25.4028 266.063 33.9417 247.314 54.3414 240.537" stroke="black" stroke-width="5.40408" stroke-miterlimit="10"/>
</svg>
