<svg width="356" height="337" viewBox="0 0 356 337" fill="none" xmlns="http://www.w3.org/2000/svg">
<path d="M135.756 114.75C145.813 112.056 152.402 104.045 150.482 96.8663C148.554 89.6852 138.847 86.0445 128.79 88.7381C118.734 91.4317 112.144 99.4423 114.065 106.621C115.993 113.802 125.699 117.443 135.756 114.75Z" fill="#FC5E3B" stroke="black" stroke-width="5.40408" stroke-miterlimit="10"/>
<path d="M265.969 216.3C265.65 213.229 264.316 210.358 262.129 207.701C263.334 200.91 253.406 190.923 252.666 183.864C247.378 133.952 203.35 101.76 141.717 108.279C80.0699 114.764 34.398 160.529 39.6657 210.459C40.4112 217.497 42.1397 224.246 44.7362 230.637C43.1636 233.714 42.4673 236.812 42.794 239.885C43.6716 248.282 52.0022 255.264 65.4562 260.295C86.7189 268.229 120.775 271.281 158.52 267.302C196.285 263.304 228.972 253.18 248.08 240.961C260.189 233.256 266.86 224.676 265.978 216.295L265.969 216.3Z" fill="#FC5E3B" stroke="black" stroke-width="5.40408" stroke-miterlimit="10"/>
<path d="M234.28 236.806C223.928 243.305 208.454 249.163 189.932 253.433C180.502 255.609 170.289 257.386 159.547 258.612C127.676 262.251 93.7687 260.728 75.3201 254.816C63.6437 251.088 56.2267 245.753 55.0783 239.19C54.6351 236.787 55.0708 234.367 56.2653 231.938C63.5586 217.302 103.999 202.528 148.626 197.439C165.455 195.52 181.509 195.142 195.637 196.099C218.983 197.668 237.027 202.857 244.577 210.607C246.561 212.667 247.842 214.885 248.263 217.283C249.421 223.808 244.187 230.614 234.28 236.806Z" fill="white" stroke="black" stroke-width="5.40408" stroke-miterlimit="10"/>
<path d="M315.743 225.241C308.109 240.943 287.873 237.79 273.205 235.585C269.729 235.032 265.663 234.273 262.855 232.433C256.069 227.33 261.066 217.412 256.96 209.923C249.429 196.309 229.37 192.557 213.275 189.473C188.237 185.017 152.413 191.442 147.866 157.169C143.955 117.638 194.27 121.313 221.132 120.814C235.798 120.411 237.212 113.369 226.768 106.718C217.215 100.74 205.838 98.2192 194.937 94.3923C186.775 91.6303 173.788 85.1805 178.491 74.7738C184.053 64.5108 206.902 59.5572 212.546 71.7751C215.451 78.131 215.349 86.7139 220.816 91.8578C224.222 95.2596 229.032 97.2416 233.683 98.551C245.068 101.602 257.219 102.266 268.776 105.205C280.514 107.523 293.731 117.351 284.266 129.948C278.532 137.825 265.845 140.365 258.628 146.34C251.147 152.032 251.022 162.405 256.889 169.295C269.162 183.289 290.462 185.176 304.47 196.901C312.88 203.172 320.153 214.338 315.858 224.901L315.743 225.241Z" fill="white"/>
<path d="M315.858 224.901C320.153 214.338 312.88 203.172 304.47 196.901C290.462 185.176 269.162 183.289 256.889 169.295C251.022 162.405 251.147 152.032 258.628 146.34C265.845 140.365 278.532 137.825 284.266 129.948C293.731 117.351 280.514 107.523 268.776 105.205C257.219 102.266 245.068 101.602 233.683 98.551C229.032 97.2416 224.222 95.2596 220.816 91.8578C215.349 86.7139 215.451 78.131 212.546 71.7751C206.902 59.5572 184.053 64.5108 178.491 74.7738C173.788 85.1805 186.775 91.6303 194.937 94.3923C205.838 98.2192 217.215 100.74 226.768 106.718C237.212 113.369 235.798 120.411 221.132 120.814C194.27 121.313 143.955 117.638 147.866 157.169C152.413 191.442 188.237 185.017 213.275 189.473C229.37 192.557 249.429 196.309 256.96 209.923C261.066 217.412 256.069 227.33 262.855 232.433C265.663 234.273 269.729 235.032 273.205 235.585C287.873 237.79 308.109 240.943 315.743 225.241L315.858 224.901ZM315.858 224.901L315.736 225.207" stroke="black" stroke-width="5.40408" stroke-miterlimit="10"/>
<path d="M243.002 75.6111C252.582 78.178 261.938 74.3226 263.901 66.9997C265.863 59.6768 259.687 51.6595 250.108 49.0926C240.528 46.5257 231.171 50.3811 229.209 57.704C227.247 65.0269 233.422 73.0442 243.002 75.6111Z" fill="white" stroke="black" stroke-width="5.40408" stroke-miterlimit="10"/>
<path d="M53.5704 203.762C53.5712 187.678 62.8384 148.93 104.93 132.71" stroke="black" stroke-width="5.40408"/>
<path d="M44.7329 230.643C44.7329 230.643 51.9468 214.804 69.1811 209.079" stroke="black" stroke-width="5.40408" stroke-miterlimit="10"/>
<path d="M96.7425 113.728C65.8004 124.213 -6.12797 181.888 33.6498 241.217C31.2521 251.441 36.6416 269.298 57.9167 273.116" stroke="white" stroke-dasharray="5 5"/>
</svg>
