<svg width="684" height="666" viewBox="0 0 684 666" fill="none" xmlns="http://www.w3.org/2000/svg">
<path d="M-1.32033 227.391L-17.1473 216.837L-19.8075 214.344L-20.2343 214.675L-6.9836 231.779L-9.82946 233.983L-25.2629 214.062L-20.6811 210.513L-4.85408 221.066L-2.19396 223.56L-1.76708 223.229L-15.0178 206.125L-12.172 203.92L3.26151 223.841L-1.32033 227.391Z" fill="white"/>
<path d="M16.3055 214.312L4.88146 191.851L18.2943 185.029L19.8447 188.077L9.64069 193.267L13.0189 199.909L22.9021 194.883L24.4525 197.931L14.5694 202.958L17.9639 209.632L28.168 204.442L29.7184 207.491L16.3055 214.312Z" fill="white"/>
<path d="M45.2521 200.192L38.4759 175.921L52.9697 171.874L53.8893 175.168L42.863 178.247L44.8668 185.424L55.5464 182.443L56.466 185.737L45.7864 188.718L47.7999 195.93L58.8262 192.852L59.7459 196.146L45.2521 200.192Z" fill="white"/>
<path d="M75.6637 192.137L73.8412 167.003L82.4585 166.379C87.6289 166.004 90.9064 167.895 91.2605 172.779C91.5911 177.339 88.4591 179.443 83.9069 179.881L83.946 180.42L84.88 180.857L92.5753 190.911L88.0153 191.242L80.0218 180.56L78.442 180.674L79.2543 191.877L75.6637 192.137ZM78.2076 177.443L83.7371 177.042C86.3582 176.852 87.7699 175.414 87.6007 173.08C87.4236 170.639 85.7579 169.568 83.2086 169.753L77.6791 170.154L78.2076 177.443Z" fill="white"/>
<path d="M126.478 192.595L131.202 171.334L123.189 169.554L123.931 166.215L143.47 170.556L142.728 173.895L134.716 172.114L129.992 193.376L126.478 192.595Z" fill="white"/>
<path d="M162.756 203.53L167.165 193.552L158.603 189.77L154.195 199.747L150.902 198.292L161.086 175.242L164.379 176.697L159.985 186.642L168.547 190.424L172.94 180.48L176.233 181.934L166.049 204.985L162.756 203.53Z" fill="white"/>
<path d="M178.361 210.251L198.906 193.915L203.58 197.22L195.027 222.036L191.853 219.791L194.975 211.197L188.626 206.707L181.535 212.496L178.361 210.251ZM191.365 204.455L196.156 207.843L199.312 199.14L200.258 197.428L199.817 197.116L198.518 198.579L191.365 204.455Z" fill="white"/>
<path d="M210.452 234.967L226.522 220.266L220.981 214.21L223.504 211.901L237.015 226.67L234.492 228.978L228.952 222.922L212.882 237.624L210.452 234.967Z" fill="white"/>
<path d="M234.316 264.814L256.354 252.363L257.764 255.518L240.194 265.262L237.255 266.537L237.475 267.03L240.444 265.821L252.442 263.022L254.102 266.736L243.866 273.479L240.971 274.852L241.191 275.345L244.116 274.038L263.242 267.778L264.652 270.933L240.529 278.717L238.473 274.115L248.452 267.329L251.118 266.059L250.898 265.566L248.173 266.704L236.372 269.415L234.316 264.814Z" fill="white"/>
<path d="M248.301 302.088C246.761 296.054 250.373 291.714 258.675 289.597C266.977 287.479 272.226 289.558 273.765 295.593C275.305 301.627 271.693 305.967 263.391 308.085C255.089 310.202 249.84 308.123 248.301 302.088ZM259.609 293.259C253.226 294.888 250.645 297.441 251.615 301.243C252.585 305.045 256.073 306.05 262.457 304.422C268.84 302.793 271.421 300.24 270.451 296.438C269.481 292.636 265.993 291.631 259.609 293.259Z" fill="white"/>
<path d="M254.87 327.684L279.702 323.392L281.173 331.906C282.056 337.015 280.496 340.463 275.672 341.296C271.166 342.075 268.764 339.165 267.879 334.679L267.347 334.771L267.003 335.743L257.757 344.392L256.979 339.887L266.82 330.879L266.551 329.318L255.483 331.231L254.87 327.684ZM269.743 328.767L270.687 334.23C271.135 336.819 272.705 338.082 275.011 337.684C277.423 337.267 278.324 335.504 277.889 332.985L276.945 327.522L269.743 328.767Z" fill="white"/>
<path d="M260.534 361.739L285.328 357.234L285.971 360.776L273.61 363.022L271.407 362.581L271.504 363.112L287.786 370.764L288.514 374.767L275.757 368.998L263.688 379.095L262.922 374.88L272.492 367.14L266.384 364.335L261.177 365.281L260.534 361.739Z" fill="white"/>
<path d="M268.712 404.742C267.096 399.138 269.065 395.311 274.738 393.675L275.805 397.377C272.346 398.374 271.006 400.484 272.003 403.943C272.851 406.883 274.847 408.218 277.199 407.54C279.067 407.002 280.018 405.491 279.694 402.288L279.41 399.484C278.974 395.114 280.698 392.257 284.192 391.25C288.585 389.983 292.547 392.55 294.043 397.739C295.609 403.169 293.591 407.086 288.091 408.671L287.023 404.97C290.448 403.983 291.739 401.962 290.751 398.538C289.844 395.39 287.774 394.188 285.526 394.836C283.692 395.365 282.776 396.865 283.066 400.079L283.315 402.892C283.716 407.272 282.026 410.12 278.394 411.167C274.036 412.424 270.247 410.069 268.712 404.742Z" fill="white"/>
<path d="M283.401 445.057L308.367 436.951L311.587 441.683L294.885 461.932L292.698 458.718L298.633 451.762L294.258 445.333L285.589 448.272L283.401 445.057ZM297.612 444.183L300.913 449.034L306.917 441.987L308.403 440.715L308.099 440.269L306.37 441.184L297.612 444.183Z" fill="white"/>
<path d="M313.816 483.56C309.238 479.948 308.607 475.69 312.264 471.055L315.288 473.441C313.058 476.267 313.199 478.763 316.025 480.992C318.428 482.888 320.828 482.81 322.344 480.888C323.548 479.361 323.441 477.58 321.31 475.166L319.446 473.053C316.545 469.755 316.281 466.429 318.533 463.574C321.364 459.985 326.08 459.762 330.32 463.106C334.757 466.607 335.399 470.965 331.854 475.459L328.83 473.073C331.037 470.275 330.909 467.881 328.111 465.674C325.539 463.645 323.156 463.874 321.707 465.712C320.525 467.21 320.655 468.963 322.763 471.406L324.605 473.546C327.484 476.872 327.771 480.171 325.429 483.138C322.62 486.699 318.169 486.994 313.816 483.56Z" fill="white"/>
<path d="M364.727 511.179L368.053 500.79L359.139 497.936L355.813 508.325L352.384 507.227L360.068 483.227L363.497 484.325L360.182 494.679L369.096 497.533L372.411 487.179L375.839 488.277L368.156 512.277L364.727 511.179Z" fill="white"/>
<path d="M386.648 517.514L396.832 493.322L402.518 493.978L406.925 519.854L403.063 519.408L401.678 510.37L393.953 509.479L390.51 517.96L386.648 517.514ZM395.275 506.188L401.104 506.861L399.695 497.711L399.704 495.755L399.167 495.693L398.73 497.6L395.275 506.188Z" fill="white"/>
<path d="M425.072 521.25L425.704 496.058L434.341 496.274C439.524 496.404 442.601 498.606 442.479 503.501C442.364 508.071 439.042 509.86 434.469 509.854L434.455 510.394L435.342 510.92L442.023 521.675L437.452 521.56L430.536 510.151L428.953 510.111L428.671 521.34L425.072 521.25ZM429.034 506.872L434.576 507.011C437.203 507.077 438.748 505.784 438.807 503.444C438.868 500.997 437.315 499.77 434.759 499.706L429.217 499.567L429.034 506.872Z" fill="white"/>
<path d="M459.161 521.849L460.375 496.678L467.207 497.008C473.644 497.318 477.23 502.177 476.848 510.087C476.466 517.998 472.429 522.489 465.993 522.178L459.161 521.849ZM462.921 518.606L466.517 518.78C470.293 518.962 472.798 515.587 473.072 509.905C473.346 504.224 471.177 500.623 467.402 500.441L463.806 500.268L462.921 518.606Z" fill="white"/>
<path d="M502.364 524.365L516.377 502.17L521.879 503.749L521.983 529.998L518.246 528.925L518.362 519.782L510.888 517.636L506.101 525.438L502.364 524.365ZM512.731 514.607L518.371 516.226L518.482 506.969L518.811 505.041L518.292 504.892L517.548 506.701L512.731 514.607Z" fill="white"/>
<path d="M539.875 538.218C535.05 534.941 534.118 530.74 537.436 525.856L540.622 528.02C538.599 530.998 538.917 533.477 541.895 535.5C544.426 537.22 546.815 536.971 548.19 534.946C549.283 533.338 549.049 531.568 546.752 529.312L544.742 527.337C541.613 524.255 541.113 520.955 543.156 517.947C545.725 514.165 550.413 513.607 554.879 516.641C559.555 519.817 560.506 524.119 557.29 528.854L554.103 526.689C556.106 523.741 555.807 521.362 552.859 519.36C550.149 517.519 547.789 517.918 546.474 519.853C545.402 521.432 545.657 523.171 547.933 525.458L549.923 527.462C553.031 530.574 553.552 533.844 551.428 536.971C548.879 540.723 544.461 541.334 539.875 538.218Z" fill="white"/>
<path d="M568.897 565.656L577.35 561.311L587.425 546.579L589.351 550.325L581.93 560.535L580.555 561.404L580.802 561.884L582.309 561.272L594.93 561.179L596.856 564.925L578.996 564.513L570.543 568.858L568.897 565.656Z" fill="white"/>
<path d="M580.801 595.606C579.546 589.506 583.357 585.34 591.749 583.613C600.141 581.887 605.287 584.209 606.542 590.309C607.797 596.409 603.986 600.575 595.594 602.302C587.202 604.029 582.056 601.706 580.801 595.606ZM592.511 587.316C586.058 588.644 583.36 591.073 584.151 594.917C584.942 598.76 588.38 599.927 594.832 598.599C601.285 597.272 603.983 594.842 603.192 590.999C602.401 587.155 598.963 585.988 592.511 587.316Z" fill="white"/>
<path d="M584.749 625.907C585.007 621.018 588.528 617.815 593.417 618.072L610.889 618.991L610.7 622.586L593.228 621.667C590.208 621.508 588.316 623.211 588.165 626.087C588.009 629.035 589.716 630.855 592.736 631.014L610.208 631.933L610.019 635.528L592.547 634.609C587.658 634.352 584.492 630.797 584.749 625.907Z" fill="white"/>
<path d="M580.987 660.61L602.899 673.055L599.521 679.003C596.339 684.606 590.385 685.613 583.498 681.702C576.611 677.791 574.426 672.161 577.609 666.558L580.987 660.61ZM582.183 665.429L580.405 668.56C578.538 671.847 580.419 675.606 585.365 678.415C590.311 681.224 594.503 680.914 596.37 677.627L598.148 674.496L582.183 665.429Z" fill="white"/>
</svg>
