<svg width="398" height="905" viewBox="0 0 398 905" fill="none" xmlns="http://www.w3.org/2000/svg">
<path d="M-25.6291 297.918C-26.9834 291.839 -23.2409 287.612 -14.8779 285.749C-6.51495 283.886 -1.33217 286.124 0.0220788 292.203C1.37633 298.282 -2.3661 302.509 -10.7291 304.372C-19.0921 306.235 -24.2749 303.997 -25.6291 297.918ZM-14.056 289.438C-20.4864 290.871 -23.1442 293.344 -22.2909 297.174C-21.4377 301.004 -17.9814 302.115 -11.551 300.683C-5.12066 299.25 -2.46283 296.777 -3.31609 292.947C-4.16935 289.117 -7.62563 288.006 -14.056 289.438Z" fill="#0054F1"/>
<path d="M-19.8436 323.702L5.10787 320.171L6.31825 328.726C7.04448 333.859 5.38019 337.258 0.53247 337.944C-3.99444 338.584 -6.30692 335.603 -7.05435 331.091L-7.58902 331.167L-7.96197 332.128L-17.4682 340.49L-18.1087 335.964L-7.99616 327.261L-8.21806 325.693L-19.3393 327.266L-19.8436 323.702ZM-5.01001 325.239L-4.23335 330.728C-3.86519 333.33 -2.33451 334.641 -0.017587 334.313C2.40627 333.97 3.36065 332.235 3.00258 329.704L2.22592 324.215L-5.01001 325.239Z" fill="#0054F1"/>
<path d="M-15.2239 357.914L9.69622 354.169L10.2313 357.729L-2.19315 359.596L-4.38102 359.088L-4.30076 359.622L11.7402 367.768L12.3449 371.791L-0.229701 365.636L-12.602 375.358L-13.2387 371.122L-3.43621 363.678L-9.45557 360.688L-14.6888 361.474L-15.2239 357.914Z" fill="#0054F1"/>
<path d="M-8.365 401.147C-9.80852 395.496 -7.72361 391.731 -2.00332 390.27L-1.04988 394.002C-4.53786 394.893 -5.94172 396.961 -5.05065 400.449C-4.29325 403.413 -2.33897 404.809 0.0328524 404.203C1.91636 403.722 2.91286 402.241 2.6868 399.029L2.489 396.219C2.18707 391.837 3.99753 389.034 7.52039 388.134C11.9501 387.002 15.8319 389.689 17.1685 394.921C18.5675 400.397 16.4307 404.25 10.8848 405.667L9.93133 401.935C13.3844 401.052 14.7364 399.072 13.8542 395.619C13.0433 392.445 11.0111 391.181 8.74396 391.76C6.89533 392.232 5.93371 393.704 6.12489 396.925L6.28781 399.744C6.55486 404.135 4.77928 406.929 1.1169 407.865C-3.27795 408.988 -6.99276 406.518 -8.365 401.147Z" fill="#0054F1"/>
<path d="M5.08821 441.892L30.2895 434.553L33.3638 439.381L16.051 459.111L13.9629 455.831L20.1074 449.059L15.9311 442.5L7.17637 445.172L5.08821 441.892ZM19.3187 441.453L22.4702 446.403L28.6865 439.543L30.2104 438.316L29.9203 437.861L28.1645 438.723L19.3187 441.453Z" fill="#0054F1"/>
<path d="M34.3103 481.307C29.8442 477.556 29.3441 473.282 33.1409 468.76L36.0907 471.238C33.7756 473.994 33.8399 476.493 36.5968 478.808C38.9401 480.776 41.3416 480.771 42.9159 478.896C44.1661 477.408 44.1129 475.624 42.0572 473.145L40.2586 470.977C37.4596 467.592 37.2971 464.259 39.6353 461.474C42.5755 457.973 47.2958 457.894 51.4311 461.367C55.7594 465.002 56.2683 469.378 52.5873 473.761L49.6375 471.284C51.9294 468.555 51.8739 466.158 49.1446 463.866C46.6359 461.759 44.2476 461.916 42.7428 463.708C41.5158 465.169 41.5921 466.926 43.6246 469.431L45.4002 471.628C48.1759 475.04 48.3616 478.345 45.9308 481.24C43.0138 484.714 38.5559 484.872 34.3103 481.307Z" fill="#0054F1"/>
<path d="M84.3525 510.469L87.9945 500.187L79.1716 497.062L75.5296 507.344L72.1362 506.142L80.55 482.388L83.9434 483.59L80.3135 493.838L89.1363 496.963L92.7663 486.715L96.1597 487.917L87.7459 511.671L84.3525 510.469Z" fill="#0054F1"/>
<path d="M106.07 517.471L116.988 493.602L122.652 494.431L126.266 520.429L122.419 519.866L121.311 510.79L113.617 509.663L109.917 518.035L106.07 517.471ZM115.039 506.414L120.845 507.265L119.717 498.076L119.785 496.121L119.25 496.043L118.755 497.935L115.039 506.414Z" fill="#0054F1"/>
<path d="M144.363 522.379L145.765 497.218L154.391 497.699C159.567 497.987 162.576 500.282 162.304 505.17C162.05 509.735 158.675 511.422 154.104 511.276L154.074 511.815L154.944 512.368L161.293 523.322L156.728 523.068L150.164 511.453L148.582 511.365L147.957 522.579L144.363 522.379ZM148.762 508.13L154.298 508.438C156.922 508.584 158.505 507.339 158.636 505.002C158.772 502.558 157.256 501.284 154.704 501.142L149.169 500.833L148.762 508.13Z" fill="#0054F1"/>
<path d="M178.418 524.02L180.401 498.898L187.22 499.437C193.644 499.944 197.08 504.909 196.457 512.805C195.834 520.7 191.661 525.065 185.237 524.558L178.418 524.02ZM182.276 520.894L185.865 521.177C189.633 521.475 192.241 518.178 192.689 512.507C193.136 506.837 191.078 503.172 187.31 502.874L183.721 502.591L182.276 520.894Z" fill="#0054F1"/>
<path d="M221.523 527.855L236.208 506.099L241.658 507.846L240.961 534.085L237.258 532.898L237.653 523.763L230.248 521.39L225.225 529.042L221.523 527.855ZM232.183 518.419L237.771 520.21L238.165 510.961L238.553 509.043L238.039 508.879L237.24 510.664L232.183 518.419Z" fill="#0054F1"/>
<path d="M258.595 542.849C253.873 539.426 253.07 535.198 256.535 530.418L259.654 532.679C257.541 535.593 257.783 538.081 260.697 540.194C263.175 541.99 265.57 541.814 267.007 539.832C268.148 538.258 267.968 536.482 265.741 534.157L263.792 532.122C260.759 528.945 260.36 525.632 262.494 522.688C265.177 518.986 269.88 518.571 274.252 521.741C278.828 525.058 279.648 529.387 276.288 534.021L273.169 531.76C275.261 528.875 275.035 526.488 272.149 524.396C269.497 522.473 267.126 522.8 265.753 524.694C264.633 526.239 264.834 527.986 267.04 530.341L268.967 532.405C271.979 535.611 272.399 538.895 270.181 541.955C267.519 545.628 263.083 546.103 258.595 542.849Z" fill="#0054F1"/>
<path d="M286.761 571.161L295.343 567.076L305.864 552.659L307.674 556.462L299.944 566.441L298.543 567.267L298.776 567.755L300.3 567.188L312.919 567.481L314.729 571.285L296.89 570.327L288.308 574.411L286.761 571.161Z" fill="#0054F1"/>
<path d="M297.746 601.461C296.677 595.325 300.614 591.278 309.055 589.808C317.496 588.339 322.568 590.818 323.636 596.953C324.704 603.089 320.768 607.136 312.327 608.606C303.886 610.075 298.814 607.596 297.746 601.461ZM309.703 593.532C303.213 594.662 300.442 597.008 301.115 600.874C301.788 604.74 305.188 606.012 311.679 604.882C318.169 603.752 320.94 601.406 320.267 597.54C319.594 593.674 316.193 592.402 309.703 593.532Z" fill="#0054F1"/>
<path d="M300.765 631.869C301.172 626.99 304.789 623.895 309.668 624.302L327.104 625.755L326.805 629.342L309.369 627.889C306.356 627.638 304.412 629.283 304.173 632.153C303.928 635.094 305.578 636.966 308.592 637.217L326.027 638.67L325.729 642.258L308.293 640.805C303.414 640.398 300.358 636.748 300.765 631.869Z" fill="#0054F1"/>
<path d="M295.944 666.44L317.467 679.549L313.908 685.39C310.556 690.894 304.574 691.719 297.81 687.599C291.046 683.479 289.034 677.785 292.386 672.282L295.944 666.44ZM296.993 671.294L295.12 674.368C293.154 677.597 294.919 681.412 299.777 684.37C304.634 687.329 308.834 687.147 310.8 683.919L312.673 680.844L296.993 671.294Z" fill="#0054F1"/>
<path d="M273.459 695.899C278.477 692.21 283.854 693.932 288.929 700.836C294.004 707.739 294.044 713.384 289.026 717.073C284.008 720.762 278.631 719.04 273.556 712.137C268.481 705.234 268.441 699.588 273.459 695.899ZM285.883 703.075C281.981 697.767 278.647 696.331 275.485 698.655C272.324 700.979 272.699 704.59 276.602 709.898C280.504 715.206 283.838 716.642 287 714.318C290.161 711.993 289.786 708.383 285.883 703.075Z" fill="#0054F1"/>
<path d="M254.254 716.343L256.168 715.603L263.67 732.502L260.078 733.892L254.254 716.343ZM255.4 710.226C255.721 711.054 255.744 711.714 255.471 712.205C255.198 712.697 254.771 713.055 254.189 713.28C253.629 713.497 253.083 713.515 252.55 713.335C251.995 713.164 251.557 712.664 251.237 711.836C250.925 711.03 250.913 710.366 251.199 709.843C251.464 709.329 251.876 708.964 252.435 708.748C253.017 708.523 253.579 708.511 254.12 708.713C254.662 708.916 255.088 709.42 255.4 710.226Z" fill="#0054F1"/>
</svg>
