<svg width="428" height="386" viewBox="0 0 428 386" fill="none" xmlns="http://www.w3.org/2000/svg">
<path d="M53.1125 347.117C53.1125 347.117 -18.6515 341.523 4.65721 357.66C22.4256 369.959 102.706 362.985 139.866 358.977C152.13 357.651 164.483 357.606 176.756 358.879C210.446 362.384 285.178 367.88 343.997 355.822L391.69 285.098L53.1125 347.126V347.117Z" fill="black"/>
<path d="M313.432 265.306C321.653 249.537 317.314 230.71 302.217 220.93C290.518 213.372 275.215 212.753 261.974 217.075C248.742 221.387 238.8 231.356 229.799 241.988C225.567 246.982 221.354 251.975 217.122 256.968C189.833 266.122 169.375 277.193 142.095 286.346C152.055 267.574 161.083 249.196 170.514 230.647C176.592 218.688 170.218 204.049 157.246 200.615C157.165 200.588 157.076 200.57 156.995 200.552C142.391 196.697 127.536 195.326 114.044 201.144C110.36 202.731 106.953 204.766 103.788 207.141C94.9489 213.731 87.8845 222.92 81.6898 232.171C68.3859 252.029 57.4307 273.473 49.1561 295.903C42.8269 313.044 39.25 335.196 53.1187 347.101C63.5807 356.102 78.9824 352.319 92.7794 352.319C167.574 352.319 201.533 348.455 253.377 348.455C269.612 348.455 268.491 322.098 282.844 314.514C282.844 314.514 307.229 300.708 302.746 334.775C301.419 344.896 297.582 360.316 305.66 366.546C306.108 366.887 306.556 367.21 307.031 367.497C313.477 371.549 321.967 371.047 329.659 370.141C356.007 367.03 382.086 361.616 407.492 353.978C425.35 348.608 443.576 341.687 456.378 328.132C469.18 314.568 474.89 292.649 464.939 276.879C454.101 259.685 426.103 249.429 405.843 247.824C371.776 245.135 351.695 246.722 316.893 257.004C318.578 251.401 318.327 245.475 316.597 239.926" fill="#2882FF"/>
<path d="M313.432 265.306C321.653 249.537 317.314 230.71 302.217 220.93C290.518 213.372 275.215 212.753 261.974 217.075C248.742 221.387 238.8 231.356 229.799 241.988C225.567 246.982 221.354 251.975 217.122 256.968C189.833 266.122 169.375 277.193 142.095 286.346C152.055 267.574 161.083 249.196 170.514 230.647C176.592 218.688 170.218 204.049 157.246 200.615C157.165 200.588 157.076 200.57 156.995 200.552C142.391 196.697 127.536 195.326 114.044 201.144C110.36 202.731 106.953 204.766 103.788 207.141C94.9489 213.731 87.8845 222.92 81.6898 232.171C68.3859 252.029 57.4307 273.473 49.1561 295.903C42.8269 313.044 39.25 335.196 53.1187 347.101C63.5807 356.102 78.9824 352.319 92.7794 352.319C167.574 352.319 201.533 348.455 253.377 348.455C269.612 348.455 268.491 322.098 282.844 314.514C282.844 314.514 307.229 300.708 302.746 334.775C301.419 344.896 297.582 360.316 305.66 366.546C306.108 366.887 306.556 367.21 307.031 367.497C313.477 371.549 321.967 371.047 329.659 370.141C356.007 367.03 382.086 361.616 407.492 353.978C425.35 348.608 443.576 341.687 456.378 328.132C469.18 314.568 474.89 292.649 464.939 276.879C454.101 259.685 426.103 249.429 405.843 247.824C371.776 245.135 351.695 246.722 316.893 257.004C318.578 251.401 318.327 245.475 316.597 239.926" stroke="black" stroke-width="0.833736" stroke-miterlimit="10"/>
<path d="M201.642 22.4648C194.891 21.2546 188.446 18.4037 183.022 14.2082C181.175 12.7827 179.337 11.0256 178.925 8.73059C178.261 5.09084 181.677 1.68419 185.335 1.1194C188.992 0.554612 192.641 2.07865 195.868 3.89852C199.096 5.7184 202.198 7.8879 205.784 8.79335C212.176 10.416 219.356 7.85203 225.318 10.667C229.083 12.4421 231.683 16.1894 232.723 20.2236C233.763 24.2488 233.387 28.534 232.365 32.5683C229.487 43.882 228.169 52.8827 216.766 55.4019C201.669 58.7368 185.075 54.4516 173.492 44.2047C171.439 42.3938 169.503 40.3498 168.427 37.8396C167.351 35.3294 167.27 32.2545 168.786 29.9774C170.614 27.2521 174.326 26.3018 177.562 26.8845C180.789 27.4583 183.649 29.2781 186.366 31.1249C189.073 32.9717 191.807 34.926 194.954 35.8494" fill="#FFB3C0"/>
<path d="M201.642 22.4648C194.891 21.2546 188.446 18.4037 183.022 14.2082C181.175 12.7827 179.337 11.0256 178.925 8.73059C178.261 5.09084 181.677 1.68419 185.335 1.1194C188.992 0.554612 192.641 2.07865 195.868 3.89852C199.096 5.7184 202.198 7.8879 205.784 8.79335C212.176 10.416 219.356 7.85203 225.318 10.667C229.083 12.4421 231.683 16.1894 232.723 20.2236C233.763 24.2488 233.387 28.534 232.365 32.5683C229.487 43.882 228.169 52.8827 216.766 55.4019C201.669 58.7368 185.075 54.4516 173.492 44.2047C171.439 42.3938 169.503 40.3498 168.427 37.8396C167.351 35.3294 167.27 32.2545 168.786 29.9774C170.614 27.2521 174.326 26.3018 177.562 26.8845C180.789 27.4583 183.649 29.2781 186.366 31.1249C189.073 32.9717 191.807 34.926 194.954 35.8494" stroke="black" stroke-width="0.851665" stroke-miterlimit="10"/>
<path d="M192.124 34.9861C186.18 33.7669 180.604 30.8175 176.247 26.595C174.678 25.071 173.226 23.3228 172.563 21.243C171.899 19.1631 172.159 16.6709 173.665 15.0841C175.055 13.6228 177.251 13.1656 179.259 13.4166C181.267 13.6676 183.123 14.5372 184.952 15.3978C190.447 17.9797 195.943 20.5616 201.438 23.1435" fill="#FFB3C0"/>
<path d="M192.124 34.9861C186.18 33.7669 180.604 30.8175 176.247 26.595C174.678 25.071 173.226 23.3228 172.563 21.243C171.899 19.1631 172.159 16.6709 173.665 15.0841C175.055 13.6228 177.251 13.1656 179.259 13.4166C181.267 13.6676 183.123 14.5372 184.952 15.3978C190.447 17.9797 195.943 20.5616 201.438 23.1435" stroke="black" stroke-width="0.851665" stroke-miterlimit="10"/>
<path d="M199.618 30.2097C198.874 29.2146 199.16 27.816 199.555 26.6416C200.702 23.2977 202.54 20.1959 204.916 17.5781" fill="#FFB3C0"/>
<path d="M199.618 30.2097C198.874 29.2146 199.16 27.816 199.555 26.6416C200.702 23.2977 202.54 20.1959 204.916 17.5781" stroke="black" stroke-width="0.851665" stroke-miterlimit="10"/>
<path d="M192.619 46.9636C188.325 42.508 185.528 36.6271 184.775 30.4772C184.533 28.5228 184.515 26.4609 185.331 24.6589C186.146 22.857 187.984 21.4137 189.948 21.584C191.875 21.7543 193.336 23.3232 194.609 24.7934C198.061 28.8007 201.521 32.7991 204.973 36.8064" fill="#FFB3C0"/>
<path d="M192.619 46.9636C188.325 42.508 185.528 36.6271 184.775 30.4772C184.533 28.5228 184.515 26.4609 185.331 24.6589C186.146 22.857 187.984 21.4137 189.948 21.584C191.875 21.7543 193.336 23.3232 194.609 24.7934C198.061 28.8007 201.521 32.7991 204.973 36.8064" stroke="black" stroke-width="0.851665" stroke-miterlimit="10"/>
<path d="M311.244 370.207C310.446 373.577 304.323 374.303 301.75 374.77C296.604 375.711 291.386 376.249 286.178 376.769C258.889 379.476 231.599 382.184 204.31 384.891C197.578 385.554 188.98 385.178 186.443 378.911C183.942 372.753 189.599 366.558 194.7 362.299C203.441 355.011 212.181 347.732 220.922 340.443C235.903 327.955 250.883 315.467 265.872 302.979C271.744 298.084 278.746 292.947 286.545 291.961C289.728 291.557 293.753 292.006 296.622 293.521C299.885 295.251 301.382 299.922 302.467 303.176C303.399 305.964 304.305 308.887 306.053 311.289C307.801 313.692 310.284 314.83 312.956 316.13C314.847 317.054 316.703 317.896 316.004 320.254C315.081 323.374 311.557 326.718 309.729 329.416C306.196 334.634 303.014 340.327 302.288 346.584C301.804 350.762 302.574 355.02 304.296 358.839C305.183 360.811 306.331 362.667 307.693 364.343C308.796 365.706 311.055 367.114 311.297 368.951C311.36 369.409 311.333 369.83 311.244 370.207Z" fill="white" stroke="black" stroke-width="0.986139" stroke-miterlimit="10"/>
<path d="M300.948 192.24C304.569 187.238 321.54 152.839 323.808 149.002C334.96 130.149 346.122 111.296 357.274 92.4428C366.983 76.0281 372.057 58.5196 359.973 41.7911C350.999 29.3747 310.935 30.4326 296.349 28.5768C283.645 26.9631 270.324 26.0846 259.306 19.5581C254.366 16.6356 249.032 7.37485 243.115 9.28437C238.606 10.7456 237.189 17.3259 235.459 21.0822C231.013 30.7284 226.476 40.3388 221.985 49.9671C219.475 55.355 213.881 65.7632 220.389 70.2367C223.715 72.5228 228.027 72.5766 232.061 72.5497C250.43 72.4331 268.8 72.3166 287.169 72.1911C275.389 92.4697 264.21 111.852 252.421 132.139C248.467 138.935 244.397 146.931 247.131 154.301C249.238 159.984 254.841 163.525 260.256 166.278C267.697 166.278 276.034 178.291 283.95 176.731C286.568 176.211 298.904 195.073 300.948 192.258V192.24Z" fill="#2882FF" stroke="black" stroke-width="0.833736" stroke-miterlimit="10"/>
<path d="M140.357 143.577C147.583 138.996 154.19 133.375 161.711 129.287C168.453 125.62 182.886 123.675 183.64 114.252C184.805 99.6934 160.519 106.05 152.764 101.908C148.856 99.8189 145.817 95.0137 141.872 93.4807C135.077 90.8451 124.651 96.3943 120.787 101.872C117.371 106.713 116.6 112.917 114.036 118.26C108.854 129.071 97.2807 134.925 87.4014 141.73C76.4642 149.26 65.8856 161.578 71.4438 174.81C72.8244 178.1 75.1195 180.933 77.8807 183.192C85.0616 189.064 94.0622 190.884 102.902 192.328C127.923 196.434 153.338 198.164 178.691 197.5C190.274 197.196 198.844 195.546 210.463 194.739C214.282 194.47 243.498 191.646 244.422 190.275C237.187 201.086 232.256 214.139 225.022 224.951C222.664 228.483 220.243 232.159 220.198 236.569C220.18 238.067 220.512 239.564 221.229 240.873C224 245.992 229.979 245.319 233.906 242.621C236.909 240.559 239.078 237.52 241.526 234.812C251.683 223.597 267.73 218.039 282.648 220.567C293.101 222.342 304.307 226.583 312.107 233.755C314.688 236.13 318.83 234.032 318.427 230.554C316.75 216.273 314.375 202.09 309.292 188.688C302.541 170.893 290.34 154.361 272.993 146.553C252.096 137.149 228.15 142.044 206.079 142.689C179.112 143.478 152.146 144.267 125.188 145.056" fill="#2882FF"/>
<path d="M140.357 143.577C147.583 138.996 154.19 133.375 161.711 129.287C168.453 125.62 182.886 123.675 183.64 114.252C184.805 99.6934 160.519 106.05 152.764 101.908C148.856 99.8189 145.817 95.0137 141.872 93.4807C135.077 90.8451 124.651 96.3943 120.787 101.872C117.371 106.713 116.6 112.917 114.036 118.26C108.854 129.071 97.2807 134.925 87.4014 141.73C76.4642 149.26 65.8856 161.578 71.4438 174.81C72.8244 178.1 75.1195 180.933 77.8807 183.192C85.0616 189.064 94.0622 190.884 102.902 192.328C127.923 196.434 153.338 198.164 178.691 197.5C190.274 197.196 198.844 195.546 210.463 194.739C214.282 194.47 243.498 191.646 244.422 190.275C237.187 201.086 232.256 214.139 225.022 224.951C222.664 228.483 220.243 232.159 220.198 236.569C220.181 238.067 220.512 239.564 221.229 240.873C224 245.992 229.979 245.319 233.906 242.621C236.909 240.559 239.078 237.52 241.526 234.812C251.683 223.597 267.73 218.039 282.648 220.567C293.101 222.342 304.307 226.583 312.107 233.755C314.688 236.13 318.83 234.032 318.427 230.554C316.75 216.273 314.375 202.09 309.292 188.688C302.541 170.893 290.34 154.361 272.993 146.553C252.096 137.149 228.15 142.044 206.079 142.689C179.112 143.478 152.146 144.267 125.188 145.056" stroke="black" stroke-width="0.833736" stroke-miterlimit="10"/>
<path d="M399.873 306.516C399.873 306.516 352.225 285.618 318.4 310.819L399.873 306.516Z" fill="#2882FF"/>
<path d="M399.873 306.516C399.873 306.516 352.225 285.618 318.4 310.819" stroke="black" stroke-width="0.833736" stroke-miterlimit="10"/>
<path d="M117.078 301.607C117.078 301.607 134.165 285.74 142.099 286.349L117.078 301.607Z" fill="#2882FF"/>
<path d="M117.078 301.607C117.078 301.607 134.165 285.74 142.099 286.349" stroke="black" stroke-width="1.13854" stroke-miterlimit="10"/>
<path d="M171.424 47.1448C169.048 46.7862 166.439 46.4814 164.037 46.7234C160.415 47.091 156.757 49.1529 154.104 51.4928C148.922 56.0738 144.78 61.8203 142.127 68.2033C135.788 83.4705 137.626 106.188 154.875 113.1C158.909 114.713 163.615 115.081 167.569 113.252C172.15 111.136 175.019 106.51 177.117 101.92C181.438 92.4534 186.619 83.2912 193.343 75.2408C195.405 72.3003 197.476 69.3688 199.323 66.2848C200.936 63.5864 202.425 60.4666 201.698 57.4096C200.954 54.2808 197.888 52.0306 194.697 51.672C191.505 51.3134 188.278 52.5775 185.741 54.5498C183.195 56.522 181.241 59.1398 179.439 61.8024" fill="#FFB3C0"/>
<path d="M171.424 47.1448C169.048 46.7862 166.439 46.4814 164.037 46.7234C160.415 47.091 156.757 49.1529 154.104 51.4928C148.922 56.0738 144.78 61.8203 142.127 68.2033C135.788 83.4705 137.626 106.188 154.875 113.1C158.909 114.713 163.615 115.081 167.569 113.252C172.15 111.136 175.019 106.51 177.117 101.92C181.438 92.4534 186.619 83.2912 193.343 75.2408C195.405 72.3003 197.476 69.3688 199.323 66.2848C200.936 63.5864 202.425 60.4666 201.698 57.4096C200.954 54.2808 197.888 52.0306 194.697 51.672C191.505 51.3134 188.278 52.5775 185.741 54.5498C183.195 56.522 181.241 59.1398 179.439 61.8024" stroke="black" stroke-width="0.986139" stroke-miterlimit="10"/>
<path d="M159.77 73.9981C159.77 73.9981 154.669 68.7805 148.385 68.4219L159.77 73.9981Z" fill="#FFB3C0"/>
<path d="M159.77 73.9981C159.77 73.9981 154.669 68.7805 148.385 68.4219" stroke="black" stroke-width="0.986139" stroke-miterlimit="10"/>
<path d="M178.306 63.6726C180.78 60.2839 181.282 57.971 185.863 54.1071C187.701 52.5562 188.768 49.9832 188.526 47.5896C188.212 44.4519 184.85 42.3093 181.704 42.3362C178.548 42.3631 175.652 44.0216 173.088 45.8504C164.697 51.839 158.09 60.3108 154.343 69.9122" fill="#FFB3C0"/>
<path d="M178.306 63.6726C180.78 60.2839 181.282 57.971 185.863 54.1071C187.701 52.5562 188.768 49.9832 188.526 47.5896C188.212 44.4519 184.85 42.3093 181.704 42.3362C178.548 42.3631 175.652 44.0216 173.088 45.8504C164.697 51.839 158.09 60.3108 154.343 69.9122" stroke="black" stroke-width="0.986139" stroke-miterlimit="10"/>
<path d="M179.605 85.3245C179.605 85.3245 185.387 65.0907 173.706 60.6352C162.025 56.1796 167.117 79.8111 157.39 89.6097" fill="#FFB3C0"/>
<path d="M179.605 85.3245C179.605 85.3245 185.387 65.0907 173.706 60.6352C162.025 56.1796 167.117 79.8111 157.39 89.6097" stroke="black" stroke-width="0.986139" stroke-miterlimit="10"/>
<path d="M216.341 93.3158C215.158 98.6051 211.903 103.15 209.088 107.776C198.832 124.657 193.938 144.756 195.318 164.47C195.713 170.172 196.618 175.9 195.892 181.566C195.157 187.232 192.458 193.023 187.438 195.74C179.89 199.828 170.297 195.713 162.059 198.125C160.194 198.671 158.508 199.505 157.02 200.545C142.416 196.69 127.562 195.318 114.069 201.137C110.385 202.723 106.978 204.759 103.813 207.134C105.32 205.386 106.566 203.934 107.202 203.073C112.859 195.372 118.525 187.653 124.191 179.953C135.334 164.793 146.477 149.624 157.621 134.474C168.065 120.264 182.651 105.454 190.513 89.7299C193.014 86.3232 195.596 82.8359 199.128 80.505C202.652 78.1831 207.385 77.1969 211.141 79.1244C215.964 81.6077 217.551 88.0086 216.359 93.2979L216.341 93.3158Z" fill="white" stroke="black" stroke-width="0.986139" stroke-miterlimit="10"/>
<path d="M255.6 141.311C269.215 141.311 280.253 130.273 280.253 116.657C280.253 103.042 269.215 92.0039 255.6 92.0039C241.984 92.0039 230.946 103.042 230.946 116.657C230.946 130.273 241.984 141.311 255.6 141.311Z" fill="#FFB3C0" stroke="black" stroke-width="1.12061" stroke-miterlimit="10"/>
<path d="M253.894 96.3583C237.354 105.771 251.725 118.071 251.725 118.071C251.725 118.071 256.243 124.096 249.968 127.762C246.713 129.663 248.058 133.276 250.111 136.324C251.689 138.664 253.688 140.672 254.325 141.281C254.459 141.407 254.531 141.479 254.531 141.479C254.531 141.479 251.868 141.317 248.246 140.322C239.3 137.848 224.489 130.237 229.268 107.17C229.68 105.153 230.263 103.342 230.962 101.71C232.585 97.9361 234.898 95.1211 237.515 93.0233C243.253 88.4064 250.479 87.2499 255.203 87.0348C259.444 86.8375 263.487 89.2312 265.02 93.1847C265.154 93.5164 265.226 93.7764 265.262 93.9736C265.603 95.9369 261.398 92.082 253.894 96.3583Z" fill="#280F05"/>
<path d="M323.926 307.398C323.926 307.398 293.777 325.57 296.924 350.654C300.07 375.738 323.478 370.933 323.478 370.933" fill="#2882FF"/>
<path d="M323.926 307.398C323.926 307.398 293.777 325.57 296.924 350.654C300.07 375.738 323.478 370.933 323.478 370.933" stroke="black" stroke-width="0.86063" stroke-miterlimit="10"/>
<path d="M244.435 190.282L255.309 169.277" stroke="black" stroke-width="1.2013" stroke-miterlimit="10"/>
<path d="M287.166 72.1889L305.203 71.418" stroke="black" stroke-width="1.2013" stroke-miterlimit="10"/>
<path d="M143.939 144.911L113.575 193.689L150.726 144.266L143.939 144.911Z" fill="black"/>
<path d="M273.607 297.583C273.607 297.583 214.94 346.415 134.678 352.251L207.535 350.566L273.616 297.574L273.607 297.583Z" fill="black"/>
<path d="M227.495 244.528C227.495 244.528 232.363 248.275 241.328 234.828C241.328 234.828 240.432 246.482 217.132 256.98L227.495 244.528Z" fill="black"/>
<path d="M344.97 298.644C338.3 298.536 331.658 299.531 325.301 301.575C322.648 302.427 319.456 303.485 315.727 304.767C308.878 307.116 303.588 305.009 301.374 300.957C301.374 300.957 302.997 313.185 312.948 316.152C312.948 316.152 331.326 295.641 357.593 298.868L344.97 298.662V298.644Z" fill="black"/>
<path d="M49.1478 295.898C49.1478 295.898 43.5448 348.388 82.3718 352.566C82.3718 352.566 51.5056 359.908 44.2171 333.668C44.2171 333.668 41.6531 313.048 49.1478 295.898Z" fill="black"/>
<path d="M131.062 100.355C131.062 100.355 134.647 120.078 156.163 121.871L131.062 100.355Z" fill="#2882FF"/>
<path d="M131.062 100.355C131.062 100.355 134.647 120.078 156.163 121.871" stroke="black" stroke-width="1.2013" stroke-miterlimit="10"/>
<path d="M143.397 328.342C143.397 328.342 135.078 297.628 112.818 321.493C90.5584 345.357 81.4769 368.756 92.0644 369.715C102.652 370.665 127.144 353.981 127.144 353.981C127.144 353.981 142.187 369.294 161.498 355.425L169.853 349.194C169.853 349.194 199.258 360.051 223.284 330.189C247.31 300.327 216.963 300.067 199.652 314.518C182.341 328.969 181.167 332.968 181.167 332.968C181.167 332.968 154.81 333.882 144.679 346.11L143.406 328.342H143.397Z" fill="white"/>
<path d="M301.71 159.711C302.051 150.558 294.861 141.889 285.977 140.006C282.732 139.289 279.182 139.253 275.757 139.316C274 139.244 271.086 139.603 270.387 138.24C270.163 136.725 272.09 135.174 273.148 133.713C275.138 131.355 276.824 128.486 278.061 125.725C279.657 122.103 280.984 119.755 284.408 117.146C289.213 113.237 295.211 110.27 301.621 110.87C312.128 111.623 319.577 120.391 322.805 129.912C326.471 140.616 322.446 150.235 318.376 156.439C316.736 158.976 314.781 161.235 313.499 164.014C312.065 166.865 312.208 170.057 311.626 172.764C311.357 173.679 310.783 174.073 309.752 173.84C304.239 172.02 301.54 165.897 301.728 159.882V159.702L301.71 159.711Z" fill="#280F05"/>
<path d="M229.678 113.806C226.272 114.022 222.802 101.372 231.265 100.547C233.309 100.35 235.03 101.659 236.339 100.798C237.451 100.063 240.714 96.4593 239.737 95.0966C235.38 91.7437 220.292 83.1734 210.897 85.6208C197.709 89.0543 191.497 102.188 210.843 115.599C216.688 119.652 233.21 127.541 238.634 131.736" fill="#280F05"/>
<path d="M237.512 93.0273C234.894 95.1251 232.581 97.9401 230.958 101.714C230.322 101.58 229.721 101.311 229.192 100.89C227.059 99.2041 226.951 95.7885 228.95 93.2604C230.949 90.7413 234.302 90.0689 236.436 91.7633C236.884 92.1129 237.243 92.5432 237.512 93.0273Z" fill="#2882FF" stroke="black" stroke-width="0.833736" stroke-miterlimit="10"/>
<path d="M255.222 108.875C255.222 108.875 253.429 122.322 269.566 123.219" stroke="black" stroke-width="1.2013" stroke-miterlimit="10"/>
<path d="M364.099 32.9961C376.8 41.2716 394.582 66.598 364.099 101.7" stroke="white" stroke-width="1.62739"/>
</svg>
